<?xml version="1.0" encoding="UTF-8" standalone="no"?>
<!DOCTYPE svg PUBLIC "-//W3C//DTD SVG 1.1//EN"
 "http://www.w3.org/Graphics/SVG/1.1/DTD/svg11.dtd">
<!-- Generated by graphviz version 2.43.0 (0)
 -->
<!-- Title: com.example.renderer.command.Command Pages: 1 -->
<svg width="408pt" height="137pt"
 viewBox="0.00 0.00 408.00 137.00" xmlns="http://www.w3.org/2000/svg" xmlns:xlink="http://www.w3.org/1999/xlink">
<g id="graph0" class="graph" transform="scale(1 1) rotate(0) translate(4 133)">
<title>com.example.renderer.command.Command</title>
<polygon fill="white" stroke="transparent" points="-4,4 -4,-133 404,-133 404,4 -4,4"/>
<!-- Node1 -->
<g id="node1" class="node">
<title>Node1</title>
<g id="a_node1"><a xlink:title=" ">
<polygon fill="#bfbfbf" stroke="black" points="0,-49.5 0,-79.5 182,-79.5 182,-49.5 0,-49.5"/>
<text text-anchor="start" x="8" y="-67.5" font-family="Helvetica,sans-Serif" font-size="10.00">com.example.renderer.command.</text>
<text text-anchor="middle" x="91" y="-56.5" font-family="Helvetica,sans-Serif" font-size="10.00">Command</text>
</a>
</g>
</g>
<!-- Node2 -->
<g id="node2" class="node">
<title>Node2</title>
<g id="a_node2"><a xlink:href="classcom_1_1example_1_1renderer_1_1command_1_1AddShapeCommand.html" target="_top" xlink:title=" ">
<polygon fill="white" stroke="black" points="218,-98.5 218,-128.5 400,-128.5 400,-98.5 218,-98.5"/>
<text text-anchor="start" x="226" y="-116.5" font-family="Helvetica,sans-Serif" font-size="10.00">com.example.renderer.command.</text>
<text text-anchor="middle" x="309" y="-105.5" font-family="Helvetica,sans-Serif" font-size="10.00">AddShapeCommand</text>
</a>
</g>
</g>
<!-- Node1&#45;&gt;Node2 -->
<g id="edge1" class="edge">
<title>Node1&#45;&gt;Node2</title>
<path fill="none" stroke="midnightblue" d="M168.08,-81.76C192.14,-87.22 218.54,-93.21 241.85,-98.49"/>
<polygon fill="midnightblue" stroke="midnightblue" points="168.8,-78.33 158.28,-79.53 167.25,-85.16 168.8,-78.33"/>
</g>
<!-- Node3 -->
<g id="node3" class="node">
<title>Node3</title>
<g id="a_node3"><a xlink:href="classcom_1_1example_1_1renderer_1_1command_1_1DeleteShapeCommand.html" target="_top" xlink:title=" ">
<polygon fill="white" stroke="black" points="218,-49.5 218,-79.5 400,-79.5 400,-49.5 218,-49.5"/>
<text text-anchor="start" x="226" y="-67.5" font-family="Helvetica,sans-Serif" font-size="10.00">com.example.renderer.command.</text>
<text text-anchor="middle" x="309" y="-56.5" font-family="Helvetica,sans-Serif" font-size="10.00">DeleteShapeCommand</text>
</a>
</g>
</g>
<!-- Node1&#45;&gt;Node3 -->
<g id="edge2" class="edge">
<title>Node1&#45;&gt;Node3</title>
<path fill="none" stroke="midnightblue" d="M192.06,-64.5C200.63,-64.5 209.27,-64.5 217.76,-64.5"/>
<polygon fill="midnightblue" stroke="midnightblue" points="192.04,-61 182.04,-64.5 192.04,-68 192.04,-61"/>
</g>
<!-- Node4 -->
<g id="node4" class="node">
<title>Node4</title>
<g id="a_node4"><a xlink:href="classcom_1_1example_1_1renderer_1_1command_1_1MoveShapeCommand.html" target="_top" xlink:title=" ">
<polygon fill="white" stroke="black" points="218,-0.5 218,-30.5 400,-30.5 400,-0.5 218,-0.5"/>
<text text-anchor="start" x="226" y="-18.5" font-family="Helvetica,sans-Serif" font-size="10.00">com.example.renderer.command.</text>
<text text-anchor="middle" x="309" y="-7.5" font-family="Helvetica,sans-Serif" font-size="10.00">MoveShapeCommand</text>
</a>
</g>
</g>
<!-- Node1&#45;&gt;Node4 -->
<g id="edge3" class="edge">
<title>Node1&#45;&gt;Node4</title>
<path fill="none" stroke="midnightblue" d="M168.08,-47.24C192.14,-41.78 218.54,-35.79 241.85,-30.51"/>
<polygon fill="midnightblue" stroke="midnightblue" points="167.25,-43.84 158.28,-49.47 168.8,-50.67 167.25,-43.84"/>
</g>
</g>
</svg>
