<?xml version="1.0" encoding="UTF-8" standalone="no"?>
<!DOCTYPE svg PUBLIC "-//W3C//DTD SVG 1.1//EN"
 "http://www.w3.org/Graphics/SVG/1.1/DTD/svg11.dtd">
<!-- Generated by graphviz version 2.43.0 (0)
 -->
<!-- Title: com.example.renderer.bridge.SwingRenderer.drawRectangle Pages: 1 -->
<svg width="415pt" height="110pt"
 viewBox="0.00 0.00 415.00 110.00" xmlns="http://www.w3.org/2000/svg" xmlns:xlink="http://www.w3.org/1999/xlink">
<g id="graph0" class="graph" transform="scale(1 1) rotate(0) translate(4 106)">
<title>com.example.renderer.bridge.SwingRenderer.drawRectangle</title>
<polygon fill="white" stroke="transparent" points="-4,4 -4,-106 411,-106 411,4 -4,4"/>
<!-- Node1 -->
<g id="node1" class="node">
<title>Node1</title>
<g id="a_node1"><a xlink:title="绘制矩形">
<polygon fill="#bfbfbf" stroke="black" points="242,-36 242,-66 407,-66 407,-36 242,-36"/>
<text text-anchor="start" x="250" y="-54" font-family="Helvetica,sans-Serif" font-size="10.00">com.example.renderer.bridge.</text>
<text text-anchor="middle" x="324.5" y="-43" font-family="Helvetica,sans-Serif" font-size="10.00">SwingRenderer.drawRectangle</text>
</a>
</g>
</g>
<!-- Node2 -->
<g id="node2" class="node">
<title>Node2</title>
<g id="a_node2"><a xlink:href="classcom_1_1example_1_1renderer_1_1bridge_1_1SwingRendererTest.html#a8b3b85bd60072b0380d835f8a2b7e251" target="_top" xlink:title=" ">
<polygon fill="white" stroke="black" points="0,-60.5 0,-101.5 206,-101.5 206,-60.5 0,-60.5"/>
<text text-anchor="start" x="8" y="-89.5" font-family="Helvetica,sans-Serif" font-size="10.00">com.example.renderer.bridge.</text>
<text text-anchor="start" x="8" y="-78.5" font-family="Helvetica,sans-Serif" font-size="10.00">SwingRendererTest.testDrawRectangle</text>
<text text-anchor="middle" x="103" y="-67.5" font-family="Helvetica,sans-Serif" font-size="10.00">_DelegatesToGraphicsDrawRect</text>
</a>
</g>
</g>
<!-- Node1&#45;&gt;Node2 -->
<g id="edge1" class="edge">
<title>Node1&#45;&gt;Node2</title>
<path fill="none" stroke="midnightblue" d="M231.63,-63.56C223.24,-64.7 214.72,-65.87 206.25,-67.02"/>
<polygon fill="midnightblue" stroke="midnightblue" points="232.33,-66.99 241.77,-62.17 231.38,-60.06 232.33,-66.99"/>
</g>
<!-- Node3 -->
<g id="node3" class="node">
<title>Node3</title>
<g id="a_node3"><a xlink:href="classcom_1_1example_1_1renderer_1_1bridge_1_1SwingRendererTest.html#ad149036818218f35c8e864f2b9c52ad6" target="_top" xlink:title=" ">
<polygon fill="white" stroke="black" points="0,-0.5 0,-41.5 206,-41.5 206,-0.5 0,-0.5"/>
<text text-anchor="start" x="8" y="-29.5" font-family="Helvetica,sans-Serif" font-size="10.00">com.example.renderer.bridge.</text>
<text text-anchor="start" x="8" y="-18.5" font-family="Helvetica,sans-Serif" font-size="10.00">SwingRendererTest.testDrawRectangle</text>
<text text-anchor="middle" x="103" y="-7.5" font-family="Helvetica,sans-Serif" font-size="10.00">_ExtremeCoordinates</text>
</a>
</g>
</g>
<!-- Node1&#45;&gt;Node3 -->
<g id="edge2" class="edge">
<title>Node1&#45;&gt;Node3</title>
<path fill="none" stroke="midnightblue" d="M231.63,-38.44C223.24,-37.3 214.72,-36.13 206.25,-34.98"/>
<polygon fill="midnightblue" stroke="midnightblue" points="231.38,-41.94 241.77,-39.83 232.33,-35.01 231.38,-41.94"/>
</g>
</g>
</svg>
