<?xml version="1.0" encoding="UTF-8" standalone="no"?>
<!DOCTYPE svg PUBLIC "-//W3C//DTD SVG 1.1//EN"
 "http://www.w3.org/Graphics/SVG/1.1/DTD/svg11.dtd">
<!-- Generated by graphviz version 2.43.0 (0)
 -->
<!-- Title: com.example.renderer.factory.Rectangle.getWidth Pages: 1 -->
<svg width="643pt" height="220pt"
 viewBox="0.00 0.00 643.00 219.50" xmlns="http://www.w3.org/2000/svg" xmlns:xlink="http://www.w3.org/1999/xlink">
<g id="graph0" class="graph" transform="scale(1 1) rotate(0) translate(4 215.5)">
<title>com.example.renderer.factory.Rectangle.getWidth</title>
<polygon fill="white" stroke="transparent" points="-4,4 -4,-215.5 639,-215.5 639,4 -4,4"/>
<!-- Node1 -->
<g id="node1" class="node">
<title>Node1</title>
<g id="a_node1"><a xlink:title="获取矩形宽度">
<polygon fill="#bfbfbf" stroke="black" points="469,-85.5 469,-115.5 635,-115.5 635,-85.5 469,-85.5"/>
<text text-anchor="start" x="477" y="-103.5" font-family="Helvetica,sans-Serif" font-size="10.00">com.example.renderer.factory.</text>
<text text-anchor="middle" x="552" y="-92.5" font-family="Helvetica,sans-Serif" font-size="10.00">Rectangle.getWidth</text>
</a>
</g>
</g>
<!-- Node2 -->
<g id="node2" class="node">
<title>Node2</title>
<g id="a_node2"><a xlink:href="classcom_1_1example_1_1renderer_1_1factory_1_1RectangleTest.html#ab7e8bcb7626443a7675aff0abf185f4d" target="_top" xlink:title=" ">
<polygon fill="white" stroke="black" points="259,-170 259,-211 425,-211 425,-170 259,-170"/>
<text text-anchor="start" x="267" y="-199" font-family="Helvetica,sans-Serif" font-size="10.00">com.example.renderer.factory.</text>
<text text-anchor="start" x="267" y="-188" font-family="Helvetica,sans-Serif" font-size="10.00">RectangleTest.testCreate</text>
<text text-anchor="middle" x="342" y="-177" font-family="Helvetica,sans-Serif" font-size="10.00">_MaxDimensions</text>
</a>
</g>
</g>
<!-- Node1&#45;&gt;Node2 -->
<g id="edge1" class="edge">
<title>Node1&#45;&gt;Node2</title>
<path fill="none" stroke="midnightblue" d="M514.84,-120.66C491.82,-133.04 461.14,-148.73 433,-160.5 425.25,-163.74 417.02,-166.88 408.8,-169.83"/>
<polygon fill="midnightblue" stroke="midnightblue" points="516.77,-123.59 523.89,-115.74 513.43,-117.44 516.77,-123.59"/>
</g>
<!-- Node3 -->
<g id="node3" class="node">
<title>Node3</title>
<g id="a_node3"><a xlink:href="classcom_1_1example_1_1renderer_1_1factory_1_1RectangleTest.html#a3b374e05484ee30b1b8514569dead0e9" target="_top" xlink:title=" ">
<polygon fill="white" stroke="black" points="259,-110 259,-151 425,-151 425,-110 259,-110"/>
<text text-anchor="start" x="267" y="-139" font-family="Helvetica,sans-Serif" font-size="10.00">com.example.renderer.factory.</text>
<text text-anchor="start" x="267" y="-128" font-family="Helvetica,sans-Serif" font-size="10.00">RectangleTest.testCreate</text>
<text text-anchor="middle" x="342" y="-117" font-family="Helvetica,sans-Serif" font-size="10.00">_MinDimensions</text>
</a>
</g>
</g>
<!-- Node1&#45;&gt;Node3 -->
<g id="edge2" class="edge">
<title>Node1&#45;&gt;Node3</title>
<path fill="none" stroke="midnightblue" d="M458.65,-113.82C447.54,-115.42 436.25,-117.05 425.29,-118.63"/>
<polygon fill="midnightblue" stroke="midnightblue" points="459.39,-117.25 468.79,-112.36 458.4,-110.32 459.39,-117.25"/>
</g>
<!-- Node4 -->
<g id="node4" class="node">
<title>Node4</title>
<g id="a_node4"><a xlink:href="classcom_1_1example_1_1renderer_1_1factory_1_1RectangleTest.html#a67ecac95355520f78b9afa19bf1f6ea0" target="_top" xlink:title=" ">
<polygon fill="white" stroke="black" points="251,-50 251,-91 433,-91 433,-50 251,-50"/>
<text text-anchor="start" x="259" y="-79" font-family="Helvetica,sans-Serif" font-size="10.00">com.example.renderer.factory.</text>
<text text-anchor="start" x="259" y="-68" font-family="Helvetica,sans-Serif" font-size="10.00">RectangleTest.testGetDimensions</text>
<text text-anchor="middle" x="342" y="-57" font-family="Helvetica,sans-Serif" font-size="10.00">_AfterCreation</text>
</a>
</g>
</g>
<!-- Node1&#45;&gt;Node4 -->
<g id="edge3" class="edge">
<title>Node1&#45;&gt;Node4</title>
<path fill="none" stroke="midnightblue" d="M458.85,-87.21C450.32,-85.98 441.69,-84.73 433.18,-83.51"/>
<polygon fill="midnightblue" stroke="midnightblue" points="458.4,-90.68 468.79,-88.64 459.39,-83.75 458.4,-90.68"/>
</g>
<!-- Node5 -->
<g id="node5" class="node">
<title>Node5</title>
<g id="a_node5"><a xlink:href="classcom_1_1example_1_1renderer_1_1visitor_1_1JSONExportVisitor.html#af42c3f77485d750dc6ec27edc31c1bf7" target="_top" xlink:title="将矩形对象转换为JSON格式输出">
<polygon fill="white" stroke="black" points="254,-0.5 254,-30.5 430,-30.5 430,-0.5 254,-0.5"/>
<text text-anchor="start" x="262" y="-18.5" font-family="Helvetica,sans-Serif" font-size="10.00">com.example.renderer.visitor.</text>
<text text-anchor="middle" x="342" y="-7.5" font-family="Helvetica,sans-Serif" font-size="10.00">JSONExportVisitor.visitRectangle</text>
</a>
</g>
</g>
<!-- Node1&#45;&gt;Node5 -->
<g id="edge4" class="edge">
<title>Node1&#45;&gt;Node5</title>
<path fill="none" stroke="midnightblue" d="M515.95,-80.34C492.91,-67.68 461.81,-51.7 433,-40.5 423.63,-36.86 413.52,-33.51 403.57,-30.54"/>
<polygon fill="midnightblue" stroke="midnightblue" points="514.54,-83.57 524.98,-85.36 517.94,-77.45 514.54,-83.57"/>
</g>
<!-- Node6 -->
<g id="node6" class="node">
<title>Node6</title>
<g id="a_node6"><a xlink:href="classcom_1_1example_1_1renderer_1_1visitor_1_1JSONExportVisitorTest.html#ae9fbae701c3e953b750637b740dbedfc" target="_top" xlink:title=" ">
<polygon fill="white" stroke="black" points="0,-0.5 0,-30.5 215,-30.5 215,-0.5 0,-0.5"/>
<text text-anchor="start" x="8" y="-18.5" font-family="Helvetica,sans-Serif" font-size="10.00">com.example.renderer.visitor.</text>
<text text-anchor="middle" x="107.5" y="-7.5" font-family="Helvetica,sans-Serif" font-size="10.00">JSONExportVisitorTest.testVisitRectangle</text>
</a>
</g>
</g>
<!-- Node5&#45;&gt;Node6 -->
<g id="edge5" class="edge">
<title>Node5&#45;&gt;Node6</title>
<path fill="none" stroke="midnightblue" d="M243.61,-15.5C234.18,-15.5 224.58,-15.5 215.07,-15.5"/>
<polygon fill="midnightblue" stroke="midnightblue" points="243.76,-19 253.76,-15.5 243.76,-12 243.76,-19"/>
</g>
</g>
</svg>
