<?xml version="1.0" encoding="UTF-8" standalone="no"?>
<!DOCTYPE svg PUBLIC "-//W3C//DTD SVG 1.1//EN"
 "http://www.w3.org/Graphics/SVG/1.1/DTD/svg11.dtd">
<!-- Generated by graphviz version 2.43.0 (0)
 -->
<!-- Title: com.example.renderer.factory.Triangle.getY3 Pages: 1 -->
<svg width="617pt" height="88pt"
 viewBox="0.00 0.00 617.00 88.00" xmlns="http://www.w3.org/2000/svg" xmlns:xlink="http://www.w3.org/1999/xlink">
<g id="graph0" class="graph" transform="scale(1 1) rotate(0) translate(4 84)">
<title>com.example.renderer.factory.Triangle.getY3</title>
<polygon fill="white" stroke="transparent" points="-4,4 -4,-84 613,-84 613,4 -4,4"/>
<!-- Node1 -->
<g id="node1" class="node">
<title>Node1</title>
<g id="a_node1"><a xlink:title=" ">
<polygon fill="#bfbfbf" stroke="black" points="443,-24.5 443,-54.5 609,-54.5 609,-24.5 443,-24.5"/>
<text text-anchor="start" x="451" y="-42.5" font-family="Helvetica,sans-Serif" font-size="10.00">com.example.renderer.factory.</text>
<text text-anchor="middle" x="526" y="-31.5" font-family="Helvetica,sans-Serif" font-size="10.00">Triangle.getY3</text>
</a>
</g>
</g>
<!-- Node2 -->
<g id="node2" class="node">
<title>Node2</title>
<g id="a_node2"><a xlink:href="classcom_1_1example_1_1renderer_1_1factory_1_1TriangleTest.html#a89427b111574a3a44ae82a6b10c61ad4" target="_top" xlink:title=" ">
<polygon fill="white" stroke="black" points="241,-49.5 241,-79.5 407,-79.5 407,-49.5 241,-49.5"/>
<text text-anchor="start" x="249" y="-67.5" font-family="Helvetica,sans-Serif" font-size="10.00">com.example.renderer.factory.</text>
<text text-anchor="middle" x="324" y="-56.5" font-family="Helvetica,sans-Serif" font-size="10.00">TriangleTest.testMove</text>
</a>
</g>
</g>
<!-- Node1&#45;&gt;Node2 -->
<g id="edge1" class="edge">
<title>Node1&#45;&gt;Node2</title>
<path fill="none" stroke="midnightblue" d="M432.81,-51.02C424.27,-52.09 415.66,-53.17 407.22,-54.22"/>
<polygon fill="midnightblue" stroke="midnightblue" points="433.3,-54.49 442.79,-49.78 432.43,-47.54 433.3,-54.49"/>
</g>
<!-- Node3 -->
<g id="node3" class="node">
<title>Node3</title>
<g id="a_node3"><a xlink:href="classcom_1_1example_1_1renderer_1_1visitor_1_1JSONExportVisitor.html#a09a6928b6de2c8c1fa4f6f059d50f89a" target="_top" xlink:title="将三角形对象转换为JSON格式输出">
<polygon fill="white" stroke="black" points="241.5,-0.5 241.5,-30.5 406.5,-30.5 406.5,-0.5 241.5,-0.5"/>
<text text-anchor="start" x="249.5" y="-18.5" font-family="Helvetica,sans-Serif" font-size="10.00">com.example.renderer.visitor.</text>
<text text-anchor="middle" x="324" y="-7.5" font-family="Helvetica,sans-Serif" font-size="10.00">JSONExportVisitor.visitTriangle</text>
</a>
</g>
</g>
<!-- Node1&#45;&gt;Node3 -->
<g id="edge2" class="edge">
<title>Node1&#45;&gt;Node3</title>
<path fill="none" stroke="midnightblue" d="M432.63,-28.42C423.93,-27.37 415.16,-26.32 406.57,-25.29"/>
<polygon fill="midnightblue" stroke="midnightblue" points="432.44,-31.92 442.79,-29.63 433.27,-24.97 432.44,-31.92"/>
</g>
<!-- Node4 -->
<g id="node4" class="node">
<title>Node4</title>
<g id="a_node4"><a xlink:href="classcom_1_1example_1_1renderer_1_1visitor_1_1JSONExportVisitorTest.html#a21f5e9936ca8fa236a6b0c40b35270df" target="_top" xlink:title=" ">
<polygon fill="white" stroke="black" points="0,-0.5 0,-30.5 205,-30.5 205,-0.5 0,-0.5"/>
<text text-anchor="start" x="8" y="-18.5" font-family="Helvetica,sans-Serif" font-size="10.00">com.example.renderer.visitor.</text>
<text text-anchor="middle" x="102.5" y="-7.5" font-family="Helvetica,sans-Serif" font-size="10.00">JSONExportVisitorTest.testVisitTriangle</text>
</a>
</g>
</g>
<!-- Node3&#45;&gt;Node4 -->
<g id="edge3" class="edge">
<title>Node3&#45;&gt;Node4</title>
<path fill="none" stroke="midnightblue" d="M231.19,-15.5C222.54,-15.5 213.74,-15.5 205,-15.5"/>
<polygon fill="midnightblue" stroke="midnightblue" points="231.27,-19 241.27,-15.5 231.27,-12 231.27,-19"/>
</g>
</g>
</svg>
