<?xml version="1.0" encoding="UTF-8" standalone="no"?>
<!DOCTYPE svg PUBLIC "-//W3C//DTD SVG 1.1//EN"
 "http://www.w3.org/Graphics/SVG/1.1/DTD/svg11.dtd">
<!-- Generated by graphviz version 2.43.0 (0)
 -->
<!-- Title: com.example.renderer.factory.Rectangle.move Pages: 1 -->
<svg width="434pt" height="368pt"
 viewBox="0.00 0.00 434.00 367.50" xmlns="http://www.w3.org/2000/svg" xmlns:xlink="http://www.w3.org/1999/xlink">
<g id="graph0" class="graph" transform="scale(1 1) rotate(0) translate(4 363.5)">
<title>com.example.renderer.factory.Rectangle.move</title>
<polygon fill="white" stroke="transparent" points="-4,4 -4,-363.5 430,-363.5 430,4 -4,4"/>
<!-- Node1 -->
<g id="node1" class="node">
<title>Node1</title>
<g id="a_node1"><a xlink:title="移动图形的位置。 根据给定的偏移量调整图形的坐标位置，正数表示向右/下移动，负数表示向左/上移动。">
<polygon fill="#bfbfbf" stroke="black" points="260,-170 260,-200 426,-200 426,-170 260,-170"/>
<text text-anchor="start" x="268" y="-188" font-family="Helvetica,sans-Serif" font-size="10.00">com.example.renderer.factory.</text>
<text text-anchor="middle" x="343" y="-177" font-family="Helvetica,sans-Serif" font-size="10.00">Rectangle.move</text>
</a>
</g>
</g>
<!-- Node2 -->
<g id="node2" class="node">
<title>Node2</title>
<g id="a_node2"><a xlink:href="classcom_1_1example_1_1renderer_1_1factory_1_1RectangleTest.html#a101613f477d964b6d2236367011588be" target="_top" xlink:title=" ">
<polygon fill="white" stroke="black" points="29,-329 29,-359 195,-359 195,-329 29,-329"/>
<text text-anchor="start" x="37" y="-347" font-family="Helvetica,sans-Serif" font-size="10.00">com.example.renderer.factory.</text>
<text text-anchor="middle" x="112" y="-336" font-family="Helvetica,sans-Serif" font-size="10.00">RectangleTest.testMove</text>
</a>
</g>
</g>
<!-- Node1&#45;&gt;Node2 -->
<g id="edge1" class="edge">
<title>Node1&#45;&gt;Node2</title>
<path fill="none" stroke="midnightblue" d="M327.72,-208.97C308.24,-239.47 270.4,-291.49 224,-319 215.16,-324.24 205.34,-328.38 195.29,-331.65"/>
<polygon fill="midnightblue" stroke="midnightblue" points="330.84,-210.58 333.16,-200.25 324.9,-206.88 330.84,-210.58"/>
</g>
<!-- Node3 -->
<g id="node3" class="node">
<title>Node3</title>
<g id="a_node3"><a xlink:href="classcom_1_1example_1_1renderer_1_1factory_1_1RectangleTest.html#ab33ead0d042b18a1f2adbf004b06d5bf" target="_top" xlink:title=" ">
<polygon fill="white" stroke="black" points="0,-268.5 0,-309.5 224,-309.5 224,-268.5 0,-268.5"/>
<text text-anchor="start" x="8" y="-297.5" font-family="Helvetica,sans-Serif" font-size="10.00">com.example.renderer.factory.</text>
<text text-anchor="start" x="8" y="-286.5" font-family="Helvetica,sans-Serif" font-size="10.00">RectangleTest.testMove_ExtremeNegative</text>
<text text-anchor="middle" x="112" y="-275.5" font-family="Helvetica,sans-Serif" font-size="10.00">Values</text>
</a>
</g>
</g>
<!-- Node1&#45;&gt;Node3 -->
<g id="edge2" class="edge">
<title>Node1&#45;&gt;Node3</title>
<path fill="none" stroke="midnightblue" d="M313.85,-206.01C290.73,-222.42 256.61,-244.75 224,-259 216.04,-262.48 207.59,-265.64 199.03,-268.49"/>
<polygon fill="midnightblue" stroke="midnightblue" points="316.07,-208.73 322.14,-200.05 311.98,-203.05 316.07,-208.73"/>
</g>
<!-- Node4 -->
<g id="node4" class="node">
<title>Node4</title>
<g id="a_node4"><a xlink:href="classcom_1_1example_1_1renderer_1_1factory_1_1RectangleTest.html#a04d4b9064734d35b2eda46e3a0aee615" target="_top" xlink:title=" ">
<polygon fill="white" stroke="black" points="6,-219 6,-249 218,-249 218,-219 6,-219"/>
<text text-anchor="start" x="14" y="-237" font-family="Helvetica,sans-Serif" font-size="10.00">com.example.renderer.factory.</text>
<text text-anchor="middle" x="112" y="-226" font-family="Helvetica,sans-Serif" font-size="10.00">RectangleTest.testMove_ExtremeValues</text>
</a>
</g>
</g>
<!-- Node1&#45;&gt;Node4 -->
<g id="edge3" class="edge">
<title>Node1&#45;&gt;Node4</title>
<path fill="none" stroke="midnightblue" d="M261.68,-202.19C236.08,-207.66 207.96,-213.68 183.13,-218.99"/>
<polygon fill="midnightblue" stroke="midnightblue" points="262.69,-205.55 271.74,-200.03 261.23,-198.7 262.69,-205.55"/>
</g>
<!-- Node5 -->
<g id="node5" class="node">
<title>Node5</title>
<g id="a_node5"><a xlink:href="classcom_1_1example_1_1renderer_1_1factory_1_1RectangleTest.html#a33f1cf3c9fbecfd935496e685d256b38" target="_top" xlink:title=" ">
<polygon fill="white" stroke="black" points="21,-170 21,-200 203,-200 203,-170 21,-170"/>
<text text-anchor="start" x="29" y="-188" font-family="Helvetica,sans-Serif" font-size="10.00">com.example.renderer.factory.</text>
<text text-anchor="middle" x="112" y="-177" font-family="Helvetica,sans-Serif" font-size="10.00">RectangleTest.testMove_Overflow</text>
</a>
</g>
</g>
<!-- Node1&#45;&gt;Node5 -->
<g id="edge4" class="edge">
<title>Node1&#45;&gt;Node5</title>
<path fill="none" stroke="midnightblue" d="M249.54,-185C234.31,-185 218.55,-185 203.38,-185"/>
<polygon fill="midnightblue" stroke="midnightblue" points="249.97,-188.5 259.97,-185 249.97,-181.5 249.97,-188.5"/>
</g>
<!-- Node6 -->
<g id="node6" class="node">
<title>Node6</title>
<g id="a_node6"><a xlink:href="classcom_1_1example_1_1renderer_1_1factory_1_1RectangleTest.html#a28f53549a54d7ccddf2428dd5072b9e2" target="_top" xlink:title=" ">
<polygon fill="white" stroke="black" points="5,-121 5,-151 219,-151 219,-121 5,-121"/>
<text text-anchor="start" x="13" y="-139" font-family="Helvetica,sans-Serif" font-size="10.00">com.example.renderer.factory.</text>
<text text-anchor="middle" x="112" y="-128" font-family="Helvetica,sans-Serif" font-size="10.00">RectangleTest.testMove_ZeroMovement</text>
</a>
</g>
</g>
<!-- Node1&#45;&gt;Node6 -->
<g id="edge5" class="edge">
<title>Node1&#45;&gt;Node6</title>
<path fill="none" stroke="midnightblue" d="M261.68,-167.81C236.08,-162.34 207.96,-156.32 183.13,-151.01"/>
<polygon fill="midnightblue" stroke="midnightblue" points="261.23,-171.3 271.74,-169.97 262.69,-164.45 261.23,-171.3"/>
</g>
<!-- Node7 -->
<g id="node7" class="node">
<title>Node7</title>
<g id="a_node7"><a xlink:href="classcom_1_1example_1_1renderer_1_1factory_1_1RectangleTest.html#accaa0c110694cb3f70d3725dcc28bd1a" target="_top" xlink:title=" ">
<polygon fill="white" stroke="black" points="29,-60.5 29,-101.5 195,-101.5 195,-60.5 29,-60.5"/>
<text text-anchor="start" x="37" y="-89.5" font-family="Helvetica,sans-Serif" font-size="10.00">com.example.renderer.factory.</text>
<text text-anchor="start" x="37" y="-78.5" font-family="Helvetica,sans-Serif" font-size="10.00">RectangleTest.testRender</text>
<text text-anchor="middle" x="112" y="-67.5" font-family="Helvetica,sans-Serif" font-size="10.00">_AfterMoving</text>
</a>
</g>
</g>
<!-- Node1&#45;&gt;Node7 -->
<g id="edge6" class="edge">
<title>Node1&#45;&gt;Node7</title>
<path fill="none" stroke="midnightblue" d="M313.35,-164.07C290.2,-147.97 256.28,-126.15 224,-112 214.84,-107.98 205.02,-104.35 195.15,-101.11"/>
<polygon fill="midnightblue" stroke="midnightblue" points="311.48,-167.03 321.67,-169.94 315.51,-161.31 311.48,-167.03"/>
</g>
<!-- Node8 -->
<g id="node8" class="node">
<title>Node8</title>
<g id="a_node8"><a xlink:href="classcom_1_1example_1_1renderer_1_1factory_1_1RectangleTest.html#aef5b4a1255c09f622939851f91bc843c" target="_top" xlink:title=" ">
<polygon fill="white" stroke="black" points="29,-0.5 29,-41.5 195,-41.5 195,-0.5 29,-0.5"/>
<text text-anchor="start" x="37" y="-29.5" font-family="Helvetica,sans-Serif" font-size="10.00">com.example.renderer.factory.</text>
<text text-anchor="start" x="37" y="-18.5" font-family="Helvetica,sans-Serif" font-size="10.00">RectangleTest.testRender</text>
<text text-anchor="middle" x="112" y="-7.5" font-family="Helvetica,sans-Serif" font-size="10.00">_AfterMultipleMoves</text>
</a>
</g>
</g>
<!-- Node1&#45;&gt;Node8 -->
<g id="edge7" class="edge">
<title>Node1&#45;&gt;Node8</title>
<path fill="none" stroke="midnightblue" d="M327.53,-161.33C307.85,-131.15 269.8,-79.49 224,-51 215.1,-45.47 205.18,-40.94 195.04,-37.24"/>
<polygon fill="midnightblue" stroke="midnightblue" points="324.71,-163.41 333.04,-169.96 330.61,-159.64 324.71,-163.41"/>
</g>
</g>
</svg>
