<?xml version="1.0" encoding="UTF-8" standalone="no"?>
<!DOCTYPE svg PUBLIC "-//W3C//DTD SVG 1.1//EN"
 "http://www.w3.org/Graphics/SVG/1.1/DTD/svg11.dtd">
<!-- Generated by graphviz version 2.43.0 (0)
 -->
<!-- Title: com.example.renderer.singleton.PersistenceManager.getInstance Pages: 1 -->
<svg width="425pt" height="100pt"
 viewBox="0.00 0.00 425.00 99.50" xmlns="http://www.w3.org/2000/svg" xmlns:xlink="http://www.w3.org/1999/xlink">
<g id="graph0" class="graph" transform="scale(1 1) rotate(0) translate(4 95.5)">
<title>com.example.renderer.singleton.PersistenceManager.getInstance</title>
<polygon fill="white" stroke="transparent" points="-4,4 -4,-95.5 421,-95.5 421,4 -4,4"/>
<!-- Node1 -->
<g id="node1" class="node">
<title>Node1</title>
<g id="a_node1"><a xlink:title=" ">
<polygon fill="#bfbfbf" stroke="black" points="239,-27.5 239,-57.5 417,-57.5 417,-27.5 239,-27.5"/>
<text text-anchor="start" x="247" y="-45.5" font-family="Helvetica,sans-Serif" font-size="10.00">com.example.renderer.singleton.</text>
<text text-anchor="middle" x="328" y="-34.5" font-family="Helvetica,sans-Serif" font-size="10.00">PersistenceManager.getInstance</text>
</a>
</g>
</g>
<!-- Node2 -->
<g id="node2" class="node">
<title>Node2</title>
<g id="a_node2"><a xlink:href="classcom_1_1example_1_1renderer_1_1singleton_1_1PersistenceManagerTest.html#af7dbae650324dd84eb8b363f812d5bbc" target="_top" xlink:title=" ">
<polygon fill="white" stroke="black" points="1.5,-50 1.5,-91 201.5,-91 201.5,-50 1.5,-50"/>
<text text-anchor="start" x="9.5" y="-79" font-family="Helvetica,sans-Serif" font-size="10.00">com.example.renderer.singleton.</text>
<text text-anchor="start" x="9.5" y="-68" font-family="Helvetica,sans-Serif" font-size="10.00">PersistenceManagerTest.testSaveAnd</text>
<text text-anchor="middle" x="101.5" y="-57" font-family="Helvetica,sans-Serif" font-size="10.00">LoadShapes</text>
</a>
</g>
</g>
<!-- Node1&#45;&gt;Node2 -->
<g id="edge1" class="edge">
<title>Node1&#45;&gt;Node2</title>
<path fill="none" stroke="midnightblue" d="M228.86,-54.74C219.9,-55.86 210.82,-56.99 201.85,-58.11"/>
<polygon fill="midnightblue" stroke="midnightblue" points="229.43,-58.2 238.92,-53.49 228.56,-51.25 229.43,-58.2"/>
</g>
<!-- Node3 -->
<g id="node3" class="node">
<title>Node3</title>
<g id="a_node3"><a xlink:href="classcom_1_1example_1_1renderer_1_1singleton_1_1PersistenceManagerTest.html#a4d3b7bb2335f83af99af6cb002ab4c22" target="_top" xlink:title=" ">
<polygon fill="white" stroke="black" points="0,-0.5 0,-30.5 203,-30.5 203,-0.5 0,-0.5"/>
<text text-anchor="start" x="8" y="-18.5" font-family="Helvetica,sans-Serif" font-size="10.00">com.example.renderer.singleton.</text>
<text text-anchor="middle" x="101.5" y="-7.5" font-family="Helvetica,sans-Serif" font-size="10.00">PersistenceManagerTest.testSingleton</text>
</a>
</g>
</g>
<!-- Node1&#45;&gt;Node3 -->
<g id="edge2" class="edge">
<title>Node1&#45;&gt;Node3</title>
<path fill="none" stroke="midnightblue" d="M228.72,-30.68C220.3,-29.67 211.78,-28.64 203.35,-27.63"/>
<polygon fill="midnightblue" stroke="midnightblue" points="228.57,-34.19 238.92,-31.91 229.41,-27.24 228.57,-34.19"/>
</g>
</g>
</svg>
