<?xml version="1.0" encoding="UTF-8" standalone="no"?>
<!DOCTYPE svg PUBLIC "-//W3C//DTD SVG 1.1//EN"
 "http://www.w3.org/Graphics/SVG/1.1/DTD/svg11.dtd">
<!-- Generated by graphviz version 2.43.0 (0)
 -->
<!-- Title: com.example.renderer.command.AddShapeCommand.execute Pages: 1 -->
<svg width="484pt" height="88pt"
 viewBox="0.00 0.00 484.00 88.00" xmlns="http://www.w3.org/2000/svg" xmlns:xlink="http://www.w3.org/1999/xlink">
<g id="graph0" class="graph" transform="scale(1 1) rotate(0) translate(4 84)">
<title>com.example.renderer.command.AddShapeCommand.execute</title>
<polygon fill="white" stroke="transparent" points="-4,4 -4,-84 480,-84 480,4 -4,4"/>
<!-- Node1 -->
<g id="node1" class="node">
<title>Node1</title>
<g id="a_node1"><a xlink:title=" ">
<polygon fill="#bfbfbf" stroke="black" points="294,-24.5 294,-54.5 476,-54.5 476,-24.5 294,-24.5"/>
<text text-anchor="start" x="302" y="-42.5" font-family="Helvetica,sans-Serif" font-size="10.00">com.example.renderer.command.</text>
<text text-anchor="middle" x="385" y="-31.5" font-family="Helvetica,sans-Serif" font-size="10.00">AddShapeCommand.execute</text>
</a>
</g>
</g>
<!-- Node2 -->
<g id="node2" class="node">
<title>Node2</title>
<g id="a_node2"><a xlink:href="classcom_1_1example_1_1renderer_1_1command_1_1AddShapeCommandTest.html#a7db619a6c5f453ccdb952f556a211b79" target="_top" xlink:title=" ">
<polygon fill="white" stroke="black" points="4.5,-49.5 4.5,-79.5 253.5,-79.5 253.5,-49.5 4.5,-49.5"/>
<text text-anchor="start" x="12.5" y="-67.5" font-family="Helvetica,sans-Serif" font-size="10.00">com.example.renderer.command.</text>
<text text-anchor="middle" x="129" y="-56.5" font-family="Helvetica,sans-Serif" font-size="10.00">AddShapeCommandTest.testExecuteAddsShape</text>
</a>
</g>
</g>
<!-- Node1&#45;&gt;Node2 -->
<g id="edge1" class="edge">
<title>Node1&#45;&gt;Node2</title>
<path fill="none" stroke="midnightblue" d="M283.6,-49.38C273.78,-50.35 263.75,-51.34 253.74,-52.32"/>
<polygon fill="midnightblue" stroke="midnightblue" points="284.12,-52.85 293.73,-48.38 283.44,-45.88 284.12,-52.85"/>
</g>
<!-- Node3 -->
<g id="node3" class="node">
<title>Node3</title>
<g id="a_node3"><a xlink:href="classcom_1_1example_1_1renderer_1_1command_1_1AddShapeCommandTest.html#a1f947250ab97e91ff98423af53e4927a" target="_top" xlink:title=" ">
<polygon fill="white" stroke="black" points="0,-0.5 0,-30.5 258,-30.5 258,-0.5 0,-0.5"/>
<text text-anchor="start" x="8" y="-18.5" font-family="Helvetica,sans-Serif" font-size="10.00">com.example.renderer.command.</text>
<text text-anchor="middle" x="129" y="-7.5" font-family="Helvetica,sans-Serif" font-size="10.00">AddShapeCommandTest.testUndoRemovesShape</text>
</a>
</g>
</g>
<!-- Node1&#45;&gt;Node3 -->
<g id="edge2" class="edge">
<title>Node1&#45;&gt;Node3</title>
<path fill="none" stroke="midnightblue" d="M283.62,-30.02C275.25,-29.22 266.72,-28.42 258.18,-27.61"/>
<polygon fill="midnightblue" stroke="midnightblue" points="283.45,-33.51 293.73,-30.97 284.11,-26.55 283.45,-33.51"/>
</g>
</g>
</svg>
