<?xml version="1.0" encoding="UTF-8" standalone="no"?>
<!DOCTYPE svg PUBLIC "-//W3C//DTD SVG 1.1//EN"
 "http://www.w3.org/Graphics/SVG/1.1/DTD/svg11.dtd">
<!-- Generated by graphviz version 2.43.0 (0)
 -->
<!-- Title: com.example.renderer.bridge.SwingRenderer.drawTriangle Pages: 1 -->
<svg width="403pt" height="50pt"
 viewBox="0.00 0.00 403.00 50.00" xmlns="http://www.w3.org/2000/svg" xmlns:xlink="http://www.w3.org/1999/xlink">
<g id="graph0" class="graph" transform="scale(1 1) rotate(0) translate(4 46)">
<title>com.example.renderer.bridge.SwingRenderer.drawTriangle</title>
<polygon fill="white" stroke="transparent" points="-4,4 -4,-46 399,-46 399,4 -4,4"/>
<!-- Node1 -->
<g id="node1" class="node">
<title>Node1</title>
<g id="a_node1"><a xlink:title=" ">
<polygon fill="#bfbfbf" stroke="black" points="231,-6 231,-36 395,-36 395,-6 231,-6"/>
<text text-anchor="start" x="239" y="-24" font-family="Helvetica,sans-Serif" font-size="10.00">com.example.renderer.bridge.</text>
<text text-anchor="middle" x="313" y="-13" font-family="Helvetica,sans-Serif" font-size="10.00">SwingRenderer.drawTriangle</text>
</a>
</g>
</g>
<!-- Node2 -->
<g id="node2" class="node">
<title>Node2</title>
<g id="a_node2"><a xlink:href="classcom_1_1example_1_1renderertest_1_1bridge_1_1SwingRendererTest.html#ad3689d4bb399c0d0dae3230cd5c2a5e3" target="_top" xlink:title=" ">
<polygon fill="white" stroke="black" points="0,-0.5 0,-41.5 195,-41.5 195,-0.5 0,-0.5"/>
<text text-anchor="start" x="8" y="-29.5" font-family="Helvetica,sans-Serif" font-size="10.00">com.example.renderertest.bridge.</text>
<text text-anchor="start" x="8" y="-18.5" font-family="Helvetica,sans-Serif" font-size="10.00">SwingRendererTest.testDrawTriangle</text>
<text text-anchor="middle" x="97.5" y="-7.5" font-family="Helvetica,sans-Serif" font-size="10.00">_DelegatesToGraphicsDrawPolygon</text>
</a>
</g>
</g>
<!-- Node1&#45;&gt;Node2 -->
<g id="edge1" class="edge">
<title>Node1&#45;&gt;Node2</title>
<path fill="none" stroke="midnightblue" d="M220.76,-21C212.31,-21 203.73,-21 195.24,-21"/>
<polygon fill="midnightblue" stroke="midnightblue" points="220.98,-24.5 230.98,-21 220.98,-17.5 220.98,-24.5"/>
</g>
</g>
</svg>
