<?xml version="1.0" encoding="UTF-8" standalone="no"?>
<!DOCTYPE svg PUBLIC "-//W3C//DTD SVG 1.1//EN"
 "http://www.w3.org/Graphics/SVG/1.1/DTD/svg11.dtd">
<!-- Generated by graphviz version 2.43.0 (0)
 -->
<!-- Title: com.example.renderer.proxy.RemoteRendererProxy.drawRectangle Pages: 1 -->
<svg width="441pt" height="110pt"
 viewBox="0.00 0.00 441.00 110.00" xmlns="http://www.w3.org/2000/svg" xmlns:xlink="http://www.w3.org/1999/xlink">
<g id="graph0" class="graph" transform="scale(1 1) rotate(0) translate(4 106)">
<title>com.example.renderer.proxy.RemoteRendererProxy.drawRectangle</title>
<polygon fill="white" stroke="transparent" points="-4,4 -4,-106 437,-106 437,4 -4,4"/>
<!-- Node1 -->
<g id="node1" class="node">
<title>Node1</title>
<g id="a_node1"><a xlink:title="绘制矩形">
<polygon fill="#bfbfbf" stroke="black" points="232,-36 232,-66 433,-66 433,-36 232,-36"/>
<text text-anchor="start" x="240" y="-54" font-family="Helvetica,sans-Serif" font-size="10.00">com.example.renderer.proxy.</text>
<text text-anchor="middle" x="332.5" y="-43" font-family="Helvetica,sans-Serif" font-size="10.00">RemoteRendererProxy.drawRectangle</text>
</a>
</g>
</g>
<!-- Node2 -->
<g id="node2" class="node">
<title>Node2</title>
<g id="a_node2"><a xlink:href="classcom_1_1example_1_1renderer_1_1proxy_1_1RemoteRendererProxyTest.html#a2f0b86f8169ea20d532ab8cffb0c7dc3" target="_top" xlink:title=" ">
<polygon fill="white" stroke="black" points="0,-60.5 0,-101.5 196,-101.5 196,-60.5 0,-60.5"/>
<text text-anchor="start" x="8" y="-89.5" font-family="Helvetica,sans-Serif" font-size="10.00">com.example.renderer.proxy.</text>
<text text-anchor="start" x="8" y="-78.5" font-family="Helvetica,sans-Serif" font-size="10.00">RemoteRendererProxyTest.testProxy</text>
<text text-anchor="middle" x="98" y="-67.5" font-family="Helvetica,sans-Serif" font-size="10.00">_ExtremeCoordinates</text>
</a>
</g>
</g>
<!-- Node1&#45;&gt;Node2 -->
<g id="edge1" class="edge">
<title>Node1&#45;&gt;Node2</title>
<path fill="none" stroke="midnightblue" d="M221.86,-65.15C213.29,-66.25 204.67,-67.37 196.19,-68.46"/>
<polygon fill="midnightblue" stroke="midnightblue" points="222.42,-68.6 231.89,-63.85 221.52,-61.66 222.42,-68.6"/>
</g>
<!-- Node3 -->
<g id="node3" class="node">
<title>Node3</title>
<g id="a_node3"><a xlink:href="classcom_1_1example_1_1renderer_1_1proxy_1_1RemoteRendererProxyTest.html#a785672431f7951f8d26c27fece370ad8" target="_top" xlink:title="测试代理模式是否正确转发所有渲染方法调用到真实渲染器。">
<polygon fill="white" stroke="black" points="0,-0.5 0,-41.5 196,-41.5 196,-0.5 0,-0.5"/>
<text text-anchor="start" x="8" y="-29.5" font-family="Helvetica,sans-Serif" font-size="10.00">com.example.renderer.proxy.</text>
<text text-anchor="start" x="8" y="-18.5" font-family="Helvetica,sans-Serif" font-size="10.00">RemoteRendererProxyTest.testProxy</text>
<text text-anchor="middle" x="98" y="-7.5" font-family="Helvetica,sans-Serif" font-size="10.00">CallsRealRenderer</text>
</a>
</g>
</g>
<!-- Node1&#45;&gt;Node3 -->
<g id="edge2" class="edge">
<title>Node1&#45;&gt;Node3</title>
<path fill="none" stroke="midnightblue" d="M221.86,-36.85C213.29,-35.75 204.67,-34.63 196.19,-33.54"/>
<polygon fill="midnightblue" stroke="midnightblue" points="221.52,-40.34 231.89,-38.15 222.42,-33.4 221.52,-40.34"/>
</g>
</g>
</svg>
