<?xml version="1.0" encoding="UTF-8" standalone="no"?>
<!DOCTYPE svg PUBLIC "-//W3C//DTD SVG 1.1//EN"
 "http://www.w3.org/Graphics/SVG/1.1/DTD/svg11.dtd">
<!-- Generated by graphviz version 2.43.0 (0)
 -->
<!-- Title: com.example.renderer.factory.RectangleTest.testMove_ExtremeValues Pages: 1 -->
<svg width="422pt" height="137pt"
 viewBox="0.00 0.00 422.00 137.00" xmlns="http://www.w3.org/2000/svg" xmlns:xlink="http://www.w3.org/1999/xlink">
<g id="graph0" class="graph" transform="scale(1 1) rotate(0) translate(4 133)">
<title>com.example.renderer.factory.RectangleTest.testMove_ExtremeValues</title>
<polygon fill="white" stroke="transparent" points="-4,4 -4,-133 418,-133 418,4 -4,4"/>
<!-- Node1 -->
<g id="node1" class="node">
<title>Node1</title>
<g id="a_node1"><a xlink:title=" ">
<polygon fill="#bfbfbf" stroke="black" points="0,-49.5 0,-79.5 212,-79.5 212,-49.5 0,-49.5"/>
<text text-anchor="start" x="8" y="-67.5" font-family="Helvetica,sans-Serif" font-size="10.00">com.example.renderer.factory.</text>
<text text-anchor="middle" x="106" y="-56.5" font-family="Helvetica,sans-Serif" font-size="10.00">RectangleTest.testMove_ExtremeValues</text>
</a>
</g>
</g>
<!-- Node2 -->
<g id="node2" class="node">
<title>Node2</title>
<g id="a_node2"><a xlink:href="classcom_1_1example_1_1renderer_1_1factory_1_1Rectangle.html#a04a2b038cf6f21b0875a6bce7dd479e0" target="_top" xlink:title="获取矩形左上角x坐标">
<polygon fill="white" stroke="black" points="248,-98.5 248,-128.5 414,-128.5 414,-98.5 248,-98.5"/>
<text text-anchor="start" x="256" y="-116.5" font-family="Helvetica,sans-Serif" font-size="10.00">com.example.renderer.factory.</text>
<text text-anchor="middle" x="331" y="-105.5" font-family="Helvetica,sans-Serif" font-size="10.00">Rectangle.getX</text>
</a>
</g>
</g>
<!-- Node1&#45;&gt;Node2 -->
<g id="edge1" class="edge">
<title>Node1&#45;&gt;Node2</title>
<path fill="none" stroke="midnightblue" d="M175.42,-79.53C199.61,-84.85 226.99,-90.87 251.92,-96.34"/>
<polygon fill="midnightblue" stroke="midnightblue" points="251.19,-99.77 261.71,-98.49 252.69,-92.93 251.19,-99.77"/>
</g>
<!-- Node3 -->
<g id="node3" class="node">
<title>Node3</title>
<g id="a_node3"><a xlink:href="classcom_1_1example_1_1renderer_1_1factory_1_1Rectangle.html#a8086515b4c50de24274dace98a8ca9ea" target="_top" xlink:title="获取矩形左上角Y坐标">
<polygon fill="white" stroke="black" points="248,-49.5 248,-79.5 414,-79.5 414,-49.5 248,-49.5"/>
<text text-anchor="start" x="256" y="-67.5" font-family="Helvetica,sans-Serif" font-size="10.00">com.example.renderer.factory.</text>
<text text-anchor="middle" x="331" y="-56.5" font-family="Helvetica,sans-Serif" font-size="10.00">Rectangle.getY</text>
</a>
</g>
</g>
<!-- Node1&#45;&gt;Node3 -->
<g id="edge2" class="edge">
<title>Node1&#45;&gt;Node3</title>
<path fill="none" stroke="midnightblue" d="M212.3,-64.5C220.79,-64.5 229.34,-64.5 237.74,-64.5"/>
<polygon fill="midnightblue" stroke="midnightblue" points="237.89,-68 247.89,-64.5 237.89,-61 237.89,-68"/>
</g>
<!-- Node4 -->
<g id="node4" class="node">
<title>Node4</title>
<g id="a_node4"><a xlink:href="classcom_1_1example_1_1renderer_1_1factory_1_1Rectangle.html#a85e3c1cc786f02d3b62399193b44a554" target="_top" xlink:title="移动图形的位置。 根据给定的偏移量调整图形的坐标位置，正数表示向右/下移动，负数表示向左/上移动。">
<polygon fill="white" stroke="black" points="248,-0.5 248,-30.5 414,-30.5 414,-0.5 248,-0.5"/>
<text text-anchor="start" x="256" y="-18.5" font-family="Helvetica,sans-Serif" font-size="10.00">com.example.renderer.factory.</text>
<text text-anchor="middle" x="331" y="-7.5" font-family="Helvetica,sans-Serif" font-size="10.00">Rectangle.move</text>
</a>
</g>
</g>
<!-- Node1&#45;&gt;Node4 -->
<g id="edge3" class="edge">
<title>Node1&#45;&gt;Node4</title>
<path fill="none" stroke="midnightblue" d="M175.42,-49.47C199.61,-44.15 226.99,-38.13 251.92,-32.66"/>
<polygon fill="midnightblue" stroke="midnightblue" points="252.69,-36.07 261.71,-30.51 251.19,-29.23 252.69,-36.07"/>
</g>
</g>
</svg>
