<?xml version="1.0" encoding="UTF-8" standalone="no"?>
<!DOCTYPE svg PUBLIC "-//W3C//DTD SVG 1.1//EN"
 "http://www.w3.org/Graphics/SVG/1.1/DTD/svg11.dtd">
<!-- Generated by graphviz version 2.43.0 (0)
 -->
<!-- Title: com.example.renderer.factory.TriangleTest.testMove Pages: 1 -->
<svg width="376pt" height="333pt"
 viewBox="0.00 0.00 376.00 333.00" xmlns="http://www.w3.org/2000/svg" xmlns:xlink="http://www.w3.org/1999/xlink">
<g id="graph0" class="graph" transform="scale(1 1) rotate(0) translate(4 329)">
<title>com.example.renderer.factory.TriangleTest.testMove</title>
<polygon fill="white" stroke="transparent" points="-4,4 -4,-329 372,-329 372,4 -4,4"/>
<!-- Node1 -->
<g id="node1" class="node">
<title>Node1</title>
<g id="a_node1"><a xlink:title=" ">
<polygon fill="#bfbfbf" stroke="black" points="0,-147.5 0,-177.5 166,-177.5 166,-147.5 0,-147.5"/>
<text text-anchor="start" x="8" y="-165.5" font-family="Helvetica,sans-Serif" font-size="10.00">com.example.renderer.factory.</text>
<text text-anchor="middle" x="83" y="-154.5" font-family="Helvetica,sans-Serif" font-size="10.00">TriangleTest.testMove</text>
</a>
</g>
</g>
<!-- Node2 -->
<g id="node2" class="node">
<title>Node2</title>
<g id="a_node2"><a xlink:href="classcom_1_1example_1_1renderer_1_1factory_1_1Triangle.html#aa5ec64f9827fba203174d5e91185e6f2" target="_top" xlink:title=" ">
<polygon fill="white" stroke="black" points="202,-294.5 202,-324.5 368,-324.5 368,-294.5 202,-294.5"/>
<text text-anchor="start" x="210" y="-312.5" font-family="Helvetica,sans-Serif" font-size="10.00">com.example.renderer.factory.</text>
<text text-anchor="middle" x="285" y="-301.5" font-family="Helvetica,sans-Serif" font-size="10.00">Triangle.getX1</text>
</a>
</g>
</g>
<!-- Node1&#45;&gt;Node2 -->
<g id="edge1" class="edge">
<title>Node1&#45;&gt;Node2</title>
<path fill="none" stroke="midnightblue" d="M94.49,-177.82C113.1,-203.83 154.44,-256.64 202,-285.5 204.79,-287.19 207.71,-288.77 210.71,-290.24"/>
<polygon fill="midnightblue" stroke="midnightblue" points="209.36,-293.47 219.91,-294.35 212.21,-287.08 209.36,-293.47"/>
</g>
<!-- Node3 -->
<g id="node3" class="node">
<title>Node3</title>
<g id="a_node3"><a xlink:href="classcom_1_1example_1_1renderer_1_1factory_1_1Triangle.html#abba5462908667c70efa65edc2b0e17bc" target="_top" xlink:title=" ">
<polygon fill="white" stroke="black" points="202,-245.5 202,-275.5 368,-275.5 368,-245.5 202,-245.5"/>
<text text-anchor="start" x="210" y="-263.5" font-family="Helvetica,sans-Serif" font-size="10.00">com.example.renderer.factory.</text>
<text text-anchor="middle" x="285" y="-252.5" font-family="Helvetica,sans-Serif" font-size="10.00">Triangle.getX2</text>
</a>
</g>
</g>
<!-- Node1&#45;&gt;Node3 -->
<g id="edge2" class="edge">
<title>Node1&#45;&gt;Node3</title>
<path fill="none" stroke="midnightblue" d="M104.34,-177.7C127.11,-194.13 165.61,-220.14 202,-236.5 206.34,-238.45 210.88,-240.29 215.49,-242.01"/>
<polygon fill="midnightblue" stroke="midnightblue" points="214.46,-245.36 225.05,-245.39 216.79,-238.76 214.46,-245.36"/>
</g>
<!-- Node4 -->
<g id="node4" class="node">
<title>Node4</title>
<g id="a_node4"><a xlink:href="classcom_1_1example_1_1renderer_1_1factory_1_1Triangle.html#a2f27fd932329a59698e80ca4c900eba8" target="_top" xlink:title=" ">
<polygon fill="white" stroke="black" points="202,-196.5 202,-226.5 368,-226.5 368,-196.5 202,-196.5"/>
<text text-anchor="start" x="210" y="-214.5" font-family="Helvetica,sans-Serif" font-size="10.00">com.example.renderer.factory.</text>
<text text-anchor="middle" x="285" y="-203.5" font-family="Helvetica,sans-Serif" font-size="10.00">Triangle.getX3</text>
</a>
</g>
</g>
<!-- Node1&#45;&gt;Node4 -->
<g id="edge3" class="edge">
<title>Node1&#45;&gt;Node4</title>
<path fill="none" stroke="midnightblue" d="M145.37,-177.53C166.67,-182.76 190.75,-188.65 212.79,-194.05"/>
<polygon fill="midnightblue" stroke="midnightblue" points="212.2,-197.51 222.75,-196.49 213.87,-190.71 212.2,-197.51"/>
</g>
<!-- Node5 -->
<g id="node5" class="node">
<title>Node5</title>
<g id="a_node5"><a xlink:href="classcom_1_1example_1_1renderer_1_1factory_1_1Triangle.html#af9319090f2c5c5fd18826cae05b094a4" target="_top" xlink:title=" ">
<polygon fill="white" stroke="black" points="202,-147.5 202,-177.5 368,-177.5 368,-147.5 202,-147.5"/>
<text text-anchor="start" x="210" y="-165.5" font-family="Helvetica,sans-Serif" font-size="10.00">com.example.renderer.factory.</text>
<text text-anchor="middle" x="285" y="-154.5" font-family="Helvetica,sans-Serif" font-size="10.00">Triangle.getY1</text>
</a>
</g>
</g>
<!-- Node1&#45;&gt;Node5 -->
<g id="edge4" class="edge">
<title>Node1&#45;&gt;Node5</title>
<path fill="none" stroke="midnightblue" d="M166.21,-162.5C174.56,-162.5 183.08,-162.5 191.53,-162.5"/>
<polygon fill="midnightblue" stroke="midnightblue" points="191.78,-166 201.78,-162.5 191.78,-159 191.78,-166"/>
</g>
<!-- Node6 -->
<g id="node6" class="node">
<title>Node6</title>
<g id="a_node6"><a xlink:href="classcom_1_1example_1_1renderer_1_1factory_1_1Triangle.html#a1ab1af5be6782c56d16de7cf9cecf0dc" target="_top" xlink:title=" ">
<polygon fill="white" stroke="black" points="202,-98.5 202,-128.5 368,-128.5 368,-98.5 202,-98.5"/>
<text text-anchor="start" x="210" y="-116.5" font-family="Helvetica,sans-Serif" font-size="10.00">com.example.renderer.factory.</text>
<text text-anchor="middle" x="285" y="-105.5" font-family="Helvetica,sans-Serif" font-size="10.00">Triangle.getY2</text>
</a>
</g>
</g>
<!-- Node1&#45;&gt;Node6 -->
<g id="edge5" class="edge">
<title>Node1&#45;&gt;Node6</title>
<path fill="none" stroke="midnightblue" d="M145.37,-147.47C166.67,-142.24 190.75,-136.35 212.79,-130.95"/>
<polygon fill="midnightblue" stroke="midnightblue" points="213.87,-134.29 222.75,-128.51 212.2,-127.49 213.87,-134.29"/>
</g>
<!-- Node7 -->
<g id="node7" class="node">
<title>Node7</title>
<g id="a_node7"><a xlink:href="classcom_1_1example_1_1renderer_1_1factory_1_1Triangle.html#ab8693d7dff18ad8d058df6543f6dd366" target="_top" xlink:title=" ">
<polygon fill="white" stroke="black" points="202,-49.5 202,-79.5 368,-79.5 368,-49.5 202,-49.5"/>
<text text-anchor="start" x="210" y="-67.5" font-family="Helvetica,sans-Serif" font-size="10.00">com.example.renderer.factory.</text>
<text text-anchor="middle" x="285" y="-56.5" font-family="Helvetica,sans-Serif" font-size="10.00">Triangle.getY3</text>
</a>
</g>
</g>
<!-- Node1&#45;&gt;Node7 -->
<g id="edge6" class="edge">
<title>Node1&#45;&gt;Node7</title>
<path fill="none" stroke="midnightblue" d="M104.82,-147.3C127.7,-131.17 166.01,-105.79 202,-89.5 207.08,-87.2 212.44,-85.04 217.88,-83.02"/>
<polygon fill="midnightblue" stroke="midnightblue" points="219.44,-86.18 227.71,-79.55 217.11,-79.58 219.44,-86.18"/>
</g>
<!-- Node8 -->
<g id="node8" class="node">
<title>Node8</title>
<g id="a_node8"><a xlink:href="classcom_1_1example_1_1renderer_1_1factory_1_1Triangle.html#a0aa53deb7dccf8acd100a53a76d414d0" target="_top" xlink:title=" ">
<polygon fill="white" stroke="black" points="202,-0.5 202,-30.5 368,-30.5 368,-0.5 202,-0.5"/>
<text text-anchor="start" x="210" y="-18.5" font-family="Helvetica,sans-Serif" font-size="10.00">com.example.renderer.factory.</text>
<text text-anchor="middle" x="285" y="-7.5" font-family="Helvetica,sans-Serif" font-size="10.00">Triangle.move</text>
</a>
</g>
</g>
<!-- Node1&#45;&gt;Node8 -->
<g id="edge7" class="edge">
<title>Node1&#45;&gt;Node8</title>
<path fill="none" stroke="midnightblue" d="M94.55,-147.37C113.26,-121.65 154.74,-69.41 202,-40.5 205.4,-38.42 208.99,-36.5 212.69,-34.73"/>
<polygon fill="midnightblue" stroke="midnightblue" points="214.3,-37.85 222.06,-30.64 211.5,-31.43 214.3,-37.85"/>
</g>
</g>
</svg>
