<?xml version="1.0" encoding="UTF-8" standalone="no"?>
<!DOCTYPE svg PUBLIC "-//W3C//DTD SVG 1.1//EN"
 "http://www.w3.org/Graphics/SVG/1.1/DTD/svg11.dtd">
<!-- Generated by graphviz version 2.43.0 (0)
 -->
<!-- Title: com.example.renderer.factory.EllipseTest.testMove Pages: 1 -->
<svg width="376pt" height="137pt"
 viewBox="0.00 0.00 376.00 137.00" xmlns="http://www.w3.org/2000/svg" xmlns:xlink="http://www.w3.org/1999/xlink">
<g id="graph0" class="graph" transform="scale(1 1) rotate(0) translate(4 133)">
<title>com.example.renderer.factory.EllipseTest.testMove</title>
<polygon fill="white" stroke="transparent" points="-4,4 -4,-133 372,-133 372,4 -4,4"/>
<!-- Node1 -->
<g id="node1" class="node">
<title>Node1</title>
<g id="a_node1"><a xlink:title=" ">
<polygon fill="#bfbfbf" stroke="black" points="0,-49.5 0,-79.5 166,-79.5 166,-49.5 0,-49.5"/>
<text text-anchor="start" x="8" y="-67.5" font-family="Helvetica,sans-Serif" font-size="10.00">com.example.renderer.factory.</text>
<text text-anchor="middle" x="83" y="-56.5" font-family="Helvetica,sans-Serif" font-size="10.00">EllipseTest.testMove</text>
</a>
</g>
</g>
<!-- Node2 -->
<g id="node2" class="node">
<title>Node2</title>
<g id="a_node2"><a xlink:href="classcom_1_1example_1_1renderer_1_1factory_1_1Ellipse.html#a5856f1f689143235929a233715984015" target="_top" xlink:title="获取椭圆中心X坐标。">
<polygon fill="white" stroke="black" points="202,-98.5 202,-128.5 368,-128.5 368,-98.5 202,-98.5"/>
<text text-anchor="start" x="210" y="-116.5" font-family="Helvetica,sans-Serif" font-size="10.00">com.example.renderer.factory.</text>
<text text-anchor="middle" x="285" y="-105.5" font-family="Helvetica,sans-Serif" font-size="10.00">Ellipse.getX</text>
</a>
</g>
</g>
<!-- Node1&#45;&gt;Node2 -->
<g id="edge1" class="edge">
<title>Node1&#45;&gt;Node2</title>
<path fill="none" stroke="midnightblue" d="M145.37,-79.53C166.67,-84.76 190.75,-90.65 212.79,-96.05"/>
<polygon fill="midnightblue" stroke="midnightblue" points="212.2,-99.51 222.75,-98.49 213.87,-92.71 212.2,-99.51"/>
</g>
<!-- Node3 -->
<g id="node3" class="node">
<title>Node3</title>
<g id="a_node3"><a xlink:href="classcom_1_1example_1_1renderer_1_1factory_1_1Ellipse.html#a4d9e2941518bae18c76c125b5fcc8020" target="_top" xlink:title="获取椭圆中心Y坐标">
<polygon fill="white" stroke="black" points="202,-49.5 202,-79.5 368,-79.5 368,-49.5 202,-49.5"/>
<text text-anchor="start" x="210" y="-67.5" font-family="Helvetica,sans-Serif" font-size="10.00">com.example.renderer.factory.</text>
<text text-anchor="middle" x="285" y="-56.5" font-family="Helvetica,sans-Serif" font-size="10.00">Ellipse.getY</text>
</a>
</g>
</g>
<!-- Node1&#45;&gt;Node3 -->
<g id="edge2" class="edge">
<title>Node1&#45;&gt;Node3</title>
<path fill="none" stroke="midnightblue" d="M166.21,-64.5C174.56,-64.5 183.08,-64.5 191.53,-64.5"/>
<polygon fill="midnightblue" stroke="midnightblue" points="191.78,-68 201.78,-64.5 191.78,-61 191.78,-68"/>
</g>
<!-- Node4 -->
<g id="node4" class="node">
<title>Node4</title>
<g id="a_node4"><a xlink:href="classcom_1_1example_1_1renderer_1_1factory_1_1Ellipse.html#a808ff21c247338648adfca587956e352" target="_top" xlink:title="移动椭圆的位置。">
<polygon fill="white" stroke="black" points="202,-0.5 202,-30.5 368,-30.5 368,-0.5 202,-0.5"/>
<text text-anchor="start" x="210" y="-18.5" font-family="Helvetica,sans-Serif" font-size="10.00">com.example.renderer.factory.</text>
<text text-anchor="middle" x="285" y="-7.5" font-family="Helvetica,sans-Serif" font-size="10.00">Ellipse.move</text>
</a>
</g>
</g>
<!-- Node1&#45;&gt;Node4 -->
<g id="edge3" class="edge">
<title>Node1&#45;&gt;Node4</title>
<path fill="none" stroke="midnightblue" d="M145.37,-49.47C166.67,-44.24 190.75,-38.35 212.79,-32.95"/>
<polygon fill="midnightblue" stroke="midnightblue" points="213.87,-36.29 222.75,-30.51 212.2,-29.49 213.87,-36.29"/>
</g>
</g>
</svg>
