<?xml version="1.0" encoding="UTF-8" standalone="no"?>
<!DOCTYPE svg PUBLIC "-//W3C//DTD SVG 1.1//EN"
 "http://www.w3.org/Graphics/SVG/1.1/DTD/svg11.dtd">
<!-- Generated by graphviz version 2.43.0 (0)
 -->
<!-- Title: com.example.renderer.adapter.LegacyRendererAdapterTest.testDrawRectangle_ForwardsToLegacyRenderer Pages: 1 -->
<svg width="412pt" height="50pt"
 viewBox="0.00 0.00 412.00 50.00" xmlns="http://www.w3.org/2000/svg" xmlns:xlink="http://www.w3.org/1999/xlink">
<g id="graph0" class="graph" transform="scale(1 1) rotate(0) translate(4 46)">
<title>com.example.renderer.adapter.LegacyRendererAdapterTest.testDrawRectangle_ForwardsToLegacyRenderer</title>
<polygon fill="white" stroke="transparent" points="-4,4 -4,-46 408,-46 408,4 -4,4"/>
<!-- Node1 -->
<g id="node1" class="node">
<title>Node1</title>
<g id="a_node1"><a xlink:title=" ">
<polygon fill="#bfbfbf" stroke="black" points="0,-0.5 0,-41.5 204,-41.5 204,-0.5 0,-0.5"/>
<text text-anchor="start" x="8" y="-29.5" font-family="Helvetica,sans-Serif" font-size="10.00">com.example.renderer.adapter.</text>
<text text-anchor="start" x="8" y="-18.5" font-family="Helvetica,sans-Serif" font-size="10.00">LegacyRendererAdapterTest.testDraw</text>
<text text-anchor="middle" x="102" y="-7.5" font-family="Helvetica,sans-Serif" font-size="10.00">Rectangle_ForwardsToLegacyRenderer</text>
</a>
</g>
</g>
<!-- Node2 -->
<g id="node2" class="node">
<title>Node2</title>
<g id="a_node2"><a xlink:href="interfacecom_1_1example_1_1renderer_1_1bridge_1_1Renderer.html#a544db73ca5c1778c124d3ee53b99b4b6" target="_top" xlink:title="绘制矩形">
<polygon fill="white" stroke="black" points="240,-6 240,-36 404,-36 404,-6 240,-6"/>
<text text-anchor="start" x="248" y="-24" font-family="Helvetica,sans-Serif" font-size="10.00">com.example.renderer.bridge.</text>
<text text-anchor="middle" x="322" y="-13" font-family="Helvetica,sans-Serif" font-size="10.00">Renderer.drawRectangle</text>
</a>
</g>
</g>
<!-- Node1&#45;&gt;Node2 -->
<g id="edge1" class="edge">
<title>Node1&#45;&gt;Node2</title>
<path fill="none" stroke="midnightblue" d="M204.02,-21C212.57,-21 221.19,-21 229.66,-21"/>
<polygon fill="midnightblue" stroke="midnightblue" points="229.91,-24.5 239.91,-21 229.91,-17.5 229.91,-24.5"/>
</g>
</g>
</svg>
