<?xml version="1.0" encoding="UTF-8" standalone="no"?>
<!DOCTYPE svg PUBLIC "-//W3C//DTD SVG 1.1//EN"
 "http://www.w3.org/Graphics/SVG/1.1/DTD/svg11.dtd">
<!-- Generated by graphviz version 2.43.0 (0)
 -->
<!-- Title: com.example.renderertest.bridge.SwingRendererTest.testDrawCircle_DelegatesToGraphicsDrawOval Pages: 1 -->
<svg width="393pt" height="50pt"
 viewBox="0.00 0.00 393.00 50.00" xmlns="http://www.w3.org/2000/svg" xmlns:xlink="http://www.w3.org/1999/xlink">
<g id="graph0" class="graph" transform="scale(1 1) rotate(0) translate(4 46)">
<title>com.example.renderertest.bridge.SwingRendererTest.testDrawCircle_DelegatesToGraphicsDrawOval</title>
<polygon fill="white" stroke="transparent" points="-4,4 -4,-46 389,-46 389,4 -4,4"/>
<!-- Node1 -->
<g id="node1" class="node">
<title>Node1</title>
<g id="a_node1"><a xlink:title=" ">
<polygon fill="#bfbfbf" stroke="black" points="0,-0.5 0,-41.5 185,-41.5 185,-0.5 0,-0.5"/>
<text text-anchor="start" x="8" y="-29.5" font-family="Helvetica,sans-Serif" font-size="10.00">com.example.renderertest.bridge.</text>
<text text-anchor="start" x="8" y="-18.5" font-family="Helvetica,sans-Serif" font-size="10.00">SwingRendererTest.testDrawCircle</text>
<text text-anchor="middle" x="92.5" y="-7.5" font-family="Helvetica,sans-Serif" font-size="10.00">_DelegatesToGraphicsDrawOval</text>
</a>
</g>
</g>
<!-- Node2 -->
<g id="node2" class="node">
<title>Node2</title>
<g id="a_node2"><a xlink:href="classcom_1_1example_1_1renderer_1_1bridge_1_1SwingRenderer.html#a3790eaa1dd17a9de4ddd3c4a641a6ac9" target="_top" xlink:title=" ">
<polygon fill="white" stroke="black" points="221,-6 221,-36 385,-36 385,-6 221,-6"/>
<text text-anchor="start" x="229" y="-24" font-family="Helvetica,sans-Serif" font-size="10.00">com.example.renderer.bridge.</text>
<text text-anchor="middle" x="303" y="-13" font-family="Helvetica,sans-Serif" font-size="10.00">SwingRenderer.drawCircle</text>
</a>
</g>
</g>
<!-- Node1&#45;&gt;Node2 -->
<g id="edge1" class="edge">
<title>Node1&#45;&gt;Node2</title>
<path fill="none" stroke="midnightblue" d="M185.25,-21C193.64,-21 202.14,-21 210.53,-21"/>
<polygon fill="midnightblue" stroke="midnightblue" points="210.69,-24.5 220.69,-21 210.69,-17.5 210.69,-24.5"/>
</g>
</g>
</svg>
