<?xml version="1.0" encoding="UTF-8" standalone="no"?>
<!DOCTYPE svg PUBLIC "-//W3C//DTD SVG 1.1//EN"
 "http://www.w3.org/Graphics/SVG/1.1/DTD/svg11.dtd">
<!-- Generated by graphviz version 2.43.0 (0)
 -->
<!-- Title: com.example.renderertest.adapter.LegacyRendererAdapterTest.testDrawEllipse_ForwardsToLegacyRenderer Pages: 1 -->
<svg width="441pt" height="50pt"
 viewBox="0.00 0.00 441.00 50.00" xmlns="http://www.w3.org/2000/svg" xmlns:xlink="http://www.w3.org/1999/xlink">
<g id="graph0" class="graph" transform="scale(1 1) rotate(0) translate(4 46)">
<title>com.example.renderertest.adapter.LegacyRendererAdapterTest.testDrawEllipse_ForwardsToLegacyRenderer</title>
<polygon fill="white" stroke="transparent" points="-4,4 -4,-46 437,-46 437,4 -4,4"/>
<!-- Node1 -->
<g id="node1" class="node">
<title>Node1</title>
<g id="a_node1"><a xlink:title=" ">
<polygon fill="#bfbfbf" stroke="black" points="0,-0.5 0,-41.5 233,-41.5 233,-0.5 0,-0.5"/>
<text text-anchor="start" x="8" y="-29.5" font-family="Helvetica,sans-Serif" font-size="10.00">com.example.renderertest.adapter.</text>
<text text-anchor="start" x="8" y="-18.5" font-family="Helvetica,sans-Serif" font-size="10.00">LegacyRendererAdapterTest.testDrawEllipse</text>
<text text-anchor="middle" x="116.5" y="-7.5" font-family="Helvetica,sans-Serif" font-size="10.00">_ForwardsToLegacyRenderer</text>
</a>
</g>
</g>
<!-- Node2 -->
<g id="node2" class="node">
<title>Node2</title>
<g id="a_node2"><a xlink:href="interfacecom_1_1example_1_1renderer_1_1bridge_1_1Renderer.html#a4c88cee0908a55d398716a257352a71d" target="_top" xlink:title=" ">
<polygon fill="white" stroke="black" points="269,-6 269,-36 433,-36 433,-6 269,-6"/>
<text text-anchor="start" x="277" y="-24" font-family="Helvetica,sans-Serif" font-size="10.00">com.example.renderer.bridge.</text>
<text text-anchor="middle" x="351" y="-13" font-family="Helvetica,sans-Serif" font-size="10.00">Renderer.drawEllipse</text>
</a>
</g>
</g>
<!-- Node1&#45;&gt;Node2 -->
<g id="edge1" class="edge">
<title>Node1&#45;&gt;Node2</title>
<path fill="none" stroke="midnightblue" d="M233.07,-21C241.66,-21 250.25,-21 258.66,-21"/>
<polygon fill="midnightblue" stroke="midnightblue" points="258.82,-24.5 268.82,-21 258.82,-17.5 258.82,-24.5"/>
</g>
</g>
</svg>
