<?xml version="1.0" encoding="UTF-8" standalone="no"?>
<!DOCTYPE svg PUBLIC "-//W3C//DTD SVG 1.1//EN"
 "http://www.w3.org/Graphics/SVG/1.1/DTD/svg11.dtd">
<!-- Generated by graphviz version 2.43.0 (0)
 -->
<!-- Title: com.example.renderer.proxy.RemoteRendererProxyTest.testProxyCallsRealRenderer Pages: 1 -->
<svg width="641pt" height="186pt"
 viewBox="0.00 0.00 641.00 186.00" xmlns="http://www.w3.org/2000/svg" xmlns:xlink="http://www.w3.org/1999/xlink">
<g id="graph0" class="graph" transform="scale(1 1) rotate(0) translate(4 182)">
<title>com.example.renderer.proxy.RemoteRendererProxyTest.testProxyCallsRealRenderer</title>
<polygon fill="white" stroke="transparent" points="-4,4 -4,-182 637,-182 637,4 -4,4"/>
<!-- Node1 -->
<g id="node1" class="node">
<title>Node1</title>
<g id="a_node1"><a xlink:title="测试代理模式是否正确转发所有渲染方法调用到真实渲染器。">
<polygon fill="#bfbfbf" stroke="black" points="0,-68 0,-109 196,-109 196,-68 0,-68"/>
<text text-anchor="start" x="8" y="-97" font-family="Helvetica,sans-Serif" font-size="10.00">com.example.renderer.proxy.</text>
<text text-anchor="start" x="8" y="-86" font-family="Helvetica,sans-Serif" font-size="10.00">RemoteRendererProxyTest.testProxy</text>
<text text-anchor="middle" x="98" y="-75" font-family="Helvetica,sans-Serif" font-size="10.00">CallsRealRenderer</text>
</a>
</g>
</g>
<!-- Node2 -->
<g id="node2" class="node">
<title>Node2</title>
<g id="a_node2"><a xlink:href="classcom_1_1example_1_1renderer_1_1proxy_1_1RemoteRendererProxy.html#a023bafacacf0b539929be9570863a4a5" target="_top" xlink:title="代理绘制圆形操作，添加远程调用日志。">
<polygon fill="white" stroke="black" points="242.5,-147.5 242.5,-177.5 422.5,-177.5 422.5,-147.5 242.5,-147.5"/>
<text text-anchor="start" x="250.5" y="-165.5" font-family="Helvetica,sans-Serif" font-size="10.00">com.example.renderer.proxy.</text>
<text text-anchor="middle" x="332.5" y="-154.5" font-family="Helvetica,sans-Serif" font-size="10.00">RemoteRendererProxy.drawCircle</text>
</a>
</g>
</g>
<!-- Node1&#45;&gt;Node2 -->
<g id="edge1" class="edge">
<title>Node1&#45;&gt;Node2</title>
<path fill="none" stroke="midnightblue" d="M149.34,-109.09C174,-118.75 204.29,-129.99 232,-138.5 239.29,-140.74 246.92,-142.9 254.59,-144.95"/>
<polygon fill="midnightblue" stroke="midnightblue" points="253.73,-148.34 264.29,-147.48 255.5,-141.57 253.73,-148.34"/>
</g>
<!-- Node4 -->
<g id="node4" class="node">
<title>Node4</title>
<g id="a_node4"><a xlink:href="classcom_1_1example_1_1renderer_1_1proxy_1_1RemoteRendererProxy.html#a62ffaea2a2c43ccfd2e8afe336417ef5" target="_top" xlink:title="绘制椭圆">
<polygon fill="white" stroke="black" points="240,-98.5 240,-128.5 425,-128.5 425,-98.5 240,-98.5"/>
<text text-anchor="start" x="248" y="-116.5" font-family="Helvetica,sans-Serif" font-size="10.00">com.example.renderer.proxy.</text>
<text text-anchor="middle" x="332.5" y="-105.5" font-family="Helvetica,sans-Serif" font-size="10.00">RemoteRendererProxy.drawEllipse</text>
</a>
</g>
</g>
<!-- Node1&#45;&gt;Node4 -->
<g id="edge3" class="edge">
<title>Node1&#45;&gt;Node4</title>
<path fill="none" stroke="midnightblue" d="M196.25,-98.96C207.31,-100.15 218.59,-101.36 229.7,-102.55"/>
<polygon fill="midnightblue" stroke="midnightblue" points="229.52,-106.05 239.84,-103.64 230.27,-99.09 229.52,-106.05"/>
</g>
<!-- Node6 -->
<g id="node6" class="node">
<title>Node6</title>
<g id="a_node6"><a xlink:href="classcom_1_1example_1_1renderer_1_1proxy_1_1RemoteRendererProxy.html#a230d74acbb60e51bc56724f50459d6bd" target="_top" xlink:title="绘制矩形">
<polygon fill="white" stroke="black" points="232,-49.5 232,-79.5 433,-79.5 433,-49.5 232,-49.5"/>
<text text-anchor="start" x="240" y="-67.5" font-family="Helvetica,sans-Serif" font-size="10.00">com.example.renderer.proxy.</text>
<text text-anchor="middle" x="332.5" y="-56.5" font-family="Helvetica,sans-Serif" font-size="10.00">RemoteRendererProxy.drawRectangle</text>
</a>
</g>
</g>
<!-- Node1&#45;&gt;Node6 -->
<g id="edge5" class="edge">
<title>Node1&#45;&gt;Node6</title>
<path fill="none" stroke="midnightblue" d="M196.25,-78.46C204.57,-77.6 213.02,-76.73 221.42,-75.86"/>
<polygon fill="midnightblue" stroke="midnightblue" points="222.06,-79.32 231.64,-74.81 221.34,-72.35 222.06,-79.32"/>
</g>
<!-- Node8 -->
<g id="node8" class="node">
<title>Node8</title>
<g id="a_node8"><a xlink:href="classcom_1_1example_1_1renderer_1_1proxy_1_1RemoteRendererProxy.html#af39ad5e5e13e132f23d327c44b0d54e8" target="_top" xlink:title="绘制三角形">
<polygon fill="white" stroke="black" points="237,-0.5 237,-30.5 428,-30.5 428,-0.5 237,-0.5"/>
<text text-anchor="start" x="245" y="-18.5" font-family="Helvetica,sans-Serif" font-size="10.00">com.example.renderer.proxy.</text>
<text text-anchor="middle" x="332.5" y="-7.5" font-family="Helvetica,sans-Serif" font-size="10.00">RemoteRendererProxy.drawTriangle</text>
</a>
</g>
</g>
<!-- Node1&#45;&gt;Node8 -->
<g id="edge7" class="edge">
<title>Node1&#45;&gt;Node8</title>
<path fill="none" stroke="midnightblue" d="M152.3,-67.88C176.45,-58.9 205.47,-48.6 232,-40.5 240.29,-37.97 249.03,-35.5 257.74,-33.15"/>
<polygon fill="midnightblue" stroke="midnightblue" points="258.77,-36.5 267.54,-30.56 256.98,-29.73 258.77,-36.5"/>
</g>
<!-- Node3 -->
<g id="node3" class="node">
<title>Node3</title>
<g id="a_node3"><a xlink:href="interfacecom_1_1example_1_1renderer_1_1bridge_1_1Renderer.html#a9878c979d01dbfe7d4b9cd38a869a735" target="_top" xlink:title="绘制圆形">
<polygon fill="white" stroke="black" points="469,-147.5 469,-177.5 633,-177.5 633,-147.5 469,-147.5"/>
<text text-anchor="start" x="477" y="-165.5" font-family="Helvetica,sans-Serif" font-size="10.00">com.example.renderer.bridge.</text>
<text text-anchor="middle" x="551" y="-154.5" font-family="Helvetica,sans-Serif" font-size="10.00">Renderer.drawCircle</text>
</a>
</g>
</g>
<!-- Node2&#45;&gt;Node3 -->
<g id="edge2" class="edge">
<title>Node2&#45;&gt;Node3</title>
<path fill="none" stroke="midnightblue" d="M422.81,-162.5C434.61,-162.5 446.72,-162.5 458.56,-162.5"/>
<polygon fill="midnightblue" stroke="midnightblue" points="458.88,-166 468.88,-162.5 458.88,-159 458.88,-166"/>
</g>
<!-- Node5 -->
<g id="node5" class="node">
<title>Node5</title>
<g id="a_node5"><a xlink:href="interfacecom_1_1example_1_1renderer_1_1bridge_1_1Renderer.html#a4c88cee0908a55d398716a257352a71d" target="_top" xlink:title="绘制椭圆">
<polygon fill="white" stroke="black" points="469,-98.5 469,-128.5 633,-128.5 633,-98.5 469,-98.5"/>
<text text-anchor="start" x="477" y="-116.5" font-family="Helvetica,sans-Serif" font-size="10.00">com.example.renderer.bridge.</text>
<text text-anchor="middle" x="551" y="-105.5" font-family="Helvetica,sans-Serif" font-size="10.00">Renderer.drawEllipse</text>
</a>
</g>
</g>
<!-- Node4&#45;&gt;Node5 -->
<g id="edge4" class="edge">
<title>Node4&#45;&gt;Node5</title>
<path fill="none" stroke="midnightblue" d="M425,-113.5C436.13,-113.5 447.51,-113.5 458.64,-113.5"/>
<polygon fill="midnightblue" stroke="midnightblue" points="458.78,-117 468.78,-113.5 458.78,-110 458.78,-117"/>
</g>
<!-- Node7 -->
<g id="node7" class="node">
<title>Node7</title>
<g id="a_node7"><a xlink:href="interfacecom_1_1example_1_1renderer_1_1bridge_1_1Renderer.html#a544db73ca5c1778c124d3ee53b99b4b6" target="_top" xlink:title="绘制矩形">
<polygon fill="white" stroke="black" points="469,-49.5 469,-79.5 633,-79.5 633,-49.5 469,-49.5"/>
<text text-anchor="start" x="477" y="-67.5" font-family="Helvetica,sans-Serif" font-size="10.00">com.example.renderer.bridge.</text>
<text text-anchor="middle" x="551" y="-56.5" font-family="Helvetica,sans-Serif" font-size="10.00">Renderer.drawRectangle</text>
</a>
</g>
</g>
<!-- Node6&#45;&gt;Node7 -->
<g id="edge6" class="edge">
<title>Node6&#45;&gt;Node7</title>
<path fill="none" stroke="midnightblue" d="M433.2,-64.5C441.72,-64.5 450.31,-64.5 458.76,-64.5"/>
<polygon fill="midnightblue" stroke="midnightblue" points="458.98,-68 468.98,-64.5 458.98,-61 458.98,-68"/>
</g>
<!-- Node9 -->
<g id="node9" class="node">
<title>Node9</title>
<g id="a_node9"><a xlink:href="interfacecom_1_1example_1_1renderer_1_1bridge_1_1Renderer.html#a8da6ee9a1744047767dfccc70cd6da76" target="_top" xlink:title="绘制三角形">
<polygon fill="white" stroke="black" points="469,-0.5 469,-30.5 633,-30.5 633,-0.5 469,-0.5"/>
<text text-anchor="start" x="477" y="-18.5" font-family="Helvetica,sans-Serif" font-size="10.00">com.example.renderer.bridge.</text>
<text text-anchor="middle" x="551" y="-7.5" font-family="Helvetica,sans-Serif" font-size="10.00">Renderer.drawTriangle</text>
</a>
</g>
</g>
<!-- Node8&#45;&gt;Node9 -->
<g id="edge8" class="edge">
<title>Node8&#45;&gt;Node9</title>
<path fill="none" stroke="midnightblue" d="M428.15,-15.5C438.3,-15.5 448.62,-15.5 458.73,-15.5"/>
<polygon fill="midnightblue" stroke="midnightblue" points="458.77,-19 468.77,-15.5 458.77,-12 458.77,-19"/>
</g>
</g>
</svg>
