<?xml version="1.0" encoding="UTF-8" standalone="no"?>
<!DOCTYPE svg PUBLIC "-//W3C//DTD SVG 1.1//EN"
 "http://www.w3.org/Graphics/SVG/1.1/DTD/svg11.dtd">
<!-- Generated by graphviz version 2.43.0 (0)
 -->
<!-- Title: com.example.renderer.factory.CircleTest.testMove_FromMinToMax Pages: 1 -->
<svg width="402pt" height="137pt"
 viewBox="0.00 0.00 402.00 137.00" xmlns="http://www.w3.org/2000/svg" xmlns:xlink="http://www.w3.org/1999/xlink">
<g id="graph0" class="graph" transform="scale(1 1) rotate(0) translate(4 133)">
<title>com.example.renderer.factory.CircleTest.testMove_FromMinToMax</title>
<polygon fill="white" stroke="transparent" points="-4,4 -4,-133 398,-133 398,4 -4,4"/>
<!-- Node1 -->
<g id="node1" class="node">
<title>Node1</title>
<g id="a_node1"><a xlink:title=" ">
<polygon fill="#bfbfbf" stroke="black" points="0,-49.5 0,-79.5 192,-79.5 192,-49.5 0,-49.5"/>
<text text-anchor="start" x="8" y="-67.5" font-family="Helvetica,sans-Serif" font-size="10.00">com.example.renderer.factory.</text>
<text text-anchor="middle" x="96" y="-56.5" font-family="Helvetica,sans-Serif" font-size="10.00">CircleTest.testMove_FromMinToMax</text>
</a>
</g>
</g>
<!-- Node2 -->
<g id="node2" class="node">
<title>Node2</title>
<g id="a_node2"><a xlink:href="classcom_1_1example_1_1renderer_1_1factory_1_1Circle.html#a5d9565191f8b24714037adaafb0145f2" target="_top" xlink:title="获取圆心x坐标">
<polygon fill="white" stroke="black" points="228,-98.5 228,-128.5 394,-128.5 394,-98.5 228,-98.5"/>
<text text-anchor="start" x="236" y="-116.5" font-family="Helvetica,sans-Serif" font-size="10.00">com.example.renderer.factory.</text>
<text text-anchor="middle" x="311" y="-105.5" font-family="Helvetica,sans-Serif" font-size="10.00">Circle.getX</text>
</a>
</g>
</g>
<!-- Node1&#45;&gt;Node2 -->
<g id="edge1" class="edge">
<title>Node1&#45;&gt;Node2</title>
<path fill="none" stroke="midnightblue" d="M162.35,-79.53C185.25,-84.8 211.15,-90.76 234.79,-96.2"/>
<polygon fill="midnightblue" stroke="midnightblue" points="234.24,-99.66 244.77,-98.49 235.81,-92.84 234.24,-99.66"/>
</g>
<!-- Node3 -->
<g id="node3" class="node">
<title>Node3</title>
<g id="a_node3"><a xlink:href="classcom_1_1example_1_1renderer_1_1factory_1_1Circle.html#adbf586a9c1761dce695dce96c7539a18" target="_top" xlink:title="获取圆心y坐标">
<polygon fill="white" stroke="black" points="228,-49.5 228,-79.5 394,-79.5 394,-49.5 228,-49.5"/>
<text text-anchor="start" x="236" y="-67.5" font-family="Helvetica,sans-Serif" font-size="10.00">com.example.renderer.factory.</text>
<text text-anchor="middle" x="311" y="-56.5" font-family="Helvetica,sans-Serif" font-size="10.00">Circle.getY</text>
</a>
</g>
</g>
<!-- Node1&#45;&gt;Node3 -->
<g id="edge2" class="edge">
<title>Node1&#45;&gt;Node3</title>
<path fill="none" stroke="midnightblue" d="M192.29,-64.5C200.71,-64.5 209.23,-64.5 217.63,-64.5"/>
<polygon fill="midnightblue" stroke="midnightblue" points="217.81,-68 227.81,-64.5 217.81,-61 217.81,-68"/>
</g>
<!-- Node4 -->
<g id="node4" class="node">
<title>Node4</title>
<g id="a_node4"><a xlink:href="classcom_1_1example_1_1renderer_1_1factory_1_1Circle.html#a7dc56b196866cc4d444f59585902442c" target="_top" xlink:title="移动图形的位置。 根据给定的偏移量调整图形的坐标位置，正数表示向右/下移动，负数表示向左/上移动。">
<polygon fill="white" stroke="black" points="228,-0.5 228,-30.5 394,-30.5 394,-0.5 228,-0.5"/>
<text text-anchor="start" x="236" y="-18.5" font-family="Helvetica,sans-Serif" font-size="10.00">com.example.renderer.factory.</text>
<text text-anchor="middle" x="311" y="-7.5" font-family="Helvetica,sans-Serif" font-size="10.00">Circle.move</text>
</a>
</g>
</g>
<!-- Node1&#45;&gt;Node4 -->
<g id="edge3" class="edge">
<title>Node1&#45;&gt;Node4</title>
<path fill="none" stroke="midnightblue" d="M162.35,-49.47C185.25,-44.2 211.15,-38.24 234.79,-32.8"/>
<polygon fill="midnightblue" stroke="midnightblue" points="235.81,-36.16 244.77,-30.51 234.24,-29.34 235.81,-36.16"/>
</g>
</g>
</svg>
