<?xml version="1.0" encoding="UTF-8" standalone="no"?>
<!DOCTYPE svg PUBLIC "-//W3C//DTD SVG 1.1//EN"
 "http://www.w3.org/Graphics/SVG/1.1/DTD/svg11.dtd">
<!-- Generated by graphviz version 2.43.0 (0)
 -->
<!-- Title: com.example.renderer.visitor.JSONExportVisitor.visitEllipse Pages: 1 -->
<svg width="373pt" height="186pt"
 viewBox="0.00 0.00 373.00 186.00" xmlns="http://www.w3.org/2000/svg" xmlns:xlink="http://www.w3.org/1999/xlink">
<g id="graph0" class="graph" transform="scale(1 1) rotate(0) translate(4 182)">
<title>com.example.renderer.visitor.JSONExportVisitor.visitEllipse</title>
<polygon fill="white" stroke="transparent" points="-4,4 -4,-182 369,-182 369,4 -4,4"/>
<!-- Node1 -->
<g id="node1" class="node">
<title>Node1</title>
<g id="a_node1"><a xlink:title=" ">
<polygon fill="#bfbfbf" stroke="black" points="0,-73.5 0,-103.5 163,-103.5 163,-73.5 0,-73.5"/>
<text text-anchor="start" x="8" y="-91.5" font-family="Helvetica,sans-Serif" font-size="10.00">com.example.renderer.visitor.</text>
<text text-anchor="middle" x="81.5" y="-80.5" font-family="Helvetica,sans-Serif" font-size="10.00">JSONExportVisitor.visitEllipse</text>
</a>
</g>
</g>
<!-- Node2 -->
<g id="node2" class="node">
<title>Node2</title>
<g id="a_node2"><a xlink:href="classcom_1_1example_1_1renderer_1_1factory_1_1Ellipse.html#a58b5bcb233cb1e389900df094e38e9cf" target="_top" xlink:title=" ">
<polygon fill="white" stroke="black" points="199,-147.5 199,-177.5 365,-177.5 365,-147.5 199,-147.5"/>
<text text-anchor="start" x="207" y="-165.5" font-family="Helvetica,sans-Serif" font-size="10.00">com.example.renderer.factory.</text>
<text text-anchor="middle" x="282" y="-154.5" font-family="Helvetica,sans-Serif" font-size="10.00">Ellipse.getHeight</text>
</a>
</g>
</g>
<!-- Node1&#45;&gt;Node2 -->
<g id="edge1" class="edge">
<title>Node1&#45;&gt;Node2</title>
<path fill="none" stroke="midnightblue" d="M114.72,-103.57C137.88,-114.1 170,-128.08 199,-138.5 204.54,-140.49 210.34,-142.45 216.18,-144.32"/>
<polygon fill="midnightblue" stroke="midnightblue" points="215.42,-147.75 226.01,-147.4 217.51,-141.07 215.42,-147.75"/>
</g>
<!-- Node3 -->
<g id="node3" class="node">
<title>Node3</title>
<g id="a_node3"><a xlink:href="classcom_1_1example_1_1renderer_1_1factory_1_1Ellipse.html#ad1f41af217cb0df38ae2026a6b666672" target="_top" xlink:title=" ">
<polygon fill="white" stroke="black" points="199,-98.5 199,-128.5 365,-128.5 365,-98.5 199,-98.5"/>
<text text-anchor="start" x="207" y="-116.5" font-family="Helvetica,sans-Serif" font-size="10.00">com.example.renderer.factory.</text>
<text text-anchor="middle" x="282" y="-105.5" font-family="Helvetica,sans-Serif" font-size="10.00">Ellipse.getWidth</text>
</a>
</g>
</g>
<!-- Node1&#45;&gt;Node3 -->
<g id="edge2" class="edge">
<title>Node1&#45;&gt;Node3</title>
<path fill="none" stroke="midnightblue" d="M163.24,-98.67C171.65,-99.73 180.24,-100.81 188.76,-101.88"/>
<polygon fill="midnightblue" stroke="midnightblue" points="188.36,-105.36 198.72,-103.14 189.24,-98.42 188.36,-105.36"/>
</g>
<!-- Node4 -->
<g id="node4" class="node">
<title>Node4</title>
<g id="a_node4"><a xlink:href="classcom_1_1example_1_1renderer_1_1factory_1_1Ellipse.html#a5856f1f689143235929a233715984015" target="_top" xlink:title=" ">
<polygon fill="white" stroke="black" points="199,-49.5 199,-79.5 365,-79.5 365,-49.5 199,-49.5"/>
<text text-anchor="start" x="207" y="-67.5" font-family="Helvetica,sans-Serif" font-size="10.00">com.example.renderer.factory.</text>
<text text-anchor="middle" x="282" y="-56.5" font-family="Helvetica,sans-Serif" font-size="10.00">Ellipse.getX</text>
</a>
</g>
</g>
<!-- Node1&#45;&gt;Node4 -->
<g id="edge3" class="edge">
<title>Node1&#45;&gt;Node4</title>
<path fill="none" stroke="midnightblue" d="M163.24,-78.74C171.65,-77.72 180.24,-76.68 188.76,-75.65"/>
<polygon fill="midnightblue" stroke="midnightblue" points="189.21,-79.12 198.72,-74.45 188.37,-72.17 189.21,-79.12"/>
</g>
<!-- Node5 -->
<g id="node5" class="node">
<title>Node5</title>
<g id="a_node5"><a xlink:href="classcom_1_1example_1_1renderer_1_1factory_1_1Ellipse.html#a4d9e2941518bae18c76c125b5fcc8020" target="_top" xlink:title=" ">
<polygon fill="white" stroke="black" points="199,-0.5 199,-30.5 365,-30.5 365,-0.5 199,-0.5"/>
<text text-anchor="start" x="207" y="-18.5" font-family="Helvetica,sans-Serif" font-size="10.00">com.example.renderer.factory.</text>
<text text-anchor="middle" x="282" y="-7.5" font-family="Helvetica,sans-Serif" font-size="10.00">Ellipse.getY</text>
</a>
</g>
</g>
<!-- Node1&#45;&gt;Node5 -->
<g id="edge4" class="edge">
<title>Node1&#45;&gt;Node5</title>
<path fill="none" stroke="midnightblue" d="M116.58,-73.46C139.63,-63.53 170.88,-50.55 199,-40.5 205.4,-38.21 212.13,-35.94 218.87,-33.76"/>
<polygon fill="midnightblue" stroke="midnightblue" points="220.23,-37 228.7,-30.63 218.11,-30.33 220.23,-37"/>
</g>
</g>
</svg>
