<?xml version="1.0" encoding="UTF-8" standalone="no"?>
<!DOCTYPE svg PUBLIC "-//W3C//DTD SVG 1.1//EN"
 "http://www.w3.org/Graphics/SVG/1.1/DTD/svg11.dtd">
<!-- Generated by graphviz version 2.43.0 (0)
 -->
<!-- Title: com.example.renderer.command.AddShapeCommandTest.testExecuteAddsShape Pages: 1 -->
<svg width="475pt" height="39pt"
 viewBox="0.00 0.00 475.00 39.00" xmlns="http://www.w3.org/2000/svg" xmlns:xlink="http://www.w3.org/1999/xlink">
<g id="graph0" class="graph" transform="scale(1 1) rotate(0) translate(4 35)">
<title>com.example.renderer.command.AddShapeCommandTest.testExecuteAddsShape</title>
<polygon fill="white" stroke="transparent" points="-4,4 -4,-35 471,-35 471,4 -4,4"/>
<!-- Node1 -->
<g id="node1" class="node">
<title>Node1</title>
<g id="a_node1"><a xlink:title="测试execute()方法是否正确添加图形到列表。">
<polygon fill="#bfbfbf" stroke="black" points="0,-0.5 0,-30.5 249,-30.5 249,-0.5 0,-0.5"/>
<text text-anchor="start" x="8" y="-18.5" font-family="Helvetica,sans-Serif" font-size="10.00">com.example.renderer.command.</text>
<text text-anchor="middle" x="124.5" y="-7.5" font-family="Helvetica,sans-Serif" font-size="10.00">AddShapeCommandTest.testExecuteAddsShape</text>
</a>
</g>
</g>
<!-- Node2 -->
<g id="node2" class="node">
<title>Node2</title>
<g id="a_node2"><a xlink:href="classcom_1_1example_1_1renderer_1_1command_1_1AddShapeCommand.html#ade460d9dcda0787b3d6bdc866e9827d6" target="_top" xlink:title="Executes the command operation.">
<polygon fill="white" stroke="black" points="285,-0.5 285,-30.5 467,-30.5 467,-0.5 285,-0.5"/>
<text text-anchor="start" x="293" y="-18.5" font-family="Helvetica,sans-Serif" font-size="10.00">com.example.renderer.command.</text>
<text text-anchor="middle" x="376" y="-7.5" font-family="Helvetica,sans-Serif" font-size="10.00">AddShapeCommand.execute</text>
</a>
</g>
</g>
<!-- Node1&#45;&gt;Node2 -->
<g id="edge1" class="edge">
<title>Node1&#45;&gt;Node2</title>
<path fill="none" stroke="midnightblue" d="M249.15,-15.5C257.69,-15.5 266.24,-15.5 274.63,-15.5"/>
<polygon fill="midnightblue" stroke="midnightblue" points="274.77,-19 284.77,-15.5 274.77,-12 274.77,-19"/>
</g>
</g>
</svg>
