<?xml version="1.0" encoding="UTF-8" standalone="no"?>
<!DOCTYPE svg PUBLIC "-//W3C//DTD SVG 1.1//EN"
 "http://www.w3.org/Graphics/SVG/1.1/DTD/svg11.dtd">
<!-- Generated by graphviz version 2.43.0 (0)
 -->
<!-- Title: com.example.renderer.factory.Rectangle.getY Pages: 1 -->
<!--zoomable 357 -->
<svg id="main" version="1.1" xmlns="http://www.w3.org/2000/svg" xmlns:xlink="http://www.w3.org/1999/xlink" xml:space="preserve" onload="init(evt)">
<style type="text/css"><![CDATA[
.edge:hover path { stroke: red; }
.edge:hover polygon { stroke: red; fill: red; }
]]></style>
<script type="text/javascript"><![CDATA[
var edges = document.getElementsByTagName('g');
if (edges && edges.length) {
  for (var i=0;i<edges.length;i++) {
    if (edges[i].id.substr(0,4)=='edge') {
      edges[i].setAttribute('class','edge');
    }
  }
}
]]></script>
        <defs>
                <circle id="rim" cx="0" cy="0" r="7"/>
                <circle id="rim2" cx="0" cy="0" r="3.5"/>
                <g id="zoomPlus">
                        <use xlink:href="#rim" fill="#404040">
                                <set attributeName="fill" to="#808080" begin="zoomplus.mouseover" end="zoomplus.mouseout"/>
                        </use>
                        <path d="M-4,0h8M0,-4v8" fill="none" stroke="white" stroke-width="1.5" pointer-events="none"/>
                </g>
                <g id="zoomMin">
                        <use xlink:href="#rim" fill="#404040">
                                <set attributeName="fill" to="#808080" begin="zoomminus.mouseover" end="zoomminus.mouseout"/>
                        </use>
                        <path d="M-4,0h8" fill="none" stroke="white" stroke-width="1.5" pointer-events="none"/>
                </g>
                <g id="dirArrow">
                        <path fill="none" stroke="white" stroke-width="1.5" d="M0,-3.0v7 M-2.5,-0.5L0,-3.0L2.5,-0.5"/>
                </g>
               <g id="resetDef">
                       <use xlink:href="#rim2" fill="#404040">
                               <set attributeName="fill" to="#808080" begin="reset.mouseover" end="reset.mouseout"/>
                       </use>
               </g>
        </defs>

<script type="text/javascript">
var viewWidth = 685;
var viewHeight = 357;
var sectionId = 'dynsection-7';
</script>
<script xlink:href="svgpan.js"/>
<svg id="graph" class="graph">
<g id="viewport">
<title>com.example.renderer.factory.Rectangle.getY</title>
<polygon fill="white" stroke="transparent" points="-4,4 -4,-352.5 681,-352.5 681,4 -4,4"/>
<!-- Node1 -->
<g id="node1" class="node">
<title>Node1</title>
<g id="a_node1"><a xlink:title="获取矩形左上角Y坐标">
<polygon fill="#bfbfbf" stroke="black" points="511,-147.5 511,-177.5 677,-177.5 677,-147.5 511,-147.5"/>
<text text-anchor="start" x="519" y="-165.5" font-family="Helvetica,sans-Serif" font-size="10.00">com.example.renderer.factory.</text>
<text text-anchor="middle" x="594" y="-154.5" font-family="Helvetica,sans-Serif" font-size="10.00">Rectangle.getY</text>
</a>
</g>
</g>
<!-- Node2 -->
<g id="node2" class="node">
<title>Node2</title>
<g id="a_node2"><a xlink:href="classcom_1_1example_1_1renderer_1_1factory_1_1RectangleTest.html#a67ecac95355520f78b9afa19bf1f6ea0" target="_top" xlink:title=" ">
<polygon fill="white" stroke="black" points="272,-307 272,-348 454,-348 454,-307 272,-307"/>
<text text-anchor="start" x="280" y="-336" font-family="Helvetica,sans-Serif" font-size="10.00">com.example.renderer.factory.</text>
<text text-anchor="start" x="280" y="-325" font-family="Helvetica,sans-Serif" font-size="10.00">RectangleTest.testGetDimensions</text>
<text text-anchor="middle" x="363" y="-314" font-family="Helvetica,sans-Serif" font-size="10.00">_AfterCreation</text>
</a>
</g>
</g>
<!-- Node1&#45;&gt;Node2 -->
<g id="edge1" class="edge">
<title>Node1&#45;&gt;Node2</title>
<path fill="none" stroke="midnightblue" d="M578.58,-186.35C558.94,-216.75 520.94,-268.81 475,-297.5 468.48,-301.57 461.41,-305.1 454.11,-308.15"/>
<polygon fill="midnightblue" stroke="midnightblue" points="581.69,-187.98 584.07,-177.66 575.77,-184.24 581.69,-187.98"/>
</g>
<!-- Node3 -->
<g id="node3" class="node">
<title>Node3</title>
<g id="a_node3"><a xlink:href="classcom_1_1example_1_1renderer_1_1factory_1_1RectangleTest.html#a101613f477d964b6d2236367011588be" target="_top" xlink:title=" ">
<polygon fill="white" stroke="black" points="280,-257.5 280,-287.5 446,-287.5 446,-257.5 280,-257.5"/>
<text text-anchor="start" x="288" y="-275.5" font-family="Helvetica,sans-Serif" font-size="10.00">com.example.renderer.factory.</text>
<text text-anchor="middle" x="363" y="-264.5" font-family="Helvetica,sans-Serif" font-size="10.00">RectangleTest.testMove</text>
</a>
</g>
</g>
<!-- Node1&#45;&gt;Node3 -->
<g id="edge2" class="edge">
<title>Node1&#45;&gt;Node3</title>
<path fill="none" stroke="midnightblue" d="M569.04,-184.26C546.4,-203.68 510.68,-231.44 475,-247.5 465.9,-251.59 456.08,-255.05 446.16,-257.95"/>
<polygon fill="midnightblue" stroke="midnightblue" points="571.53,-186.74 576.77,-177.53 566.93,-181.46 571.53,-186.74"/>
</g>
<!-- Node4 -->
<g id="node4" class="node">
<title>Node4</title>
<g id="a_node4"><a xlink:href="classcom_1_1example_1_1renderer_1_1factory_1_1RectangleTest.html#ab33ead0d042b18a1f2adbf004b06d5bf" target="_top" xlink:title=" ">
<polygon fill="white" stroke="black" points="251,-197 251,-238 475,-238 475,-197 251,-197"/>
<text text-anchor="start" x="259" y="-226" font-family="Helvetica,sans-Serif" font-size="10.00">com.example.renderer.factory.</text>
<text text-anchor="start" x="259" y="-215" font-family="Helvetica,sans-Serif" font-size="10.00">RectangleTest.testMove_ExtremeNegative</text>
<text text-anchor="middle" x="363" y="-204" font-family="Helvetica,sans-Serif" font-size="10.00">Values</text>
</a>
</g>
</g>
<!-- Node1&#45;&gt;Node4 -->
<g id="edge3" class="edge">
<title>Node1&#45;&gt;Node4</title>
<path fill="none" stroke="midnightblue" d="M520.6,-179.89C498.08,-185.3 473.02,-191.32 449.68,-196.92"/>
<polygon fill="midnightblue" stroke="midnightblue" points="521.52,-183.27 530.42,-177.53 519.88,-176.46 521.52,-183.27"/>
</g>
<!-- Node5 -->
<g id="node5" class="node">
<title>Node5</title>
<g id="a_node5"><a xlink:href="classcom_1_1example_1_1renderer_1_1factory_1_1RectangleTest.html#a04d4b9064734d35b2eda46e3a0aee615" target="_top" xlink:title=" ">
<polygon fill="white" stroke="black" points="257,-147.5 257,-177.5 469,-177.5 469,-147.5 257,-147.5"/>
<text text-anchor="start" x="265" y="-165.5" font-family="Helvetica,sans-Serif" font-size="10.00">com.example.renderer.factory.</text>
<text text-anchor="middle" x="363" y="-154.5" font-family="Helvetica,sans-Serif" font-size="10.00">RectangleTest.testMove_ExtremeValues</text>
</a>
</g>
</g>
<!-- Node1&#45;&gt;Node5 -->
<g id="edge4" class="edge">
<title>Node1&#45;&gt;Node5</title>
<path fill="none" stroke="midnightblue" d="M500.66,-162.5C490.25,-162.5 479.58,-162.5 469.02,-162.5"/>
<polygon fill="midnightblue" stroke="midnightblue" points="500.97,-166 510.97,-162.5 500.97,-159 500.97,-166"/>
</g>
<!-- Node6 -->
<g id="node6" class="node">
<title>Node6</title>
<g id="a_node6"><a xlink:href="classcom_1_1example_1_1renderer_1_1factory_1_1RectangleTest.html#a33f1cf3c9fbecfd935496e685d256b38" target="_top" xlink:title=" ">
<polygon fill="white" stroke="black" points="272,-98.5 272,-128.5 454,-128.5 454,-98.5 272,-98.5"/>
<text text-anchor="start" x="280" y="-116.5" font-family="Helvetica,sans-Serif" font-size="10.00">com.example.renderer.factory.</text>
<text text-anchor="middle" x="363" y="-105.5" font-family="Helvetica,sans-Serif" font-size="10.00">RectangleTest.testMove_Overflow</text>
</a>
</g>
</g>
<!-- Node1&#45;&gt;Node6 -->
<g id="edge5" class="edge">
<title>Node1&#45;&gt;Node6</title>
<path fill="none" stroke="midnightblue" d="M512.68,-145.31C487.08,-139.84 458.96,-133.82 434.13,-128.51"/>
<polygon fill="midnightblue" stroke="midnightblue" points="512.23,-148.8 522.74,-147.47 513.69,-141.95 512.23,-148.8"/>
</g>
<!-- Node7 -->
<g id="node7" class="node">
<title>Node7</title>
<g id="a_node7"><a xlink:href="classcom_1_1example_1_1renderer_1_1factory_1_1RectangleTest.html#a28f53549a54d7ccddf2428dd5072b9e2" target="_top" xlink:title=" ">
<polygon fill="white" stroke="black" points="256,-49.5 256,-79.5 470,-79.5 470,-49.5 256,-49.5"/>
<text text-anchor="start" x="264" y="-67.5" font-family="Helvetica,sans-Serif" font-size="10.00">com.example.renderer.factory.</text>
<text text-anchor="middle" x="363" y="-56.5" font-family="Helvetica,sans-Serif" font-size="10.00">RectangleTest.testMove_ZeroMovement</text>
</a>
</g>
</g>
<!-- Node1&#45;&gt;Node7 -->
<g id="edge6" class="edge">
<title>Node1&#45;&gt;Node7</title>
<path fill="none" stroke="midnightblue" d="M564.96,-141.41C541.91,-125.03 507.83,-102.91 475,-89.5 465.58,-85.65 455.46,-82.34 445.3,-79.51"/>
<polygon fill="midnightblue" stroke="midnightblue" points="563.07,-144.37 573.23,-147.38 567.17,-138.69 563.07,-144.37"/>
</g>
<!-- Node8 -->
<g id="node8" class="node">
<title>Node8</title>
<g id="a_node8"><a xlink:href="classcom_1_1example_1_1renderer_1_1visitor_1_1JSONExportVisitor.html#af42c3f77485d750dc6ec27edc31c1bf7" target="_top" xlink:title="将矩形对象转换为JSON格式输出">
<polygon fill="white" stroke="black" points="275,-0.5 275,-30.5 451,-30.5 451,-0.5 275,-0.5"/>
<text text-anchor="start" x="283" y="-18.5" font-family="Helvetica,sans-Serif" font-size="10.00">com.example.renderer.visitor.</text>
<text text-anchor="middle" x="363" y="-7.5" font-family="Helvetica,sans-Serif" font-size="10.00">JSONExportVisitor.visitRectangle</text>
</a>
</g>
</g>
<!-- Node1&#45;&gt;Node8 -->
<g id="edge7" class="edge">
<title>Node1&#45;&gt;Node8</title>
<path fill="none" stroke="midnightblue" d="M576.98,-139.02C556.62,-111.08 518.81,-65.11 475,-40.5 467.59,-36.34 459.54,-32.87 451.28,-29.98"/>
<polygon fill="midnightblue" stroke="midnightblue" points="574.31,-141.3 582.96,-147.41 580,-137.23 574.31,-141.3"/>
</g>
<!-- Node9 -->
<g id="node9" class="node">
<title>Node9</title>
<g id="a_node9"><a xlink:href="classcom_1_1example_1_1renderer_1_1visitor_1_1JSONExportVisitorTest.html#ae9fbae701c3e953b750637b740dbedfc" target="_top" xlink:title=" ">
<polygon fill="white" stroke="black" points="0,-0.5 0,-30.5 215,-30.5 215,-0.5 0,-0.5"/>
<text text-anchor="start" x="8" y="-18.5" font-family="Helvetica,sans-Serif" font-size="10.00">com.example.renderer.visitor.</text>
<text text-anchor="middle" x="107.5" y="-7.5" font-family="Helvetica,sans-Serif" font-size="10.00">JSONExportVisitorTest.testVisitRectangle</text>
</a>
</g>
</g>
<!-- Node8&#45;&gt;Node9 -->
<g id="edge8" class="edge">
<title>Node8&#45;&gt;Node9</title>
<path fill="none" stroke="midnightblue" d="M264.76,-15.5C248.53,-15.5 231.62,-15.5 215.17,-15.5"/>
<polygon fill="midnightblue" stroke="midnightblue" points="264.76,-19 274.76,-15.5 264.76,-12 264.76,-19"/>
</g>
</g>
</svg>
        <g id="navigator" transform="translate(0 0)" fill="#404254">
                <rect fill="#f2f5e9" fill-opacity="0.5" stroke="#606060" stroke-width=".5" x="0" y="0" width="60" height="60"/>
                <use id="zoomplus" xlink:href="#zoomPlus" x="17" y="9" onmousedown="handleZoom(evt,'in')"/>
                <use id="zoomminus" xlink:href="#zoomMin" x="42" y="9" onmousedown="handleZoom(evt,'out')"/>
                <use id="reset" xlink:href="#resetDef" x="30" y="36" onmousedown="handleReset()"/>
                <g id="arrowUp" xlink:href="#dirArrow" transform="translate(30 24)" onmousedown="handlePan(0,-1)">
                  <use xlink:href="#rim" fill="#404040">
                        <set attributeName="fill" to="#808080" begin="arrowUp.mouseover" end="arrowUp.mouseout"/>
                  </use>
                  <path fill="none" stroke="white" stroke-width="1.5" d="M0,-3.0v7 M-2.5,-0.5L0,-3.0L2.5,-0.5"/>
                </g>
                <g id="arrowRight" xlink:href="#dirArrow" transform="rotate(90) translate(36 -43)" onmousedown="handlePan(1,0)">
                  <use xlink:href="#rim" fill="#404040">
                        <set attributeName="fill" to="#808080" begin="arrowRight.mouseover" end="arrowRight.mouseout"/>
                  </use>
                  <path fill="none" stroke="white" stroke-width="1.5" d="M0,-3.0v7 M-2.5,-0.5L0,-3.0L2.5,-0.5"/>
                </g>
                <g id="arrowDown" xlink:href="#dirArrow" transform="rotate(180) translate(-30 -48)" onmousedown="handlePan(0,1)">
                  <use xlink:href="#rim" fill="#404040">
                        <set attributeName="fill" to="#808080" begin="arrowDown.mouseover" end="arrowDown.mouseout"/>
                  </use>
                  <path fill="none" stroke="white" stroke-width="1.5" d="M0,-3.0v7 M-2.5,-0.5L0,-3.0L2.5,-0.5"/>
                </g>
                <g id="arrowLeft" xlink:href="#dirArrow" transform="rotate(270) translate(-36 17)" onmousedown="handlePan(-1,0)">
                  <use xlink:href="#rim" fill="#404040">
                        <set attributeName="fill" to="#808080" begin="arrowLeft.mouseover" end="arrowLeft.mouseout"/>
                  </use>
                  <path fill="none" stroke="white" stroke-width="1.5" d="M0,-3.0v7 M-2.5,-0.5L0,-3.0L2.5,-0.5"/>
                </g>
        </g>
        <svg viewBox="0 0 15 15" width="100%" height="30px" preserveAspectRatio="xMaxYMin meet">
         <g id="arrow_out" transform="scale(0.3 0.3)">
          <a xlink:href="classcom_1_1example_1_1renderer_1_1factory_1_1Rectangle_a8086515b4c50de24274dace98a8ca9ea_icgraph_org.svg" target="_base">
           <rect id="button" ry="5" rx="5" y="6" x="6" height="38" width="38"
                fill="#f2f5e9" fill-opacity="0.5" stroke="#606060" stroke-width="1.0"/>
           <path id="arrow"
             d="M 11.500037,31.436501 C 11.940474,20.09759 22.043105,11.32322 32.158766,21.979434 L 37.068811,17.246167 C 37.068811,17.246167 37.088388,32 37.088388,32 L 22.160133,31.978069 C 22.160133,31.978069 26.997745,27.140456 26.997745,27.140456 C 18.528582,18.264221 13.291696,25.230495 11.500037,31.436501 z"
             style="fill:#404040;"/>
          </a>
         </g>
        </svg>
</svg>
