<?xml version="1.0" encoding="UTF-8" standalone="no"?>
<!DOCTYPE svg PUBLIC "-//W3C//DTD SVG 1.1//EN"
 "http://www.w3.org/Graphics/SVG/1.1/DTD/svg11.dtd">
<!-- Generated by graphviz version 2.43.0 (0)
 -->
<!-- Title: com.example.renderer.factory.Rectangle.render Pages: 1 -->
<svg width="376pt" height="220pt"
 viewBox="0.00 0.00 376.00 219.50" xmlns="http://www.w3.org/2000/svg" xmlns:xlink="http://www.w3.org/1999/xlink">
<g id="graph0" class="graph" transform="scale(1 1) rotate(0) translate(4 215.5)">
<title>com.example.renderer.factory.Rectangle.render</title>
<polygon fill="white" stroke="transparent" points="-4,4 -4,-215.5 372,-215.5 372,4 -4,4"/>
<!-- Node1 -->
<g id="node1" class="node">
<title>Node1</title>
<g id="a_node1"><a xlink:title="使用指定的渲染器绘制图形。 具体绘制逻辑由实现类决定，渲染器参数提供实际的绘制能力。">
<polygon fill="#bfbfbf" stroke="black" points="202,-96 202,-126 368,-126 368,-96 202,-96"/>
<text text-anchor="start" x="210" y="-114" font-family="Helvetica,sans-Serif" font-size="10.00">com.example.renderer.factory.</text>
<text text-anchor="middle" x="285" y="-103" font-family="Helvetica,sans-Serif" font-size="10.00">Rectangle.render</text>
</a>
</g>
</g>
<!-- Node2 -->
<g id="node2" class="node">
<title>Node2</title>
<g id="a_node2"><a xlink:href="classcom_1_1example_1_1renderer_1_1factory_1_1RectangleTest.html#ab90a641f0c1178b4bd8bc53359719538" target="_top" xlink:title=" ">
<polygon fill="white" stroke="black" points="0,-181 0,-211 166,-211 166,-181 0,-181"/>
<text text-anchor="start" x="8" y="-199" font-family="Helvetica,sans-Serif" font-size="10.00">com.example.renderer.factory.</text>
<text text-anchor="middle" x="83" y="-188" font-family="Helvetica,sans-Serif" font-size="10.00">RectangleTest.testRender</text>
</a>
</g>
</g>
<!-- Node1&#45;&gt;Node2 -->
<g id="edge1" class="edge">
<title>Node1&#45;&gt;Node2</title>
<path fill="none" stroke="midnightblue" d="M248.4,-131.16C225.37,-143.68 194.48,-159.52 166,-171 157.17,-174.56 147.62,-177.9 138.28,-180.92"/>
<polygon fill="midnightblue" stroke="midnightblue" points="250.36,-134.08 257.44,-126.2 246.99,-127.94 250.36,-134.08"/>
</g>
<!-- Node3 -->
<g id="node3" class="node">
<title>Node3</title>
<g id="a_node3"><a xlink:href="classcom_1_1example_1_1renderer_1_1factory_1_1RectangleTest.html#accaa0c110694cb3f70d3725dcc28bd1a" target="_top" xlink:title=" ">
<polygon fill="white" stroke="black" points="0,-120.5 0,-161.5 166,-161.5 166,-120.5 0,-120.5"/>
<text text-anchor="start" x="8" y="-149.5" font-family="Helvetica,sans-Serif" font-size="10.00">com.example.renderer.factory.</text>
<text text-anchor="start" x="8" y="-138.5" font-family="Helvetica,sans-Serif" font-size="10.00">RectangleTest.testRender</text>
<text text-anchor="middle" x="83" y="-127.5" font-family="Helvetica,sans-Serif" font-size="10.00">_AfterMoving</text>
</a>
</g>
</g>
<!-- Node1&#45;&gt;Node3 -->
<g id="edge2" class="edge">
<title>Node1&#45;&gt;Node3</title>
<path fill="none" stroke="midnightblue" d="M191.81,-124.83C183.27,-126.11 174.66,-127.4 166.22,-128.67"/>
<polygon fill="midnightblue" stroke="midnightblue" points="192.42,-128.28 201.79,-123.33 191.38,-121.35 192.42,-128.28"/>
</g>
<!-- Node4 -->
<g id="node4" class="node">
<title>Node4</title>
<g id="a_node4"><a xlink:href="classcom_1_1example_1_1renderer_1_1factory_1_1RectangleTest.html#aef5b4a1255c09f622939851f91bc843c" target="_top" xlink:title=" ">
<polygon fill="white" stroke="black" points="0,-60.5 0,-101.5 166,-101.5 166,-60.5 0,-60.5"/>
<text text-anchor="start" x="8" y="-89.5" font-family="Helvetica,sans-Serif" font-size="10.00">com.example.renderer.factory.</text>
<text text-anchor="start" x="8" y="-78.5" font-family="Helvetica,sans-Serif" font-size="10.00">RectangleTest.testRender</text>
<text text-anchor="middle" x="83" y="-67.5" font-family="Helvetica,sans-Serif" font-size="10.00">_AfterMultipleMoves</text>
</a>
</g>
</g>
<!-- Node1&#45;&gt;Node4 -->
<g id="edge3" class="edge">
<title>Node1&#45;&gt;Node4</title>
<path fill="none" stroke="midnightblue" d="M191.81,-97.17C183.27,-95.89 174.66,-94.6 166.22,-93.33"/>
<polygon fill="midnightblue" stroke="midnightblue" points="191.38,-100.65 201.79,-98.67 192.42,-93.72 191.38,-100.65"/>
</g>
<!-- Node5 -->
<g id="node5" class="node">
<title>Node5</title>
<g id="a_node5"><a xlink:href="classcom_1_1example_1_1renderer_1_1factory_1_1RectangleTest.html#afcf9d1f3110f588744ed59f7e8001fa0" target="_top" xlink:title=" ">
<polygon fill="white" stroke="black" points="0,-0.5 0,-41.5 166,-41.5 166,-0.5 0,-0.5"/>
<text text-anchor="start" x="8" y="-29.5" font-family="Helvetica,sans-Serif" font-size="10.00">com.example.renderer.factory.</text>
<text text-anchor="start" x="8" y="-18.5" font-family="Helvetica,sans-Serif" font-size="10.00">RectangleTest.testRender</text>
<text text-anchor="middle" x="83" y="-7.5" font-family="Helvetica,sans-Serif" font-size="10.00">_ExtremeSize</text>
</a>
</g>
</g>
<!-- Node1&#45;&gt;Node5 -->
<g id="edge4" class="edge">
<title>Node1&#45;&gt;Node5</title>
<path fill="none" stroke="midnightblue" d="M247.72,-91.13C224.65,-78.85 193.97,-63.17 166,-51 158.63,-47.79 150.8,-44.63 143.02,-41.63"/>
<polygon fill="midnightblue" stroke="midnightblue" points="246.32,-94.35 256.79,-95.99 249.63,-88.18 246.32,-94.35"/>
</g>
</g>
</svg>
