<?xml version="1.0" encoding="UTF-8" standalone="no"?>
<!DOCTYPE svg PUBLIC "-//W3C//DTD SVG 1.1//EN"
 "http://www.w3.org/Graphics/SVG/1.1/DTD/svg11.dtd">
<!-- Generated by graphviz version 2.43.0 (0)
 -->
<!-- Title: com.example.renderer.legacy.LegacyRenderer.drawLegacyRectangle Pages: 1 -->
<svg width="494pt" height="88pt"
 viewBox="0.00 0.00 494.00 88.00" xmlns="http://www.w3.org/2000/svg" xmlns:xlink="http://www.w3.org/1999/xlink">
<g id="graph0" class="graph" transform="scale(1 1) rotate(0) translate(4 84)">
<title>com.example.renderer.legacy.LegacyRenderer.drawLegacyRectangle</title>
<polygon fill="white" stroke="transparent" points="-4,4 -4,-84 490,-84 490,4 -4,4"/>
<!-- Node1 -->
<g id="node1" class="node">
<title>Node1</title>
<g id="a_node1"><a xlink:title=" ">
<polygon fill="#bfbfbf" stroke="black" points="281,-24.5 281,-54.5 486,-54.5 486,-24.5 281,-24.5"/>
<text text-anchor="start" x="289" y="-42.5" font-family="Helvetica,sans-Serif" font-size="10.00">com.example.renderer.legacy.</text>
<text text-anchor="middle" x="383.5" y="-31.5" font-family="Helvetica,sans-Serif" font-size="10.00">LegacyRenderer.drawLegacyRectangle</text>
</a>
</g>
</g>
<!-- Node2 -->
<g id="node2" class="node">
<title>Node2</title>
<g id="a_node2"><a xlink:href="classcom_1_1example_1_1renderer_1_1adapter_1_1LegacyRendererAdapter.html#addeae4dba92259721a837dec63a902f9" target="_top" xlink:title=" ">
<polygon fill="white" stroke="black" points="18,-49.5 18,-79.5 227,-79.5 227,-49.5 18,-49.5"/>
<text text-anchor="start" x="26" y="-67.5" font-family="Helvetica,sans-Serif" font-size="10.00">com.example.renderer.adapter.</text>
<text text-anchor="middle" x="122.5" y="-56.5" font-family="Helvetica,sans-Serif" font-size="10.00">LegacyRendererAdapter.drawRectangle</text>
</a>
</g>
</g>
<!-- Node1&#45;&gt;Node2 -->
<g id="edge1" class="edge">
<title>Node1&#45;&gt;Node2</title>
<path fill="none" stroke="midnightblue" d="M270.51,-50.31C256.19,-51.69 241.57,-53.1 227.38,-54.47"/>
<polygon fill="midnightblue" stroke="midnightblue" points="271.26,-53.75 280.88,-49.31 270.59,-46.79 271.26,-53.75"/>
</g>
<!-- Node3 -->
<g id="node3" class="node">
<title>Node3</title>
<g id="a_node3"><a xlink:href="classcom_1_1example_1_1renderertest_1_1adapter_1_1LegacyRendererTest.html#ad009fc06e82ae84fc79ed6b5ba0a093d" target="_top" xlink:title=" ">
<polygon fill="white" stroke="black" points="0,-0.5 0,-30.5 245,-30.5 245,-0.5 0,-0.5"/>
<text text-anchor="start" x="8" y="-18.5" font-family="Helvetica,sans-Serif" font-size="10.00">com.example.renderertest.adapter.</text>
<text text-anchor="middle" x="122.5" y="-7.5" font-family="Helvetica,sans-Serif" font-size="10.00">LegacyRendererTest.testDrawLegacyRectangle</text>
</a>
</g>
</g>
<!-- Node1&#45;&gt;Node3 -->
<g id="edge2" class="edge">
<title>Node1&#45;&gt;Node3</title>
<path fill="none" stroke="midnightblue" d="M270.89,-29.16C262.33,-28.36 253.66,-27.56 245.04,-26.76"/>
<polygon fill="midnightblue" stroke="midnightblue" points="270.6,-32.65 280.88,-30.08 271.25,-25.68 270.6,-32.65"/>
</g>
</g>
</svg>
