<?xml version="1.0" encoding="UTF-8" standalone="no"?>
<!DOCTYPE svg PUBLIC "-//W3C//DTD SVG 1.1//EN"
 "http://www.w3.org/Graphics/SVG/1.1/DTD/svg11.dtd">
<!-- Generated by graphviz version 2.43.0 (0)
 -->
<!-- Title: com.example.renderer.factory.Circle.render Pages: 1 -->
<svg width="435pt" height="186pt"
 viewBox="0.00 0.00 435.00 186.00" xmlns="http://www.w3.org/2000/svg" xmlns:xlink="http://www.w3.org/1999/xlink">
<g id="graph0" class="graph" transform="scale(1 1) rotate(0) translate(4 182)">
<title>com.example.renderer.factory.Circle.render</title>
<polygon fill="white" stroke="transparent" points="-4,4 -4,-182 431,-182 431,4 -4,4"/>
<!-- Node1 -->
<g id="node1" class="node">
<title>Node1</title>
<g id="a_node1"><a xlink:title="使用指定的渲染器绘制图形。 具体绘制逻辑由实现类决定，渲染器参数提供实际的绘制能力。">
<polygon fill="#bfbfbf" stroke="black" points="261,-73.5 261,-103.5 427,-103.5 427,-73.5 261,-73.5"/>
<text text-anchor="start" x="269" y="-91.5" font-family="Helvetica,sans-Serif" font-size="10.00">com.example.renderer.factory.</text>
<text text-anchor="middle" x="344" y="-80.5" font-family="Helvetica,sans-Serif" font-size="10.00">Circle.render</text>
</a>
</g>
</g>
<!-- Node2 -->
<g id="node2" class="node">
<title>Node2</title>
<g id="a_node2"><a xlink:href="classcom_1_1example_1_1renderer_1_1factory_1_1CircleTest.html#a7e3a7a568f036a4d96dc29755096546b" target="_top" xlink:title=" ">
<polygon fill="white" stroke="black" points="29.5,-147.5 29.5,-177.5 195.5,-177.5 195.5,-147.5 29.5,-147.5"/>
<text text-anchor="start" x="37.5" y="-165.5" font-family="Helvetica,sans-Serif" font-size="10.00">com.example.renderer.factory.</text>
<text text-anchor="middle" x="112.5" y="-154.5" font-family="Helvetica,sans-Serif" font-size="10.00">CircleTest.testRender</text>
</a>
</g>
</g>
<!-- Node1&#45;&gt;Node2 -->
<g id="edge1" class="edge">
<title>Node1&#45;&gt;Node2</title>
<path fill="none" stroke="midnightblue" d="M302.82,-107.76C280.33,-117.97 251.54,-130.1 225,-138.5 214.52,-141.81 203.35,-144.82 192.27,-147.49"/>
<polygon fill="midnightblue" stroke="midnightblue" points="304.43,-110.87 312.05,-103.52 301.51,-104.51 304.43,-110.87"/>
</g>
<!-- Node3 -->
<g id="node3" class="node">
<title>Node3</title>
<g id="a_node3"><a xlink:href="classcom_1_1example_1_1renderer_1_1factory_1_1CircleTest.html#a6e27a2ee2e9a4ab7acfe2ff2e25b275a" target="_top" xlink:title=" ">
<polygon fill="white" stroke="black" points="2,-98.5 2,-128.5 223,-128.5 223,-98.5 2,-98.5"/>
<text text-anchor="start" x="10" y="-116.5" font-family="Helvetica,sans-Serif" font-size="10.00">com.example.renderer.factory.</text>
<text text-anchor="middle" x="112.5" y="-105.5" font-family="Helvetica,sans-Serif" font-size="10.00">CircleTest.testRender_AfterMultipleMoves</text>
</a>
</g>
</g>
<!-- Node1&#45;&gt;Node3 -->
<g id="edge2" class="edge">
<title>Node1&#45;&gt;Node3</title>
<path fill="none" stroke="midnightblue" d="M250.66,-98.56C241.61,-99.55 232.35,-100.55 223.15,-101.56"/>
<polygon fill="midnightblue" stroke="midnightblue" points="251.23,-102.02 260.79,-97.45 250.47,-95.06 251.23,-102.02"/>
</g>
<!-- Node4 -->
<g id="node4" class="node">
<title>Node4</title>
<g id="a_node4"><a xlink:href="classcom_1_1example_1_1renderer_1_1factory_1_1CircleTest.html#a0910bc5d2c2bde87f1ff86325949e990" target="_top" xlink:title=" ">
<polygon fill="white" stroke="black" points="20.5,-49.5 20.5,-79.5 204.5,-79.5 204.5,-49.5 20.5,-49.5"/>
<text text-anchor="start" x="28.5" y="-67.5" font-family="Helvetica,sans-Serif" font-size="10.00">com.example.renderer.factory.</text>
<text text-anchor="middle" x="112.5" y="-56.5" font-family="Helvetica,sans-Serif" font-size="10.00">CircleTest.testRender_AfterScaling</text>
</a>
</g>
</g>
<!-- Node1&#45;&gt;Node4 -->
<g id="edge3" class="edge">
<title>Node1&#45;&gt;Node4</title>
<path fill="none" stroke="midnightblue" d="M250.48,-78.82C235.44,-77.25 219.88,-75.62 204.87,-74.05"/>
<polygon fill="midnightblue" stroke="midnightblue" points="250.48,-82.34 260.79,-79.9 251.21,-75.38 250.48,-82.34"/>
</g>
<!-- Node5 -->
<g id="node5" class="node">
<title>Node5</title>
<g id="a_node5"><a xlink:href="classcom_1_1example_1_1renderer_1_1factory_1_1CircleTest.html#ab7ef35cc7fc5f77001038fdb5cc3f82e" target="_top" xlink:title=" ">
<polygon fill="white" stroke="black" points="0,-0.5 0,-30.5 225,-30.5 225,-0.5 0,-0.5"/>
<text text-anchor="start" x="8" y="-18.5" font-family="Helvetica,sans-Serif" font-size="10.00">com.example.renderer.factory.</text>
<text text-anchor="middle" x="112.5" y="-7.5" font-family="Helvetica,sans-Serif" font-size="10.00">CircleTest.testRender_ExtremeCoordinates</text>
</a>
</g>
</g>
<!-- Node1&#45;&gt;Node5 -->
<g id="edge4" class="edge">
<title>Node1&#45;&gt;Node5</title>
<path fill="none" stroke="midnightblue" d="M301.05,-69.46C278.78,-59.85 250.76,-48.57 225,-40.5 213.36,-36.85 200.87,-33.52 188.62,-30.55"/>
<polygon fill="midnightblue" stroke="midnightblue" points="299.66,-72.66 310.22,-73.45 302.45,-66.25 299.66,-72.66"/>
</g>
</g>
</svg>
