<?xml version="1.0" encoding="UTF-8" standalone="no"?>
<!DOCTYPE svg PUBLIC "-//W3C//DTD SVG 1.1//EN"
 "http://www.w3.org/Graphics/SVG/1.1/DTD/svg11.dtd">
<!-- Generated by graphviz version 2.43.0 (0)
 -->
<!-- Title: com.example.renderer.factory.EllipseTest.testMove_ToBoundary Pages: 1 -->
<svg width="389pt" height="137pt"
 viewBox="0.00 0.00 389.00 137.00" xmlns="http://www.w3.org/2000/svg" xmlns:xlink="http://www.w3.org/1999/xlink">
<g id="graph0" class="graph" transform="scale(1 1) rotate(0) translate(4 133)">
<title>com.example.renderer.factory.EllipseTest.testMove_ToBoundary</title>
<polygon fill="white" stroke="transparent" points="-4,4 -4,-133 385,-133 385,4 -4,4"/>
<!-- Node1 -->
<g id="node1" class="node">
<title>Node1</title>
<g id="a_node1"><a xlink:title=" ">
<polygon fill="#bfbfbf" stroke="black" points="0,-49.5 0,-79.5 179,-79.5 179,-49.5 0,-49.5"/>
<text text-anchor="start" x="8" y="-67.5" font-family="Helvetica,sans-Serif" font-size="10.00">com.example.renderer.factory.</text>
<text text-anchor="middle" x="89.5" y="-56.5" font-family="Helvetica,sans-Serif" font-size="10.00">EllipseTest.testMove_ToBoundary</text>
</a>
</g>
</g>
<!-- Node2 -->
<g id="node2" class="node">
<title>Node2</title>
<g id="a_node2"><a xlink:href="classcom_1_1example_1_1renderer_1_1factory_1_1Ellipse.html#a5856f1f689143235929a233715984015" target="_top" xlink:title="获取椭圆中心X坐标。">
<polygon fill="white" stroke="black" points="215,-98.5 215,-128.5 381,-128.5 381,-98.5 215,-98.5"/>
<text text-anchor="start" x="223" y="-116.5" font-family="Helvetica,sans-Serif" font-size="10.00">com.example.renderer.factory.</text>
<text text-anchor="middle" x="298" y="-105.5" font-family="Helvetica,sans-Serif" font-size="10.00">Ellipse.getX</text>
</a>
</g>
</g>
<!-- Node1&#45;&gt;Node2 -->
<g id="edge1" class="edge">
<title>Node1&#45;&gt;Node2</title>
<path fill="none" stroke="midnightblue" d="M153.86,-79.53C175.96,-84.78 200.94,-90.71 223.78,-96.13"/>
<polygon fill="midnightblue" stroke="midnightblue" points="223.22,-99.59 233.76,-98.49 224.84,-92.78 223.22,-99.59"/>
</g>
<!-- Node3 -->
<g id="node3" class="node">
<title>Node3</title>
<g id="a_node3"><a xlink:href="classcom_1_1example_1_1renderer_1_1factory_1_1Ellipse.html#a4d9e2941518bae18c76c125b5fcc8020" target="_top" xlink:title="获取椭圆中心Y坐标">
<polygon fill="white" stroke="black" points="215,-49.5 215,-79.5 381,-79.5 381,-49.5 215,-49.5"/>
<text text-anchor="start" x="223" y="-67.5" font-family="Helvetica,sans-Serif" font-size="10.00">com.example.renderer.factory.</text>
<text text-anchor="middle" x="298" y="-56.5" font-family="Helvetica,sans-Serif" font-size="10.00">Ellipse.getY</text>
</a>
</g>
</g>
<!-- Node1&#45;&gt;Node3 -->
<g id="edge2" class="edge">
<title>Node1&#45;&gt;Node3</title>
<path fill="none" stroke="midnightblue" d="M179.27,-64.5C187.67,-64.5 196.19,-64.5 204.62,-64.5"/>
<polygon fill="midnightblue" stroke="midnightblue" points="204.83,-68 214.83,-64.5 204.83,-61 204.83,-68"/>
</g>
<!-- Node4 -->
<g id="node4" class="node">
<title>Node4</title>
<g id="a_node4"><a xlink:href="classcom_1_1example_1_1renderer_1_1factory_1_1Ellipse.html#a808ff21c247338648adfca587956e352" target="_top" xlink:title="移动椭圆的位置。">
<polygon fill="white" stroke="black" points="215,-0.5 215,-30.5 381,-30.5 381,-0.5 215,-0.5"/>
<text text-anchor="start" x="223" y="-18.5" font-family="Helvetica,sans-Serif" font-size="10.00">com.example.renderer.factory.</text>
<text text-anchor="middle" x="298" y="-7.5" font-family="Helvetica,sans-Serif" font-size="10.00">Ellipse.move</text>
</a>
</g>
</g>
<!-- Node1&#45;&gt;Node4 -->
<g id="edge3" class="edge">
<title>Node1&#45;&gt;Node4</title>
<path fill="none" stroke="midnightblue" d="M153.86,-49.47C175.96,-44.22 200.94,-38.29 223.78,-32.87"/>
<polygon fill="midnightblue" stroke="midnightblue" points="224.84,-36.22 233.76,-30.51 223.22,-29.41 224.84,-36.22"/>
</g>
</g>
</svg>
