<?xml version="1.0" encoding="UTF-8" standalone="no"?>
<!DOCTYPE svg PUBLIC "-//W3C//DTD SVG 1.1//EN"
 "http://www.w3.org/Graphics/SVG/1.1/DTD/svg11.dtd">
<!-- Generated by graphviz version 2.43.0 (0)
 -->
<!-- Title: com.example.renderertest.adapter.LegacyRendererTest.testDrawLegacyTriangle Pages: 1 -->
<svg width="473pt" height="39pt"
 viewBox="0.00 0.00 473.00 39.00" xmlns="http://www.w3.org/2000/svg" xmlns:xlink="http://www.w3.org/1999/xlink">
<g id="graph0" class="graph" transform="scale(1 1) rotate(0) translate(4 35)">
<title>com.example.renderertest.adapter.LegacyRendererTest.testDrawLegacyTriangle</title>
<polygon fill="white" stroke="transparent" points="-4,4 -4,-35 469,-35 469,4 -4,4"/>
<!-- Node1 -->
<g id="node1" class="node">
<title>Node1</title>
<g id="a_node1"><a xlink:title=" ">
<polygon fill="#bfbfbf" stroke="black" points="0,-0.5 0,-30.5 235,-30.5 235,-0.5 0,-0.5"/>
<text text-anchor="start" x="8" y="-18.5" font-family="Helvetica,sans-Serif" font-size="10.00">com.example.renderertest.adapter.</text>
<text text-anchor="middle" x="117.5" y="-7.5" font-family="Helvetica,sans-Serif" font-size="10.00">LegacyRendererTest.testDrawLegacyTriangle</text>
</a>
</g>
</g>
<!-- Node2 -->
<g id="node2" class="node">
<title>Node2</title>
<g id="a_node2"><a xlink:href="classcom_1_1example_1_1renderer_1_1legacy_1_1LegacyRenderer.html#a2207de1509412acc915b04dc78919186" target="_top" xlink:title=" ">
<polygon fill="white" stroke="black" points="271,-0.5 271,-30.5 465,-30.5 465,-0.5 271,-0.5"/>
<text text-anchor="start" x="279" y="-18.5" font-family="Helvetica,sans-Serif" font-size="10.00">com.example.renderer.legacy.</text>
<text text-anchor="middle" x="368" y="-7.5" font-family="Helvetica,sans-Serif" font-size="10.00">LegacyRenderer.drawLegacyTriangle</text>
</a>
</g>
</g>
<!-- Node1&#45;&gt;Node2 -->
<g id="edge1" class="edge">
<title>Node1&#45;&gt;Node2</title>
<path fill="none" stroke="midnightblue" d="M235.11,-15.5C243.63,-15.5 252.19,-15.5 260.64,-15.5"/>
<polygon fill="midnightblue" stroke="midnightblue" points="260.89,-19 270.89,-15.5 260.89,-12 260.89,-19"/>
</g>
</g>
</svg>
