<?xml version="1.0" encoding="UTF-8" standalone="no"?>
<!DOCTYPE svg PUBLIC "-//W3C//DTD SVG 1.1//EN"
 "http://www.w3.org/Graphics/SVG/1.1/DTD/svg11.dtd">
<!-- Generated by graphviz version 2.43.0 (0)
 -->
<!-- Title: com.example.renderer.bridge.Renderer.drawCircle Pages: 1 -->
<svg width="668pt" height="159pt"
 viewBox="0.00 0.00 668.00 159.00" xmlns="http://www.w3.org/2000/svg" xmlns:xlink="http://www.w3.org/1999/xlink">
<g id="graph0" class="graph" transform="scale(1 1) rotate(0) translate(4 155)">
<title>com.example.renderer.bridge.Renderer.drawCircle</title>
<polygon fill="white" stroke="transparent" points="-4,4 -4,-155 664,-155 664,4 -4,4"/>
<!-- Node1 -->
<g id="node1" class="node">
<title>Node1</title>
<g id="a_node1"><a xlink:title=" ">
<polygon fill="#bfbfbf" stroke="black" points="496,-61 496,-91 660,-91 660,-61 496,-61"/>
<text text-anchor="start" x="504" y="-79" font-family="Helvetica,sans-Serif" font-size="10.00">com.example.renderer.bridge.</text>
<text text-anchor="middle" x="578" y="-68" font-family="Helvetica,sans-Serif" font-size="10.00">Renderer.drawCircle</text>
</a>
</g>
</g>
<!-- Node2 -->
<g id="node2" class="node">
<title>Node2</title>
<g id="a_node2"><a xlink:href="classcom_1_1example_1_1renderer_1_1proxy_1_1RemoteRendererProxy.html#a023bafacacf0b539929be9570863a4a5" target="_top" xlink:title=" ">
<polygon fill="white" stroke="black" points="256,-113 256,-143 436,-143 436,-113 256,-113"/>
<text text-anchor="start" x="264" y="-131" font-family="Helvetica,sans-Serif" font-size="10.00">com.example.renderer.proxy.</text>
<text text-anchor="middle" x="346" y="-120" font-family="Helvetica,sans-Serif" font-size="10.00">RemoteRendererProxy.drawCircle</text>
</a>
</g>
</g>
<!-- Node1&#45;&gt;Node2 -->
<g id="edge1" class="edge">
<title>Node1&#45;&gt;Node2</title>
<path fill="none" stroke="midnightblue" d="M500.65,-93.26C472.41,-99.65 440.66,-106.83 413.38,-112.99"/>
<polygon fill="midnightblue" stroke="midnightblue" points="501.49,-96.66 510.47,-91.04 499.95,-89.83 501.49,-96.66"/>
</g>
<!-- Node4 -->
<g id="node4" class="node">
<title>Node4</title>
<g id="a_node4"><a xlink:href="classcom_1_1example_1_1renderer_1_1factory_1_1Circle.html#ac32a767950b0417badcb3b445052cc8a" target="_top" xlink:title=" ">
<polygon fill="white" stroke="black" points="263,-61 263,-91 429,-91 429,-61 263,-61"/>
<text text-anchor="start" x="271" y="-79" font-family="Helvetica,sans-Serif" font-size="10.00">com.example.renderer.factory.</text>
<text text-anchor="middle" x="346" y="-68" font-family="Helvetica,sans-Serif" font-size="10.00">Circle.render</text>
</a>
</g>
</g>
<!-- Node1&#45;&gt;Node4 -->
<g id="edge3" class="edge">
<title>Node1&#45;&gt;Node4</title>
<path fill="none" stroke="midnightblue" d="M485.67,-76C467.06,-76 447.58,-76 429.3,-76"/>
<polygon fill="midnightblue" stroke="midnightblue" points="485.91,-79.5 495.91,-76 485.91,-72.5 485.91,-79.5"/>
</g>
<!-- Node6 -->
<g id="node6" class="node">
<title>Node6</title>
<g id="a_node6"><a xlink:href="classcom_1_1example_1_1renderertest_1_1adapter_1_1LegacyRendererAdapterTest.html#afa09562b35921dc9cdab3bcbed31266d" target="_top" xlink:title=" ">
<polygon fill="white" stroke="black" points="232,-0.5 232,-41.5 460,-41.5 460,-0.5 232,-0.5"/>
<text text-anchor="start" x="240" y="-29.5" font-family="Helvetica,sans-Serif" font-size="10.00">com.example.renderertest.adapter.</text>
<text text-anchor="start" x="240" y="-18.5" font-family="Helvetica,sans-Serif" font-size="10.00">LegacyRendererAdapterTest.testDrawCircle</text>
<text text-anchor="middle" x="346" y="-7.5" font-family="Helvetica,sans-Serif" font-size="10.00">_ForwardsToLegacyRenderer</text>
</a>
</g>
</g>
<!-- Node1&#45;&gt;Node6 -->
<g id="edge5" class="edge">
<title>Node1&#45;&gt;Node6</title>
<path fill="none" stroke="midnightblue" d="M504.29,-58.61C481.66,-53.2 456.5,-47.18 433.05,-41.58"/>
<polygon fill="midnightblue" stroke="midnightblue" points="503.61,-62.05 514.15,-60.97 505.24,-55.24 503.61,-62.05"/>
</g>
<!-- Node3 -->
<g id="node3" class="node">
<title>Node3</title>
<g id="a_node3"><a xlink:href="classcom_1_1example_1_1renderer_1_1proxy_1_1RemoteRendererProxyTest.html#a785672431f7951f8d26c27fece370ad8" target="_top" xlink:title=" ">
<polygon fill="white" stroke="black" points="0,-109.5 0,-150.5 196,-150.5 196,-109.5 0,-109.5"/>
<text text-anchor="start" x="8" y="-138.5" font-family="Helvetica,sans-Serif" font-size="10.00">com.example.renderer.proxy.</text>
<text text-anchor="start" x="8" y="-127.5" font-family="Helvetica,sans-Serif" font-size="10.00">RemoteRendererProxyTest.testProxy</text>
<text text-anchor="middle" x="98" y="-116.5" font-family="Helvetica,sans-Serif" font-size="10.00">CallsRealRenderer</text>
</a>
</g>
</g>
<!-- Node2&#45;&gt;Node3 -->
<g id="edge2" class="edge">
<title>Node2&#45;&gt;Node3</title>
<path fill="none" stroke="midnightblue" d="M245.75,-128.81C229.4,-128.94 212.47,-129.08 196.17,-129.21"/>
<polygon fill="midnightblue" stroke="midnightblue" points="245.87,-132.31 255.84,-128.72 245.81,-125.31 245.87,-132.31"/>
</g>
<!-- Node5 -->
<g id="node5" class="node">
<title>Node5</title>
<g id="a_node5"><a xlink:href="classcom_1_1example_1_1renderer_1_1factory_1_1CircleTest.html#a7e3a7a568f036a4d96dc29755096546b" target="_top" xlink:title=" ">
<polygon fill="white" stroke="black" points="15,-60 15,-90 181,-90 181,-60 15,-60"/>
<text text-anchor="start" x="23" y="-78" font-family="Helvetica,sans-Serif" font-size="10.00">com.example.renderer.factory.</text>
<text text-anchor="middle" x="98" y="-67" font-family="Helvetica,sans-Serif" font-size="10.00">CircleTest.testRender</text>
</a>
</g>
</g>
<!-- Node4&#45;&gt;Node5 -->
<g id="edge4" class="edge">
<title>Node4&#45;&gt;Node5</title>
<path fill="none" stroke="midnightblue" d="M252.46,-75.62C229.04,-75.53 204.05,-75.43 181.18,-75.33"/>
<polygon fill="midnightblue" stroke="midnightblue" points="252.73,-79.12 262.74,-75.67 252.76,-72.12 252.73,-79.12"/>
</g>
</g>
</svg>
