<?xml version="1.0" encoding="UTF-8" standalone="no"?>
<!DOCTYPE svg PUBLIC "-//W3C//DTD SVG 1.1//EN"
 "http://www.w3.org/Graphics/SVG/1.1/DTD/svg11.dtd">
<!-- Generated by graphviz version 2.43.0 (0)
 -->
<!-- Title: com.example.renderer.command.Command Pages: 1 -->
<svg width="408pt" height="88pt"
 viewBox="0.00 0.00 408.00 88.00" xmlns="http://www.w3.org/2000/svg" xmlns:xlink="http://www.w3.org/1999/xlink">
<g id="graph0" class="graph" transform="scale(1 1) rotate(0) translate(4 84)">
<title>com.example.renderer.command.Command</title>
<polygon fill="white" stroke="transparent" points="-4,4 -4,-84 404,-84 404,4 -4,4"/>
<!-- Node1 -->
<g id="node1" class="node">
<title>Node1</title>
<g id="a_node1"><a xlink:title=" ">
<polygon fill="#bfbfbf" stroke="black" points="0,-24.5 0,-54.5 182,-54.5 182,-24.5 0,-24.5"/>
<text text-anchor="start" x="8" y="-42.5" font-family="Helvetica,sans-Serif" font-size="10.00">com.example.renderer.command.</text>
<text text-anchor="middle" x="91" y="-31.5" font-family="Helvetica,sans-Serif" font-size="10.00">Command</text>
</a>
</g>
</g>
<!-- Node2 -->
<g id="node2" class="node">
<title>Node2</title>
<g id="a_node2"><a xlink:href="classcom_1_1example_1_1renderer_1_1command_1_1AddShapeCommand.html" target="_top" xlink:title=" ">
<polygon fill="white" stroke="black" points="218,-49.5 218,-79.5 400,-79.5 400,-49.5 218,-49.5"/>
<text text-anchor="start" x="226" y="-67.5" font-family="Helvetica,sans-Serif" font-size="10.00">com.example.renderer.command.</text>
<text text-anchor="middle" x="309" y="-56.5" font-family="Helvetica,sans-Serif" font-size="10.00">AddShapeCommand</text>
</a>
</g>
</g>
<!-- Node1&#45;&gt;Node2 -->
<g id="edge1" class="edge">
<title>Node1&#45;&gt;Node2</title>
<path fill="none" stroke="midnightblue" d="M192.06,-51.08C200.63,-52.07 209.27,-53.07 217.76,-54.06"/>
<polygon fill="midnightblue" stroke="midnightblue" points="192.38,-47.59 182.04,-49.92 191.57,-54.55 192.38,-47.59"/>
</g>
<!-- Node3 -->
<g id="node3" class="node">
<title>Node3</title>
<g id="a_node3"><a xlink:title=" ">
<polygon fill="white" stroke="#bfbfbf" points="218,-0.5 218,-30.5 400,-30.5 400,-0.5 218,-0.5"/>
<text text-anchor="start" x="226" y="-18.5" font-family="Helvetica,sans-Serif" font-size="10.00">com.example.renderer.command.</text>
<text text-anchor="middle" x="309" y="-7.5" font-family="Helvetica,sans-Serif" font-size="10.00">MoveShapeCommand</text>
</a>
</g>
</g>
<!-- Node1&#45;&gt;Node3 -->
<g id="edge2" class="edge">
<title>Node1&#45;&gt;Node3</title>
<path fill="none" stroke="midnightblue" d="M192.06,-28.38C200.63,-27.43 209.27,-26.47 217.76,-25.53"/>
<polygon fill="midnightblue" stroke="midnightblue" points="191.59,-24.91 182.04,-29.5 192.36,-31.87 191.59,-24.91"/>
</g>
</g>
</svg>
