<?xml version="1.0" encoding="UTF-8" standalone="no"?>
<!DOCTYPE svg PUBLIC "-//W3C//DTD SVG 1.1//EN"
 "http://www.w3.org/Graphics/SVG/1.1/DTD/svg11.dtd">
<!-- Generated by graphviz version 2.43.0 (0)
 -->
<!-- Title: com.example.renderer.factory.ShapeFactory Pages: 1 -->
<svg width="376pt" height="88pt"
 viewBox="0.00 0.00 376.00 88.00" xmlns="http://www.w3.org/2000/svg" xmlns:xlink="http://www.w3.org/1999/xlink">
<g id="graph0" class="graph" transform="scale(1 1) rotate(0) translate(4 84)">
<title>com.example.renderer.factory.ShapeFactory</title>
<polygon fill="white" stroke="transparent" points="-4,4 -4,-84 372,-84 372,4 -4,4"/>
<!-- Node1 -->
<g id="node1" class="node">
<title>Node1</title>
<g id="a_node1"><a xlink:title=" ">
<polygon fill="#bfbfbf" stroke="black" points="0,-24.5 0,-54.5 166,-54.5 166,-24.5 0,-24.5"/>
<text text-anchor="start" x="8" y="-42.5" font-family="Helvetica,sans-Serif" font-size="10.00">com.example.renderer.factory.</text>
<text text-anchor="middle" x="83" y="-31.5" font-family="Helvetica,sans-Serif" font-size="10.00">ShapeFactory</text>
</a>
</g>
</g>
<!-- Node2 -->
<g id="node2" class="node">
<title>Node2</title>
<g id="a_node2"><a xlink:href="classcom_1_1example_1_1renderer_1_1factory_1_1BasicShapeFactory.html" target="_top" xlink:title=" ">
<polygon fill="white" stroke="black" points="202,-49.5 202,-79.5 368,-79.5 368,-49.5 202,-49.5"/>
<text text-anchor="start" x="210" y="-67.5" font-family="Helvetica,sans-Serif" font-size="10.00">com.example.renderer.factory.</text>
<text text-anchor="middle" x="285" y="-56.5" font-family="Helvetica,sans-Serif" font-size="10.00">BasicShapeFactory</text>
</a>
</g>
</g>
<!-- Node1&#45;&gt;Node2 -->
<g id="edge1" class="edge">
<title>Node1&#45;&gt;Node2</title>
<path fill="none" stroke="midnightblue" d="M176.19,-51.02C184.73,-52.09 193.34,-53.17 201.78,-54.22"/>
<polygon fill="midnightblue" stroke="midnightblue" points="176.57,-47.54 166.21,-49.78 175.7,-54.49 176.57,-47.54"/>
</g>
<!-- Node3 -->
<g id="node3" class="node">
<title>Node3</title>
<g id="a_node3"><a xlink:href="classcom_1_1example_1_1renderer_1_1factory_1_1ShapeFactoryImpl.html" target="_top" xlink:title=" ">
<polygon fill="white" stroke="black" points="202,-0.5 202,-30.5 368,-30.5 368,-0.5 202,-0.5"/>
<text text-anchor="start" x="210" y="-18.5" font-family="Helvetica,sans-Serif" font-size="10.00">com.example.renderer.factory.</text>
<text text-anchor="middle" x="285" y="-7.5" font-family="Helvetica,sans-Serif" font-size="10.00">ShapeFactoryImpl</text>
</a>
</g>
</g>
<!-- Node1&#45;&gt;Node3 -->
<g id="edge2" class="edge">
<title>Node1&#45;&gt;Node3</title>
<path fill="none" stroke="midnightblue" d="M176.19,-28.44C184.73,-27.41 193.34,-26.38 201.78,-25.37"/>
<polygon fill="midnightblue" stroke="midnightblue" points="175.73,-24.97 166.21,-29.63 176.56,-31.92 175.73,-24.97"/>
</g>
</g>
</svg>
