<?xml version="1.0" encoding="UTF-8" standalone="no"?>
<!DOCTYPE svg PUBLIC "-//W3C//DTD SVG 1.1//EN"
 "http://www.w3.org/Graphics/SVG/1.1/DTD/svg11.dtd">
<!-- Generated by graphviz version 2.43.0 (0)
 -->
<!-- Title: com.example.renderer.bridge.Renderer.drawRectangle Pages: 1 -->
<!--zoomable 340 -->
<svg id="main" version="1.1" xmlns="http://www.w3.org/2000/svg" xmlns:xlink="http://www.w3.org/1999/xlink" xml:space="preserve" onload="init(evt)">
<style type="text/css"><![CDATA[
.edge:hover path { stroke: red; }
.edge:hover polygon { stroke: red; fill: red; }
]]></style>
<script type="text/javascript"><![CDATA[
var edges = document.getElementsByTagName('g');
if (edges && edges.length) {
  for (var i=0;i<edges.length;i++) {
    if (edges[i].id.substr(0,4)=='edge') {
      edges[i].setAttribute('class','edge');
    }
  }
}
]]></script>
        <defs>
                <circle id="rim" cx="0" cy="0" r="7"/>
                <circle id="rim2" cx="0" cy="0" r="3.5"/>
                <g id="zoomPlus">
                        <use xlink:href="#rim" fill="#404040">
                                <set attributeName="fill" to="#808080" begin="zoomplus.mouseover" end="zoomplus.mouseout"/>
                        </use>
                        <path d="M-4,0h8M0,-4v8" fill="none" stroke="white" stroke-width="1.5" pointer-events="none"/>
                </g>
                <g id="zoomMin">
                        <use xlink:href="#rim" fill="#404040">
                                <set attributeName="fill" to="#808080" begin="zoomminus.mouseover" end="zoomminus.mouseout"/>
                        </use>
                        <path d="M-4,0h8" fill="none" stroke="white" stroke-width="1.5" pointer-events="none"/>
                </g>
                <g id="dirArrow">
                        <path fill="none" stroke="white" stroke-width="1.5" d="M0,-3.0v7 M-2.5,-0.5L0,-3.0L2.5,-0.5"/>
                </g>
               <g id="resetDef">
                       <use xlink:href="#rim2" fill="#404040">
                               <set attributeName="fill" to="#808080" begin="reset.mouseover" end="reset.mouseout"/>
                       </use>
               </g>
        </defs>

<script type="text/javascript">
var viewWidth = 644;
var viewHeight = 340;
var sectionId = 'dynsection-4';
</script>
<script xlink:href="svgpan.js"/>
<svg id="graph" class="graph">
<g id="viewport">
<title>com.example.renderer.bridge.Renderer.drawRectangle</title>
<polygon fill="white" stroke="transparent" points="-4,4 -4,-336 640,-336 640,4 -4,4"/>
<!-- Node1 -->
<g id="node1" class="node">
<title>Node1</title>
<g id="a_node1"><a xlink:title="绘制矩形">
<polygon fill="#bfbfbf" stroke="black" points="472,-126 472,-156 636,-156 636,-126 472,-126"/>
<text text-anchor="start" x="480" y="-144" font-family="Helvetica,sans-Serif" font-size="10.00">com.example.renderer.bridge.</text>
<text text-anchor="middle" x="554" y="-133" font-family="Helvetica,sans-Serif" font-size="10.00">Renderer.drawRectangle</text>
</a>
</g>
</g>
<!-- Node2 -->
<g id="node2" class="node">
<title>Node2</title>
<g id="a_node2"><a xlink:href="classcom_1_1example_1_1renderer_1_1proxy_1_1RemoteRendererProxy.html#a230d74acbb60e51bc56724f50459d6bd" target="_top" xlink:title="绘制矩形">
<polygon fill="white" stroke="black" points="233.5,-236 233.5,-266 434.5,-266 434.5,-236 233.5,-236"/>
<text text-anchor="start" x="241.5" y="-254" font-family="Helvetica,sans-Serif" font-size="10.00">com.example.renderer.proxy.</text>
<text text-anchor="middle" x="334" y="-243" font-family="Helvetica,sans-Serif" font-size="10.00">RemoteRendererProxy.drawRectangle</text>
</a>
</g>
</g>
<!-- Node1&#45;&gt;Node2 -->
<g id="edge1" class="edge">
<title>Node1&#45;&gt;Node2</title>
<path fill="none" stroke="midnightblue" d="M514.16,-160.6C471.41,-182.17 403.62,-216.37 364.84,-235.94"/>
<polygon fill="midnightblue" stroke="midnightblue" points="515.79,-163.69 523.15,-156.06 512.64,-157.44 515.79,-163.69"/>
</g>
<!-- Node5 -->
<g id="node5" class="node">
<title>Node5</title>
<g id="a_node5"><a xlink:href="classcom_1_1example_1_1renderer_1_1factory_1_1Rectangle.html#ade17894b1162081c6948522ddbd325b4" target="_top" xlink:title="使用指定的渲染器绘制图形。 具体绘制逻辑由实现类决定，渲染器参数提供实际的绘制能力。">
<polygon fill="white" stroke="black" points="251,-126 251,-156 417,-156 417,-126 251,-126"/>
<text text-anchor="start" x="259" y="-144" font-family="Helvetica,sans-Serif" font-size="10.00">com.example.renderer.factory.</text>
<text text-anchor="middle" x="334" y="-133" font-family="Helvetica,sans-Serif" font-size="10.00">Rectangle.render</text>
</a>
</g>
</g>
<!-- Node1&#45;&gt;Node5 -->
<g id="edge4" class="edge">
<title>Node1&#45;&gt;Node5</title>
<path fill="none" stroke="midnightblue" d="M461.72,-141C446.99,-141 431.83,-141 417.33,-141"/>
<polygon fill="midnightblue" stroke="midnightblue" points="461.82,-144.5 471.82,-141 461.82,-137.5 461.82,-144.5"/>
</g>
<!-- Node10 -->
<g id="node10" class="node">
<title>Node10</title>
<g id="a_node10"><a xlink:href="classcom_1_1example_1_1renderer_1_1adapter_1_1LegacyRendererAdapterTest.html#abdfd61d01c966c396fbd9c887cdf3851" target="_top" xlink:title=" ">
<polygon fill="white" stroke="black" points="232,-65.5 232,-106.5 436,-106.5 436,-65.5 232,-65.5"/>
<text text-anchor="start" x="240" y="-94.5" font-family="Helvetica,sans-Serif" font-size="10.00">com.example.renderer.adapter.</text>
<text text-anchor="start" x="240" y="-83.5" font-family="Helvetica,sans-Serif" font-size="10.00">LegacyRendererAdapterTest.testDraw</text>
<text text-anchor="middle" x="334" y="-72.5" font-family="Helvetica,sans-Serif" font-size="10.00">Rectangle_ForwardsToLegacyRenderer</text>
</a>
</g>
</g>
<!-- Node1&#45;&gt;Node10 -->
<g id="edge9" class="edge">
<title>Node1&#45;&gt;Node10</title>
<path fill="none" stroke="midnightblue" d="M483.5,-123.47C462.21,-118.09 438.59,-112.13 416.56,-106.58"/>
<polygon fill="midnightblue" stroke="midnightblue" points="482.88,-126.92 493.43,-125.97 484.59,-120.13 482.88,-126.92"/>
</g>
<!-- Node3 -->
<g id="node3" class="node">
<title>Node3</title>
<g id="a_node3"><a xlink:href="classcom_1_1example_1_1renderer_1_1proxy_1_1RemoteRendererProxyTest.html#a2f0b86f8169ea20d532ab8cffb0c7dc3" target="_top" xlink:title=" ">
<polygon fill="white" stroke="black" points="0,-290.5 0,-331.5 196,-331.5 196,-290.5 0,-290.5"/>
<text text-anchor="start" x="8" y="-319.5" font-family="Helvetica,sans-Serif" font-size="10.00">com.example.renderer.proxy.</text>
<text text-anchor="start" x="8" y="-308.5" font-family="Helvetica,sans-Serif" font-size="10.00">RemoteRendererProxyTest.testProxy</text>
<text text-anchor="middle" x="98" y="-297.5" font-family="Helvetica,sans-Serif" font-size="10.00">_ExtremeCoordinates</text>
</a>
</g>
</g>
<!-- Node2&#45;&gt;Node3 -->
<g id="edge2" class="edge">
<title>Node2&#45;&gt;Node3</title>
<path fill="none" stroke="midnightblue" d="M264.23,-268.63C237.5,-275.49 206.7,-283.38 178.99,-290.49"/>
<polygon fill="midnightblue" stroke="midnightblue" points="265.44,-271.94 274.25,-266.06 263.7,-265.16 265.44,-271.94"/>
</g>
<!-- Node4 -->
<g id="node4" class="node">
<title>Node4</title>
<g id="a_node4"><a xlink:href="classcom_1_1example_1_1renderer_1_1proxy_1_1RemoteRendererProxyTest.html#a785672431f7951f8d26c27fece370ad8" target="_top" xlink:title="测试代理模式是否正确转发所有渲染方法调用到真实渲染器。">
<polygon fill="white" stroke="black" points="0,-230.5 0,-271.5 196,-271.5 196,-230.5 0,-230.5"/>
<text text-anchor="start" x="8" y="-259.5" font-family="Helvetica,sans-Serif" font-size="10.00">com.example.renderer.proxy.</text>
<text text-anchor="start" x="8" y="-248.5" font-family="Helvetica,sans-Serif" font-size="10.00">RemoteRendererProxyTest.testProxy</text>
<text text-anchor="middle" x="98" y="-237.5" font-family="Helvetica,sans-Serif" font-size="10.00">CallsRealRenderer</text>
</a>
</g>
</g>
<!-- Node2&#45;&gt;Node4 -->
<g id="edge3" class="edge">
<title>Node2&#45;&gt;Node4</title>
<path fill="none" stroke="midnightblue" d="M223.27,-251C214.25,-251 205.17,-251 196.25,-251"/>
<polygon fill="midnightblue" stroke="midnightblue" points="223.42,-254.5 233.42,-251 223.42,-247.5 223.42,-254.5"/>
</g>
<!-- Node6 -->
<g id="node6" class="node">
<title>Node6</title>
<g id="a_node6"><a xlink:href="classcom_1_1example_1_1renderer_1_1factory_1_1RectangleTest.html#ab90a641f0c1178b4bd8bc53359719538" target="_top" xlink:title=" ">
<polygon fill="white" stroke="black" points="15,-181 15,-211 181,-211 181,-181 15,-181"/>
<text text-anchor="start" x="23" y="-199" font-family="Helvetica,sans-Serif" font-size="10.00">com.example.renderer.factory.</text>
<text text-anchor="middle" x="98" y="-188" font-family="Helvetica,sans-Serif" font-size="10.00">RectangleTest.testRender</text>
</a>
</g>
</g>
<!-- Node5&#45;&gt;Node6 -->
<g id="edge5" class="edge">
<title>Node5&#45;&gt;Node6</title>
<path fill="none" stroke="midnightblue" d="M259.19,-158.35C228.26,-165.62 192.65,-173.99 162.86,-180.99"/>
<polygon fill="midnightblue" stroke="midnightblue" points="260.12,-161.72 269.06,-156.03 258.52,-154.91 260.12,-161.72"/>
</g>
<!-- Node7 -->
<g id="node7" class="node">
<title>Node7</title>
<g id="a_node7"><a xlink:href="classcom_1_1example_1_1renderer_1_1factory_1_1RectangleTest.html#accaa0c110694cb3f70d3725dcc28bd1a" target="_top" xlink:title=" ">
<polygon fill="white" stroke="black" points="15,-120.5 15,-161.5 181,-161.5 181,-120.5 15,-120.5"/>
<text text-anchor="start" x="23" y="-149.5" font-family="Helvetica,sans-Serif" font-size="10.00">com.example.renderer.factory.</text>
<text text-anchor="start" x="23" y="-138.5" font-family="Helvetica,sans-Serif" font-size="10.00">RectangleTest.testRender</text>
<text text-anchor="middle" x="98" y="-127.5" font-family="Helvetica,sans-Serif" font-size="10.00">_AfterMoving</text>
</a>
</g>
</g>
<!-- Node5&#45;&gt;Node7 -->
<g id="edge6" class="edge">
<title>Node5&#45;&gt;Node7</title>
<path fill="none" stroke="midnightblue" d="M240.69,-141C221.1,-141 200.55,-141 181.37,-141"/>
<polygon fill="midnightblue" stroke="midnightblue" points="240.83,-144.5 250.83,-141 240.83,-137.5 240.83,-144.5"/>
</g>
<!-- Node8 -->
<g id="node8" class="node">
<title>Node8</title>
<g id="a_node8"><a xlink:href="classcom_1_1example_1_1renderer_1_1factory_1_1RectangleTest.html#aef5b4a1255c09f622939851f91bc843c" target="_top" xlink:title=" ">
<polygon fill="white" stroke="black" points="15,-60.5 15,-101.5 181,-101.5 181,-60.5 15,-60.5"/>
<text text-anchor="start" x="23" y="-89.5" font-family="Helvetica,sans-Serif" font-size="10.00">com.example.renderer.factory.</text>
<text text-anchor="start" x="23" y="-78.5" font-family="Helvetica,sans-Serif" font-size="10.00">RectangleTest.testRender</text>
<text text-anchor="middle" x="98" y="-67.5" font-family="Helvetica,sans-Serif" font-size="10.00">_AfterMultipleMoves</text>
</a>
</g>
</g>
<!-- Node5&#45;&gt;Node8 -->
<g id="edge7" class="edge">
<title>Node5&#45;&gt;Node8</title>
<path fill="none" stroke="midnightblue" d="M261.65,-123.48C251.69,-120.99 241.58,-118.45 232,-116 213.96,-111.39 194.56,-106.34 176.31,-101.55"/>
<polygon fill="midnightblue" stroke="midnightblue" points="260.99,-126.92 271.54,-125.94 262.68,-120.13 260.99,-126.92"/>
</g>
<!-- Node9 -->
<g id="node9" class="node">
<title>Node9</title>
<g id="a_node9"><a xlink:href="classcom_1_1example_1_1renderer_1_1factory_1_1RectangleTest.html#afcf9d1f3110f588744ed59f7e8001fa0" target="_top" xlink:title=" ">
<polygon fill="white" stroke="black" points="15,-0.5 15,-41.5 181,-41.5 181,-0.5 15,-0.5"/>
<text text-anchor="start" x="23" y="-29.5" font-family="Helvetica,sans-Serif" font-size="10.00">com.example.renderer.factory.</text>
<text text-anchor="start" x="23" y="-18.5" font-family="Helvetica,sans-Serif" font-size="10.00">RectangleTest.testRender</text>
<text text-anchor="middle" x="98" y="-7.5" font-family="Helvetica,sans-Serif" font-size="10.00">_ExtremeSize</text>
</a>
</g>
</g>
<!-- Node5&#45;&gt;Node9 -->
<g id="edge8" class="edge">
<title>Node5&#45;&gt;Node9</title>
<path fill="none" stroke="midnightblue" d="M241.66,-122.38C238.28,-120.45 235.05,-118.33 232,-116 205.79,-95.91 221.63,-71.83 196,-51 191.49,-47.33 186.52,-44.11 181.3,-41.28"/>
<polygon fill="midnightblue" stroke="midnightblue" points="240.37,-125.65 250.88,-127.03 243.52,-119.4 240.37,-125.65"/>
</g>
</g>
</svg>
        <g id="navigator" transform="translate(0 0)" fill="#404254">
                <rect fill="#f2f5e9" fill-opacity="0.5" stroke="#606060" stroke-width=".5" x="0" y="0" width="60" height="60"/>
                <use id="zoomplus" xlink:href="#zoomPlus" x="17" y="9" onmousedown="handleZoom(evt,'in')"/>
                <use id="zoomminus" xlink:href="#zoomMin" x="42" y="9" onmousedown="handleZoom(evt,'out')"/>
                <use id="reset" xlink:href="#resetDef" x="30" y="36" onmousedown="handleReset()"/>
                <g id="arrowUp" xlink:href="#dirArrow" transform="translate(30 24)" onmousedown="handlePan(0,-1)">
                  <use xlink:href="#rim" fill="#404040">
                        <set attributeName="fill" to="#808080" begin="arrowUp.mouseover" end="arrowUp.mouseout"/>
                  </use>
                  <path fill="none" stroke="white" stroke-width="1.5" d="M0,-3.0v7 M-2.5,-0.5L0,-3.0L2.5,-0.5"/>
                </g>
                <g id="arrowRight" xlink:href="#dirArrow" transform="rotate(90) translate(36 -43)" onmousedown="handlePan(1,0)">
                  <use xlink:href="#rim" fill="#404040">
                        <set attributeName="fill" to="#808080" begin="arrowRight.mouseover" end="arrowRight.mouseout"/>
                  </use>
                  <path fill="none" stroke="white" stroke-width="1.5" d="M0,-3.0v7 M-2.5,-0.5L0,-3.0L2.5,-0.5"/>
                </g>
                <g id="arrowDown" xlink:href="#dirArrow" transform="rotate(180) translate(-30 -48)" onmousedown="handlePan(0,1)">
                  <use xlink:href="#rim" fill="#404040">
                        <set attributeName="fill" to="#808080" begin="arrowDown.mouseover" end="arrowDown.mouseout"/>
                  </use>
                  <path fill="none" stroke="white" stroke-width="1.5" d="M0,-3.0v7 M-2.5,-0.5L0,-3.0L2.5,-0.5"/>
                </g>
                <g id="arrowLeft" xlink:href="#dirArrow" transform="rotate(270) translate(-36 17)" onmousedown="handlePan(-1,0)">
                  <use xlink:href="#rim" fill="#404040">
                        <set attributeName="fill" to="#808080" begin="arrowLeft.mouseover" end="arrowLeft.mouseout"/>
                  </use>
                  <path fill="none" stroke="white" stroke-width="1.5" d="M0,-3.0v7 M-2.5,-0.5L0,-3.0L2.5,-0.5"/>
                </g>
        </g>
        <svg viewBox="0 0 15 15" width="100%" height="30px" preserveAspectRatio="xMaxYMin meet">
         <g id="arrow_out" transform="scale(0.3 0.3)">
          <a xlink:href="interfacecom_1_1example_1_1renderer_1_1bridge_1_1Renderer_a544db73ca5c1778c124d3ee53b99b4b6_icgraph_org.svg" target="_base">
           <rect id="button" ry="5" rx="5" y="6" x="6" height="38" width="38"
                fill="#f2f5e9" fill-opacity="0.5" stroke="#606060" stroke-width="1.0"/>
           <path id="arrow"
             d="M 11.500037,31.436501 C 11.940474,20.09759 22.043105,11.32322 32.158766,21.979434 L 37.068811,17.246167 C 37.068811,17.246167 37.088388,32 37.088388,32 L 22.160133,31.978069 C 22.160133,31.978069 26.997745,27.140456 26.997745,27.140456 C 18.528582,18.264221 13.291696,25.230495 11.500037,31.436501 z"
             style="fill:#404040;"/>
          </a>
         </g>
        </svg>
</svg>
