<?xml version="1.0" encoding="UTF-8" standalone="no"?>
<!DOCTYPE svg PUBLIC "-//W3C//DTD SVG 1.1//EN"
 "http://www.w3.org/Graphics/SVG/1.1/DTD/svg11.dtd">
<!-- Generated by graphviz version 2.43.0 (0)
 -->
<!-- Title: com.example.renderer.bridge.Renderer.drawEllipse Pages: 1 -->
<svg width="673pt" height="159pt"
 viewBox="0.00 0.00 673.00 159.00" xmlns="http://www.w3.org/2000/svg" xmlns:xlink="http://www.w3.org/1999/xlink">
<g id="graph0" class="graph" transform="scale(1 1) rotate(0) translate(4 155)">
<title>com.example.renderer.bridge.Renderer.drawEllipse</title>
<polygon fill="white" stroke="transparent" points="-4,4 -4,-155 669,-155 669,4 -4,4"/>
<!-- Node1 -->
<g id="node1" class="node">
<title>Node1</title>
<g id="a_node1"><a xlink:title=" ">
<polygon fill="#bfbfbf" stroke="black" points="501,-61 501,-91 665,-91 665,-61 501,-61"/>
<text text-anchor="start" x="509" y="-79" font-family="Helvetica,sans-Serif" font-size="10.00">com.example.renderer.bridge.</text>
<text text-anchor="middle" x="583" y="-68" font-family="Helvetica,sans-Serif" font-size="10.00">Renderer.drawEllipse</text>
</a>
</g>
</g>
<!-- Node2 -->
<g id="node2" class="node">
<title>Node2</title>
<g id="a_node2"><a xlink:href="classcom_1_1example_1_1renderer_1_1proxy_1_1RemoteRendererProxy.html#a62ffaea2a2c43ccfd2e8afe336417ef5" target="_top" xlink:title=" ">
<polygon fill="white" stroke="black" points="256,-113 256,-143 441,-143 441,-113 256,-113"/>
<text text-anchor="start" x="264" y="-131" font-family="Helvetica,sans-Serif" font-size="10.00">com.example.renderer.proxy.</text>
<text text-anchor="middle" x="348.5" y="-120" font-family="Helvetica,sans-Serif" font-size="10.00">RemoteRendererProxy.drawEllipse</text>
</a>
</g>
</g>
<!-- Node1&#45;&gt;Node2 -->
<g id="edge1" class="edge">
<title>Node1&#45;&gt;Node2</title>
<path fill="none" stroke="midnightblue" d="M504.82,-93.26C476.27,-99.65 444.17,-106.83 416.6,-112.99"/>
<polygon fill="midnightblue" stroke="midnightblue" points="505.76,-96.64 514.75,-91.04 504.23,-89.81 505.76,-96.64"/>
</g>
<!-- Node4 -->
<g id="node4" class="node">
<title>Node4</title>
<g id="a_node4"><a xlink:href="classcom_1_1example_1_1renderer_1_1factory_1_1Ellipse.html#a05bd1b4ddbb8249021da2bbd6f5f0fb4" target="_top" xlink:title=" ">
<polygon fill="white" stroke="black" points="265.5,-61 265.5,-91 431.5,-91 431.5,-61 265.5,-61"/>
<text text-anchor="start" x="273.5" y="-79" font-family="Helvetica,sans-Serif" font-size="10.00">com.example.renderer.factory.</text>
<text text-anchor="middle" x="348.5" y="-68" font-family="Helvetica,sans-Serif" font-size="10.00">Ellipse.render</text>
</a>
</g>
</g>
<!-- Node1&#45;&gt;Node4 -->
<g id="edge3" class="edge">
<title>Node1&#45;&gt;Node4</title>
<path fill="none" stroke="midnightblue" d="M490.6,-76C471.12,-76 450.66,-76 431.56,-76"/>
<polygon fill="midnightblue" stroke="midnightblue" points="490.68,-79.5 500.68,-76 490.68,-72.5 490.68,-79.5"/>
</g>
<!-- Node6 -->
<g id="node6" class="node">
<title>Node6</title>
<g id="a_node6"><a xlink:href="classcom_1_1example_1_1renderertest_1_1adapter_1_1LegacyRendererAdapterTest.html#a77f218bdeae570f779f14ad6acdedc39" target="_top" xlink:title=" ">
<polygon fill="white" stroke="black" points="232,-0.5 232,-41.5 465,-41.5 465,-0.5 232,-0.5"/>
<text text-anchor="start" x="240" y="-29.5" font-family="Helvetica,sans-Serif" font-size="10.00">com.example.renderertest.adapter.</text>
<text text-anchor="start" x="240" y="-18.5" font-family="Helvetica,sans-Serif" font-size="10.00">LegacyRendererAdapterTest.testDrawEllipse</text>
<text text-anchor="middle" x="348.5" y="-7.5" font-family="Helvetica,sans-Serif" font-size="10.00">_ForwardsToLegacyRenderer</text>
</a>
</g>
</g>
<!-- Node1&#45;&gt;Node6 -->
<g id="edge5" class="edge">
<title>Node1&#45;&gt;Node6</title>
<path fill="none" stroke="midnightblue" d="M508.5,-58.61C485.63,-53.2 460.19,-47.18 436.49,-41.58"/>
<polygon fill="midnightblue" stroke="midnightblue" points="507.93,-62.07 518.47,-60.97 509.54,-55.26 507.93,-62.07"/>
</g>
<!-- Node3 -->
<g id="node3" class="node">
<title>Node3</title>
<g id="a_node3"><a xlink:href="classcom_1_1example_1_1renderer_1_1proxy_1_1RemoteRendererProxyTest.html#a785672431f7951f8d26c27fece370ad8" target="_top" xlink:title=" ">
<polygon fill="white" stroke="black" points="0,-109.5 0,-150.5 196,-150.5 196,-109.5 0,-109.5"/>
<text text-anchor="start" x="8" y="-138.5" font-family="Helvetica,sans-Serif" font-size="10.00">com.example.renderer.proxy.</text>
<text text-anchor="start" x="8" y="-127.5" font-family="Helvetica,sans-Serif" font-size="10.00">RemoteRendererProxyTest.testProxy</text>
<text text-anchor="middle" x="98" y="-116.5" font-family="Helvetica,sans-Serif" font-size="10.00">CallsRealRenderer</text>
</a>
</g>
</g>
<!-- Node2&#45;&gt;Node3 -->
<g id="edge2" class="edge">
<title>Node2&#45;&gt;Node3</title>
<path fill="none" stroke="midnightblue" d="M245.6,-128.82C229.3,-128.95 212.47,-129.09 196.28,-129.22"/>
<polygon fill="midnightblue" stroke="midnightblue" points="245.7,-132.32 255.67,-128.74 245.65,-125.32 245.7,-132.32"/>
</g>
<!-- Node5 -->
<g id="node5" class="node">
<title>Node5</title>
<g id="a_node5"><a xlink:href="classcom_1_1example_1_1renderer_1_1factory_1_1EllipseTest.html#a49066d43381c1d55b02a348569c5be44" target="_top" xlink:title=" ">
<polygon fill="white" stroke="black" points="15,-60 15,-90 181,-90 181,-60 15,-60"/>
<text text-anchor="start" x="23" y="-78" font-family="Helvetica,sans-Serif" font-size="10.00">com.example.renderer.factory.</text>
<text text-anchor="middle" x="98" y="-67" font-family="Helvetica,sans-Serif" font-size="10.00">EllipseTest.testRender</text>
</a>
</g>
</g>
<!-- Node4&#45;&gt;Node5 -->
<g id="edge4" class="edge">
<title>Node4&#45;&gt;Node5</title>
<path fill="none" stroke="midnightblue" d="M255.19,-75.63C230.98,-75.53 205.04,-75.43 181.39,-75.33"/>
<polygon fill="midnightblue" stroke="midnightblue" points="255.43,-79.13 265.44,-75.67 255.46,-72.13 255.43,-79.13"/>
</g>
</g>
</svg>
