<?xml version="1.0" encoding="UTF-8" standalone="no"?>
<!DOCTYPE svg PUBLIC "-//W3C//DTD SVG 1.1//EN"
 "http://www.w3.org/Graphics/SVG/1.1/DTD/svg11.dtd">
<!-- Generated by graphviz version 2.43.0 (0)
 -->
<!-- Title: com.example.renderer.bridge.Renderer.drawTriangle Pages: 1 -->
<!--zoomable 440 -->
<svg id="main" version="1.1" xmlns="http://www.w3.org/2000/svg" xmlns:xlink="http://www.w3.org/1999/xlink" xml:space="preserve" onload="init(evt)">
<style type="text/css"><![CDATA[
.edge:hover path { stroke: red; }
.edge:hover polygon { stroke: red; fill: red; }
]]></style>
<script type="text/javascript"><![CDATA[
var edges = document.getElementsByTagName('g');
if (edges && edges.length) {
  for (var i=0;i<edges.length;i++) {
    if (edges[i].id.substr(0,4)=='edge') {
      edges[i].setAttribute('class','edge');
    }
  }
}
]]></script>
        <defs>
                <circle id="rim" cx="0" cy="0" r="7"/>
                <circle id="rim2" cx="0" cy="0" r="3.5"/>
                <g id="zoomPlus">
                        <use xlink:href="#rim" fill="#404040">
                                <set attributeName="fill" to="#808080" begin="zoomplus.mouseover" end="zoomplus.mouseout"/>
                        </use>
                        <path d="M-4,0h8M0,-4v8" fill="none" stroke="white" stroke-width="1.5" pointer-events="none"/>
                </g>
                <g id="zoomMin">
                        <use xlink:href="#rim" fill="#404040">
                                <set attributeName="fill" to="#808080" begin="zoomminus.mouseover" end="zoomminus.mouseout"/>
                        </use>
                        <path d="M-4,0h8" fill="none" stroke="white" stroke-width="1.5" pointer-events="none"/>
                </g>
                <g id="dirArrow">
                        <path fill="none" stroke="white" stroke-width="1.5" d="M0,-3.0v7 M-2.5,-0.5L0,-3.0L2.5,-0.5"/>
                </g>
               <g id="resetDef">
                       <use xlink:href="#rim2" fill="#404040">
                               <set attributeName="fill" to="#808080" begin="reset.mouseover" end="reset.mouseout"/>
                       </use>
               </g>
        </defs>

<script type="text/javascript">
var viewWidth = 680;
var viewHeight = 440;
var sectionId = 'dynsection-5';
</script>
<script xlink:href="svgpan.js"/>
<svg id="graph" class="graph">
<g id="viewport">
<title>com.example.renderer.bridge.Renderer.drawTriangle</title>
<polygon fill="white" stroke="transparent" points="-4,4 -4,-435.5 676,-435.5 676,4 -4,4"/>
<!-- Node1 -->
<g id="node1" class="node">
<title>Node1</title>
<g id="a_node1"><a xlink:title="绘制三角形">
<polygon fill="#bfbfbf" stroke="black" points="508,-195.5 508,-225.5 672,-225.5 672,-195.5 508,-195.5"/>
<text text-anchor="start" x="516" y="-213.5" font-family="Helvetica,sans-Serif" font-size="10.00">com.example.renderer.bridge.</text>
<text text-anchor="middle" x="590" y="-202.5" font-family="Helvetica,sans-Serif" font-size="10.00">Renderer.drawTriangle</text>
</a>
</g>
</g>
<!-- Node2 -->
<g id="node2" class="node">
<title>Node2</title>
<g id="a_node2"><a xlink:href="classcom_1_1example_1_1renderer_1_1proxy_1_1RemoteRendererProxy.html#af39ad5e5e13e132f23d327c44b0d54e8" target="_top" xlink:title="绘制三角形">
<polygon fill="white" stroke="black" points="276.5,-334.5 276.5,-364.5 467.5,-364.5 467.5,-334.5 276.5,-334.5"/>
<text text-anchor="start" x="284.5" y="-352.5" font-family="Helvetica,sans-Serif" font-size="10.00">com.example.renderer.proxy.</text>
<text text-anchor="middle" x="372" y="-341.5" font-family="Helvetica,sans-Serif" font-size="10.00">RemoteRendererProxy.drawTriangle</text>
</a>
</g>
</g>
<!-- Node1&#45;&gt;Node2 -->
<g id="edge1" class="edge">
<title>Node1&#45;&gt;Node2</title>
<path fill="none" stroke="midnightblue" d="M556.91,-231.15C513.04,-259.38 435.35,-309.38 396.5,-334.38"/>
<polygon fill="midnightblue" stroke="midnightblue" points="558.96,-233.99 565.47,-225.64 555.17,-228.11 558.96,-233.99"/>
</g>
<!-- Node4 -->
<g id="node4" class="node">
<title>Node4</title>
<g id="a_node4"><a xlink:href="classcom_1_1example_1_1renderer_1_1factory_1_1Triangle.html#a14d6dde3df18dfcf74f054af84ce5d44" target="_top" xlink:title="使用指定的渲染器绘制图形。 具体绘制逻辑由实现类决定，渲染器参数提供实际的绘制能力。">
<polygon fill="white" stroke="black" points="289,-195.5 289,-225.5 455,-225.5 455,-195.5 289,-195.5"/>
<text text-anchor="start" x="297" y="-213.5" font-family="Helvetica,sans-Serif" font-size="10.00">com.example.renderer.factory.</text>
<text text-anchor="middle" x="372" y="-202.5" font-family="Helvetica,sans-Serif" font-size="10.00">Triangle.render</text>
</a>
</g>
</g>
<!-- Node1&#45;&gt;Node4 -->
<g id="edge3" class="edge">
<title>Node1&#45;&gt;Node4</title>
<path fill="none" stroke="midnightblue" d="M497.76,-210.5C483.64,-210.5 469.12,-210.5 455.22,-210.5"/>
<polygon fill="midnightblue" stroke="midnightblue" points="497.96,-214 507.96,-210.5 497.95,-207 497.96,-214"/>
</g>
<!-- Node12 -->
<g id="node12" class="node">
<title>Node12</title>
<g id="a_node12"><a xlink:href="classcom_1_1example_1_1renderer_1_1adapter_1_1LegacyRendererAdapterTest.html#a4ccc2641f909746b0e28d7c5fe8d8c65" target="_top" xlink:title=" ">
<polygon fill="white" stroke="black" points="272,-135 272,-176 472,-176 472,-135 272,-135"/>
<text text-anchor="start" x="280" y="-164" font-family="Helvetica,sans-Serif" font-size="10.00">com.example.renderer.adapter.</text>
<text text-anchor="start" x="280" y="-153" font-family="Helvetica,sans-Serif" font-size="10.00">LegacyRendererAdapterTest.testDraw</text>
<text text-anchor="middle" x="372" y="-142" font-family="Helvetica,sans-Serif" font-size="10.00">Triangle_ForwardsToLegacyRenderer</text>
</a>
</g>
</g>
<!-- Node1&#45;&gt;Node12 -->
<g id="edge11" class="edge">
<title>Node1&#45;&gt;Node12</title>
<path fill="none" stroke="midnightblue" d="M520.14,-192.97C499.04,-187.59 475.64,-181.63 453.81,-176.08"/>
<polygon fill="midnightblue" stroke="midnightblue" points="519.42,-196.4 529.98,-195.47 521.15,-189.61 519.42,-196.4"/>
</g>
<!-- Node3 -->
<g id="node3" class="node">
<title>Node3</title>
<g id="a_node3"><a xlink:href="classcom_1_1example_1_1renderer_1_1proxy_1_1RemoteRendererProxyTest.html#a785672431f7951f8d26c27fece370ad8" target="_top" xlink:title="测试代理模式是否正确转发所有渲染方法调用到真实渲染器。">
<polygon fill="white" stroke="black" points="20,-390 20,-431 216,-431 216,-390 20,-390"/>
<text text-anchor="start" x="28" y="-419" font-family="Helvetica,sans-Serif" font-size="10.00">com.example.renderer.proxy.</text>
<text text-anchor="start" x="28" y="-408" font-family="Helvetica,sans-Serif" font-size="10.00">RemoteRendererProxyTest.testProxy</text>
<text text-anchor="middle" x="118" y="-397" font-family="Helvetica,sans-Serif" font-size="10.00">CallsRealRenderer</text>
</a>
</g>
</g>
<!-- Node2&#45;&gt;Node3 -->
<g id="edge2" class="edge">
<title>Node2&#45;&gt;Node3</title>
<path fill="none" stroke="midnightblue" d="M299.18,-366.88C269.54,-374.06 234.96,-382.43 204.07,-389.91"/>
<polygon fill="midnightblue" stroke="midnightblue" points="300.14,-370.25 309.03,-364.5 298.49,-363.45 300.14,-370.25"/>
</g>
<!-- Node5 -->
<g id="node5" class="node">
<title>Node5</title>
<g id="a_node5"><a xlink:href="classcom_1_1example_1_1renderer_1_1factory_1_1TriangleTest.html#adbaedb013458248eeac9b70929fb4fc6" target="_top" xlink:title=" ">
<polygon fill="white" stroke="black" points="16,-340.5 16,-370.5 220,-370.5 220,-340.5 16,-340.5"/>
<text text-anchor="start" x="24" y="-358.5" font-family="Helvetica,sans-Serif" font-size="10.00">com.example.renderer.factory.</text>
<text text-anchor="middle" x="118" y="-347.5" font-family="Helvetica,sans-Serif" font-size="10.00">TriangleTest.testCreate_AllPointsSame</text>
</a>
</g>
</g>
<!-- Node4&#45;&gt;Node5 -->
<g id="edge4" class="edge">
<title>Node4&#45;&gt;Node5</title>
<path fill="none" stroke="midnightblue" d="M351.79,-233.7C327.68,-261.21 283.67,-306.37 236,-330.5 228.31,-334.39 220.04,-337.68 211.57,-340.46"/>
<polygon fill="midnightblue" stroke="midnightblue" points="354.75,-235.63 358.62,-225.77 349.44,-231.06 354.75,-235.63"/>
</g>
<!-- Node6 -->
<g id="node6" class="node">
<title>Node6</title>
<g id="a_node6"><a xlink:href="classcom_1_1example_1_1renderer_1_1factory_1_1TriangleTest.html#a208e4db0769b85c70eacdf7b13605fb8" target="_top" xlink:title=" ">
<polygon fill="white" stroke="black" points="31,-280 31,-321 205,-321 205,-280 31,-280"/>
<text text-anchor="start" x="39" y="-309" font-family="Helvetica,sans-Serif" font-size="10.00">com.example.renderer.factory.</text>
<text text-anchor="start" x="39" y="-298" font-family="Helvetica,sans-Serif" font-size="10.00">TriangleTest.testCreate_Colinear</text>
<text text-anchor="middle" x="118" y="-287" font-family="Helvetica,sans-Serif" font-size="10.00">Points</text>
</a>
</g>
</g>
<!-- Node4&#45;&gt;Node6 -->
<g id="edge5" class="edge">
<title>Node4&#45;&gt;Node6</title>
<path fill="none" stroke="midnightblue" d="M331.69,-230.07C305.13,-242.76 269.01,-259.02 236,-270.5 226.1,-273.94 215.6,-277.19 205.12,-280.17"/>
<polygon fill="midnightblue" stroke="midnightblue" points="333.54,-233.06 341.02,-225.56 330.5,-226.76 333.54,-233.06"/>
</g>
<!-- Node7 -->
<g id="node7" class="node">
<title>Node7</title>
<g id="a_node7"><a xlink:href="classcom_1_1example_1_1renderer_1_1factory_1_1TriangleTest.html#a84f20240b6dc10a5f133c171b948bba4" target="_top" xlink:title=" ">
<polygon fill="white" stroke="black" points="22.5,-220 22.5,-261 213.5,-261 213.5,-220 22.5,-220"/>
<text text-anchor="start" x="30.5" y="-249" font-family="Helvetica,sans-Serif" font-size="10.00">com.example.renderer.factory.</text>
<text text-anchor="start" x="30.5" y="-238" font-family="Helvetica,sans-Serif" font-size="10.00">TriangleTest.testCreate_Degenerate</text>
<text text-anchor="middle" x="118" y="-227" font-family="Helvetica,sans-Serif" font-size="10.00">Triangle</text>
</a>
</g>
</g>
<!-- Node4&#45;&gt;Node7 -->
<g id="edge6" class="edge">
<title>Node4&#45;&gt;Node7</title>
<path fill="none" stroke="midnightblue" d="M278.87,-221.47C257.66,-223.99 235.06,-226.68 213.74,-229.22"/>
<polygon fill="midnightblue" stroke="midnightblue" points="279.32,-224.94 288.83,-220.28 278.49,-217.99 279.32,-224.94"/>
</g>
<!-- Node8 -->
<g id="node8" class="node">
<title>Node8</title>
<g id="a_node8"><a xlink:href="classcom_1_1example_1_1renderer_1_1factory_1_1TriangleTest.html#ac0a24ecfe9573890cc1344bf2a419ac3" target="_top" xlink:title=" ">
<polygon fill="white" stroke="black" points="24.5,-160 24.5,-201 211.5,-201 211.5,-160 24.5,-160"/>
<text text-anchor="start" x="32.5" y="-189" font-family="Helvetica,sans-Serif" font-size="10.00">com.example.renderer.factory.</text>
<text text-anchor="start" x="32.5" y="-178" font-family="Helvetica,sans-Serif" font-size="10.00">TriangleTest.testCreate_RightAngle</text>
<text text-anchor="middle" x="118" y="-167" font-family="Helvetica,sans-Serif" font-size="10.00">Triangle</text>
</a>
</g>
</g>
<!-- Node4&#45;&gt;Node8 -->
<g id="edge7" class="edge">
<title>Node4&#45;&gt;Node8</title>
<path fill="none" stroke="midnightblue" d="M278.87,-199.53C256.92,-196.92 233.49,-194.13 211.53,-191.52"/>
<polygon fill="midnightblue" stroke="midnightblue" points="278.49,-203.01 288.83,-200.72 279.32,-196.06 278.49,-203.01"/>
</g>
<!-- Node9 -->
<g id="node9" class="node">
<title>Node9</title>
<g id="a_node9"><a xlink:href="classcom_1_1example_1_1renderer_1_1factory_1_1TriangleTest.html#a824f4b3a890ebe7d42c00a5c892223c3" target="_top" xlink:title="测试三角形渲染功能。">
<polygon fill="white" stroke="black" points="35,-110.5 35,-140.5 201,-140.5 201,-110.5 35,-110.5"/>
<text text-anchor="start" x="43" y="-128.5" font-family="Helvetica,sans-Serif" font-size="10.00">com.example.renderer.factory.</text>
<text text-anchor="middle" x="118" y="-117.5" font-family="Helvetica,sans-Serif" font-size="10.00">TriangleTest.testRender</text>
</a>
</g>
</g>
<!-- Node4&#45;&gt;Node9 -->
<g id="edge8" class="edge">
<title>Node4&#45;&gt;Node9</title>
<path fill="none" stroke="midnightblue" d="M284.96,-191.82C280.49,-189.91 276.14,-187.81 272,-185.5 252.52,-174.62 255.68,-161.02 236,-150.5 225.19,-144.72 213.15,-140.28 201.02,-136.86"/>
<polygon fill="midnightblue" stroke="midnightblue" points="283.71,-195.09 294.3,-195.47 286.26,-188.57 283.71,-195.09"/>
</g>
<!-- Node10 -->
<g id="node10" class="node">
<title>Node10</title>
<g id="a_node10"><a xlink:href="classcom_1_1example_1_1renderer_1_1factory_1_1TriangleTest.html#a24f045d4a1b10e4809e39ef326058902" target="_top" xlink:title=" ">
<polygon fill="white" stroke="black" points="16.5,-50 16.5,-91 219.5,-91 219.5,-50 16.5,-50"/>
<text text-anchor="start" x="24.5" y="-79" font-family="Helvetica,sans-Serif" font-size="10.00">com.example.renderer.factory.</text>
<text text-anchor="start" x="24.5" y="-68" font-family="Helvetica,sans-Serif" font-size="10.00">TriangleTest.testRender_AfterComplex</text>
<text text-anchor="middle" x="118" y="-57" font-family="Helvetica,sans-Serif" font-size="10.00">Transformation</text>
</a>
</g>
</g>
<!-- Node4&#45;&gt;Node10 -->
<g id="edge9" class="edge">
<title>Node4&#45;&gt;Node10</title>
<path fill="none" stroke="midnightblue" d="M279.66,-191.2C276.98,-189.46 274.42,-187.56 272,-185.5 241.11,-159.13 266.74,-128.05 236,-101.5 230.99,-97.17 225.44,-93.44 219.56,-90.22"/>
<polygon fill="midnightblue" stroke="midnightblue" points="278.14,-194.36 288.56,-196.27 281.6,-188.28 278.14,-194.36"/>
</g>
<!-- Node11 -->
<g id="node11" class="node">
<title>Node11</title>
<g id="a_node11"><a xlink:href="classcom_1_1example_1_1renderer_1_1factory_1_1TriangleTest.html#a4abc2416390946f71c3d9fff17f6714c" target="_top" xlink:title=" ">
<polygon fill="white" stroke="black" points="0,-0.5 0,-30.5 236,-30.5 236,-0.5 0,-0.5"/>
<text text-anchor="start" x="8" y="-18.5" font-family="Helvetica,sans-Serif" font-size="10.00">com.example.renderer.factory.</text>
<text text-anchor="middle" x="118" y="-7.5" font-family="Helvetica,sans-Serif" font-size="10.00">TriangleTest.testRender_ExtremeCoordinates</text>
</a>
</g>
</g>
<!-- Node4&#45;&gt;Node11 -->
<g id="edge10" class="edge">
<title>Node4&#45;&gt;Node11</title>
<path fill="none" stroke="midnightblue" d="M280.14,-192.37C277.25,-190.31 274.52,-188.03 272,-185.5 225.14,-138.45 283.72,-86.68 236,-40.5 232.04,-36.67 227.65,-33.37 222.96,-30.52"/>
<polygon fill="midnightblue" stroke="midnightblue" points="278.35,-195.38 288.71,-197.62 282.01,-189.41 278.35,-195.38"/>
</g>
</g>
</svg>
        <g id="navigator" transform="translate(0 0)" fill="#404254">
                <rect fill="#f2f5e9" fill-opacity="0.5" stroke="#606060" stroke-width=".5" x="0" y="0" width="60" height="60"/>
                <use id="zoomplus" xlink:href="#zoomPlus" x="17" y="9" onmousedown="handleZoom(evt,'in')"/>
                <use id="zoomminus" xlink:href="#zoomMin" x="42" y="9" onmousedown="handleZoom(evt,'out')"/>
                <use id="reset" xlink:href="#resetDef" x="30" y="36" onmousedown="handleReset()"/>
                <g id="arrowUp" xlink:href="#dirArrow" transform="translate(30 24)" onmousedown="handlePan(0,-1)">
                  <use xlink:href="#rim" fill="#404040">
                        <set attributeName="fill" to="#808080" begin="arrowUp.mouseover" end="arrowUp.mouseout"/>
                  </use>
                  <path fill="none" stroke="white" stroke-width="1.5" d="M0,-3.0v7 M-2.5,-0.5L0,-3.0L2.5,-0.5"/>
                </g>
                <g id="arrowRight" xlink:href="#dirArrow" transform="rotate(90) translate(36 -43)" onmousedown="handlePan(1,0)">
                  <use xlink:href="#rim" fill="#404040">
                        <set attributeName="fill" to="#808080" begin="arrowRight.mouseover" end="arrowRight.mouseout"/>
                  </use>
                  <path fill="none" stroke="white" stroke-width="1.5" d="M0,-3.0v7 M-2.5,-0.5L0,-3.0L2.5,-0.5"/>
                </g>
                <g id="arrowDown" xlink:href="#dirArrow" transform="rotate(180) translate(-30 -48)" onmousedown="handlePan(0,1)">
                  <use xlink:href="#rim" fill="#404040">
                        <set attributeName="fill" to="#808080" begin="arrowDown.mouseover" end="arrowDown.mouseout"/>
                  </use>
                  <path fill="none" stroke="white" stroke-width="1.5" d="M0,-3.0v7 M-2.5,-0.5L0,-3.0L2.5,-0.5"/>
                </g>
                <g id="arrowLeft" xlink:href="#dirArrow" transform="rotate(270) translate(-36 17)" onmousedown="handlePan(-1,0)">
                  <use xlink:href="#rim" fill="#404040">
                        <set attributeName="fill" to="#808080" begin="arrowLeft.mouseover" end="arrowLeft.mouseout"/>
                  </use>
                  <path fill="none" stroke="white" stroke-width="1.5" d="M0,-3.0v7 M-2.5,-0.5L0,-3.0L2.5,-0.5"/>
                </g>
        </g>
        <svg viewBox="0 0 15 15" width="100%" height="30px" preserveAspectRatio="xMaxYMin meet">
         <g id="arrow_out" transform="scale(0.3 0.3)">
          <a xlink:href="interfacecom_1_1example_1_1renderer_1_1bridge_1_1Renderer_a8da6ee9a1744047767dfccc70cd6da76_icgraph_org.svg" target="_base">
           <rect id="button" ry="5" rx="5" y="6" x="6" height="38" width="38"
                fill="#f2f5e9" fill-opacity="0.5" stroke="#606060" stroke-width="1.0"/>
           <path id="arrow"
             d="M 11.500037,31.436501 C 11.940474,20.09759 22.043105,11.32322 32.158766,21.979434 L 37.068811,17.246167 C 37.068811,17.246167 37.088388,32 37.088388,32 L 22.160133,31.978069 C 22.160133,31.978069 26.997745,27.140456 26.997745,27.140456 C 18.528582,18.264221 13.291696,25.230495 11.500037,31.436501 z"
             style="fill:#404040;"/>
          </a>
         </g>
        </svg>
</svg>
