<?xml version="1.0" encoding="UTF-8" standalone="no"?>
<!DOCTYPE svg PUBLIC "-//W3C//DTD SVG 1.1//EN"
 "http://www.w3.org/Graphics/SVG/1.1/DTD/svg11.dtd">
<!-- Generated by graphviz version 2.43.0 (0)
 -->
<!-- Title: com.example.renderer.config.GlobalConfigTest.testRenderMode Pages: 1 -->
<svg width="388pt" height="137pt"
 viewBox="0.00 0.00 388.00 137.00" xmlns="http://www.w3.org/2000/svg" xmlns:xlink="http://www.w3.org/1999/xlink">
<g id="graph0" class="graph" transform="scale(1 1) rotate(0) translate(4 133)">
<title>com.example.renderer.config.GlobalConfigTest.testRenderMode</title>
<polygon fill="white" stroke="transparent" points="-4,4 -4,-133 384,-133 384,4 -4,4"/>
<!-- Node1 -->
<g id="node1" class="node">
<title>Node1</title>
<g id="a_node1"><a xlink:title=" ">
<polygon fill="#bfbfbf" stroke="black" points="0,-49.5 0,-79.5 182,-79.5 182,-49.5 0,-49.5"/>
<text text-anchor="start" x="8" y="-67.5" font-family="Helvetica,sans-Serif" font-size="10.00">com.example.renderer.config.</text>
<text text-anchor="middle" x="91" y="-56.5" font-family="Helvetica,sans-Serif" font-size="10.00">GlobalConfigTest.testRenderMode</text>
</a>
</g>
</g>
<!-- Node2 -->
<g id="node2" class="node">
<title>Node2</title>
<g id="a_node2"><a xlink:href="$classcom_1_1example_1_1renderer_1_1config_1_1GlobalConfig.html#adc06fc5a9db079014296d5a16c63654d" xlink:title=" ">
<polygon fill="white" stroke="black" points="218,-98.5 218,-128.5 380,-128.5 380,-98.5 218,-98.5"/>
<text text-anchor="start" x="226" y="-116.5" font-family="Helvetica,sans-Serif" font-size="10.00">com.example.renderer.config.</text>
<text text-anchor="middle" x="299" y="-105.5" font-family="Helvetica,sans-Serif" font-size="10.00">GlobalConfig.getInstance</text>
</a>
</g>
</g>
<!-- Node1&#45;&gt;Node2 -->
<g id="edge1" class="edge">
<title>Node1&#45;&gt;Node2</title>
<path fill="none" stroke="midnightblue" d="M155.21,-79.53C177.25,-84.78 202.18,-90.71 224.96,-96.13"/>
<polygon fill="midnightblue" stroke="midnightblue" points="224.37,-99.58 234.91,-98.49 225.99,-92.77 224.37,-99.58"/>
</g>
<!-- Node3 -->
<g id="node3" class="node">
<title>Node3</title>
<g id="a_node3"><a xlink:href="$classcom_1_1example_1_1renderer_1_1config_1_1GlobalConfig.html#a868f70e0f607398f8c11ff5b428f5549" xlink:title=" ">
<polygon fill="white" stroke="black" points="218,-49.5 218,-79.5 380,-79.5 380,-49.5 218,-49.5"/>
<text text-anchor="start" x="226" y="-67.5" font-family="Helvetica,sans-Serif" font-size="10.00">com.example.renderer.config.</text>
<text text-anchor="middle" x="299" y="-56.5" font-family="Helvetica,sans-Serif" font-size="10.00">GlobalConfig.getRenderMode</text>
</a>
</g>
</g>
<!-- Node1&#45;&gt;Node3 -->
<g id="edge2" class="edge">
<title>Node1&#45;&gt;Node3</title>
<path fill="none" stroke="midnightblue" d="M182.05,-64.5C190.52,-64.5 199.11,-64.5 207.58,-64.5"/>
<polygon fill="midnightblue" stroke="midnightblue" points="207.84,-68 217.84,-64.5 207.84,-61 207.84,-68"/>
</g>
<!-- Node4 -->
<g id="node4" class="node">
<title>Node4</title>
<g id="a_node4"><a xlink:href="$classcom_1_1example_1_1renderer_1_1config_1_1GlobalConfig.html#afc97bcead73d7fe3e7881a4f0acf25b3" xlink:title=" ">
<polygon fill="white" stroke="black" points="218,-0.5 218,-30.5 380,-30.5 380,-0.5 218,-0.5"/>
<text text-anchor="start" x="226" y="-18.5" font-family="Helvetica,sans-Serif" font-size="10.00">com.example.renderer.config.</text>
<text text-anchor="middle" x="299" y="-7.5" font-family="Helvetica,sans-Serif" font-size="10.00">GlobalConfig.setRenderMode</text>
</a>
</g>
</g>
<!-- Node1&#45;&gt;Node4 -->
<g id="edge3" class="edge">
<title>Node1&#45;&gt;Node4</title>
<path fill="none" stroke="midnightblue" d="M155.21,-49.47C177.25,-44.22 202.18,-38.29 224.96,-32.87"/>
<polygon fill="midnightblue" stroke="midnightblue" points="225.99,-36.23 234.91,-30.51 224.37,-29.42 225.99,-36.23"/>
</g>
</g>
</svg>
