<?xml version="1.0" encoding="UTF-8" standalone="no"?>
<!DOCTYPE svg PUBLIC "-//W3C//DTD SVG 1.1//EN"
 "http://www.w3.org/Graphics/SVG/1.1/DTD/svg11.dtd">
<!-- Generated by graphviz version 2.43.0 (0)
 -->
<!-- Title: com.example.renderer.factory.Triangle.move Pages: 1 -->
<svg width="413pt" height="269pt"
 viewBox="0.00 0.00 413.00 268.50" xmlns="http://www.w3.org/2000/svg" xmlns:xlink="http://www.w3.org/1999/xlink">
<g id="graph0" class="graph" transform="scale(1 1) rotate(0) translate(4 264.5)">
<title>com.example.renderer.factory.Triangle.move</title>
<polygon fill="white" stroke="transparent" points="-4,4 -4,-264.5 409,-264.5 409,4 -4,4"/>
<!-- Node1 -->
<g id="node1" class="node">
<title>Node1</title>
<g id="a_node1"><a xlink:title="移动图形的位置。 根据给定的偏移量调整图形的坐标位置，正数表示向右/下移动，负数表示向左/上移动。">
<polygon fill="#bfbfbf" stroke="black" points="239,-126 239,-156 405,-156 405,-126 239,-126"/>
<text text-anchor="start" x="247" y="-144" font-family="Helvetica,sans-Serif" font-size="10.00">com.example.renderer.factory.</text>
<text text-anchor="middle" x="322" y="-133" font-family="Helvetica,sans-Serif" font-size="10.00">Triangle.move</text>
</a>
</g>
</g>
<!-- Node2 -->
<g id="node2" class="node">
<title>Node2</title>
<g id="a_node2"><a xlink:href="$classcom_1_1example_1_1renderer_1_1factory_1_1TriangleTest.html#a89427b111574a3a44ae82a6b10c61ad4" xlink:title=" ">
<polygon fill="white" stroke="black" points="18.5,-230 18.5,-260 184.5,-260 184.5,-230 18.5,-230"/>
<text text-anchor="start" x="26.5" y="-248" font-family="Helvetica,sans-Serif" font-size="10.00">com.example.renderer.factory.</text>
<text text-anchor="middle" x="101.5" y="-237" font-family="Helvetica,sans-Serif" font-size="10.00">TriangleTest.testMove</text>
</a>
</g>
</g>
<!-- Node1&#45;&gt;Node2 -->
<g id="edge1" class="edge">
<title>Node1&#45;&gt;Node2</title>
<path fill="none" stroke="midnightblue" d="M295.18,-162.58C272.3,-180.67 237.29,-205.89 203,-221 195.28,-224.4 187.02,-227.36 178.65,-229.93"/>
<polygon fill="midnightblue" stroke="midnightblue" points="297.43,-165.26 303.03,-156.27 293.04,-159.81 297.43,-165.26"/>
</g>
<!-- Node3 -->
<g id="node3" class="node">
<title>Node3</title>
<g id="a_node3"><a xlink:href="$classcom_1_1example_1_1renderer_1_1factory_1_1TriangleTest.html#ad87bdc8449fa5a004f8a450b77b1809c" xlink:title=" ">
<polygon fill="white" stroke="black" points="0.5,-181 0.5,-211 202.5,-211 202.5,-181 0.5,-181"/>
<text text-anchor="start" x="8.5" y="-199" font-family="Helvetica,sans-Serif" font-size="10.00">com.example.renderer.factory.</text>
<text text-anchor="middle" x="101.5" y="-188" font-family="Helvetica,sans-Serif" font-size="10.00">TriangleTest.testMove_ExtremeValues</text>
</a>
</g>
</g>
<!-- Node1&#45;&gt;Node3 -->
<g id="edge2" class="edge">
<title>Node1&#45;&gt;Node3</title>
<path fill="none" stroke="midnightblue" d="M252.28,-158.53C236.12,-162.64 218.96,-166.99 203,-171 190.1,-174.25 176.26,-177.7 163.1,-180.98"/>
<polygon fill="midnightblue" stroke="midnightblue" points="253.37,-161.87 262.19,-156.01 251.64,-155.09 253.37,-161.87"/>
</g>
<!-- Node4 -->
<g id="node4" class="node">
<title>Node4</title>
<g id="a_node4"><a xlink:href="$classcom_1_1example_1_1renderer_1_1factory_1_1TriangleTest.html#afbe750c8f3a67d339490df69cda211e0" xlink:title=" ">
<polygon fill="white" stroke="black" points="0.5,-120.5 0.5,-161.5 202.5,-161.5 202.5,-120.5 0.5,-120.5"/>
<text text-anchor="start" x="8.5" y="-149.5" font-family="Helvetica,sans-Serif" font-size="10.00">com.example.renderer.factory.</text>
<text text-anchor="start" x="8.5" y="-138.5" font-family="Helvetica,sans-Serif" font-size="10.00">TriangleTest.testMove_ExtremeValues</text>
<text text-anchor="middle" x="101.5" y="-127.5" font-family="Helvetica,sans-Serif" font-size="10.00">WithOverflow</text>
</a>
</g>
</g>
<!-- Node1&#45;&gt;Node4 -->
<g id="edge3" class="edge">
<title>Node1&#45;&gt;Node4</title>
<path fill="none" stroke="midnightblue" d="M228.43,-141C219.94,-141 211.32,-141 202.76,-141"/>
<polygon fill="midnightblue" stroke="midnightblue" points="228.71,-144.5 238.71,-141 228.71,-137.5 228.71,-144.5"/>
</g>
<!-- Node5 -->
<g id="node5" class="node">
<title>Node5</title>
<g id="a_node5"><a xlink:href="$classcom_1_1example_1_1renderer_1_1factory_1_1TriangleTest.html#a405536b1f909a8cf220f38e7a88373ed" xlink:title=" ">
<polygon fill="white" stroke="black" points="7,-60.5 7,-101.5 196,-101.5 196,-60.5 7,-60.5"/>
<text text-anchor="start" x="15" y="-89.5" font-family="Helvetica,sans-Serif" font-size="10.00">com.example.renderer.factory.</text>
<text text-anchor="start" x="15" y="-78.5" font-family="Helvetica,sans-Serif" font-size="10.00">TriangleTest.testMove_PartialPoints</text>
<text text-anchor="middle" x="101.5" y="-67.5" font-family="Helvetica,sans-Serif" font-size="10.00">ToBoundary</text>
</a>
</g>
</g>
<!-- Node1&#45;&gt;Node5 -->
<g id="edge4" class="edge">
<title>Node1&#45;&gt;Node5</title>
<path fill="none" stroke="midnightblue" d="M256.45,-123.27C231.57,-116.44 202.96,-108.58 177.2,-101.51"/>
<polygon fill="midnightblue" stroke="midnightblue" points="255.58,-126.66 266.15,-125.94 257.43,-119.91 255.58,-126.66"/>
</g>
<!-- Node6 -->
<g id="node6" class="node">
<title>Node6</title>
<g id="a_node6"><a xlink:href="$classcom_1_1example_1_1renderer_1_1factory_1_1TriangleTest.html#a24f045d4a1b10e4809e39ef326058902" xlink:title=" ">
<polygon fill="white" stroke="black" points="0,-0.5 0,-41.5 203,-41.5 203,-0.5 0,-0.5"/>
<text text-anchor="start" x="8" y="-29.5" font-family="Helvetica,sans-Serif" font-size="10.00">com.example.renderer.factory.</text>
<text text-anchor="start" x="8" y="-18.5" font-family="Helvetica,sans-Serif" font-size="10.00">TriangleTest.testRender_AfterComplex</text>
<text text-anchor="middle" x="101.5" y="-7.5" font-family="Helvetica,sans-Serif" font-size="10.00">Transformation</text>
</a>
</g>
</g>
<!-- Node1&#45;&gt;Node6 -->
<g id="edge5" class="edge">
<title>Node1&#45;&gt;Node6</title>
<path fill="none" stroke="midnightblue" d="M297.68,-119.09C275.05,-98.87 238.94,-69.3 203,-51 196.18,-47.53 188.9,-44.39 181.48,-41.57"/>
<polygon fill="midnightblue" stroke="midnightblue" points="295.34,-121.69 305.1,-125.81 300.05,-116.5 295.34,-121.69"/>
</g>
</g>
</svg>
