<?xml version="1.0" encoding="UTF-8" standalone="no"?>
<!DOCTYPE svg PUBLIC "-//W3C//DTD SVG 1.1//EN"
 "http://www.w3.org/Graphics/SVG/1.1/DTD/svg11.dtd">
<!-- Generated by graphviz version 2.43.0 (0)
 -->
<!-- Title: com.example.renderer.visitor.JSONExportVisitorTest.testVisitRectangle Pages: 1 -->
<svg width="637pt" height="186pt"
 viewBox="0.00 0.00 637.00 186.00" xmlns="http://www.w3.org/2000/svg" xmlns:xlink="http://www.w3.org/1999/xlink">
<g id="graph0" class="graph" transform="scale(1 1) rotate(0) translate(4 182)">
<title>com.example.renderer.visitor.JSONExportVisitorTest.testVisitRectangle</title>
<polygon fill="white" stroke="transparent" points="-4,4 -4,-182 633,-182 633,4 -4,4"/>
<!-- Node1 -->
<g id="node1" class="node">
<title>Node1</title>
<g id="a_node1"><a xlink:title=" ">
<polygon fill="#bfbfbf" stroke="black" points="0,-73.5 0,-103.5 215,-103.5 215,-73.5 0,-73.5"/>
<text text-anchor="start" x="8" y="-91.5" font-family="Helvetica,sans-Serif" font-size="10.00">com.example.renderer.visitor.</text>
<text text-anchor="middle" x="107.5" y="-80.5" font-family="Helvetica,sans-Serif" font-size="10.00">JSONExportVisitorTest.testVisitRectangle</text>
</a>
</g>
</g>
<!-- Node2 -->
<g id="node2" class="node">
<title>Node2</title>
<g id="a_node2"><a xlink:href="$classcom_1_1example_1_1renderer_1_1visitor_1_1JSONExportVisitor.html#af42c3f77485d750dc6ec27edc31c1bf7" xlink:title="将矩形对象转换为JSON格式输出">
<polygon fill="white" stroke="black" points="251,-73.5 251,-103.5 427,-103.5 427,-73.5 251,-73.5"/>
<text text-anchor="start" x="259" y="-91.5" font-family="Helvetica,sans-Serif" font-size="10.00">com.example.renderer.visitor.</text>
<text text-anchor="middle" x="339" y="-80.5" font-family="Helvetica,sans-Serif" font-size="10.00">JSONExportVisitor.visitRectangle</text>
</a>
</g>
</g>
<!-- Node1&#45;&gt;Node2 -->
<g id="edge1" class="edge">
<title>Node1&#45;&gt;Node2</title>
<path fill="none" stroke="midnightblue" d="M215.19,-88.5C223.68,-88.5 232.22,-88.5 240.64,-88.5"/>
<polygon fill="midnightblue" stroke="midnightblue" points="240.84,-92 250.84,-88.5 240.84,-85 240.84,-92"/>
</g>
<!-- Node3 -->
<g id="node3" class="node">
<title>Node3</title>
<g id="a_node3"><a xlink:href="$classcom_1_1example_1_1renderer_1_1factory_1_1Rectangle.html#ae83e1c0e4055db52f789967fa1209cd6" xlink:title="获取矩形高度">
<polygon fill="white" stroke="black" points="463,-147.5 463,-177.5 629,-177.5 629,-147.5 463,-147.5"/>
<text text-anchor="start" x="471" y="-165.5" font-family="Helvetica,sans-Serif" font-size="10.00">com.example.renderer.factory.</text>
<text text-anchor="middle" x="546" y="-154.5" font-family="Helvetica,sans-Serif" font-size="10.00">Rectangle.getHeight</text>
</a>
</g>
</g>
<!-- Node2&#45;&gt;Node3 -->
<g id="edge2" class="edge">
<title>Node2&#45;&gt;Node3</title>
<path fill="none" stroke="midnightblue" d="M374.37,-103.56C398.84,-114.02 432.64,-127.92 463,-138.5 468.79,-140.52 474.85,-142.51 480.94,-144.43"/>
<polygon fill="midnightblue" stroke="midnightblue" points="479.91,-147.78 490.5,-147.39 481.98,-141.09 479.91,-147.78"/>
</g>
<!-- Node4 -->
<g id="node4" class="node">
<title>Node4</title>
<g id="a_node4"><a xlink:href="$classcom_1_1example_1_1renderer_1_1factory_1_1Rectangle.html#a866a5e7ee721a4744e970be235d7bf2a" xlink:title="获取矩形宽度">
<polygon fill="white" stroke="black" points="463,-98.5 463,-128.5 629,-128.5 629,-98.5 463,-98.5"/>
<text text-anchor="start" x="471" y="-116.5" font-family="Helvetica,sans-Serif" font-size="10.00">com.example.renderer.factory.</text>
<text text-anchor="middle" x="546" y="-105.5" font-family="Helvetica,sans-Serif" font-size="10.00">Rectangle.getWidth</text>
</a>
</g>
</g>
<!-- Node2&#45;&gt;Node4 -->
<g id="edge3" class="edge">
<title>Node2&#45;&gt;Node4</title>
<path fill="none" stroke="midnightblue" d="M427.24,-99.14C435.69,-100.17 444.3,-101.22 452.8,-102.26"/>
<polygon fill="midnightblue" stroke="midnightblue" points="452.38,-105.73 462.73,-103.47 453.23,-98.78 452.38,-105.73"/>
</g>
<!-- Node5 -->
<g id="node5" class="node">
<title>Node5</title>
<g id="a_node5"><a xlink:href="$classcom_1_1example_1_1renderer_1_1factory_1_1Rectangle.html#a04a2b038cf6f21b0875a6bce7dd479e0" xlink:title="获取矩形左上角x坐标">
<polygon fill="white" stroke="black" points="463,-49.5 463,-79.5 629,-79.5 629,-49.5 463,-49.5"/>
<text text-anchor="start" x="471" y="-67.5" font-family="Helvetica,sans-Serif" font-size="10.00">com.example.renderer.factory.</text>
<text text-anchor="middle" x="546" y="-56.5" font-family="Helvetica,sans-Serif" font-size="10.00">Rectangle.getX</text>
</a>
</g>
</g>
<!-- Node2&#45;&gt;Node5 -->
<g id="edge4" class="edge">
<title>Node2&#45;&gt;Node5</title>
<path fill="none" stroke="midnightblue" d="M427.24,-78.29C435.6,-77.31 444.11,-76.31 452.52,-75.33"/>
<polygon fill="midnightblue" stroke="midnightblue" points="453.2,-78.77 462.73,-74.13 452.39,-71.82 453.2,-78.77"/>
</g>
<!-- Node6 -->
<g id="node6" class="node">
<title>Node6</title>
<g id="a_node6"><a xlink:href="$classcom_1_1example_1_1renderer_1_1factory_1_1Rectangle.html#a8086515b4c50de24274dace98a8ca9ea" xlink:title="获取矩形左上角Y坐标">
<polygon fill="white" stroke="black" points="463,-0.5 463,-30.5 629,-30.5 629,-0.5 463,-0.5"/>
<text text-anchor="start" x="471" y="-18.5" font-family="Helvetica,sans-Serif" font-size="10.00">com.example.renderer.factory.</text>
<text text-anchor="middle" x="546" y="-7.5" font-family="Helvetica,sans-Serif" font-size="10.00">Rectangle.getY</text>
</a>
</g>
</g>
<!-- Node2&#45;&gt;Node6 -->
<g id="edge5" class="edge">
<title>Node2&#45;&gt;Node6</title>
<path fill="none" stroke="midnightblue" d="M376.33,-73.48C400.67,-63.63 433.55,-50.72 463,-40.5 469.77,-38.15 476.89,-35.8 483.99,-33.54"/>
<polygon fill="midnightblue" stroke="midnightblue" points="485.14,-36.84 493.63,-30.51 483.04,-30.17 485.14,-36.84"/>
</g>
</g>
</svg>
