<?xml version="1.0" encoding="UTF-8" standalone="no"?>
<!DOCTYPE svg PUBLIC "-//W3C//DTD SVG 1.1//EN"
 "http://www.w3.org/Graphics/SVG/1.1/DTD/svg11.dtd">
<!-- Generated by graphviz version 2.43.0 (0)
 -->
<!-- Title: com.example.renderer.util.RuntimeTypeAdapterFactory&lt; T &gt; Pages: 1 -->
<svg width="190pt" height="193pt"
 viewBox="0.00 0.00 190.00 193.00" xmlns="http://www.w3.org/2000/svg" xmlns:xlink="http://www.w3.org/1999/xlink">
<g id="graph0" class="graph" transform="scale(1 1) rotate(0) translate(4 189)">
<title>com.example.renderer.util.RuntimeTypeAdapterFactory&lt; T &gt;</title>
<polygon fill="white" stroke="transparent" points="-4,4 -4,-189 186,-189 186,4 -4,4"/>
<!-- Node1 -->
<g id="node1" class="node">
<title>Node1</title>
<g id="a_node1"><a xlink:title="运行时类型适配器工厂类">
<polygon fill="#bfbfbf" stroke="black" points="0,-0.5 0,-90.5 182,-90.5 182,-0.5 0,-0.5"/>
<text text-anchor="start" x="8" y="-78.5" font-family="Helvetica,sans-Serif" font-size="10.00">com.example.renderer.util.</text>
<text text-anchor="middle" x="91" y="-67.5" font-family="Helvetica,sans-Serif" font-size="10.00">RuntimeTypeAdapterFactory&lt; T &gt;</text>
<polyline fill="none" stroke="black" points="0,-60.5 182,-60.5 "/>
<text text-anchor="middle" x="91" y="-48.5" font-family="Helvetica,sans-Serif" font-size="10.00"> </text>
<polyline fill="none" stroke="black" points="0,-41.5 182,-41.5 "/>
<text text-anchor="start" x="8" y="-29.5" font-family="Helvetica,sans-Serif" font-size="10.00">+ registerSubtype()</text>
<text text-anchor="start" x="8" y="-18.5" font-family="Helvetica,sans-Serif" font-size="10.00">+ of()</text>
<text text-anchor="start" x="8" y="-7.5" font-family="Helvetica,sans-Serif" font-size="10.00">~ create()</text>
</a>
</g>
</g>
<!-- Node2 -->
<g id="node2" class="node">
<title>Node2</title>
<g id="a_node2"><a xlink:title=" ">
<polygon fill="white" stroke="#bfbfbf" points="34.5,-127.5 34.5,-184.5 147.5,-184.5 147.5,-127.5 34.5,-127.5"/>
<text text-anchor="middle" x="91" y="-172.5" font-family="Helvetica,sans-Serif" font-size="10.00">TypeAdapterFactory</text>
<polyline fill="none" stroke="#bfbfbf" points="34.5,-165.5 147.5,-165.5 "/>
<text text-anchor="middle" x="91" y="-153.5" font-family="Helvetica,sans-Serif" font-size="10.00"> </text>
<polyline fill="none" stroke="#bfbfbf" points="34.5,-146.5 147.5,-146.5 "/>
<text text-anchor="middle" x="91" y="-134.5" font-family="Helvetica,sans-Serif" font-size="10.00"> </text>
</a>
</g>
</g>
<!-- Node2&#45;&gt;Node1 -->
<g id="edge1" class="edge">
<title>Node2&#45;&gt;Node1</title>
<path fill="none" stroke="midnightblue" d="M91,-117.21C91,-108.61 91,-99.39 91,-90.55"/>
<polygon fill="none" stroke="midnightblue" points="87.5,-117.34 91,-127.34 94.5,-117.34 87.5,-117.34"/>
</g>
</g>
</svg>
