<?xml version="1.0" encoding="UTF-8" standalone="no"?>
<!DOCTYPE svg PUBLIC "-//W3C//DTD SVG 1.1//EN"
 "http://www.w3.org/Graphics/SVG/1.1/DTD/svg11.dtd">
<!-- Generated by graphviz version 2.43.0 (0)
 -->
<!-- Title: com.example.renderer.visitor.JSONExportVisitor.visitTriangle Pages: 1 -->
<svg width="375pt" height="284pt"
 viewBox="0.00 0.00 375.00 284.00" xmlns="http://www.w3.org/2000/svg" xmlns:xlink="http://www.w3.org/1999/xlink">
<g id="graph0" class="graph" transform="scale(1 1) rotate(0) translate(4 280)">
<title>com.example.renderer.visitor.JSONExportVisitor.visitTriangle</title>
<polygon fill="white" stroke="transparent" points="-4,4 -4,-280 371,-280 371,4 -4,4"/>
<!-- Node1 -->
<g id="node1" class="node">
<title>Node1</title>
<g id="a_node1"><a xlink:title="将三角形对象转换为JSON格式输出">
<polygon fill="#bfbfbf" stroke="black" points="0,-122.5 0,-152.5 165,-152.5 165,-122.5 0,-122.5"/>
<text text-anchor="start" x="8" y="-140.5" font-family="Helvetica,sans-Serif" font-size="10.00">com.example.renderer.visitor.</text>
<text text-anchor="middle" x="82.5" y="-129.5" font-family="Helvetica,sans-Serif" font-size="10.00">JSONExportVisitor.visitTriangle</text>
</a>
</g>
</g>
<!-- Node2 -->
<g id="node2" class="node">
<title>Node2</title>
<g id="a_node2"><a xlink:href="$classcom_1_1example_1_1renderer_1_1factory_1_1Triangle.html#aa5ec64f9827fba203174d5e91185e6f2" xlink:title=" ">
<polygon fill="white" stroke="black" points="201,-245.5 201,-275.5 367,-275.5 367,-245.5 201,-245.5"/>
<text text-anchor="start" x="209" y="-263.5" font-family="Helvetica,sans-Serif" font-size="10.00">com.example.renderer.factory.</text>
<text text-anchor="middle" x="284" y="-252.5" font-family="Helvetica,sans-Serif" font-size="10.00">Triangle.getX1</text>
</a>
</g>
</g>
<!-- Node1&#45;&gt;Node2 -->
<g id="edge1" class="edge">
<title>Node1&#45;&gt;Node2</title>
<path fill="none" stroke="midnightblue" d="M97.58,-152.85C118.24,-174.52 158.93,-213.93 201,-236.5 204.43,-238.34 208.02,-240.06 211.7,-241.65"/>
<polygon fill="midnightblue" stroke="midnightblue" points="210.41,-244.91 220.99,-245.38 213.02,-238.41 210.41,-244.91"/>
</g>
<!-- Node3 -->
<g id="node3" class="node">
<title>Node3</title>
<g id="a_node3"><a xlink:href="$classcom_1_1example_1_1renderer_1_1factory_1_1Triangle.html#abba5462908667c70efa65edc2b0e17bc" xlink:title=" ">
<polygon fill="white" stroke="black" points="201,-196.5 201,-226.5 367,-226.5 367,-196.5 201,-196.5"/>
<text text-anchor="start" x="209" y="-214.5" font-family="Helvetica,sans-Serif" font-size="10.00">com.example.renderer.factory.</text>
<text text-anchor="middle" x="284" y="-203.5" font-family="Helvetica,sans-Serif" font-size="10.00">Triangle.getX2</text>
</a>
</g>
</g>
<!-- Node1&#45;&gt;Node3 -->
<g id="edge2" class="edge">
<title>Node1&#45;&gt;Node3</title>
<path fill="none" stroke="midnightblue" d="M116.01,-152.56C139.37,-163.07 171.78,-177.05 201,-187.5 206.55,-189.48 212.35,-191.43 218.19,-193.3"/>
<polygon fill="midnightblue" stroke="midnightblue" points="217.43,-196.73 228.02,-196.38 219.52,-190.05 217.43,-196.73"/>
</g>
<!-- Node4 -->
<g id="node4" class="node">
<title>Node4</title>
<g id="a_node4"><a xlink:href="$classcom_1_1example_1_1renderer_1_1factory_1_1Triangle.html#a2f27fd932329a59698e80ca4c900eba8" xlink:title=" ">
<polygon fill="white" stroke="black" points="201,-147.5 201,-177.5 367,-177.5 367,-147.5 201,-147.5"/>
<text text-anchor="start" x="209" y="-165.5" font-family="Helvetica,sans-Serif" font-size="10.00">com.example.renderer.factory.</text>
<text text-anchor="middle" x="284" y="-154.5" font-family="Helvetica,sans-Serif" font-size="10.00">Triangle.getX3</text>
</a>
</g>
</g>
<!-- Node1&#45;&gt;Node4 -->
<g id="edge3" class="edge">
<title>Node1&#45;&gt;Node4</title>
<path fill="none" stroke="midnightblue" d="M165.22,-147.74C173.65,-148.8 182.26,-149.88 190.79,-150.95"/>
<polygon fill="midnightblue" stroke="midnightblue" points="190.4,-154.42 200.76,-152.19 191.27,-147.48 190.4,-154.42"/>
</g>
<!-- Node5 -->
<g id="node5" class="node">
<title>Node5</title>
<g id="a_node5"><a xlink:href="$classcom_1_1example_1_1renderer_1_1factory_1_1Triangle.html#af9319090f2c5c5fd18826cae05b094a4" xlink:title=" ">
<polygon fill="white" stroke="black" points="201,-98.5 201,-128.5 367,-128.5 367,-98.5 201,-98.5"/>
<text text-anchor="start" x="209" y="-116.5" font-family="Helvetica,sans-Serif" font-size="10.00">com.example.renderer.factory.</text>
<text text-anchor="middle" x="284" y="-105.5" font-family="Helvetica,sans-Serif" font-size="10.00">Triangle.getY1</text>
</a>
</g>
</g>
<!-- Node1&#45;&gt;Node5 -->
<g id="edge4" class="edge">
<title>Node1&#45;&gt;Node5</title>
<path fill="none" stroke="midnightblue" d="M165.22,-127.67C173.65,-126.65 182.26,-125.62 190.79,-124.59"/>
<polygon fill="midnightblue" stroke="midnightblue" points="191.25,-128.06 200.76,-123.39 190.41,-121.11 191.25,-128.06"/>
</g>
<!-- Node6 -->
<g id="node6" class="node">
<title>Node6</title>
<g id="a_node6"><a xlink:href="$classcom_1_1example_1_1renderer_1_1factory_1_1Triangle.html#a1ab1af5be6782c56d16de7cf9cecf0dc" xlink:title=" ">
<polygon fill="white" stroke="black" points="201,-49.5 201,-79.5 367,-79.5 367,-49.5 201,-49.5"/>
<text text-anchor="start" x="209" y="-67.5" font-family="Helvetica,sans-Serif" font-size="10.00">com.example.renderer.factory.</text>
<text text-anchor="middle" x="284" y="-56.5" font-family="Helvetica,sans-Serif" font-size="10.00">Triangle.getY2</text>
</a>
</g>
</g>
<!-- Node1&#45;&gt;Node6 -->
<g id="edge5" class="edge">
<title>Node1&#45;&gt;Node6</title>
<path fill="none" stroke="midnightblue" d="M117.88,-122.48C141.14,-112.56 172.66,-99.58 201,-89.5 207.5,-87.19 214.34,-84.89 221.17,-82.68"/>
<polygon fill="midnightblue" stroke="midnightblue" points="222.67,-85.88 231.15,-79.52 220.56,-79.21 222.67,-85.88"/>
</g>
<!-- Node7 -->
<g id="node7" class="node">
<title>Node7</title>
<g id="a_node7"><a xlink:href="$classcom_1_1example_1_1renderer_1_1factory_1_1Triangle.html#ab8693d7dff18ad8d058df6543f6dd366" xlink:title=" ">
<polygon fill="white" stroke="black" points="201,-0.5 201,-30.5 367,-30.5 367,-0.5 201,-0.5"/>
<text text-anchor="start" x="209" y="-18.5" font-family="Helvetica,sans-Serif" font-size="10.00">com.example.renderer.factory.</text>
<text text-anchor="middle" x="284" y="-7.5" font-family="Helvetica,sans-Serif" font-size="10.00">Triangle.getY3</text>
</a>
</g>
</g>
<!-- Node1&#45;&gt;Node7 -->
<g id="edge6" class="edge">
<title>Node1&#45;&gt;Node7</title>
<path fill="none" stroke="midnightblue" d="M98.03,-122.18C118.92,-100.98 159.52,-62.78 201,-40.5 205.2,-38.24 209.64,-36.16 214.19,-34.24"/>
<polygon fill="midnightblue" stroke="midnightblue" points="215.6,-37.44 223.63,-30.53 213.04,-30.93 215.6,-37.44"/>
</g>
</g>
</svg>
