<?xml version="1.0" encoding="UTF-8" standalone="no"?>
<!DOCTYPE svg PUBLIC "-//W3C//DTD SVG 1.1//EN"
 "http://www.w3.org/Graphics/SVG/1.1/DTD/svg11.dtd">
<!-- Generated by graphviz version 2.43.0 (0)
 -->
<!-- Title: com.example.renderer.legacy.LegacyRenderer.drawLegacyCircle Pages: 1 -->
<svg width="425pt" height="100pt"
 viewBox="0.00 0.00 425.00 99.50" xmlns="http://www.w3.org/2000/svg" xmlns:xlink="http://www.w3.org/1999/xlink">
<g id="graph0" class="graph" transform="scale(1 1) rotate(0) translate(4 95.5)">
<title>com.example.renderer.legacy.LegacyRenderer.drawLegacyCircle</title>
<polygon fill="white" stroke="transparent" points="-4,4 -4,-95.5 421,-95.5 421,4 -4,4"/>
<!-- Node1 -->
<g id="node1" class="node">
<title>Node1</title>
<g id="a_node1"><a xlink:title=" ">
<polygon fill="#bfbfbf" stroke="black" points="233,-33 233,-63 417,-63 417,-33 233,-33"/>
<text text-anchor="start" x="241" y="-51" font-family="Helvetica,sans-Serif" font-size="10.00">com.example.renderer.legacy.</text>
<text text-anchor="middle" x="325" y="-40" font-family="Helvetica,sans-Serif" font-size="10.00">LegacyRenderer.drawLegacyCircle</text>
</a>
</g>
</g>
<!-- Node2 -->
<g id="node2" class="node">
<title>Node2</title>
<g id="a_node2"><a xlink:href="$classcom_1_1example_1_1renderer_1_1adapter_1_1LegacyRendererAdapter.html#a66bbddb14487b0ab0827075a9d915350" xlink:title="绘制圆形，转发调用到LegacyRenderer的drawLegacyCircle()方法。">
<polygon fill="white" stroke="black" points="4.5,-61 4.5,-91 192.5,-91 192.5,-61 4.5,-61"/>
<text text-anchor="start" x="12.5" y="-79" font-family="Helvetica,sans-Serif" font-size="10.00">com.example.renderer.adapter.</text>
<text text-anchor="middle" x="98.5" y="-68" font-family="Helvetica,sans-Serif" font-size="10.00">LegacyRendererAdapter.drawCircle</text>
</a>
</g>
</g>
<!-- Node1&#45;&gt;Node2 -->
<g id="edge1" class="edge">
<title>Node1&#45;&gt;Node2</title>
<path fill="none" stroke="midnightblue" d="M222.7,-60.63C212.66,-61.89 202.5,-63.15 192.55,-64.39"/>
<polygon fill="midnightblue" stroke="midnightblue" points="223.2,-64.1 232.69,-59.39 222.33,-57.15 223.2,-64.1"/>
</g>
<!-- Node3 -->
<g id="node3" class="node">
<title>Node3</title>
<g id="a_node3"><a xlink:href="$classcom_1_1example_1_1renderer_1_1adapter_1_1LegacyRendererTest.html#aa2bad648ed299badc504b059e821ca55" xlink:title=" ">
<polygon fill="white" stroke="black" points="0,-0.5 0,-41.5 197,-41.5 197,-0.5 0,-0.5"/>
<text text-anchor="start" x="8" y="-29.5" font-family="Helvetica,sans-Serif" font-size="10.00">com.example.renderer.adapter.</text>
<text text-anchor="start" x="8" y="-18.5" font-family="Helvetica,sans-Serif" font-size="10.00">LegacyRendererTest.testDrawLegacy</text>
<text text-anchor="middle" x="98.5" y="-7.5" font-family="Helvetica,sans-Serif" font-size="10.00">Circle</text>
</a>
</g>
</g>
<!-- Node1&#45;&gt;Node3 -->
<g id="edge2" class="edge">
<title>Node1&#45;&gt;Node3</title>
<path fill="none" stroke="midnightblue" d="M222.52,-35.79C214.13,-34.79 205.67,-33.77 197.32,-32.76"/>
<polygon fill="midnightblue" stroke="midnightblue" points="222.34,-39.3 232.69,-37.02 223.18,-32.35 222.34,-39.3"/>
</g>
</g>
</svg>
