<?xml version="1.0" encoding="UTF-8" standalone="no"?>
<!DOCTYPE svg PUBLIC "-//W3C//DTD SVG 1.1//EN"
 "http://www.w3.org/Graphics/SVG/1.1/DTD/svg11.dtd">
<!-- Generated by graphviz version 2.43.0 (0)
 -->
<!-- Title: com.example.renderer.bridge.SwingRenderer.drawTriangle Pages: 1 -->
<svg width="403pt" height="110pt"
 viewBox="0.00 0.00 403.00 110.00" xmlns="http://www.w3.org/2000/svg" xmlns:xlink="http://www.w3.org/1999/xlink">
<g id="graph0" class="graph" transform="scale(1 1) rotate(0) translate(4 106)">
<title>com.example.renderer.bridge.SwingRenderer.drawTriangle</title>
<polygon fill="white" stroke="transparent" points="-4,4 -4,-106 399,-106 399,4 -4,4"/>
<!-- Node1 -->
<g id="node1" class="node">
<title>Node1</title>
<g id="a_node1"><a xlink:title="绘制三角形。">
<polygon fill="#bfbfbf" stroke="black" points="231,-36 231,-66 395,-66 395,-36 231,-36"/>
<text text-anchor="start" x="239" y="-54" font-family="Helvetica,sans-Serif" font-size="10.00">com.example.renderer.bridge.</text>
<text text-anchor="middle" x="313" y="-43" font-family="Helvetica,sans-Serif" font-size="10.00">SwingRenderer.drawTriangle</text>
</a>
</g>
</g>
<!-- Node2 -->
<g id="node2" class="node">
<title>Node2</title>
<g id="a_node2"><a xlink:href="$classcom_1_1example_1_1renderer_1_1bridge_1_1SwingRendererTest.html#a5604b18a946c4d0b74bfe46a5efda6e0" xlink:title=" ">
<polygon fill="white" stroke="black" points="0,-60.5 0,-101.5 195,-101.5 195,-60.5 0,-60.5"/>
<text text-anchor="start" x="8" y="-89.5" font-family="Helvetica,sans-Serif" font-size="10.00">com.example.renderer.bridge.</text>
<text text-anchor="start" x="8" y="-78.5" font-family="Helvetica,sans-Serif" font-size="10.00">SwingRendererTest.testDrawTriangle</text>
<text text-anchor="middle" x="97.5" y="-67.5" font-family="Helvetica,sans-Serif" font-size="10.00">_DegenerateTriangle</text>
</a>
</g>
</g>
<!-- Node1&#45;&gt;Node2 -->
<g id="edge1" class="edge">
<title>Node1&#45;&gt;Node2</title>
<path fill="none" stroke="midnightblue" d="M221.04,-63.78C212.5,-64.98 203.83,-66.2 195.24,-67.41"/>
<polygon fill="midnightblue" stroke="midnightblue" points="221.56,-67.24 230.98,-62.38 220.59,-60.31 221.56,-67.24"/>
</g>
<!-- Node3 -->
<g id="node3" class="node">
<title>Node3</title>
<g id="a_node3"><a xlink:href="$classcom_1_1example_1_1renderer_1_1bridge_1_1SwingRendererTest.html#ab8e1940a7857e847eee4de2769d034f7" xlink:title=" ">
<polygon fill="white" stroke="black" points="0,-0.5 0,-41.5 195,-41.5 195,-0.5 0,-0.5"/>
<text text-anchor="start" x="8" y="-29.5" font-family="Helvetica,sans-Serif" font-size="10.00">com.example.renderer.bridge.</text>
<text text-anchor="start" x="8" y="-18.5" font-family="Helvetica,sans-Serif" font-size="10.00">SwingRendererTest.testDrawTriangle</text>
<text text-anchor="middle" x="97.5" y="-7.5" font-family="Helvetica,sans-Serif" font-size="10.00">_DelegatesToGraphicsDrawPolygon</text>
</a>
</g>
</g>
<!-- Node1&#45;&gt;Node3 -->
<g id="edge2" class="edge">
<title>Node1&#45;&gt;Node3</title>
<path fill="none" stroke="midnightblue" d="M221.04,-38.22C212.5,-37.02 203.83,-35.8 195.24,-34.59"/>
<polygon fill="midnightblue" stroke="midnightblue" points="220.59,-41.69 230.98,-39.62 221.56,-34.76 220.59,-41.69"/>
</g>
</g>
</svg>
