<?xml version="1.0" encoding="UTF-8" standalone="no"?>
<!DOCTYPE svg PUBLIC "-//W3C//DTD SVG 1.1//EN"
 "http://www.w3.org/Graphics/SVG/1.1/DTD/svg11.dtd">
<!-- Generated by graphviz version 2.43.0 (0)
 -->
<!-- Title: com.example.renderer.factory.Circle.getRadius Pages: 1 -->
<svg width="387pt" height="88pt"
 viewBox="0.00 0.00 387.00 88.00" xmlns="http://www.w3.org/2000/svg" xmlns:xlink="http://www.w3.org/1999/xlink">
<g id="graph0" class="graph" transform="scale(1 1) rotate(0) translate(4 84)">
<title>com.example.renderer.factory.Circle.getRadius</title>
<polygon fill="white" stroke="transparent" points="-4,4 -4,-84 383,-84 383,4 -4,4"/>
<!-- Node1 -->
<g id="node1" class="node">
<title>Node1</title>
<g id="a_node1"><a xlink:title="获取圆形半径">
<polygon fill="#bfbfbf" stroke="black" points="213,-24.5 213,-54.5 379,-54.5 379,-24.5 213,-24.5"/>
<text text-anchor="start" x="221" y="-42.5" font-family="Helvetica,sans-Serif" font-size="10.00">com.example.renderer.factory.</text>
<text text-anchor="middle" x="296" y="-31.5" font-family="Helvetica,sans-Serif" font-size="10.00">Circle.getRadius</text>
</a>
</g>
</g>
<!-- Node2 -->
<g id="node2" class="node">
<title>Node2</title>
<g id="a_node2"><a xlink:href="$classcom_1_1example_1_1renderer_1_1factory_1_1CircleTest.html#a687994a2d01e358d230c8d27d98e7b64" xlink:title=" ">
<polygon fill="white" stroke="black" points="0,-49.5 0,-79.5 177,-79.5 177,-49.5 0,-49.5"/>
<text text-anchor="start" x="8" y="-67.5" font-family="Helvetica,sans-Serif" font-size="10.00">com.example.renderer.factory.</text>
<text text-anchor="middle" x="88.5" y="-56.5" font-family="Helvetica,sans-Serif" font-size="10.00">CircleTest.testCreate_MaxRadius</text>
</a>
</g>
</g>
<!-- Node1&#45;&gt;Node2 -->
<g id="edge1" class="edge">
<title>Node1&#45;&gt;Node2</title>
<path fill="none" stroke="midnightblue" d="M202.92,-50.7C194.36,-51.74 185.71,-52.8 177.2,-53.83"/>
<polygon fill="midnightblue" stroke="midnightblue" points="203.39,-54.17 212.9,-49.49 202.55,-47.22 203.39,-54.17"/>
</g>
<!-- Node3 -->
<g id="node3" class="node">
<title>Node3</title>
<g id="a_node3"><a xlink:href="$classcom_1_1example_1_1renderer_1_1factory_1_1CircleTest.html#a8614dfdea02a4a977ae63465bcb4a7b9" xlink:title=" ">
<polygon fill="white" stroke="black" points="1.5,-0.5 1.5,-30.5 175.5,-30.5 175.5,-0.5 1.5,-0.5"/>
<text text-anchor="start" x="9.5" y="-18.5" font-family="Helvetica,sans-Serif" font-size="10.00">com.example.renderer.factory.</text>
<text text-anchor="middle" x="88.5" y="-7.5" font-family="Helvetica,sans-Serif" font-size="10.00">CircleTest.testCreate_MinRadius</text>
</a>
</g>
</g>
<!-- Node1&#45;&gt;Node3 -->
<g id="edge2" class="edge">
<title>Node1&#45;&gt;Node3</title>
<path fill="none" stroke="midnightblue" d="M202.73,-28.72C193.67,-27.67 184.5,-26.6 175.51,-25.55"/>
<polygon fill="midnightblue" stroke="midnightblue" points="202.56,-32.23 212.9,-29.91 203.37,-25.27 202.56,-32.23"/>
</g>
</g>
</svg>
