<?xml version="1.0" encoding="UTF-8" standalone="no"?>
<!DOCTYPE svg PUBLIC "-//W3C//DTD SVG 1.1//EN"
 "http://www.w3.org/Graphics/SVG/1.1/DTD/svg11.dtd">
<!-- Generated by graphviz version 2.43.0 (0)
 -->
<!-- Title: com.example.renderer.singleton.PersistenceManager.loadShapesFromFile Pages: 1 -->
<svg width="475pt" height="230pt"
 viewBox="0.00 0.00 475.00 230.00" xmlns="http://www.w3.org/2000/svg" xmlns:xlink="http://www.w3.org/1999/xlink">
<g id="graph0" class="graph" transform="scale(1 1) rotate(0) translate(4 226)">
<title>com.example.renderer.singleton.PersistenceManager.loadShapesFromFile</title>
<polygon fill="white" stroke="transparent" points="-4,4 -4,-226 471,-226 471,4 -4,4"/>
<!-- Node1 -->
<g id="node1" class="node">
<title>Node1</title>
<g id="a_node1"><a xlink:title="从JSON文件加载图形列表">
<polygon fill="#bfbfbf" stroke="black" points="251,-96 251,-126 467,-126 467,-96 251,-96"/>
<text text-anchor="start" x="259" y="-114" font-family="Helvetica,sans-Serif" font-size="10.00">com.example.renderer.singleton.</text>
<text text-anchor="middle" x="359" y="-103" font-family="Helvetica,sans-Serif" font-size="10.00">PersistenceManager.loadShapesFromFile</text>
</a>
</g>
</g>
<!-- Node2 -->
<g id="node2" class="node">
<title>Node2</title>
<g id="a_node2"><a xlink:href="$classcom_1_1example_1_1renderer_1_1singleton_1_1PersistenceManagerTest.html#a72c90e87e5dfcad7677d041ae69bec0a" xlink:title="testLoadShapes_CorruptedFile &#45; 验证加载损坏 JSON 文件时抛出 JsonParseException">
<polygon fill="white" stroke="black" points="0,-180.5 0,-221.5 215,-221.5 215,-180.5 0,-180.5"/>
<text text-anchor="start" x="8" y="-209.5" font-family="Helvetica,sans-Serif" font-size="10.00">com.example.renderer.singleton.</text>
<text text-anchor="start" x="8" y="-198.5" font-family="Helvetica,sans-Serif" font-size="10.00">PersistenceManagerTest.testLoadShapes</text>
<text text-anchor="middle" x="107.5" y="-187.5" font-family="Helvetica,sans-Serif" font-size="10.00">_CorruptedFile</text>
</a>
</g>
</g>
<!-- Node1&#45;&gt;Node2 -->
<g id="edge1" class="edge">
<title>Node1&#45;&gt;Node2</title>
<path fill="none" stroke="midnightblue" d="M316.05,-130.2C287.83,-142.72 249.6,-158.92 215,-171 205.57,-174.29 195.58,-177.49 185.64,-180.48"/>
<polygon fill="midnightblue" stroke="midnightblue" points="317.52,-133.38 325.22,-126.11 314.66,-126.99 317.52,-133.38"/>
</g>
<!-- Node3 -->
<g id="node3" class="node">
<title>Node3</title>
<g id="a_node3"><a xlink:href="$classcom_1_1example_1_1renderer_1_1singleton_1_1PersistenceManagerTest.html#a6897f4e5a3b9bd19f1b50caba2374c47" xlink:title="testLoadShapes_InvalidPath &#45; 验证无效路径加载图形时抛出 IOException">
<polygon fill="white" stroke="black" points="0,-120.5 0,-161.5 215,-161.5 215,-120.5 0,-120.5"/>
<text text-anchor="start" x="8" y="-149.5" font-family="Helvetica,sans-Serif" font-size="10.00">com.example.renderer.singleton.</text>
<text text-anchor="start" x="8" y="-138.5" font-family="Helvetica,sans-Serif" font-size="10.00">PersistenceManagerTest.testLoadShapes</text>
<text text-anchor="middle" x="107.5" y="-127.5" font-family="Helvetica,sans-Serif" font-size="10.00">_InvalidPath</text>
</a>
</g>
</g>
<!-- Node1&#45;&gt;Node3 -->
<g id="edge2" class="edge">
<title>Node1&#45;&gt;Node3</title>
<path fill="none" stroke="midnightblue" d="M240.78,-125.09C232.27,-126.12 223.72,-127.15 215.27,-128.16"/>
<polygon fill="midnightblue" stroke="midnightblue" points="241.23,-128.57 250.74,-123.9 240.4,-121.62 241.23,-128.57"/>
</g>
<!-- Node4 -->
<g id="node4" class="node">
<title>Node4</title>
<g id="a_node4"><a xlink:href="$classcom_1_1example_1_1renderer_1_1singleton_1_1PersistenceManagerTest.html#abc0595b193e5c952a3149c6cf04aea59" xlink:title="testSaveAndLoad_MixedShapes &#45; 验证混合图形保存并正确加载">
<polygon fill="white" stroke="black" points="7.5,-60.5 7.5,-101.5 207.5,-101.5 207.5,-60.5 7.5,-60.5"/>
<text text-anchor="start" x="15.5" y="-89.5" font-family="Helvetica,sans-Serif" font-size="10.00">com.example.renderer.singleton.</text>
<text text-anchor="start" x="15.5" y="-78.5" font-family="Helvetica,sans-Serif" font-size="10.00">PersistenceManagerTest.testSaveAnd</text>
<text text-anchor="middle" x="107.5" y="-67.5" font-family="Helvetica,sans-Serif" font-size="10.00">Load_MixedShapes</text>
</a>
</g>
</g>
<!-- Node1&#45;&gt;Node4 -->
<g id="edge3" class="edge">
<title>Node1&#45;&gt;Node4</title>
<path fill="none" stroke="midnightblue" d="M240.67,-96.89C229.67,-95.57 218.59,-94.24 207.78,-92.94"/>
<polygon fill="midnightblue" stroke="midnightblue" points="240.4,-100.38 250.74,-98.1 241.23,-93.43 240.4,-100.38"/>
</g>
<!-- Node5 -->
<g id="node5" class="node">
<title>Node5</title>
<g id="a_node5"><a xlink:href="$classcom_1_1example_1_1renderer_1_1singleton_1_1PersistenceManagerTest.html#af7dbae650324dd84eb8b363f812d5bbc" xlink:title="testSaveAndLoadShapes &#45; 验证保存和加载图形数据是否成功">
<polygon fill="white" stroke="black" points="7.5,-0.5 7.5,-41.5 207.5,-41.5 207.5,-0.5 7.5,-0.5"/>
<text text-anchor="start" x="15.5" y="-29.5" font-family="Helvetica,sans-Serif" font-size="10.00">com.example.renderer.singleton.</text>
<text text-anchor="start" x="15.5" y="-18.5" font-family="Helvetica,sans-Serif" font-size="10.00">PersistenceManagerTest.testSaveAnd</text>
<text text-anchor="middle" x="107.5" y="-7.5" font-family="Helvetica,sans-Serif" font-size="10.00">LoadShapes</text>
</a>
</g>
</g>
<!-- Node1&#45;&gt;Node5 -->
<g id="edge4" class="edge">
<title>Node1&#45;&gt;Node5</title>
<path fill="none" stroke="midnightblue" d="M316.05,-91.8C287.83,-79.28 249.6,-63.08 215,-51 205.57,-47.71 195.58,-44.51 185.64,-41.52"/>
<polygon fill="midnightblue" stroke="midnightblue" points="314.66,-95.01 325.22,-95.89 317.52,-88.62 314.66,-95.01"/>
</g>
</g>
</svg>
