<?xml version="1.0" encoding="UTF-8" standalone="no"?>
<!DOCTYPE svg PUBLIC "-//W3C//DTD SVG 1.1//EN"
 "http://www.w3.org/Graphics/SVG/1.1/DTD/svg11.dtd">
<!-- Generated by graphviz version 2.43.0 (0)
 -->
<!-- Title: com.example.renderer.factory.CircleTest.testMove_ExtremeNegativeValues Pages: 1 -->
<svg width="413pt" height="137pt"
 viewBox="0.00 0.00 413.00 137.00" xmlns="http://www.w3.org/2000/svg" xmlns:xlink="http://www.w3.org/1999/xlink">
<g id="graph0" class="graph" transform="scale(1 1) rotate(0) translate(4 133)">
<title>com.example.renderer.factory.CircleTest.testMove_ExtremeNegativeValues</title>
<polygon fill="white" stroke="transparent" points="-4,4 -4,-133 409,-133 409,4 -4,4"/>
<!-- Node1 -->
<g id="node1" class="node">
<title>Node1</title>
<g id="a_node1"><a xlink:title=" ">
<polygon fill="#bfbfbf" stroke="black" points="0,-44 0,-85 203,-85 203,-44 0,-44"/>
<text text-anchor="start" x="8" y="-73" font-family="Helvetica,sans-Serif" font-size="10.00">com.example.renderer.factory.</text>
<text text-anchor="start" x="8" y="-62" font-family="Helvetica,sans-Serif" font-size="10.00">CircleTest.testMove_ExtremeNegative</text>
<text text-anchor="middle" x="101.5" y="-51" font-family="Helvetica,sans-Serif" font-size="10.00">Values</text>
</a>
</g>
</g>
<!-- Node2 -->
<g id="node2" class="node">
<title>Node2</title>
<g id="a_node2"><a xlink:href="$classcom_1_1example_1_1renderer_1_1factory_1_1Circle.html#a5d9565191f8b24714037adaafb0145f2" xlink:title="获取圆心x坐标">
<polygon fill="white" stroke="black" points="239,-98.5 239,-128.5 405,-128.5 405,-98.5 239,-98.5"/>
<text text-anchor="start" x="247" y="-116.5" font-family="Helvetica,sans-Serif" font-size="10.00">com.example.renderer.factory.</text>
<text text-anchor="middle" x="322" y="-105.5" font-family="Helvetica,sans-Serif" font-size="10.00">Circle.getX</text>
</a>
</g>
</g>
<!-- Node1&#45;&gt;Node2 -->
<g id="edge1" class="edge">
<title>Node1&#45;&gt;Node2</title>
<path fill="none" stroke="midnightblue" d="M194.21,-85.07C210.85,-88.8 228.04,-92.65 244.19,-96.28"/>
<polygon fill="midnightblue" stroke="midnightblue" points="243.58,-99.72 254.1,-98.5 245.11,-92.89 243.58,-99.72"/>
</g>
<!-- Node3 -->
<g id="node3" class="node">
<title>Node3</title>
<g id="a_node3"><a xlink:href="$classcom_1_1example_1_1renderer_1_1factory_1_1Circle.html#adbf586a9c1761dce695dce96c7539a18" xlink:title="获取圆心y坐标">
<polygon fill="white" stroke="black" points="239,-49.5 239,-79.5 405,-79.5 405,-49.5 239,-49.5"/>
<text text-anchor="start" x="247" y="-67.5" font-family="Helvetica,sans-Serif" font-size="10.00">com.example.renderer.factory.</text>
<text text-anchor="middle" x="322" y="-56.5" font-family="Helvetica,sans-Serif" font-size="10.00">Circle.getY</text>
</a>
</g>
</g>
<!-- Node1&#45;&gt;Node3 -->
<g id="edge2" class="edge">
<title>Node1&#45;&gt;Node3</title>
<path fill="none" stroke="midnightblue" d="M203.12,-64.5C211.64,-64.5 220.23,-64.5 228.68,-64.5"/>
<polygon fill="midnightblue" stroke="midnightblue" points="228.91,-68 238.91,-64.5 228.91,-61 228.91,-68"/>
</g>
<!-- Node4 -->
<g id="node4" class="node">
<title>Node4</title>
<g id="a_node4"><a xlink:href="$classcom_1_1example_1_1renderer_1_1factory_1_1Circle.html#a7dc56b196866cc4d444f59585902442c" xlink:title="移动图形的位置。 根据给定的偏移量调整图形的坐标位置，正数表示向右/下移动，负数表示向左/上移动。">
<polygon fill="white" stroke="black" points="239,-0.5 239,-30.5 405,-30.5 405,-0.5 239,-0.5"/>
<text text-anchor="start" x="247" y="-18.5" font-family="Helvetica,sans-Serif" font-size="10.00">com.example.renderer.factory.</text>
<text text-anchor="middle" x="322" y="-7.5" font-family="Helvetica,sans-Serif" font-size="10.00">Circle.move</text>
</a>
</g>
</g>
<!-- Node1&#45;&gt;Node4 -->
<g id="edge3" class="edge">
<title>Node1&#45;&gt;Node4</title>
<path fill="none" stroke="midnightblue" d="M194.21,-43.93C210.85,-40.2 228.04,-36.35 244.19,-32.72"/>
<polygon fill="midnightblue" stroke="midnightblue" points="245.11,-36.11 254.1,-30.5 243.58,-29.28 245.11,-36.11"/>
</g>
</g>
</svg>
