<?xml version="1.0" encoding="UTF-8" standalone="no"?>
<!DOCTYPE svg PUBLIC "-//W3C//DTD SVG 1.1//EN"
 "http://www.w3.org/Graphics/SVG/1.1/DTD/svg11.dtd">
<!-- Generated by graphviz version 2.43.0 (0)
 -->
<!-- Title: com.example.renderer.factory.Circle.move Pages: 1 -->
<svg width="431pt" height="296pt"
 viewBox="0.00 0.00 431.00 296.00" xmlns="http://www.w3.org/2000/svg" xmlns:xlink="http://www.w3.org/1999/xlink">
<g id="graph0" class="graph" transform="scale(1 1) rotate(0) translate(4 292)">
<title>com.example.renderer.factory.Circle.move</title>
<polygon fill="white" stroke="transparent" points="-4,4 -4,-292 427,-292 427,4 -4,4"/>
<!-- Node1 -->
<g id="node1" class="node">
<title>Node1</title>
<g id="a_node1"><a xlink:title="移动图形的位置。 根据给定的偏移量调整图形的坐标位置，正数表示向右/下移动，负数表示向左/上移动。">
<polygon fill="#bfbfbf" stroke="black" points="257,-125.5 257,-155.5 423,-155.5 423,-125.5 257,-125.5"/>
<text text-anchor="start" x="265" y="-143.5" font-family="Helvetica,sans-Serif" font-size="10.00">com.example.renderer.factory.</text>
<text text-anchor="middle" x="340" y="-132.5" font-family="Helvetica,sans-Serif" font-size="10.00">Circle.move</text>
</a>
</g>
</g>
<!-- Node2 -->
<g id="node2" class="node">
<title>Node2</title>
<g id="a_node2"><a xlink:href="$classcom_1_1example_1_1renderer_1_1factory_1_1CircleTest.html#a33e9d0a2722a7d196cf6feac61632e80" xlink:title=" ">
<polygon fill="white" stroke="black" points="27.5,-257.5 27.5,-287.5 193.5,-287.5 193.5,-257.5 27.5,-257.5"/>
<text text-anchor="start" x="35.5" y="-275.5" font-family="Helvetica,sans-Serif" font-size="10.00">com.example.renderer.factory.</text>
<text text-anchor="middle" x="110.5" y="-264.5" font-family="Helvetica,sans-Serif" font-size="10.00">CircleTest.testMove</text>
</a>
</g>
</g>
<!-- Node1&#45;&gt;Node2 -->
<g id="edge1" class="edge">
<title>Node1&#45;&gt;Node2</title>
<path fill="none" stroke="midnightblue" d="M320.41,-163.6C299.08,-188.49 261.75,-227.36 221,-248.5 212.45,-252.94 203.11,-256.55 193.61,-259.5"/>
<polygon fill="midnightblue" stroke="midnightblue" points="323.26,-165.65 327.01,-155.74 317.9,-161.15 323.26,-165.65"/>
</g>
<!-- Node3 -->
<g id="node3" class="node">
<title>Node3</title>
<g id="a_node3"><a xlink:href="$classcom_1_1example_1_1renderer_1_1factory_1_1CircleTest.html#ade22ece673331e93849d36d133743727" xlink:title=" ">
<polygon fill="white" stroke="black" points="27,-208.5 27,-238.5 194,-238.5 194,-208.5 27,-208.5"/>
<text text-anchor="start" x="35" y="-226.5" font-family="Helvetica,sans-Serif" font-size="10.00">com.example.renderer.factory.</text>
<text text-anchor="middle" x="110.5" y="-215.5" font-family="Helvetica,sans-Serif" font-size="10.00">CircleTest.testMove_CrossZero</text>
</a>
</g>
</g>
<!-- Node1&#45;&gt;Node3 -->
<g id="edge2" class="edge">
<title>Node1&#45;&gt;Node3</title>
<path fill="none" stroke="midnightblue" d="M303.58,-160.61C280.62,-172.96 249.74,-188.31 221,-198.5 210.43,-202.25 199.09,-205.57 187.85,-208.47"/>
<polygon fill="midnightblue" stroke="midnightblue" points="305.49,-163.56 312.59,-155.7 302.14,-157.41 305.49,-163.56"/>
</g>
<!-- Node4 -->
<g id="node4" class="node">
<title>Node4</title>
<g id="a_node4"><a xlink:href="$classcom_1_1example_1_1renderer_1_1factory_1_1CircleTest.html#ad82df402953ff77e4ed51097fd5074b9" xlink:title=" ">
<polygon fill="white" stroke="black" points="9,-148 9,-189 212,-189 212,-148 9,-148"/>
<text text-anchor="start" x="17" y="-177" font-family="Helvetica,sans-Serif" font-size="10.00">com.example.renderer.factory.</text>
<text text-anchor="start" x="17" y="-166" font-family="Helvetica,sans-Serif" font-size="10.00">CircleTest.testMove_ExtremeNegative</text>
<text text-anchor="middle" x="110.5" y="-155" font-family="Helvetica,sans-Serif" font-size="10.00">Values</text>
</a>
</g>
</g>
<!-- Node1&#45;&gt;Node4 -->
<g id="edge3" class="edge">
<title>Node1&#45;&gt;Node4</title>
<path fill="none" stroke="midnightblue" d="M246.9,-151.84C235.46,-153.24 223.72,-154.69 212.15,-156.11"/>
<polygon fill="midnightblue" stroke="midnightblue" points="247.37,-155.3 256.87,-150.61 246.51,-148.36 247.37,-155.3"/>
</g>
<!-- Node5 -->
<g id="node5" class="node">
<title>Node5</title>
<g id="a_node5"><a xlink:href="$classcom_1_1example_1_1renderer_1_1factory_1_1CircleTest.html#ab773e8783a9ae4b6f52a8c629b8d0867" xlink:title=" ">
<polygon fill="white" stroke="black" points="14.5,-98.5 14.5,-128.5 206.5,-128.5 206.5,-98.5 14.5,-98.5"/>
<text text-anchor="start" x="22.5" y="-116.5" font-family="Helvetica,sans-Serif" font-size="10.00">com.example.renderer.factory.</text>
<text text-anchor="middle" x="110.5" y="-105.5" font-family="Helvetica,sans-Serif" font-size="10.00">CircleTest.testMove_FromMinToMax</text>
</a>
</g>
</g>
<!-- Node1&#45;&gt;Node5 -->
<g id="edge4" class="edge">
<title>Node1&#45;&gt;Node5</title>
<path fill="none" stroke="midnightblue" d="M246.84,-129.56C233.6,-127.99 219.96,-126.37 206.66,-124.79"/>
<polygon fill="midnightblue" stroke="midnightblue" points="246.52,-133.05 256.87,-130.75 247.35,-126.1 246.52,-133.05"/>
</g>
<!-- Node6 -->
<g id="node6" class="node">
<title>Node6</title>
<g id="a_node6"><a xlink:href="$classcom_1_1example_1_1renderer_1_1factory_1_1CircleTest.html#aa7239f1882032d49d9516ce34d9c81ad" xlink:title=" ">
<polygon fill="white" stroke="black" points="23,-49.5 23,-79.5 198,-79.5 198,-49.5 23,-49.5"/>
<text text-anchor="start" x="31" y="-67.5" font-family="Helvetica,sans-Serif" font-size="10.00">com.example.renderer.factory.</text>
<text text-anchor="middle" x="110.5" y="-56.5" font-family="Helvetica,sans-Serif" font-size="10.00">CircleTest.testMove_ToBoundary</text>
</a>
</g>
</g>
<!-- Node1&#45;&gt;Node6 -->
<g id="edge5" class="edge">
<title>Node1&#45;&gt;Node6</title>
<path fill="none" stroke="midnightblue" d="M299.29,-121.17C276.73,-110.74 247.73,-98.24 221,-89.5 209.79,-85.83 197.76,-82.5 185.93,-79.55"/>
<polygon fill="midnightblue" stroke="midnightblue" points="298,-124.43 308.54,-125.49 300.97,-118.09 298,-124.43"/>
</g>
<!-- Node7 -->
<g id="node7" class="node">
<title>Node7</title>
<g id="a_node7"><a xlink:href="$classcom_1_1example_1_1renderer_1_1factory_1_1CircleTest.html#a6e27a2ee2e9a4ab7acfe2ff2e25b275a" xlink:title=" ">
<polygon fill="white" stroke="black" points="0,-0.5 0,-30.5 221,-30.5 221,-0.5 0,-0.5"/>
<text text-anchor="start" x="8" y="-18.5" font-family="Helvetica,sans-Serif" font-size="10.00">com.example.renderer.factory.</text>
<text text-anchor="middle" x="110.5" y="-7.5" font-family="Helvetica,sans-Serif" font-size="10.00">CircleTest.testRender_AfterMultipleMoves</text>
</a>
</g>
</g>
<!-- Node1&#45;&gt;Node7 -->
<g id="edge6" class="edge">
<title>Node1&#45;&gt;Node7</title>
<path fill="none" stroke="midnightblue" d="M318.66,-117.79C296.79,-94.8 259.89,-59.95 221,-40.5 213.24,-36.62 204.87,-33.33 196.33,-30.55"/>
<polygon fill="midnightblue" stroke="midnightblue" points="316.36,-120.46 325.74,-125.38 321.48,-115.68 316.36,-120.46"/>
</g>
</g>
</svg>
