<?xml version="1.0" encoding="UTF-8" standalone="no"?>
<!DOCTYPE svg PUBLIC "-//W3C//DTD SVG 1.1//EN"
 "http://www.w3.org/Graphics/SVG/1.1/DTD/svg11.dtd">
<!-- Generated by graphviz version 2.43.0 (0)
 -->
<!-- Title: com.example.renderer.legacy.LegacyRenderer.drawLegacyTriangle Pages: 1 -->
<svg width="436pt" height="100pt"
 viewBox="0.00 0.00 436.00 99.50" xmlns="http://www.w3.org/2000/svg" xmlns:xlink="http://www.w3.org/1999/xlink">
<g id="graph0" class="graph" transform="scale(1 1) rotate(0) translate(4 95.5)">
<title>com.example.renderer.legacy.LegacyRenderer.drawLegacyTriangle</title>
<polygon fill="white" stroke="transparent" points="-4,4 -4,-95.5 432,-95.5 432,4 -4,4"/>
<!-- Node1 -->
<g id="node1" class="node">
<title>Node1</title>
<g id="a_node1"><a xlink:title=" ">
<polygon fill="#bfbfbf" stroke="black" points="234,-33 234,-63 428,-63 428,-33 234,-33"/>
<text text-anchor="start" x="242" y="-51" font-family="Helvetica,sans-Serif" font-size="10.00">com.example.renderer.legacy.</text>
<text text-anchor="middle" x="331" y="-40" font-family="Helvetica,sans-Serif" font-size="10.00">LegacyRenderer.drawLegacyTriangle</text>
</a>
</g>
</g>
<!-- Node2 -->
<g id="node2" class="node">
<title>Node2</title>
<g id="a_node2"><a xlink:href="$classcom_1_1example_1_1renderer_1_1adapter_1_1LegacyRendererAdapter.html#ab1a537d39a4cd1b77033b1f1364a26eb" xlink:title="绘制三角形，转发调用到LegacyRenderer的drawLegacyTriangle()方法。">
<polygon fill="white" stroke="black" points="0,-61 0,-91 198,-91 198,-61 0,-61"/>
<text text-anchor="start" x="8" y="-79" font-family="Helvetica,sans-Serif" font-size="10.00">com.example.renderer.adapter.</text>
<text text-anchor="middle" x="99" y="-68" font-family="Helvetica,sans-Serif" font-size="10.00">LegacyRendererAdapter.drawTriangle</text>
</a>
</g>
</g>
<!-- Node1&#45;&gt;Node2 -->
<g id="edge1" class="edge">
<title>Node1&#45;&gt;Node2</title>
<path fill="none" stroke="midnightblue" d="M223.77,-60.93C215.19,-61.98 206.55,-63.03 198.04,-64.06"/>
<polygon fill="midnightblue" stroke="midnightblue" points="224.29,-64.4 233.79,-59.71 223.44,-57.45 224.29,-64.4"/>
</g>
<!-- Node3 -->
<g id="node3" class="node">
<title>Node3</title>
<g id="a_node3"><a xlink:href="$classcom_1_1example_1_1renderer_1_1adapter_1_1LegacyRendererTest.html#a3df479f033a6966c8c02cc7217a502a1" xlink:title=" ">
<polygon fill="white" stroke="black" points="0.5,-0.5 0.5,-41.5 197.5,-41.5 197.5,-0.5 0.5,-0.5"/>
<text text-anchor="start" x="8.5" y="-29.5" font-family="Helvetica,sans-Serif" font-size="10.00">com.example.renderer.adapter.</text>
<text text-anchor="start" x="8.5" y="-18.5" font-family="Helvetica,sans-Serif" font-size="10.00">LegacyRendererTest.testDrawLegacy</text>
<text text-anchor="middle" x="99" y="-7.5" font-family="Helvetica,sans-Serif" font-size="10.00">Triangle</text>
</a>
</g>
</g>
<!-- Node1&#45;&gt;Node3 -->
<g id="edge2" class="edge">
<title>Node1&#45;&gt;Node3</title>
<path fill="none" stroke="midnightblue" d="M223.66,-35.52C215,-34.5 206.27,-33.48 197.67,-32.47"/>
<polygon fill="midnightblue" stroke="midnightblue" points="223.45,-39.02 233.79,-36.71 224.27,-32.06 223.45,-39.02"/>
</g>
</g>
</svg>
