<?xml version="1.0" encoding="UTF-8" standalone="no"?>
<!DOCTYPE svg PUBLIC "-//W3C//DTD SVG 1.1//EN"
 "http://www.w3.org/Graphics/SVG/1.1/DTD/svg11.dtd">
<!-- Generated by graphviz version 2.43.0 (0)
 -->
<!-- Title: com.example.renderer.singleton.PersistenceManager.saveShapesToFile Pages: 1 -->
<svg width="464pt" height="350pt"
 viewBox="0.00 0.00 464.00 350.00" xmlns="http://www.w3.org/2000/svg" xmlns:xlink="http://www.w3.org/1999/xlink">
<g id="graph0" class="graph" transform="scale(1 1) rotate(0) translate(4 346)">
<title>com.example.renderer.singleton.PersistenceManager.saveShapesToFile</title>
<polygon fill="white" stroke="transparent" points="-4,4 -4,-346 460,-346 460,4 -4,4"/>
<!-- Node1 -->
<g id="node1" class="node">
<title>Node1</title>
<g id="a_node1"><a xlink:title="将图形列表序列化为JSON格式并保存到指定文件">
<polygon fill="#bfbfbf" stroke="black" points="252,-156 252,-186 456,-186 456,-156 252,-156"/>
<text text-anchor="start" x="260" y="-174" font-family="Helvetica,sans-Serif" font-size="10.00">com.example.renderer.singleton.</text>
<text text-anchor="middle" x="354" y="-163" font-family="Helvetica,sans-Serif" font-size="10.00">PersistenceManager.saveShapesToFile</text>
</a>
</g>
</g>
<!-- Node2 -->
<g id="node2" class="node">
<title>Node2</title>
<g id="a_node2"><a xlink:href="$classcom_1_1example_1_1renderer_1_1singleton_1_1PersistenceManagerTest.html#abc0595b193e5c952a3149c6cf04aea59" xlink:title="testSaveAndLoad_MixedShapes &#45; 验证混合图形保存并正确加载">
<polygon fill="white" stroke="black" points="8,-300.5 8,-341.5 208,-341.5 208,-300.5 8,-300.5"/>
<text text-anchor="start" x="16" y="-329.5" font-family="Helvetica,sans-Serif" font-size="10.00">com.example.renderer.singleton.</text>
<text text-anchor="start" x="16" y="-318.5" font-family="Helvetica,sans-Serif" font-size="10.00">PersistenceManagerTest.testSaveAnd</text>
<text text-anchor="middle" x="108" y="-307.5" font-family="Helvetica,sans-Serif" font-size="10.00">Load_MixedShapes</text>
</a>
</g>
</g>
<!-- Node1&#45;&gt;Node2 -->
<g id="edge1" class="edge">
<title>Node1&#45;&gt;Node2</title>
<path fill="none" stroke="midnightblue" d="M333.09,-193.77C308.28,-220.78 263.32,-265.37 216,-291 209.47,-294.54 202.48,-297.69 195.32,-300.49"/>
<polygon fill="midnightblue" stroke="midnightblue" points="335.72,-196.08 339.84,-186.32 330.53,-191.38 335.72,-196.08"/>
</g>
<!-- Node3 -->
<g id="node3" class="node">
<title>Node3</title>
<g id="a_node3"><a xlink:href="$classcom_1_1example_1_1renderer_1_1singleton_1_1PersistenceManagerTest.html#af7dbae650324dd84eb8b363f812d5bbc" xlink:title="testSaveAndLoadShapes &#45; 验证保存和加载图形数据是否成功">
<polygon fill="white" stroke="black" points="8,-240.5 8,-281.5 208,-281.5 208,-240.5 8,-240.5"/>
<text text-anchor="start" x="16" y="-269.5" font-family="Helvetica,sans-Serif" font-size="10.00">com.example.renderer.singleton.</text>
<text text-anchor="start" x="16" y="-258.5" font-family="Helvetica,sans-Serif" font-size="10.00">PersistenceManagerTest.testSaveAnd</text>
<text text-anchor="middle" x="108" y="-247.5" font-family="Helvetica,sans-Serif" font-size="10.00">LoadShapes</text>
</a>
</g>
</g>
<!-- Node1&#45;&gt;Node3 -->
<g id="edge2" class="edge">
<title>Node1&#45;&gt;Node3</title>
<path fill="none" stroke="midnightblue" d="M312.82,-190.37C285.83,-202.94 249.25,-219.12 216,-231 206.73,-234.31 196.91,-237.49 187.13,-240.46"/>
<polygon fill="midnightblue" stroke="midnightblue" points="314.38,-193.5 321.94,-186.09 311.4,-187.17 314.38,-193.5"/>
</g>
<!-- Node4 -->
<g id="node4" class="node">
<title>Node4</title>
<g id="a_node4"><a xlink:href="$classcom_1_1example_1_1renderer_1_1singleton_1_1PersistenceManagerTest.html#a192ab24534097554e67f360ddb0e6694" xlink:title="testSaveShapes_EmptyPath &#45; 验证空路径保存抛出 IllegalArgumentException">
<polygon fill="white" stroke="black" points="0,-180.5 0,-221.5 216,-221.5 216,-180.5 0,-180.5"/>
<text text-anchor="start" x="8" y="-209.5" font-family="Helvetica,sans-Serif" font-size="10.00">com.example.renderer.singleton.</text>
<text text-anchor="start" x="8" y="-198.5" font-family="Helvetica,sans-Serif" font-size="10.00">PersistenceManagerTest.testSaveShapes</text>
<text text-anchor="middle" x="108" y="-187.5" font-family="Helvetica,sans-Serif" font-size="10.00">_EmptyPath</text>
</a>
</g>
</g>
<!-- Node1&#45;&gt;Node4 -->
<g id="edge3" class="edge">
<title>Node1&#45;&gt;Node4</title>
<path fill="none" stroke="midnightblue" d="M241.98,-184.65C233.42,-185.7 224.78,-186.76 216.25,-187.81"/>
<polygon fill="midnightblue" stroke="midnightblue" points="242.5,-188.11 251.99,-183.42 241.64,-181.17 242.5,-188.11"/>
</g>
<!-- Node5 -->
<g id="node5" class="node">
<title>Node5</title>
<g id="a_node5"><a xlink:href="$classcom_1_1example_1_1renderer_1_1singleton_1_1PersistenceManagerTest.html#a1bcfe59fc2e0e3572741b7f56493a162" xlink:title="testSaveShapes_NullList &#45; 验证传入 null 列表时抛出 NullPointerException">
<polygon fill="white" stroke="black" points="0,-120.5 0,-161.5 216,-161.5 216,-120.5 0,-120.5"/>
<text text-anchor="start" x="8" y="-149.5" font-family="Helvetica,sans-Serif" font-size="10.00">com.example.renderer.singleton.</text>
<text text-anchor="start" x="8" y="-138.5" font-family="Helvetica,sans-Serif" font-size="10.00">PersistenceManagerTest.testSaveShapes</text>
<text text-anchor="middle" x="108" y="-127.5" font-family="Helvetica,sans-Serif" font-size="10.00">_NullList</text>
</a>
</g>
</g>
<!-- Node1&#45;&gt;Node5 -->
<g id="edge4" class="edge">
<title>Node1&#45;&gt;Node5</title>
<path fill="none" stroke="midnightblue" d="M241.98,-157.35C233.42,-156.3 224.78,-155.24 216.25,-154.19"/>
<polygon fill="midnightblue" stroke="midnightblue" points="241.64,-160.83 251.99,-158.58 242.5,-153.89 241.64,-160.83"/>
</g>
<!-- Node6 -->
<g id="node6" class="node">
<title>Node6</title>
<g id="a_node6"><a xlink:href="$classcom_1_1example_1_1renderer_1_1singleton_1_1PersistenceManagerTest.html#a3134efe15efca39d8324432633e55ac0" xlink:title="testSaveShapes_ReadOnlyFile &#45; 验证向只读文件保存时抛出 IOException">
<polygon fill="white" stroke="black" points="0,-60.5 0,-101.5 216,-101.5 216,-60.5 0,-60.5"/>
<text text-anchor="start" x="8" y="-89.5" font-family="Helvetica,sans-Serif" font-size="10.00">com.example.renderer.singleton.</text>
<text text-anchor="start" x="8" y="-78.5" font-family="Helvetica,sans-Serif" font-size="10.00">PersistenceManagerTest.testSaveShapes</text>
<text text-anchor="middle" x="108" y="-67.5" font-family="Helvetica,sans-Serif" font-size="10.00">_ReadOnlyFile</text>
</a>
</g>
</g>
<!-- Node1&#45;&gt;Node6 -->
<g id="edge5" class="edge">
<title>Node1&#45;&gt;Node6</title>
<path fill="none" stroke="midnightblue" d="M312.82,-151.63C285.83,-139.06 249.25,-122.88 216,-111 206.73,-107.69 196.91,-104.51 187.13,-101.54"/>
<polygon fill="midnightblue" stroke="midnightblue" points="311.4,-154.83 321.94,-155.91 314.38,-148.5 311.4,-154.83"/>
</g>
<!-- Node7 -->
<g id="node7" class="node">
<title>Node7</title>
<g id="a_node7"><a xlink:href="$classcom_1_1example_1_1renderer_1_1singleton_1_1PersistenceManagerTest.html#a33893539b4322b1f28ce400481ae67b4" xlink:title="testSaveShapes_WithSpecialCharacters &#45; 验证文件名含特殊字符时仍能正常保存">
<polygon fill="white" stroke="black" points="0,-0.5 0,-41.5 216,-41.5 216,-0.5 0,-0.5"/>
<text text-anchor="start" x="8" y="-29.5" font-family="Helvetica,sans-Serif" font-size="10.00">com.example.renderer.singleton.</text>
<text text-anchor="start" x="8" y="-18.5" font-family="Helvetica,sans-Serif" font-size="10.00">PersistenceManagerTest.testSaveShapes</text>
<text text-anchor="middle" x="108" y="-7.5" font-family="Helvetica,sans-Serif" font-size="10.00">_WithSpecialCharacters</text>
</a>
</g>
</g>
<!-- Node1&#45;&gt;Node7 -->
<g id="edge6" class="edge">
<title>Node1&#45;&gt;Node7</title>
<path fill="none" stroke="midnightblue" d="M333.09,-148.23C308.28,-121.22 263.32,-76.63 216,-51 209.47,-47.46 202.48,-44.31 195.32,-41.51"/>
<polygon fill="midnightblue" stroke="midnightblue" points="330.53,-150.62 339.84,-155.68 335.72,-145.92 330.53,-150.62"/>
</g>
</g>
</svg>
