<?xml version="1.0" encoding="UTF-8" standalone="no"?>
<!DOCTYPE svg PUBLIC "-//W3C//DTD SVG 1.1//EN"
 "http://www.w3.org/Graphics/SVG/1.1/DTD/svg11.dtd">
<!-- Generated by graphviz version 2.43.0 (0)
 -->
<!-- Title: com.example.renderer.visitor.JSONExportVisitor.visitRectangle Pages: 1 -->
<svg width="386pt" height="186pt"
 viewBox="0.00 0.00 386.00 186.00" xmlns="http://www.w3.org/2000/svg" xmlns:xlink="http://www.w3.org/1999/xlink">
<g id="graph0" class="graph" transform="scale(1 1) rotate(0) translate(4 182)">
<title>com.example.renderer.visitor.JSONExportVisitor.visitRectangle</title>
<polygon fill="white" stroke="transparent" points="-4,4 -4,-182 382,-182 382,4 -4,4"/>
<!-- Node1 -->
<g id="node1" class="node">
<title>Node1</title>
<g id="a_node1"><a xlink:title="将矩形对象转换为JSON格式输出">
<polygon fill="#bfbfbf" stroke="black" points="0,-73.5 0,-103.5 176,-103.5 176,-73.5 0,-73.5"/>
<text text-anchor="start" x="8" y="-91.5" font-family="Helvetica,sans-Serif" font-size="10.00">com.example.renderer.visitor.</text>
<text text-anchor="middle" x="88" y="-80.5" font-family="Helvetica,sans-Serif" font-size="10.00">JSONExportVisitor.visitRectangle</text>
</a>
</g>
</g>
<!-- Node2 -->
<g id="node2" class="node">
<title>Node2</title>
<g id="a_node2"><a xlink:href="$classcom_1_1example_1_1renderer_1_1factory_1_1Rectangle.html#ae83e1c0e4055db52f789967fa1209cd6" xlink:title="获取矩形高度">
<polygon fill="white" stroke="black" points="212,-147.5 212,-177.5 378,-177.5 378,-147.5 212,-147.5"/>
<text text-anchor="start" x="220" y="-165.5" font-family="Helvetica,sans-Serif" font-size="10.00">com.example.renderer.factory.</text>
<text text-anchor="middle" x="295" y="-154.5" font-family="Helvetica,sans-Serif" font-size="10.00">Rectangle.getHeight</text>
</a>
</g>
</g>
<!-- Node1&#45;&gt;Node2 -->
<g id="edge1" class="edge">
<title>Node1&#45;&gt;Node2</title>
<path fill="none" stroke="midnightblue" d="M123.37,-103.56C147.84,-114.02 181.64,-127.92 212,-138.5 217.79,-140.52 223.85,-142.51 229.94,-144.43"/>
<polygon fill="midnightblue" stroke="midnightblue" points="228.91,-147.78 239.5,-147.39 230.98,-141.09 228.91,-147.78"/>
</g>
<!-- Node3 -->
<g id="node3" class="node">
<title>Node3</title>
<g id="a_node3"><a xlink:href="$classcom_1_1example_1_1renderer_1_1factory_1_1Rectangle.html#a866a5e7ee721a4744e970be235d7bf2a" xlink:title="获取矩形宽度">
<polygon fill="white" stroke="black" points="212,-98.5 212,-128.5 378,-128.5 378,-98.5 212,-98.5"/>
<text text-anchor="start" x="220" y="-116.5" font-family="Helvetica,sans-Serif" font-size="10.00">com.example.renderer.factory.</text>
<text text-anchor="middle" x="295" y="-105.5" font-family="Helvetica,sans-Serif" font-size="10.00">Rectangle.getWidth</text>
</a>
</g>
</g>
<!-- Node1&#45;&gt;Node3 -->
<g id="edge2" class="edge">
<title>Node1&#45;&gt;Node3</title>
<path fill="none" stroke="midnightblue" d="M176.24,-99.14C184.69,-100.17 193.3,-101.22 201.8,-102.26"/>
<polygon fill="midnightblue" stroke="midnightblue" points="201.38,-105.73 211.73,-103.47 202.23,-98.78 201.38,-105.73"/>
</g>
<!-- Node4 -->
<g id="node4" class="node">
<title>Node4</title>
<g id="a_node4"><a xlink:href="$classcom_1_1example_1_1renderer_1_1factory_1_1Rectangle.html#a04a2b038cf6f21b0875a6bce7dd479e0" xlink:title="获取矩形左上角x坐标">
<polygon fill="white" stroke="black" points="212,-49.5 212,-79.5 378,-79.5 378,-49.5 212,-49.5"/>
<text text-anchor="start" x="220" y="-67.5" font-family="Helvetica,sans-Serif" font-size="10.00">com.example.renderer.factory.</text>
<text text-anchor="middle" x="295" y="-56.5" font-family="Helvetica,sans-Serif" font-size="10.00">Rectangle.getX</text>
</a>
</g>
</g>
<!-- Node1&#45;&gt;Node4 -->
<g id="edge3" class="edge">
<title>Node1&#45;&gt;Node4</title>
<path fill="none" stroke="midnightblue" d="M176.24,-78.29C184.6,-77.31 193.11,-76.31 201.52,-75.33"/>
<polygon fill="midnightblue" stroke="midnightblue" points="202.2,-78.77 211.73,-74.13 201.39,-71.82 202.2,-78.77"/>
</g>
<!-- Node5 -->
<g id="node5" class="node">
<title>Node5</title>
<g id="a_node5"><a xlink:href="$classcom_1_1example_1_1renderer_1_1factory_1_1Rectangle.html#a8086515b4c50de24274dace98a8ca9ea" xlink:title="获取矩形左上角Y坐标">
<polygon fill="white" stroke="black" points="212,-0.5 212,-30.5 378,-30.5 378,-0.5 212,-0.5"/>
<text text-anchor="start" x="220" y="-18.5" font-family="Helvetica,sans-Serif" font-size="10.00">com.example.renderer.factory.</text>
<text text-anchor="middle" x="295" y="-7.5" font-family="Helvetica,sans-Serif" font-size="10.00">Rectangle.getY</text>
</a>
</g>
</g>
<!-- Node1&#45;&gt;Node5 -->
<g id="edge4" class="edge">
<title>Node1&#45;&gt;Node5</title>
<path fill="none" stroke="midnightblue" d="M125.33,-73.48C149.67,-63.63 182.55,-50.72 212,-40.5 218.77,-38.15 225.89,-35.8 232.99,-33.54"/>
<polygon fill="midnightblue" stroke="midnightblue" points="234.14,-36.84 242.63,-30.51 232.04,-30.17 234.14,-36.84"/>
</g>
</g>
</svg>
