<?xml version="1.0" encoding="UTF-8" standalone="no"?>
<!DOCTYPE svg PUBLIC "-//W3C//DTD SVG 1.1//EN"
 "http://www.w3.org/Graphics/SVG/1.1/DTD/svg11.dtd">
<!-- Generated by graphviz version 2.43.0 (0)
 -->
<!-- Title: com.example.renderer.factory.Ellipse.move Pages: 1 -->
<svg width="401pt" height="149pt"
 viewBox="0.00 0.00 401.00 149.00" xmlns="http://www.w3.org/2000/svg" xmlns:xlink="http://www.w3.org/1999/xlink">
<g id="graph0" class="graph" transform="scale(1 1) rotate(0) translate(4 145)">
<title>com.example.renderer.factory.Ellipse.move</title>
<polygon fill="white" stroke="transparent" points="-4,4 -4,-145 397,-145 397,4 -4,4"/>
<!-- Node1 -->
<g id="node1" class="node">
<title>Node1</title>
<g id="a_node1"><a xlink:title="移动椭圆的位置。">
<polygon fill="#bfbfbf" stroke="black" points="227,-55.5 227,-85.5 393,-85.5 393,-55.5 227,-55.5"/>
<text text-anchor="start" x="235" y="-73.5" font-family="Helvetica,sans-Serif" font-size="10.00">com.example.renderer.factory.</text>
<text text-anchor="middle" x="310" y="-62.5" font-family="Helvetica,sans-Serif" font-size="10.00">Ellipse.move</text>
</a>
</g>
</g>
<!-- Node2 -->
<g id="node2" class="node">
<title>Node2</title>
<g id="a_node2"><a xlink:href="$classcom_1_1example_1_1renderer_1_1factory_1_1EllipseTest.html#a4f34eb166666f1a011fa8d4fa4c2aac2" xlink:title=" ">
<polygon fill="white" stroke="black" points="12.5,-110.5 12.5,-140.5 178.5,-140.5 178.5,-110.5 12.5,-110.5"/>
<text text-anchor="start" x="20.5" y="-128.5" font-family="Helvetica,sans-Serif" font-size="10.00">com.example.renderer.factory.</text>
<text text-anchor="middle" x="95.5" y="-117.5" font-family="Helvetica,sans-Serif" font-size="10.00">EllipseTest.testMove</text>
</a>
</g>
</g>
<!-- Node1&#45;&gt;Node2 -->
<g id="edge1" class="edge">
<title>Node1&#45;&gt;Node2</title>
<path fill="none" stroke="midnightblue" d="M241.24,-88.04C213.33,-95.26 181.31,-103.55 154.5,-110.49"/>
<polygon fill="midnightblue" stroke="midnightblue" points="242.13,-91.42 250.93,-85.53 240.38,-84.65 242.13,-91.42"/>
</g>
<!-- Node3 -->
<g id="node3" class="node">
<title>Node3</title>
<g id="a_node3"><a xlink:href="$classcom_1_1example_1_1renderer_1_1factory_1_1EllipseTest.html#adfada185a6c2750c0f74076bc42f7c63" xlink:title=" ">
<polygon fill="white" stroke="black" points="0,-50 0,-91 191,-91 191,-50 0,-50"/>
<text text-anchor="start" x="8" y="-79" font-family="Helvetica,sans-Serif" font-size="10.00">com.example.renderer.factory.</text>
<text text-anchor="start" x="8" y="-68" font-family="Helvetica,sans-Serif" font-size="10.00">EllipseTest.testMove_FromNegative</text>
<text text-anchor="middle" x="95.5" y="-57" font-family="Helvetica,sans-Serif" font-size="10.00">ToPositive</text>
</a>
</g>
</g>
<!-- Node1&#45;&gt;Node3 -->
<g id="edge2" class="edge">
<title>Node1&#45;&gt;Node3</title>
<path fill="none" stroke="midnightblue" d="M216.63,-70.5C208.19,-70.5 199.64,-70.5 191.18,-70.5"/>
<polygon fill="midnightblue" stroke="midnightblue" points="216.84,-74 226.84,-70.5 216.84,-67 216.84,-74"/>
</g>
<!-- Node4 -->
<g id="node4" class="node">
<title>Node4</title>
<g id="a_node4"><a xlink:href="$classcom_1_1example_1_1renderer_1_1factory_1_1EllipseTest.html#a56b8a9bf435a25cb80f51d85ab3fecbf" xlink:title=" ">
<polygon fill="white" stroke="black" points="6,-0.5 6,-30.5 185,-30.5 185,-0.5 6,-0.5"/>
<text text-anchor="start" x="14" y="-18.5" font-family="Helvetica,sans-Serif" font-size="10.00">com.example.renderer.factory.</text>
<text text-anchor="middle" x="95.5" y="-7.5" font-family="Helvetica,sans-Serif" font-size="10.00">EllipseTest.testMove_ToBoundary</text>
</a>
</g>
</g>
<!-- Node1&#45;&gt;Node4 -->
<g id="edge3" class="edge">
<title>Node1&#45;&gt;Node4</title>
<path fill="none" stroke="midnightblue" d="M241.24,-52.96C213.33,-45.74 181.31,-37.45 154.5,-30.51"/>
<polygon fill="midnightblue" stroke="midnightblue" points="240.38,-56.35 250.93,-55.47 242.13,-49.58 240.38,-56.35"/>
</g>
</g>
</svg>
