<?xml version="1.0" encoding="UTF-8" standalone="no"?>
<!DOCTYPE svg PUBLIC "-//W3C//DTD SVG 1.1//EN"
 "http://www.w3.org/Graphics/SVG/1.1/DTD/svg11.dtd">
<!-- Generated by graphviz version 2.43.0 (0)
 -->
<!-- Title: com.example.renderer.ui.SwingUI.SwingUI Pages: 1 -->
<svg width="586pt" height="137pt"
 viewBox="0.00 0.00 586.00 137.00" xmlns="http://www.w3.org/2000/svg" xmlns:xlink="http://www.w3.org/1999/xlink">
<g id="graph0" class="graph" transform="scale(1 1) rotate(0) translate(4 133)">
<title>com.example.renderer.ui.SwingUI.SwingUI</title>
<polygon fill="white" stroke="transparent" points="-4,4 -4,-133 582,-133 582,4 -4,4"/>
<!-- Node1 -->
<g id="node1" class="node">
<title>Node1</title>
<g id="a_node1"><a xlink:title="创建并初始化Swing图形用户界面。">
<polygon fill="#bfbfbf" stroke="black" points="0,-49.5 0,-79.5 142,-79.5 142,-49.5 0,-49.5"/>
<text text-anchor="start" x="8" y="-67.5" font-family="Helvetica,sans-Serif" font-size="10.00">com.example.renderer.ui.</text>
<text text-anchor="middle" x="71" y="-56.5" font-family="Helvetica,sans-Serif" font-size="10.00">SwingUI.SwingUI</text>
</a>
</g>
</g>
<!-- Node2 -->
<g id="node2" class="node">
<title>Node2</title>
<g id="a_node2"><a xlink:href="$classcom_1_1example_1_1renderer_1_1command_1_1UndoManager.html#a4c1369e01556b93a5fa11ea888b8183b" xlink:title=" ">
<polygon fill="white" stroke="black" points="178,-98.5 178,-128.5 360,-128.5 360,-98.5 178,-98.5"/>
<text text-anchor="start" x="186" y="-116.5" font-family="Helvetica,sans-Serif" font-size="10.00">com.example.renderer.command.</text>
<text text-anchor="middle" x="269" y="-105.5" font-family="Helvetica,sans-Serif" font-size="10.00">UndoManager.executeCommand</text>
</a>
</g>
</g>
<!-- Node1&#45;&gt;Node2 -->
<g id="edge1" class="edge">
<title>Node1&#45;&gt;Node2</title>
<path fill="none" stroke="midnightblue" d="M132.14,-79.53C153.02,-84.76 176.61,-90.65 198.21,-96.05"/>
<polygon fill="midnightblue" stroke="midnightblue" points="197.42,-99.46 207.98,-98.49 199.12,-92.67 197.42,-99.46"/>
</g>
<!-- Node4 -->
<g id="node4" class="node">
<title>Node4</title>
<g id="a_node4"><a xlink:href="$classcom_1_1example_1_1renderer_1_1command_1_1UndoManager.html#a986ee81b39ef610656626bb26f5d73c2" xlink:title=" ">
<polygon fill="white" stroke="black" points="178,-49.5 178,-79.5 360,-79.5 360,-49.5 178,-49.5"/>
<text text-anchor="start" x="186" y="-67.5" font-family="Helvetica,sans-Serif" font-size="10.00">com.example.renderer.command.</text>
<text text-anchor="middle" x="269" y="-56.5" font-family="Helvetica,sans-Serif" font-size="10.00">UndoManager.redo</text>
</a>
</g>
</g>
<!-- Node1&#45;&gt;Node4 -->
<g id="edge3" class="edge">
<title>Node1&#45;&gt;Node4</title>
<path fill="none" stroke="midnightblue" d="M142.21,-64.5C150.5,-64.5 159.08,-64.5 167.68,-64.5"/>
<polygon fill="midnightblue" stroke="midnightblue" points="167.77,-68 177.77,-64.5 167.77,-61 167.77,-68"/>
</g>
<!-- Node5 -->
<g id="node5" class="node">
<title>Node5</title>
<g id="a_node5"><a xlink:href="$classcom_1_1example_1_1renderer_1_1command_1_1UndoManager.html#ad8ea4408ac901ae7a98bd479c634fcce" xlink:title=" ">
<polygon fill="white" stroke="black" points="178,-0.5 178,-30.5 360,-30.5 360,-0.5 178,-0.5"/>
<text text-anchor="start" x="186" y="-18.5" font-family="Helvetica,sans-Serif" font-size="10.00">com.example.renderer.command.</text>
<text text-anchor="middle" x="269" y="-7.5" font-family="Helvetica,sans-Serif" font-size="10.00">UndoManager.undo</text>
</a>
</g>
</g>
<!-- Node1&#45;&gt;Node5 -->
<g id="edge5" class="edge">
<title>Node1&#45;&gt;Node5</title>
<path fill="none" stroke="midnightblue" d="M132.14,-49.47C153.02,-44.24 176.61,-38.35 198.21,-32.95"/>
<polygon fill="midnightblue" stroke="midnightblue" points="199.12,-36.33 207.98,-30.51 197.42,-29.54 199.12,-36.33"/>
</g>
<!-- Node3 -->
<g id="node3" class="node">
<title>Node3</title>
<g id="a_node3"><a xlink:href="$interfacecom_1_1example_1_1renderer_1_1command_1_1Command.html#ae5d373bf255bc7fbb809eee509b7abc6" xlink:title="Executes the command operation.">
<polygon fill="white" stroke="black" points="396,-73.5 396,-103.5 578,-103.5 578,-73.5 396,-73.5"/>
<text text-anchor="start" x="404" y="-91.5" font-family="Helvetica,sans-Serif" font-size="10.00">com.example.renderer.command.</text>
<text text-anchor="middle" x="487" y="-80.5" font-family="Helvetica,sans-Serif" font-size="10.00">Command.execute</text>
</a>
</g>
</g>
<!-- Node2&#45;&gt;Node3 -->
<g id="edge2" class="edge">
<title>Node2&#45;&gt;Node3</title>
<path fill="none" stroke="midnightblue" d="M360.04,-103.08C368.53,-102.1 377.16,-101.1 385.74,-100.1"/>
<polygon fill="midnightblue" stroke="midnightblue" points="386.23,-103.57 395.76,-98.94 385.42,-96.62 386.23,-103.57"/>
</g>
<!-- Node4&#45;&gt;Node3 -->
<g id="edge4" class="edge">
<title>Node4&#45;&gt;Node3</title>
<path fill="none" stroke="midnightblue" d="M360.04,-74.5C368.53,-75.45 377.16,-76.41 385.74,-77.36"/>
<polygon fill="midnightblue" stroke="midnightblue" points="385.43,-80.85 395.76,-78.47 386.21,-73.89 385.43,-80.85"/>
</g>
<!-- Node6 -->
<g id="node6" class="node">
<title>Node6</title>
<g id="a_node6"><a xlink:href="$interfacecom_1_1example_1_1renderer_1_1command_1_1Command.html#a3317fbcc32ee08c81e90b7035ce61aeb" xlink:title="Undoes the command operation.">
<polygon fill="white" stroke="black" points="396,-0.5 396,-30.5 578,-30.5 578,-0.5 396,-0.5"/>
<text text-anchor="start" x="404" y="-18.5" font-family="Helvetica,sans-Serif" font-size="10.00">com.example.renderer.command.</text>
<text text-anchor="middle" x="487" y="-7.5" font-family="Helvetica,sans-Serif" font-size="10.00">Command.undo</text>
</a>
</g>
</g>
<!-- Node5&#45;&gt;Node6 -->
<g id="edge6" class="edge">
<title>Node5&#45;&gt;Node6</title>
<path fill="none" stroke="midnightblue" d="M360.04,-15.5C368.53,-15.5 377.16,-15.5 385.74,-15.5"/>
<polygon fill="midnightblue" stroke="midnightblue" points="385.76,-19 395.76,-15.5 385.76,-12 385.76,-19"/>
</g>
</g>
</svg>
