<?xml version="1.0" encoding="UTF-8" standalone="no"?>
<!DOCTYPE svg PUBLIC "-//W3C//DTD SVG 1.1//EN"
 "http://www.w3.org/Graphics/SVG/1.1/DTD/svg11.dtd">
<!-- Generated by graphviz version 2.43.0 (0)
 -->
<!-- Title: com.example.renderer.factory.RectangleTest.testGetDimensions_AfterCreation Pages: 1 -->
<svg width="392pt" height="186pt"
 viewBox="0.00 0.00 392.00 186.00" xmlns="http://www.w3.org/2000/svg" xmlns:xlink="http://www.w3.org/1999/xlink">
<g id="graph0" class="graph" transform="scale(1 1) rotate(0) translate(4 182)">
<title>com.example.renderer.factory.RectangleTest.testGetDimensions_AfterCreation</title>
<polygon fill="white" stroke="transparent" points="-4,4 -4,-182 388,-182 388,4 -4,4"/>
<!-- Node1 -->
<g id="node1" class="node">
<title>Node1</title>
<g id="a_node1"><a xlink:title=" ">
<polygon fill="#bfbfbf" stroke="black" points="0,-68 0,-109 182,-109 182,-68 0,-68"/>
<text text-anchor="start" x="8" y="-97" font-family="Helvetica,sans-Serif" font-size="10.00">com.example.renderer.factory.</text>
<text text-anchor="start" x="8" y="-86" font-family="Helvetica,sans-Serif" font-size="10.00">RectangleTest.testGetDimensions</text>
<text text-anchor="middle" x="91" y="-75" font-family="Helvetica,sans-Serif" font-size="10.00">_AfterCreation</text>
</a>
</g>
</g>
<!-- Node2 -->
<g id="node2" class="node">
<title>Node2</title>
<g id="a_node2"><a xlink:href="$classcom_1_1example_1_1renderer_1_1factory_1_1Rectangle.html#ae83e1c0e4055db52f789967fa1209cd6" xlink:title="获取矩形高度">
<polygon fill="white" stroke="black" points="218,-147.5 218,-177.5 384,-177.5 384,-147.5 218,-147.5"/>
<text text-anchor="start" x="226" y="-165.5" font-family="Helvetica,sans-Serif" font-size="10.00">com.example.renderer.factory.</text>
<text text-anchor="middle" x="301" y="-154.5" font-family="Helvetica,sans-Serif" font-size="10.00">Rectangle.getHeight</text>
</a>
</g>
</g>
<!-- Node1&#45;&gt;Node2 -->
<g id="edge1" class="edge">
<title>Node1&#45;&gt;Node2</title>
<path fill="none" stroke="midnightblue" d="M140.67,-109.04C163.89,-118.52 192.18,-129.62 218,-138.5 223.89,-140.53 230.06,-142.53 236.25,-144.47"/>
<polygon fill="midnightblue" stroke="midnightblue" points="235.37,-147.87 245.96,-147.46 237.43,-141.18 235.37,-147.87"/>
</g>
<!-- Node3 -->
<g id="node3" class="node">
<title>Node3</title>
<g id="a_node3"><a xlink:href="$classcom_1_1example_1_1renderer_1_1factory_1_1Rectangle.html#a866a5e7ee721a4744e970be235d7bf2a" xlink:title="获取矩形宽度">
<polygon fill="white" stroke="black" points="218,-98.5 218,-128.5 384,-128.5 384,-98.5 218,-98.5"/>
<text text-anchor="start" x="226" y="-116.5" font-family="Helvetica,sans-Serif" font-size="10.00">com.example.renderer.factory.</text>
<text text-anchor="middle" x="301" y="-105.5" font-family="Helvetica,sans-Serif" font-size="10.00">Rectangle.getWidth</text>
</a>
</g>
</g>
<!-- Node1&#45;&gt;Node3 -->
<g id="edge2" class="edge">
<title>Node1&#45;&gt;Node3</title>
<path fill="none" stroke="midnightblue" d="M182.02,-99.32C190.54,-100.34 199.2,-101.38 207.74,-102.41"/>
<polygon fill="midnightblue" stroke="midnightblue" points="207.36,-105.89 217.7,-103.61 208.19,-98.94 207.36,-105.89"/>
</g>
<!-- Node4 -->
<g id="node4" class="node">
<title>Node4</title>
<g id="a_node4"><a xlink:href="$classcom_1_1example_1_1renderer_1_1factory_1_1Rectangle.html#a04a2b038cf6f21b0875a6bce7dd479e0" xlink:title="获取矩形左上角x坐标">
<polygon fill="white" stroke="black" points="218,-49.5 218,-79.5 384,-79.5 384,-49.5 218,-49.5"/>
<text text-anchor="start" x="226" y="-67.5" font-family="Helvetica,sans-Serif" font-size="10.00">com.example.renderer.factory.</text>
<text text-anchor="middle" x="301" y="-56.5" font-family="Helvetica,sans-Serif" font-size="10.00">Rectangle.getX</text>
</a>
</g>
</g>
<!-- Node1&#45;&gt;Node4 -->
<g id="edge3" class="edge">
<title>Node1&#45;&gt;Node4</title>
<path fill="none" stroke="midnightblue" d="M182.02,-78.11C190.54,-77.13 199.2,-76.13 207.74,-75.15"/>
<polygon fill="midnightblue" stroke="midnightblue" points="208.17,-78.62 217.7,-74 207.37,-71.67 208.17,-78.62"/>
</g>
<!-- Node5 -->
<g id="node5" class="node">
<title>Node5</title>
<g id="a_node5"><a xlink:href="$classcom_1_1example_1_1renderer_1_1factory_1_1Rectangle.html#a8086515b4c50de24274dace98a8ca9ea" xlink:title="获取矩形左上角Y坐标">
<polygon fill="white" stroke="black" points="218,-0.5 218,-30.5 384,-30.5 384,-0.5 218,-0.5"/>
<text text-anchor="start" x="226" y="-18.5" font-family="Helvetica,sans-Serif" font-size="10.00">com.example.renderer.factory.</text>
<text text-anchor="middle" x="301" y="-7.5" font-family="Helvetica,sans-Serif" font-size="10.00">Rectangle.getY</text>
</a>
</g>
</g>
<!-- Node1&#45;&gt;Node5 -->
<g id="edge4" class="edge">
<title>Node1&#45;&gt;Node5</title>
<path fill="none" stroke="midnightblue" d="M143.51,-67.97C166.22,-59.15 193.31,-48.96 218,-40.5 224.78,-38.18 231.9,-35.85 239.01,-33.59"/>
<polygon fill="midnightblue" stroke="midnightblue" points="240.15,-36.9 248.65,-30.57 238.06,-30.22 240.15,-36.9"/>
</g>
</g>
</svg>
