<?xml version="1.0" encoding="UTF-8" standalone="no"?>
<!DOCTYPE svg PUBLIC "-//W3C//DTD SVG 1.1//EN"
 "http://www.w3.org/Graphics/SVG/1.1/DTD/svg11.dtd">
<!-- Generated by graphviz version 2.43.0 (0)
 -->
<!-- Title: com.example.renderer.singleton.PersistenceManagerTest.testSaveAndLoad_MixedShapes Pages: 1 -->
<svg width="460pt" height="137pt"
 viewBox="0.00 0.00 460.00 137.00" xmlns="http://www.w3.org/2000/svg" xmlns:xlink="http://www.w3.org/1999/xlink">
<g id="graph0" class="graph" transform="scale(1 1) rotate(0) translate(4 133)">
<title>com.example.renderer.singleton.PersistenceManagerTest.testSaveAndLoad_MixedShapes</title>
<polygon fill="white" stroke="transparent" points="-4,4 -4,-133 456,-133 456,4 -4,4"/>
<!-- Node1 -->
<g id="node1" class="node">
<title>Node1</title>
<g id="a_node1"><a xlink:title="testSaveAndLoad_MixedShapes &#45; 验证混合图形保存并正确加载">
<polygon fill="#bfbfbf" stroke="black" points="0,-44 0,-85 200,-85 200,-44 0,-44"/>
<text text-anchor="start" x="8" y="-73" font-family="Helvetica,sans-Serif" font-size="10.00">com.example.renderer.singleton.</text>
<text text-anchor="start" x="8" y="-62" font-family="Helvetica,sans-Serif" font-size="10.00">PersistenceManagerTest.testSaveAnd</text>
<text text-anchor="middle" x="100" y="-51" font-family="Helvetica,sans-Serif" font-size="10.00">Load_MixedShapes</text>
</a>
</g>
</g>
<!-- Node2 -->
<g id="node2" class="node">
<title>Node2</title>
<g id="a_node2"><a xlink:href="$classcom_1_1example_1_1renderer_1_1singleton_1_1PersistenceManager.html#a229e6512b9ffae3cddc80a15e779e6e4" xlink:title="获取PersistenceManager单例实例">
<polygon fill="white" stroke="black" points="255,-98.5 255,-128.5 433,-128.5 433,-98.5 255,-98.5"/>
<text text-anchor="start" x="263" y="-116.5" font-family="Helvetica,sans-Serif" font-size="10.00">com.example.renderer.singleton.</text>
<text text-anchor="middle" x="344" y="-105.5" font-family="Helvetica,sans-Serif" font-size="10.00">PersistenceManager.getInstance</text>
</a>
</g>
</g>
<!-- Node1&#45;&gt;Node2 -->
<g id="edge1" class="edge">
<title>Node1&#45;&gt;Node2</title>
<path fill="none" stroke="midnightblue" d="M200.13,-84.57C219.69,-88.53 240.04,-92.65 259.05,-96.5"/>
<polygon fill="midnightblue" stroke="midnightblue" points="258.35,-99.93 268.85,-98.49 259.74,-93.07 258.35,-99.93"/>
</g>
<!-- Node3 -->
<g id="node3" class="node">
<title>Node3</title>
<g id="a_node3"><a xlink:href="$classcom_1_1example_1_1renderer_1_1singleton_1_1PersistenceManager.html#a2ba7f4135519949ef1b7516b5f17aade" xlink:title="从JSON文件加载图形列表">
<polygon fill="white" stroke="black" points="236,-49.5 236,-79.5 452,-79.5 452,-49.5 236,-49.5"/>
<text text-anchor="start" x="244" y="-67.5" font-family="Helvetica,sans-Serif" font-size="10.00">com.example.renderer.singleton.</text>
<text text-anchor="middle" x="344" y="-56.5" font-family="Helvetica,sans-Serif" font-size="10.00">PersistenceManager.loadShapesFromFile</text>
</a>
</g>
</g>
<!-- Node1&#45;&gt;Node3 -->
<g id="edge2" class="edge">
<title>Node1&#45;&gt;Node3</title>
<path fill="none" stroke="midnightblue" d="M200.13,-64.5C208.57,-64.5 217.16,-64.5 225.73,-64.5"/>
<polygon fill="midnightblue" stroke="midnightblue" points="225.76,-68 235.76,-64.5 225.76,-61 225.76,-68"/>
</g>
<!-- Node4 -->
<g id="node4" class="node">
<title>Node4</title>
<g id="a_node4"><a xlink:href="$classcom_1_1example_1_1renderer_1_1singleton_1_1PersistenceManager.html#a52b2e7f7c4f7913f82e8f9cab5f6115f" xlink:title="将图形列表序列化为JSON格式并保存到指定文件">
<polygon fill="white" stroke="black" points="242,-0.5 242,-30.5 446,-30.5 446,-0.5 242,-0.5"/>
<text text-anchor="start" x="250" y="-18.5" font-family="Helvetica,sans-Serif" font-size="10.00">com.example.renderer.singleton.</text>
<text text-anchor="middle" x="344" y="-7.5" font-family="Helvetica,sans-Serif" font-size="10.00">PersistenceManager.saveShapesToFile</text>
</a>
</g>
</g>
<!-- Node1&#45;&gt;Node4 -->
<g id="edge3" class="edge">
<title>Node1&#45;&gt;Node4</title>
<path fill="none" stroke="midnightblue" d="M200.13,-44.43C219.69,-40.47 240.04,-36.35 259.05,-32.5"/>
<polygon fill="midnightblue" stroke="midnightblue" points="259.74,-35.93 268.85,-30.51 258.35,-29.07 259.74,-35.93"/>
</g>
</g>
</svg>
