<?xml version="1.0" encoding="UTF-8" standalone="no"?>
<!DOCTYPE svg PUBLIC "-//W3C//DTD SVG 1.1//EN"
 "http://www.w3.org/Graphics/SVG/1.1/DTD/svg11.dtd">
<!-- Generated by graphviz version 2.43.0 (0)
 -->
<!-- Title: com.example.renderer.proxy.RemoteRendererProxy.drawCircle Pages: 1 -->
<svg width="420pt" height="110pt"
 viewBox="0.00 0.00 420.00 110.00" xmlns="http://www.w3.org/2000/svg" xmlns:xlink="http://www.w3.org/1999/xlink">
<g id="graph0" class="graph" transform="scale(1 1) rotate(0) translate(4 106)">
<title>com.example.renderer.proxy.RemoteRendererProxy.drawCircle</title>
<polygon fill="white" stroke="transparent" points="-4,4 -4,-106 416,-106 416,4 -4,4"/>
<!-- Node1 -->
<g id="node1" class="node">
<title>Node1</title>
<g id="a_node1"><a xlink:title="代理绘制圆形操作，添加远程调用日志。">
<polygon fill="#bfbfbf" stroke="black" points="232,-36 232,-66 412,-66 412,-36 232,-36"/>
<text text-anchor="start" x="240" y="-54" font-family="Helvetica,sans-Serif" font-size="10.00">com.example.renderer.proxy.</text>
<text text-anchor="middle" x="322" y="-43" font-family="Helvetica,sans-Serif" font-size="10.00">RemoteRendererProxy.drawCircle</text>
</a>
</g>
</g>
<!-- Node2 -->
<g id="node2" class="node">
<title>Node2</title>
<g id="a_node2"><a xlink:href="$classcom_1_1example_1_1renderer_1_1proxy_1_1RemoteRendererProxyTest.html#a2f0b86f8169ea20d532ab8cffb0c7dc3" xlink:title=" ">
<polygon fill="white" stroke="black" points="0,-60.5 0,-101.5 196,-101.5 196,-60.5 0,-60.5"/>
<text text-anchor="start" x="8" y="-89.5" font-family="Helvetica,sans-Serif" font-size="10.00">com.example.renderer.proxy.</text>
<text text-anchor="start" x="8" y="-78.5" font-family="Helvetica,sans-Serif" font-size="10.00">RemoteRendererProxyTest.testProxy</text>
<text text-anchor="middle" x="98" y="-67.5" font-family="Helvetica,sans-Serif" font-size="10.00">_ExtremeCoordinates</text>
</a>
</g>
</g>
<!-- Node1&#45;&gt;Node2 -->
<g id="edge1" class="edge">
<title>Node1&#45;&gt;Node2</title>
<path fill="none" stroke="midnightblue" d="M221.94,-64.39C213.33,-65.55 204.63,-66.73 196.04,-67.89"/>
<polygon fill="midnightblue" stroke="midnightblue" points="222.54,-67.84 231.98,-63.03 221.6,-60.9 222.54,-67.84"/>
</g>
<!-- Node3 -->
<g id="node3" class="node">
<title>Node3</title>
<g id="a_node3"><a xlink:href="$classcom_1_1example_1_1renderer_1_1proxy_1_1RemoteRendererProxyTest.html#a785672431f7951f8d26c27fece370ad8" xlink:title="测试代理模式是否正确转发所有渲染方法调用到真实渲染器。">
<polygon fill="white" stroke="black" points="0,-0.5 0,-41.5 196,-41.5 196,-0.5 0,-0.5"/>
<text text-anchor="start" x="8" y="-29.5" font-family="Helvetica,sans-Serif" font-size="10.00">com.example.renderer.proxy.</text>
<text text-anchor="start" x="8" y="-18.5" font-family="Helvetica,sans-Serif" font-size="10.00">RemoteRendererProxyTest.testProxy</text>
<text text-anchor="middle" x="98" y="-7.5" font-family="Helvetica,sans-Serif" font-size="10.00">CallsRealRenderer</text>
</a>
</g>
</g>
<!-- Node1&#45;&gt;Node3 -->
<g id="edge2" class="edge">
<title>Node1&#45;&gt;Node3</title>
<path fill="none" stroke="midnightblue" d="M221.94,-37.61C213.33,-36.45 204.63,-35.27 196.04,-34.11"/>
<polygon fill="midnightblue" stroke="midnightblue" points="221.6,-41.1 231.98,-38.97 222.54,-34.16 221.6,-41.1"/>
</g>
</g>
</svg>
