<?xml version="1.0" encoding="UTF-8" standalone="no"?>
<!DOCTYPE svg PUBLIC "-//W3C//DTD SVG 1.1//EN"
 "http://www.w3.org/Graphics/SVG/1.1/DTD/svg11.dtd">
<!-- Generated by graphviz version 2.43.0 (0)
 -->
<!-- Title: com.example.renderer.legacy.LegacyRenderer.drawLegacyRectangle Pages: 1 -->
<svg width="458pt" height="100pt"
 viewBox="0.00 0.00 458.00 99.50" xmlns="http://www.w3.org/2000/svg" xmlns:xlink="http://www.w3.org/1999/xlink">
<g id="graph0" class="graph" transform="scale(1 1) rotate(0) translate(4 95.5)">
<title>com.example.renderer.legacy.LegacyRenderer.drawLegacyRectangle</title>
<polygon fill="white" stroke="transparent" points="-4,4 -4,-95.5 454,-95.5 454,4 -4,4"/>
<!-- Node1 -->
<g id="node1" class="node">
<title>Node1</title>
<g id="a_node1"><a xlink:title=" ">
<polygon fill="#bfbfbf" stroke="black" points="245,-33 245,-63 450,-63 450,-33 245,-33"/>
<text text-anchor="start" x="253" y="-51" font-family="Helvetica,sans-Serif" font-size="10.00">com.example.renderer.legacy.</text>
<text text-anchor="middle" x="347.5" y="-40" font-family="Helvetica,sans-Serif" font-size="10.00">LegacyRenderer.drawLegacyRectangle</text>
</a>
</g>
</g>
<!-- Node2 -->
<g id="node2" class="node">
<title>Node2</title>
<g id="a_node2"><a xlink:href="$classcom_1_1example_1_1renderer_1_1adapter_1_1LegacyRendererAdapter.html#addeae4dba92259721a837dec63a902f9" xlink:title="绘制矩形，转发调用到LegacyRenderer的drawLegacyRectangle()方法。">
<polygon fill="white" stroke="black" points="0,-61 0,-91 209,-91 209,-61 0,-61"/>
<text text-anchor="start" x="8" y="-79" font-family="Helvetica,sans-Serif" font-size="10.00">com.example.renderer.adapter.</text>
<text text-anchor="middle" x="104.5" y="-68" font-family="Helvetica,sans-Serif" font-size="10.00">LegacyRendererAdapter.drawRectangle</text>
</a>
</g>
</g>
<!-- Node1&#45;&gt;Node2 -->
<g id="edge1" class="edge">
<title>Node1&#45;&gt;Node2</title>
<path fill="none" stroke="midnightblue" d="M234.96,-60.96C226.38,-61.96 217.74,-62.96 209.21,-63.95"/>
<polygon fill="midnightblue" stroke="midnightblue" points="235.46,-64.42 244.99,-59.79 234.66,-57.47 235.46,-64.42"/>
</g>
<!-- Node3 -->
<g id="node3" class="node">
<title>Node3</title>
<g id="a_node3"><a xlink:href="$classcom_1_1example_1_1renderer_1_1adapter_1_1LegacyRendererTest.html#aa079f4bfb7ed6404287e7b89392643f1" xlink:title=" ">
<polygon fill="white" stroke="black" points="6,-0.5 6,-41.5 203,-41.5 203,-0.5 6,-0.5"/>
<text text-anchor="start" x="14" y="-29.5" font-family="Helvetica,sans-Serif" font-size="10.00">com.example.renderer.adapter.</text>
<text text-anchor="start" x="14" y="-18.5" font-family="Helvetica,sans-Serif" font-size="10.00">LegacyRendererTest.testDrawLegacy</text>
<text text-anchor="middle" x="104.5" y="-7.5" font-family="Helvetica,sans-Serif" font-size="10.00">Rectangle</text>
</a>
</g>
</g>
<!-- Node1&#45;&gt;Node3 -->
<g id="edge2" class="edge">
<title>Node1&#45;&gt;Node3</title>
<path fill="none" stroke="midnightblue" d="M234.85,-35.49C224.23,-34.3 213.51,-33.1 203.04,-31.93"/>
<polygon fill="midnightblue" stroke="midnightblue" points="234.67,-38.99 244.99,-36.63 235.44,-32.04 234.67,-38.99"/>
</g>
</g>
</svg>
