<?xml version="1.0" encoding="UTF-8" standalone="no"?>
<!DOCTYPE svg PUBLIC "-//W3C//DTD SVG 1.1//EN"
 "http://www.w3.org/Graphics/SVG/1.1/DTD/svg11.dtd">
<!-- Generated by graphviz version 2.43.0 (0)
 -->
<!-- Title: com.example.renderer.adapter.LegacyRendererTest.testDrawLegacyEllipse Pages: 1 -->
<svg width="429pt" height="50pt"
 viewBox="0.00 0.00 429.00 50.00" xmlns="http://www.w3.org/2000/svg" xmlns:xlink="http://www.w3.org/1999/xlink">
<g id="graph0" class="graph" transform="scale(1 1) rotate(0) translate(4 46)">
<title>com.example.renderer.adapter.LegacyRendererTest.testDrawLegacyEllipse</title>
<polygon fill="white" stroke="transparent" points="-4,4 -4,-46 425,-46 425,4 -4,4"/>
<!-- Node1 -->
<g id="node1" class="node">
<title>Node1</title>
<g id="a_node1"><a xlink:title=" ">
<polygon fill="#bfbfbf" stroke="black" points="0,-0.5 0,-41.5 197,-41.5 197,-0.5 0,-0.5"/>
<text text-anchor="start" x="8" y="-29.5" font-family="Helvetica,sans-Serif" font-size="10.00">com.example.renderer.adapter.</text>
<text text-anchor="start" x="8" y="-18.5" font-family="Helvetica,sans-Serif" font-size="10.00">LegacyRendererTest.testDrawLegacy</text>
<text text-anchor="middle" x="98.5" y="-7.5" font-family="Helvetica,sans-Serif" font-size="10.00">Ellipse</text>
</a>
</g>
</g>
<!-- Node2 -->
<g id="node2" class="node">
<title>Node2</title>
<g id="a_node2"><a xlink:href="$classcom_1_1example_1_1renderer_1_1legacy_1_1LegacyRenderer.html#aed811e3b057ef44b9038defe997ab0ea" xlink:title=" ">
<polygon fill="white" stroke="black" points="233,-6 233,-36 421,-36 421,-6 233,-6"/>
<text text-anchor="start" x="241" y="-24" font-family="Helvetica,sans-Serif" font-size="10.00">com.example.renderer.legacy.</text>
<text text-anchor="middle" x="327" y="-13" font-family="Helvetica,sans-Serif" font-size="10.00">LegacyRenderer.drawLegacyEllipse</text>
</a>
</g>
</g>
<!-- Node1&#45;&gt;Node2 -->
<g id="edge1" class="edge">
<title>Node1&#45;&gt;Node2</title>
<path fill="none" stroke="midnightblue" d="M197.2,-21C205.72,-21 214.36,-21 222.92,-21"/>
<polygon fill="midnightblue" stroke="midnightblue" points="222.92,-24.5 232.92,-21 222.92,-17.5 222.92,-24.5"/>
</g>
</g>
</svg>
