<?xml version="1.0" encoding="UTF-8" standalone="no"?>
<!DOCTYPE svg PUBLIC "-//W3C//DTD SVG 1.1//EN"
 "http://www.w3.org/Graphics/SVG/1.1/DTD/svg11.dtd">
<!-- Generated by graphviz version 2.43.0 (0)
 -->
<!-- Title: com.example.renderer.factory.EllipseTest.testRender_AfterScaling Pages: 1 -->
<svg width="598pt" height="39pt"
 viewBox="0.00 0.00 598.00 39.00" xmlns="http://www.w3.org/2000/svg" xmlns:xlink="http://www.w3.org/1999/xlink">
<g id="graph0" class="graph" transform="scale(1 1) rotate(0) translate(4 35)">
<title>com.example.renderer.factory.EllipseTest.testRender_AfterScaling</title>
<polygon fill="white" stroke="transparent" points="-4,4 -4,-35 594,-35 594,4 -4,4"/>
<!-- Node1 -->
<g id="node1" class="node">
<title>Node1</title>
<g id="a_node1"><a xlink:title=" ">
<polygon fill="#bfbfbf" stroke="black" points="0,-0.5 0,-30.5 188,-30.5 188,-0.5 0,-0.5"/>
<text text-anchor="start" x="8" y="-18.5" font-family="Helvetica,sans-Serif" font-size="10.00">com.example.renderer.factory.</text>
<text text-anchor="middle" x="94" y="-7.5" font-family="Helvetica,sans-Serif" font-size="10.00">EllipseTest.testRender_AfterScaling</text>
</a>
</g>
</g>
<!-- Node2 -->
<g id="node2" class="node">
<title>Node2</title>
<g id="a_node2"><a xlink:href="$classcom_1_1example_1_1renderer_1_1factory_1_1Ellipse.html#a05bd1b4ddbb8249021da2bbd6f5f0fb4" xlink:title="使用指定渲染器绘制椭圆。">
<polygon fill="white" stroke="black" points="224,-0.5 224,-30.5 390,-30.5 390,-0.5 224,-0.5"/>
<text text-anchor="start" x="232" y="-18.5" font-family="Helvetica,sans-Serif" font-size="10.00">com.example.renderer.factory.</text>
<text text-anchor="middle" x="307" y="-7.5" font-family="Helvetica,sans-Serif" font-size="10.00">Ellipse.render</text>
</a>
</g>
</g>
<!-- Node1&#45;&gt;Node2 -->
<g id="edge1" class="edge">
<title>Node1&#45;&gt;Node2</title>
<path fill="none" stroke="midnightblue" d="M188.16,-15.5C196.64,-15.5 205.22,-15.5 213.69,-15.5"/>
<polygon fill="midnightblue" stroke="midnightblue" points="213.95,-19 223.95,-15.5 213.95,-12 213.95,-19"/>
</g>
<!-- Node3 -->
<g id="node3" class="node">
<title>Node3</title>
<g id="a_node3"><a xlink:href="$interfacecom_1_1example_1_1renderer_1_1bridge_1_1Renderer.html#a4c88cee0908a55d398716a257352a71d" xlink:title="绘制椭圆">
<polygon fill="white" stroke="black" points="426,-0.5 426,-30.5 590,-30.5 590,-0.5 426,-0.5"/>
<text text-anchor="start" x="434" y="-18.5" font-family="Helvetica,sans-Serif" font-size="10.00">com.example.renderer.bridge.</text>
<text text-anchor="middle" x="508" y="-7.5" font-family="Helvetica,sans-Serif" font-size="10.00">Renderer.drawEllipse</text>
</a>
</g>
</g>
<!-- Node2&#45;&gt;Node3 -->
<g id="edge2" class="edge">
<title>Node2&#45;&gt;Node3</title>
<path fill="none" stroke="midnightblue" d="M390.09,-15.5C398.46,-15.5 407.01,-15.5 415.47,-15.5"/>
<polygon fill="midnightblue" stroke="midnightblue" points="415.74,-19 425.74,-15.5 415.74,-12 415.74,-19"/>
</g>
</g>
</svg>
