<?xml version="1.0" encoding="UTF-8" standalone="no"?>
<!DOCTYPE svg PUBLIC "-//W3C//DTD SVG 1.1//EN"
 "http://www.w3.org/Graphics/SVG/1.1/DTD/svg11.dtd">
<!-- Generated by graphviz version 2.43.0 (0)
 -->
<!-- Title: com.example.renderer.factory.CircleTest.testRender_AfterMultipleMoves Pages: 1 -->
<svg width="631pt" height="88pt"
 viewBox="0.00 0.00 631.00 88.00" xmlns="http://www.w3.org/2000/svg" xmlns:xlink="http://www.w3.org/1999/xlink">
<g id="graph0" class="graph" transform="scale(1 1) rotate(0) translate(4 84)">
<title>com.example.renderer.factory.CircleTest.testRender_AfterMultipleMoves</title>
<polygon fill="white" stroke="transparent" points="-4,4 -4,-84 627,-84 627,4 -4,4"/>
<!-- Node1 -->
<g id="node1" class="node">
<title>Node1</title>
<g id="a_node1"><a xlink:title=" ">
<polygon fill="#bfbfbf" stroke="black" points="0,-24.5 0,-54.5 221,-54.5 221,-24.5 0,-24.5"/>
<text text-anchor="start" x="8" y="-42.5" font-family="Helvetica,sans-Serif" font-size="10.00">com.example.renderer.factory.</text>
<text text-anchor="middle" x="110.5" y="-31.5" font-family="Helvetica,sans-Serif" font-size="10.00">CircleTest.testRender_AfterMultipleMoves</text>
</a>
</g>
</g>
<!-- Node2 -->
<g id="node2" class="node">
<title>Node2</title>
<g id="a_node2"><a xlink:href="$classcom_1_1example_1_1renderer_1_1factory_1_1Circle.html#a7dc56b196866cc4d444f59585902442c" xlink:title="移动图形的位置。 根据给定的偏移量调整图形的坐标位置，正数表示向右/下移动，负数表示向左/上移动。">
<polygon fill="white" stroke="black" points="257,-49.5 257,-79.5 423,-79.5 423,-49.5 257,-49.5"/>
<text text-anchor="start" x="265" y="-67.5" font-family="Helvetica,sans-Serif" font-size="10.00">com.example.renderer.factory.</text>
<text text-anchor="middle" x="340" y="-56.5" font-family="Helvetica,sans-Serif" font-size="10.00">Circle.move</text>
</a>
</g>
</g>
<!-- Node1&#45;&gt;Node2 -->
<g id="edge1" class="edge">
<title>Node1&#45;&gt;Node2</title>
<path fill="none" stroke="midnightblue" d="M221.25,-51.56C229.73,-52.49 238.25,-53.43 246.6,-54.35"/>
<polygon fill="midnightblue" stroke="midnightblue" points="246.37,-57.84 256.69,-55.46 247.14,-50.88 246.37,-57.84"/>
</g>
<!-- Node3 -->
<g id="node3" class="node">
<title>Node3</title>
<g id="a_node3"><a xlink:href="$classcom_1_1example_1_1renderer_1_1factory_1_1Circle.html#ac32a767950b0417badcb3b445052cc8a" xlink:title="使用指定的渲染器绘制图形。 具体绘制逻辑由实现类决定，渲染器参数提供实际的绘制能力。">
<polygon fill="white" stroke="black" points="257,-0.5 257,-30.5 423,-30.5 423,-0.5 257,-0.5"/>
<text text-anchor="start" x="265" y="-18.5" font-family="Helvetica,sans-Serif" font-size="10.00">com.example.renderer.factory.</text>
<text text-anchor="middle" x="340" y="-7.5" font-family="Helvetica,sans-Serif" font-size="10.00">Circle.render</text>
</a>
</g>
</g>
<!-- Node1&#45;&gt;Node3 -->
<g id="edge2" class="edge">
<title>Node1&#45;&gt;Node3</title>
<path fill="none" stroke="midnightblue" d="M221.25,-27.92C229.73,-27.03 238.25,-26.13 246.6,-25.25"/>
<polygon fill="midnightblue" stroke="midnightblue" points="247.12,-28.71 256.69,-24.18 246.38,-21.75 247.12,-28.71"/>
</g>
<!-- Node4 -->
<g id="node4" class="node">
<title>Node4</title>
<g id="a_node4"><a xlink:href="$interfacecom_1_1example_1_1renderer_1_1bridge_1_1Renderer.html#a9878c979d01dbfe7d4b9cd38a869a735" xlink:title="绘制圆形">
<polygon fill="white" stroke="black" points="459,-0.5 459,-30.5 623,-30.5 623,-0.5 459,-0.5"/>
<text text-anchor="start" x="467" y="-18.5" font-family="Helvetica,sans-Serif" font-size="10.00">com.example.renderer.bridge.</text>
<text text-anchor="middle" x="541" y="-7.5" font-family="Helvetica,sans-Serif" font-size="10.00">Renderer.drawCircle</text>
</a>
</g>
</g>
<!-- Node3&#45;&gt;Node4 -->
<g id="edge3" class="edge">
<title>Node3&#45;&gt;Node4</title>
<path fill="none" stroke="midnightblue" d="M423.09,-15.5C431.46,-15.5 440.01,-15.5 448.47,-15.5"/>
<polygon fill="midnightblue" stroke="midnightblue" points="448.74,-19 458.74,-15.5 448.74,-12 448.74,-19"/>
</g>
</g>
</svg>
