<?xml version="1.0" encoding="UTF-8" standalone="no"?>
<!DOCTYPE svg PUBLIC "-//W3C//DTD SVG 1.1//EN"
 "http://www.w3.org/Graphics/SVG/1.1/DTD/svg11.dtd">
<!-- Generated by graphviz version 2.43.0 (0)
 -->
<!-- Title: com.example.renderer.singleton.PersistenceManagerTest.testSaveShapes_NullList Pages: 1 -->
<svg width="464pt" height="88pt"
 viewBox="0.00 0.00 464.00 88.00" xmlns="http://www.w3.org/2000/svg" xmlns:xlink="http://www.w3.org/1999/xlink">
<g id="graph0" class="graph" transform="scale(1 1) rotate(0) translate(4 84)">
<title>com.example.renderer.singleton.PersistenceManagerTest.testSaveShapes_NullList</title>
<polygon fill="white" stroke="transparent" points="-4,4 -4,-84 460,-84 460,4 -4,4"/>
<!-- Node1 -->
<g id="node1" class="node">
<title>Node1</title>
<g id="a_node1"><a xlink:title="testSaveShapes_NullList &#45; 验证传入 null 列表时抛出 NullPointerException">
<polygon fill="#bfbfbf" stroke="black" points="0,-19 0,-60 216,-60 216,-19 0,-19"/>
<text text-anchor="start" x="8" y="-48" font-family="Helvetica,sans-Serif" font-size="10.00">com.example.renderer.singleton.</text>
<text text-anchor="start" x="8" y="-37" font-family="Helvetica,sans-Serif" font-size="10.00">PersistenceManagerTest.testSaveShapes</text>
<text text-anchor="middle" x="108" y="-26" font-family="Helvetica,sans-Serif" font-size="10.00">_NullList</text>
</a>
</g>
</g>
<!-- Node2 -->
<g id="node2" class="node">
<title>Node2</title>
<g id="a_node2"><a xlink:href="$classcom_1_1example_1_1renderer_1_1singleton_1_1PersistenceManager.html#a229e6512b9ffae3cddc80a15e779e6e4" xlink:title="获取PersistenceManager单例实例">
<polygon fill="white" stroke="black" points="265,-49.5 265,-79.5 443,-79.5 443,-49.5 265,-49.5"/>
<text text-anchor="start" x="273" y="-67.5" font-family="Helvetica,sans-Serif" font-size="10.00">com.example.renderer.singleton.</text>
<text text-anchor="middle" x="354" y="-56.5" font-family="Helvetica,sans-Serif" font-size="10.00">PersistenceManager.getInstance</text>
</a>
</g>
</g>
<!-- Node1&#45;&gt;Node2 -->
<g id="edge1" class="edge">
<title>Node1&#45;&gt;Node2</title>
<path fill="none" stroke="midnightblue" d="M216.02,-50.47C228.85,-51.78 241.91,-53.12 254.61,-54.42"/>
<polygon fill="midnightblue" stroke="midnightblue" points="254.4,-57.92 264.71,-55.45 255.12,-50.95 254.4,-57.92"/>
</g>
<!-- Node3 -->
<g id="node3" class="node">
<title>Node3</title>
<g id="a_node3"><a xlink:href="$classcom_1_1example_1_1renderer_1_1singleton_1_1PersistenceManager.html#a52b2e7f7c4f7913f82e8f9cab5f6115f" xlink:title="将图形列表序列化为JSON格式并保存到指定文件">
<polygon fill="white" stroke="black" points="252,-0.5 252,-30.5 456,-30.5 456,-0.5 252,-0.5"/>
<text text-anchor="start" x="260" y="-18.5" font-family="Helvetica,sans-Serif" font-size="10.00">com.example.renderer.singleton.</text>
<text text-anchor="middle" x="354" y="-7.5" font-family="Helvetica,sans-Serif" font-size="10.00">PersistenceManager.saveShapesToFile</text>
</a>
</g>
</g>
<!-- Node1&#45;&gt;Node3 -->
<g id="edge2" class="edge">
<title>Node1&#45;&gt;Node3</title>
<path fill="none" stroke="midnightblue" d="M216.02,-28.97C224.58,-28.13 233.24,-27.28 241.83,-26.44"/>
<polygon fill="midnightblue" stroke="midnightblue" points="242.25,-29.91 251.86,-25.45 241.57,-22.94 242.25,-29.91"/>
</g>
</g>
</svg>
