<?xml version="1.0" encoding="UTF-8" standalone="no"?>
<!DOCTYPE svg PUBLIC "-//W3C//DTD SVG 1.1//EN"
 "http://www.w3.org/Graphics/SVG/1.1/DTD/svg11.dtd">
<!-- Generated by graphviz version 2.43.0 (0)
 -->
<!-- Title: com.example.renderer.adapter.LegacyRendererAdapter.drawEllipse Pages: 1 -->
<svg width="424pt" height="39pt"
 viewBox="0.00 0.00 424.00 39.00" xmlns="http://www.w3.org/2000/svg" xmlns:xlink="http://www.w3.org/1999/xlink">
<g id="graph0" class="graph" transform="scale(1 1) rotate(0) translate(4 35)">
<title>com.example.renderer.adapter.LegacyRendererAdapter.drawEllipse</title>
<polygon fill="white" stroke="transparent" points="-4,4 -4,-35 420,-35 420,4 -4,4"/>
<!-- Node1 -->
<g id="node1" class="node">
<title>Node1</title>
<g id="a_node1"><a xlink:title="绘制椭圆，转发调用到LegacyRenderer的drawLegacyEllipse()方法。">
<polygon fill="#bfbfbf" stroke="black" points="0,-0.5 0,-30.5 192,-30.5 192,-0.5 0,-0.5"/>
<text text-anchor="start" x="8" y="-18.5" font-family="Helvetica,sans-Serif" font-size="10.00">com.example.renderer.adapter.</text>
<text text-anchor="middle" x="96" y="-7.5" font-family="Helvetica,sans-Serif" font-size="10.00">LegacyRendererAdapter.drawEllipse</text>
</a>
</g>
</g>
<!-- Node2 -->
<g id="node2" class="node">
<title>Node2</title>
<g id="a_node2"><a xlink:href="$classcom_1_1example_1_1renderer_1_1legacy_1_1LegacyRenderer.html#aed811e3b057ef44b9038defe997ab0ea" xlink:title=" ">
<polygon fill="white" stroke="black" points="228,-0.5 228,-30.5 416,-30.5 416,-0.5 228,-0.5"/>
<text text-anchor="start" x="236" y="-18.5" font-family="Helvetica,sans-Serif" font-size="10.00">com.example.renderer.legacy.</text>
<text text-anchor="middle" x="322" y="-7.5" font-family="Helvetica,sans-Serif" font-size="10.00">LegacyRenderer.drawLegacyEllipse</text>
</a>
</g>
</g>
<!-- Node1&#45;&gt;Node2 -->
<g id="edge1" class="edge">
<title>Node1&#45;&gt;Node2</title>
<path fill="none" stroke="midnightblue" d="M192.32,-15.5C200.7,-15.5 209.21,-15.5 217.65,-15.5"/>
<polygon fill="midnightblue" stroke="midnightblue" points="217.9,-19 227.9,-15.5 217.9,-12 217.9,-19"/>
</g>
</g>
</svg>
