<?xml version="1.0" encoding="UTF-8" standalone="no"?>
<!DOCTYPE svg PUBLIC "-//W3C//DTD SVG 1.1//EN"
 "http://www.w3.org/Graphics/SVG/1.1/DTD/svg11.dtd">
<!-- Generated by graphviz version 2.43.0 (0)
 -->
<!-- Title: com.example.renderer.factory.EllipseTest.testMove_FromNegativeToPositive Pages: 1 -->
<svg width="401pt" height="137pt"
 viewBox="0.00 0.00 401.00 137.00" xmlns="http://www.w3.org/2000/svg" xmlns:xlink="http://www.w3.org/1999/xlink">
<g id="graph0" class="graph" transform="scale(1 1) rotate(0) translate(4 133)">
<title>com.example.renderer.factory.EllipseTest.testMove_FromNegativeToPositive</title>
<polygon fill="white" stroke="transparent" points="-4,4 -4,-133 397,-133 397,4 -4,4"/>
<!-- Node1 -->
<g id="node1" class="node">
<title>Node1</title>
<g id="a_node1"><a xlink:title=" ">
<polygon fill="#bfbfbf" stroke="black" points="0,-44 0,-85 191,-85 191,-44 0,-44"/>
<text text-anchor="start" x="8" y="-73" font-family="Helvetica,sans-Serif" font-size="10.00">com.example.renderer.factory.</text>
<text text-anchor="start" x="8" y="-62" font-family="Helvetica,sans-Serif" font-size="10.00">EllipseTest.testMove_FromNegative</text>
<text text-anchor="middle" x="95.5" y="-51" font-family="Helvetica,sans-Serif" font-size="10.00">ToPositive</text>
</a>
</g>
</g>
<!-- Node2 -->
<g id="node2" class="node">
<title>Node2</title>
<g id="a_node2"><a xlink:href="$classcom_1_1example_1_1renderer_1_1factory_1_1Ellipse.html#a5856f1f689143235929a233715984015" xlink:title="获取椭圆中心X坐标。">
<polygon fill="white" stroke="black" points="227,-98.5 227,-128.5 393,-128.5 393,-98.5 227,-98.5"/>
<text text-anchor="start" x="235" y="-116.5" font-family="Helvetica,sans-Serif" font-size="10.00">com.example.renderer.factory.</text>
<text text-anchor="middle" x="310" y="-105.5" font-family="Helvetica,sans-Serif" font-size="10.00">Ellipse.getX</text>
</a>
</g>
</g>
<!-- Node1&#45;&gt;Node2 -->
<g id="edge1" class="edge">
<title>Node1&#45;&gt;Node2</title>
<path fill="none" stroke="midnightblue" d="M185.7,-85.07C201.72,-88.76 218.28,-92.58 233.86,-96.17"/>
<polygon fill="midnightblue" stroke="midnightblue" points="233.41,-99.66 243.94,-98.5 234.98,-92.84 233.41,-99.66"/>
</g>
<!-- Node3 -->
<g id="node3" class="node">
<title>Node3</title>
<g id="a_node3"><a xlink:href="$classcom_1_1example_1_1renderer_1_1factory_1_1Ellipse.html#a4d9e2941518bae18c76c125b5fcc8020" xlink:title="获取椭圆中心Y坐标">
<polygon fill="white" stroke="black" points="227,-49.5 227,-79.5 393,-79.5 393,-49.5 227,-49.5"/>
<text text-anchor="start" x="235" y="-67.5" font-family="Helvetica,sans-Serif" font-size="10.00">com.example.renderer.factory.</text>
<text text-anchor="middle" x="310" y="-56.5" font-family="Helvetica,sans-Serif" font-size="10.00">Ellipse.getY</text>
</a>
</g>
</g>
<!-- Node1&#45;&gt;Node3 -->
<g id="edge2" class="edge">
<title>Node1&#45;&gt;Node3</title>
<path fill="none" stroke="midnightblue" d="M191.25,-64.5C199.67,-64.5 208.19,-64.5 216.59,-64.5"/>
<polygon fill="midnightblue" stroke="midnightblue" points="216.76,-68 226.76,-64.5 216.76,-61 216.76,-68"/>
</g>
<!-- Node4 -->
<g id="node4" class="node">
<title>Node4</title>
<g id="a_node4"><a xlink:href="$classcom_1_1example_1_1renderer_1_1factory_1_1Ellipse.html#a808ff21c247338648adfca587956e352" xlink:title="移动椭圆的位置。">
<polygon fill="white" stroke="black" points="227,-0.5 227,-30.5 393,-30.5 393,-0.5 227,-0.5"/>
<text text-anchor="start" x="235" y="-18.5" font-family="Helvetica,sans-Serif" font-size="10.00">com.example.renderer.factory.</text>
<text text-anchor="middle" x="310" y="-7.5" font-family="Helvetica,sans-Serif" font-size="10.00">Ellipse.move</text>
</a>
</g>
</g>
<!-- Node1&#45;&gt;Node4 -->
<g id="edge3" class="edge">
<title>Node1&#45;&gt;Node4</title>
<path fill="none" stroke="midnightblue" d="M185.7,-43.93C201.72,-40.24 218.28,-36.42 233.86,-32.83"/>
<polygon fill="midnightblue" stroke="midnightblue" points="234.98,-36.16 243.94,-30.5 233.41,-29.34 234.98,-36.16"/>
</g>
</g>
</svg>
