<?xml version="1.0" encoding="UTF-8" standalone="no"?>
<!DOCTYPE svg PUBLIC "-//W3C//DTD SVG 1.1//EN"
 "http://www.w3.org/Graphics/SVG/1.1/DTD/svg11.dtd">
<!-- Generated by graphviz version 2.43.0 (0)
 -->
<!-- Title: com.example.renderer.singleton.PersistenceManagerTest.testLoadShapes_InvalidPath Pages: 1 -->
<svg width="475pt" height="88pt"
 viewBox="0.00 0.00 475.00 88.00" xmlns="http://www.w3.org/2000/svg" xmlns:xlink="http://www.w3.org/1999/xlink">
<g id="graph0" class="graph" transform="scale(1 1) rotate(0) translate(4 84)">
<title>com.example.renderer.singleton.PersistenceManagerTest.testLoadShapes_InvalidPath</title>
<polygon fill="white" stroke="transparent" points="-4,4 -4,-84 471,-84 471,4 -4,4"/>
<!-- Node1 -->
<g id="node1" class="node">
<title>Node1</title>
<g id="a_node1"><a xlink:title="testLoadShapes_InvalidPath &#45; 验证无效路径加载图形时抛出 IOException">
<polygon fill="#bfbfbf" stroke="black" points="0,-19 0,-60 215,-60 215,-19 0,-19"/>
<text text-anchor="start" x="8" y="-48" font-family="Helvetica,sans-Serif" font-size="10.00">com.example.renderer.singleton.</text>
<text text-anchor="start" x="8" y="-37" font-family="Helvetica,sans-Serif" font-size="10.00">PersistenceManagerTest.testLoadShapes</text>
<text text-anchor="middle" x="107.5" y="-26" font-family="Helvetica,sans-Serif" font-size="10.00">_InvalidPath</text>
</a>
</g>
</g>
<!-- Node2 -->
<g id="node2" class="node">
<title>Node2</title>
<g id="a_node2"><a xlink:href="$classcom_1_1example_1_1renderer_1_1singleton_1_1PersistenceManager.html#a229e6512b9ffae3cddc80a15e779e6e4" xlink:title="获取PersistenceManager单例实例">
<polygon fill="white" stroke="black" points="270,-49.5 270,-79.5 448,-79.5 448,-49.5 270,-49.5"/>
<text text-anchor="start" x="278" y="-67.5" font-family="Helvetica,sans-Serif" font-size="10.00">com.example.renderer.singleton.</text>
<text text-anchor="middle" x="359" y="-56.5" font-family="Helvetica,sans-Serif" font-size="10.00">PersistenceManager.getInstance</text>
</a>
</g>
</g>
<!-- Node1&#45;&gt;Node2 -->
<g id="edge1" class="edge">
<title>Node1&#45;&gt;Node2</title>
<path fill="none" stroke="midnightblue" d="M215.03,-50.17C229.88,-51.66 245.09,-53.19 259.78,-54.66"/>
<polygon fill="midnightblue" stroke="midnightblue" points="259.55,-58.15 269.85,-55.67 260.25,-51.19 259.55,-58.15"/>
</g>
<!-- Node3 -->
<g id="node3" class="node">
<title>Node3</title>
<g id="a_node3"><a xlink:href="$classcom_1_1example_1_1renderer_1_1singleton_1_1PersistenceManager.html#a2ba7f4135519949ef1b7516b5f17aade" xlink:title="从JSON文件加载图形列表">
<polygon fill="white" stroke="black" points="251,-0.5 251,-30.5 467,-30.5 467,-0.5 251,-0.5"/>
<text text-anchor="start" x="259" y="-18.5" font-family="Helvetica,sans-Serif" font-size="10.00">com.example.renderer.singleton.</text>
<text text-anchor="middle" x="359" y="-7.5" font-family="Helvetica,sans-Serif" font-size="10.00">PersistenceManager.loadShapesFromFile</text>
</a>
</g>
</g>
<!-- Node1&#45;&gt;Node3 -->
<g id="edge2" class="edge">
<title>Node1&#45;&gt;Node3</title>
<path fill="none" stroke="midnightblue" d="M215.03,-29.25C223.51,-28.44 232.09,-27.61 240.63,-26.79"/>
<polygon fill="midnightblue" stroke="midnightblue" points="241.01,-30.27 250.63,-25.83 240.34,-23.3 241.01,-30.27"/>
</g>
</g>
</svg>
