<?xml version="1.0" encoding="UTF-8" standalone="no"?>
<!DOCTYPE svg PUBLIC "-//W3C//DTD SVG 1.1//EN"
 "http://www.w3.org/Graphics/SVG/1.1/DTD/svg11.dtd">
<!-- Generated by graphviz version 2.43.0 (0)
 -->
<!-- Title: com.example.renderer.bridge.SwingRenderer.drawEllipse Pages: 1 -->
<svg width="397pt" height="50pt"
 viewBox="0.00 0.00 397.00 50.00" xmlns="http://www.w3.org/2000/svg" xmlns:xlink="http://www.w3.org/1999/xlink">
<g id="graph0" class="graph" transform="scale(1 1) rotate(0) translate(4 46)">
<title>com.example.renderer.bridge.SwingRenderer.drawEllipse</title>
<polygon fill="white" stroke="transparent" points="-4,4 -4,-46 393,-46 393,4 -4,4"/>
<!-- Node1 -->
<g id="node1" class="node">
<title>Node1</title>
<g id="a_node1"><a xlink:title="绘制椭圆">
<polygon fill="#bfbfbf" stroke="black" points="225,-6 225,-36 389,-36 389,-6 225,-6"/>
<text text-anchor="start" x="233" y="-24" font-family="Helvetica,sans-Serif" font-size="10.00">com.example.renderer.bridge.</text>
<text text-anchor="middle" x="307" y="-13" font-family="Helvetica,sans-Serif" font-size="10.00">SwingRenderer.drawEllipse</text>
</a>
</g>
</g>
<!-- Node2 -->
<g id="node2" class="node">
<title>Node2</title>
<g id="a_node2"><a xlink:href="$classcom_1_1example_1_1renderer_1_1bridge_1_1SwingRendererTest.html#af55f96d1828be6d2697b0d8f937f153f" xlink:title=" ">
<polygon fill="white" stroke="black" points="0,-0.5 0,-41.5 189,-41.5 189,-0.5 0,-0.5"/>
<text text-anchor="start" x="8" y="-29.5" font-family="Helvetica,sans-Serif" font-size="10.00">com.example.renderer.bridge.</text>
<text text-anchor="start" x="8" y="-18.5" font-family="Helvetica,sans-Serif" font-size="10.00">SwingRendererTest.testDrawEllipse</text>
<text text-anchor="middle" x="94.5" y="-7.5" font-family="Helvetica,sans-Serif" font-size="10.00">_DelegatesToGraphicsDrawOval</text>
</a>
</g>
</g>
<!-- Node1&#45;&gt;Node2 -->
<g id="edge1" class="edge">
<title>Node1&#45;&gt;Node2</title>
<path fill="none" stroke="midnightblue" d="M214.68,-21C206.23,-21 197.65,-21 189.18,-21"/>
<polygon fill="midnightblue" stroke="midnightblue" points="214.92,-24.5 224.92,-21 214.92,-17.5 214.92,-24.5"/>
</g>
</g>
</svg>
