<?xml version="1.0" encoding="UTF-8" standalone="no"?>
<!DOCTYPE svg PUBLIC "-//W3C//DTD SVG 1.1//EN"
 "http://www.w3.org/Graphics/SVG/1.1/DTD/svg11.dtd">
<!-- Generated by graphviz version 2.43.0 (0)
 -->
<!-- Title: com.example.renderer.factory.Ellipse.getY Pages: 1 -->
<svg width="636pt" height="198pt"
 viewBox="0.00 0.00 636.00 198.00" xmlns="http://www.w3.org/2000/svg" xmlns:xlink="http://www.w3.org/1999/xlink">
<g id="graph0" class="graph" transform="scale(1 1) rotate(0) translate(4 194)">
<title>com.example.renderer.factory.Ellipse.getY</title>
<polygon fill="white" stroke="transparent" points="-4,4 -4,-194 632,-194 632,4 -4,4"/>
<!-- Node1 -->
<g id="node1" class="node">
<title>Node1</title>
<g id="a_node1"><a xlink:title="获取椭圆中心Y坐标">
<polygon fill="#bfbfbf" stroke="black" points="462,-76.5 462,-106.5 628,-106.5 628,-76.5 462,-76.5"/>
<text text-anchor="start" x="470" y="-94.5" font-family="Helvetica,sans-Serif" font-size="10.00">com.example.renderer.factory.</text>
<text text-anchor="middle" x="545" y="-83.5" font-family="Helvetica,sans-Serif" font-size="10.00">Ellipse.getY</text>
</a>
</g>
</g>
<!-- Node2 -->
<g id="node2" class="node">
<title>Node2</title>
<g id="a_node2"><a xlink:href="$classcom_1_1example_1_1renderer_1_1factory_1_1EllipseTest.html#a4f34eb166666f1a011fa8d4fa4c2aac2" xlink:title=" ">
<polygon fill="white" stroke="black" points="247.5,-159.5 247.5,-189.5 413.5,-189.5 413.5,-159.5 247.5,-159.5"/>
<text text-anchor="start" x="255.5" y="-177.5" font-family="Helvetica,sans-Serif" font-size="10.00">com.example.renderer.factory.</text>
<text text-anchor="middle" x="330.5" y="-166.5" font-family="Helvetica,sans-Serif" font-size="10.00">EllipseTest.testMove</text>
</a>
</g>
</g>
<!-- Node1&#45;&gt;Node2 -->
<g id="edge1" class="edge">
<title>Node1&#45;&gt;Node2</title>
<path fill="none" stroke="midnightblue" d="M508,-111.52C485.05,-123.69 454.38,-138.89 426,-149.5 416.22,-153.15 405.69,-156.5 395.33,-159.46"/>
<polygon fill="midnightblue" stroke="midnightblue" points="509.87,-114.49 517.03,-106.68 506.56,-108.32 509.87,-114.49"/>
</g>
<!-- Node3 -->
<g id="node3" class="node">
<title>Node3</title>
<g id="a_node3"><a xlink:href="$classcom_1_1example_1_1renderer_1_1factory_1_1EllipseTest.html#adfada185a6c2750c0f74076bc42f7c63" xlink:title=" ">
<polygon fill="white" stroke="black" points="235,-99 235,-140 426,-140 426,-99 235,-99"/>
<text text-anchor="start" x="243" y="-128" font-family="Helvetica,sans-Serif" font-size="10.00">com.example.renderer.factory.</text>
<text text-anchor="start" x="243" y="-117" font-family="Helvetica,sans-Serif" font-size="10.00">EllipseTest.testMove_FromNegative</text>
<text text-anchor="middle" x="330.5" y="-106" font-family="Helvetica,sans-Serif" font-size="10.00">ToPositive</text>
</a>
</g>
</g>
<!-- Node1&#45;&gt;Node3 -->
<g id="edge2" class="edge">
<title>Node1&#45;&gt;Node3</title>
<path fill="none" stroke="midnightblue" d="M451.9,-103.64C443.38,-104.76 434.73,-105.9 426.18,-107.02"/>
<polygon fill="midnightblue" stroke="midnightblue" points="452.38,-107.1 461.84,-102.33 451.47,-100.16 452.38,-107.1"/>
</g>
<!-- Node4 -->
<g id="node4" class="node">
<title>Node4</title>
<g id="a_node4"><a xlink:href="$classcom_1_1example_1_1renderer_1_1factory_1_1EllipseTest.html#a56b8a9bf435a25cb80f51d85ab3fecbf" xlink:title=" ">
<polygon fill="white" stroke="black" points="241,-49.5 241,-79.5 420,-79.5 420,-49.5 241,-49.5"/>
<text text-anchor="start" x="249" y="-67.5" font-family="Helvetica,sans-Serif" font-size="10.00">com.example.renderer.factory.</text>
<text text-anchor="middle" x="330.5" y="-56.5" font-family="Helvetica,sans-Serif" font-size="10.00">EllipseTest.testMove_ToBoundary</text>
</a>
</g>
</g>
<!-- Node1&#45;&gt;Node4 -->
<g id="edge3" class="edge">
<title>Node1&#45;&gt;Node4</title>
<path fill="none" stroke="midnightblue" d="M451.83,-79.79C441.31,-78.45 430.61,-77.09 420.13,-75.76"/>
<polygon fill="midnightblue" stroke="midnightblue" points="451.48,-83.27 461.84,-81.06 452.36,-76.33 451.48,-83.27"/>
</g>
<!-- Node5 -->
<g id="node5" class="node">
<title>Node5</title>
<g id="a_node5"><a xlink:href="$classcom_1_1example_1_1renderer_1_1visitor_1_1JSONExportVisitor.html#abf62cbdace84ab865289b64afae67bc1" xlink:title="将椭圆对象转换为JSON格式输出">
<polygon fill="white" stroke="black" points="249,-0.5 249,-30.5 412,-30.5 412,-0.5 249,-0.5"/>
<text text-anchor="start" x="257" y="-18.5" font-family="Helvetica,sans-Serif" font-size="10.00">com.example.renderer.visitor.</text>
<text text-anchor="middle" x="330.5" y="-7.5" font-family="Helvetica,sans-Serif" font-size="10.00">JSONExportVisitor.visitEllipse</text>
</a>
</g>
</g>
<!-- Node1&#45;&gt;Node5 -->
<g id="edge4" class="edge">
<title>Node1&#45;&gt;Node5</title>
<path fill="none" stroke="midnightblue" d="M503.23,-72.09C480.77,-61.85 452.2,-49.57 426,-40.5 415.66,-36.92 404.53,-33.56 393.66,-30.53"/>
<polygon fill="midnightblue" stroke="midnightblue" points="501.91,-75.33 512.46,-76.33 504.84,-68.97 501.91,-75.33"/>
</g>
<!-- Node6 -->
<g id="node6" class="node">
<title>Node6</title>
<g id="a_node6"><a xlink:href="$classcom_1_1example_1_1renderer_1_1visitor_1_1JSONExportVisitorTest.html#abcdc717259698b439769891f603cc79d" xlink:title=" ">
<polygon fill="white" stroke="black" points="0,-0.5 0,-30.5 199,-30.5 199,-0.5 0,-0.5"/>
<text text-anchor="start" x="8" y="-18.5" font-family="Helvetica,sans-Serif" font-size="10.00">com.example.renderer.visitor.</text>
<text text-anchor="middle" x="99.5" y="-7.5" font-family="Helvetica,sans-Serif" font-size="10.00">JSONExportVisitorTest.testVisitEllipse</text>
</a>
</g>
</g>
<!-- Node5&#45;&gt;Node6 -->
<g id="edge5" class="edge">
<title>Node5&#45;&gt;Node6</title>
<path fill="none" stroke="midnightblue" d="M238.54,-15.5C225.67,-15.5 212.39,-15.5 199.38,-15.5"/>
<polygon fill="midnightblue" stroke="midnightblue" points="238.76,-19 248.76,-15.5 238.76,-12 238.76,-19"/>
</g>
</g>
</svg>
