<?xml version="1.0" encoding="UTF-8" standalone="no"?>
<!DOCTYPE svg PUBLIC "-//W3C//DTD SVG 1.1//EN"
 "http://www.w3.org/Graphics/SVG/1.1/DTD/svg11.dtd">
<!-- Generated by graphviz version 2.43.0 (0)
 -->
<!-- Title: com.example.renderer.command.AddShapeCommandTest.testUndoRemovesShape Pages: 1 -->
<svg width="484pt" height="88pt"
 viewBox="0.00 0.00 484.00 88.00" xmlns="http://www.w3.org/2000/svg" xmlns:xlink="http://www.w3.org/1999/xlink">
<g id="graph0" class="graph" transform="scale(1 1) rotate(0) translate(4 84)">
<title>com.example.renderer.command.AddShapeCommandTest.testUndoRemovesShape</title>
<polygon fill="white" stroke="transparent" points="-4,4 -4,-84 480,-84 480,4 -4,4"/>
<!-- Node1 -->
<g id="node1" class="node">
<title>Node1</title>
<g id="a_node1"><a xlink:title=" ">
<polygon fill="#bfbfbf" stroke="black" points="0,-24.5 0,-54.5 258,-54.5 258,-24.5 0,-24.5"/>
<text text-anchor="start" x="8" y="-42.5" font-family="Helvetica,sans-Serif" font-size="10.00">com.example.renderer.command.</text>
<text text-anchor="middle" x="129" y="-31.5" font-family="Helvetica,sans-Serif" font-size="10.00">AddShapeCommandTest.testUndoRemovesShape</text>
</a>
</g>
</g>
<!-- Node2 -->
<g id="node2" class="node">
<title>Node2</title>
<g id="a_node2"><a xlink:href="$classcom_1_1example_1_1renderer_1_1command_1_1AddShapeCommand.html#ade460d9dcda0787b3d6bdc866e9827d6" xlink:title="Executes the command operation.">
<polygon fill="white" stroke="black" points="294,-49.5 294,-79.5 476,-79.5 476,-49.5 294,-49.5"/>
<text text-anchor="start" x="302" y="-67.5" font-family="Helvetica,sans-Serif" font-size="10.00">com.example.renderer.command.</text>
<text text-anchor="middle" x="385" y="-56.5" font-family="Helvetica,sans-Serif" font-size="10.00">AddShapeCommand.execute</text>
</a>
</g>
</g>
<!-- Node1&#45;&gt;Node2 -->
<g id="edge1" class="edge">
<title>Node1&#45;&gt;Node2</title>
<path fill="none" stroke="midnightblue" d="M258.12,-52.11C266.71,-52.96 275.29,-53.8 283.71,-54.63"/>
<polygon fill="midnightblue" stroke="midnightblue" points="283.59,-58.13 293.89,-55.63 284.28,-51.17 283.59,-58.13"/>
</g>
<!-- Node3 -->
<g id="node3" class="node">
<title>Node3</title>
<g id="a_node3"><a xlink:href="$classcom_1_1example_1_1renderer_1_1command_1_1AddShapeCommand.html#a1e91071abffa2eb38cef121f39610714" xlink:title="Undoes the command operation.">
<polygon fill="white" stroke="black" points="294,-0.5 294,-30.5 476,-30.5 476,-0.5 294,-0.5"/>
<text text-anchor="start" x="302" y="-18.5" font-family="Helvetica,sans-Serif" font-size="10.00">com.example.renderer.command.</text>
<text text-anchor="middle" x="385" y="-7.5" font-family="Helvetica,sans-Serif" font-size="10.00">AddShapeCommand.undo</text>
</a>
</g>
</g>
<!-- Node1&#45;&gt;Node3 -->
<g id="edge2" class="edge">
<title>Node1&#45;&gt;Node3</title>
<path fill="none" stroke="midnightblue" d="M258.12,-27.39C266.71,-26.58 275.29,-25.77 283.71,-24.98"/>
<polygon fill="midnightblue" stroke="midnightblue" points="284.26,-28.44 293.89,-24.01 283.6,-21.47 284.26,-28.44"/>
</g>
</g>
</svg>
