<?xml version="1.0" encoding="UTF-8" standalone="no"?>
<!DOCTYPE svg PUBLIC "-//W3C//DTD SVG 1.1//EN"
 "http://www.w3.org/Graphics/SVG/1.1/DTD/svg11.dtd">
<!-- Generated by graphviz version 2.43.0 (0)
 -->
<!-- Title: com.example.renderer.config.GlobalConfig.getInstance Pages: 1 -->
<svg width="413pt" height="88pt"
 viewBox="0.00 0.00 413.00 88.00" xmlns="http://www.w3.org/2000/svg" xmlns:xlink="http://www.w3.org/1999/xlink">
<g id="graph0" class="graph" transform="scale(1 1) rotate(0) translate(4 84)">
<title>com.example.renderer.config.GlobalConfig.getInstance</title>
<polygon fill="white" stroke="transparent" points="-4,4 -4,-84 409,-84 409,4 -4,4"/>
<!-- Node1 -->
<g id="node1" class="node">
<title>Node1</title>
<g id="a_node1"><a xlink:title=" ">
<polygon fill="#bfbfbf" stroke="black" points="243,-24.5 243,-54.5 405,-54.5 405,-24.5 243,-24.5"/>
<text text-anchor="start" x="251" y="-42.5" font-family="Helvetica,sans-Serif" font-size="10.00">com.example.renderer.config.</text>
<text text-anchor="middle" x="324" y="-31.5" font-family="Helvetica,sans-Serif" font-size="10.00">GlobalConfig.getInstance</text>
</a>
</g>
</g>
<!-- Node2 -->
<g id="node2" class="node">
<title>Node2</title>
<g id="a_node2"><a xlink:href="$classcom_1_1example_1_1renderer_1_1config_1_1GlobalConfigTest.html#a11a598fd14bc13be782e243dbe850647" xlink:title=" ">
<polygon fill="white" stroke="black" points="12.5,-49.5 12.5,-79.5 194.5,-79.5 194.5,-49.5 12.5,-49.5"/>
<text text-anchor="start" x="20.5" y="-67.5" font-family="Helvetica,sans-Serif" font-size="10.00">com.example.renderer.config.</text>
<text text-anchor="middle" x="103.5" y="-56.5" font-family="Helvetica,sans-Serif" font-size="10.00">GlobalConfigTest.testRenderMode</text>
</a>
</g>
</g>
<!-- Node1&#45;&gt;Node2 -->
<g id="edge1" class="edge">
<title>Node1&#45;&gt;Node2</title>
<path fill="none" stroke="midnightblue" d="M232.83,-49.82C220.2,-51.26 207.21,-52.75 194.58,-54.19"/>
<polygon fill="midnightblue" stroke="midnightblue" points="233.34,-53.28 242.88,-48.67 232.55,-46.33 233.34,-53.28"/>
</g>
<!-- Node3 -->
<g id="node3" class="node">
<title>Node3</title>
<g id="a_node3"><a xlink:href="$classcom_1_1example_1_1renderer_1_1config_1_1GlobalConfigTest.html#ac66c6285a605748b3ad54bed7dcb2e53" xlink:title=" ">
<polygon fill="white" stroke="black" points="0,-0.5 0,-30.5 207,-30.5 207,-0.5 0,-0.5"/>
<text text-anchor="start" x="8" y="-18.5" font-family="Helvetica,sans-Serif" font-size="10.00">com.example.renderer.config.</text>
<text text-anchor="middle" x="103.5" y="-7.5" font-family="Helvetica,sans-Serif" font-size="10.00">GlobalConfigTest.testSingletonInstance</text>
</a>
</g>
</g>
<!-- Node1&#45;&gt;Node3 -->
<g id="edge2" class="edge">
<title>Node1&#45;&gt;Node3</title>
<path fill="none" stroke="midnightblue" d="M232.74,-29.59C224.36,-28.66 215.82,-27.73 207.33,-26.79"/>
<polygon fill="midnightblue" stroke="midnightblue" points="232.56,-33.09 242.88,-30.7 233.32,-26.13 232.56,-33.09"/>
</g>
</g>
</svg>
