<?xml version="1.0" encoding="UTF-8" standalone="no"?>
<!DOCTYPE svg PUBLIC "-//W3C//DTD SVG 1.1//EN"
 "http://www.w3.org/Graphics/SVG/1.1/DTD/svg11.dtd">
<!-- Generated by graphviz version 2.43.0 (0)
 -->
<!-- Title: com.example.renderer.bridge.SwingRendererTest.testDrawEllipse_DelegatesToGraphicsDrawOval Pages: 1 -->
<svg width="397pt" height="50pt"
 viewBox="0.00 0.00 397.00 50.00" xmlns="http://www.w3.org/2000/svg" xmlns:xlink="http://www.w3.org/1999/xlink">
<g id="graph0" class="graph" transform="scale(1 1) rotate(0) translate(4 46)">
<title>com.example.renderer.bridge.SwingRendererTest.testDrawEllipse_DelegatesToGraphicsDrawOval</title>
<polygon fill="white" stroke="transparent" points="-4,4 -4,-46 393,-46 393,4 -4,4"/>
<!-- Node1 -->
<g id="node1" class="node">
<title>Node1</title>
<g id="a_node1"><a xlink:title=" ">
<polygon fill="#bfbfbf" stroke="black" points="0,-0.5 0,-41.5 189,-41.5 189,-0.5 0,-0.5"/>
<text text-anchor="start" x="8" y="-29.5" font-family="Helvetica,sans-Serif" font-size="10.00">com.example.renderer.bridge.</text>
<text text-anchor="start" x="8" y="-18.5" font-family="Helvetica,sans-Serif" font-size="10.00">SwingRendererTest.testDrawEllipse</text>
<text text-anchor="middle" x="94.5" y="-7.5" font-family="Helvetica,sans-Serif" font-size="10.00">_DelegatesToGraphicsDrawOval</text>
</a>
</g>
</g>
<!-- Node2 -->
<g id="node2" class="node">
<title>Node2</title>
<g id="a_node2"><a xlink:href="$classcom_1_1example_1_1renderer_1_1bridge_1_1SwingRenderer.html#a87ca2b5f00e776b5589f1e7ba09e81b6" xlink:title="绘制椭圆">
<polygon fill="white" stroke="black" points="225,-6 225,-36 389,-36 389,-6 225,-6"/>
<text text-anchor="start" x="233" y="-24" font-family="Helvetica,sans-Serif" font-size="10.00">com.example.renderer.bridge.</text>
<text text-anchor="middle" x="307" y="-13" font-family="Helvetica,sans-Serif" font-size="10.00">SwingRenderer.drawEllipse</text>
</a>
</g>
</g>
<!-- Node1&#45;&gt;Node2 -->
<g id="edge1" class="edge">
<title>Node1&#45;&gt;Node2</title>
<path fill="none" stroke="midnightblue" d="M189.05,-21C197.56,-21 206.18,-21 214.66,-21"/>
<polygon fill="midnightblue" stroke="midnightblue" points="214.94,-24.5 224.94,-21 214.94,-17.5 214.94,-24.5"/>
</g>
</g>
</svg>
