<?xml version="1.0" encoding="UTF-8" standalone="no"?>
<!DOCTYPE svg PUBLIC "-//W3C//DTD SVG 1.1//EN"
 "http://www.w3.org/Graphics/SVG/1.1/DTD/svg11.dtd">
<!-- Generated by graphviz version 2.43.0 (0)
 -->
<!-- Title: com.example.renderer.visitor.JSONExportVisitor.visitCircle Pages: 1 -->
<svg width="401pt" height="39pt"
 viewBox="0.00 0.00 401.00 39.00" xmlns="http://www.w3.org/2000/svg" xmlns:xlink="http://www.w3.org/1999/xlink">
<g id="graph0" class="graph" transform="scale(1 1) rotate(0) translate(4 35)">
<title>com.example.renderer.visitor.JSONExportVisitor.visitCircle</title>
<polygon fill="white" stroke="transparent" points="-4,4 -4,-35 397,-35 397,4 -4,4"/>
<!-- Node1 -->
<g id="node1" class="node">
<title>Node1</title>
<g id="a_node1"><a xlink:title="将圆形对象转换为JSON格式输出 格式: {&quot;type&quot;:&quot;circle&quot;, &quot;x&quot;:x, &quot;y&quot;:y, &quot;r&quot;:radius}">
<polygon fill="#bfbfbf" stroke="black" points="230,-0.5 230,-30.5 393,-30.5 393,-0.5 230,-0.5"/>
<text text-anchor="start" x="238" y="-18.5" font-family="Helvetica,sans-Serif" font-size="10.00">com.example.renderer.visitor.</text>
<text text-anchor="middle" x="311.5" y="-7.5" font-family="Helvetica,sans-Serif" font-size="10.00">JSONExportVisitor.visitCircle</text>
</a>
</g>
</g>
<!-- Node2 -->
<g id="node2" class="node">
<title>Node2</title>
<g id="a_node2"><a xlink:href="$classcom_1_1example_1_1renderer_1_1visitor_1_1JSONExportVisitorTest.html#a38f4d5f545cd31fa486d91d535a4fd9c" xlink:title="测试圆形对象的JSON导出功能。">
<polygon fill="white" stroke="black" points="0,-0.5 0,-30.5 194,-30.5 194,-0.5 0,-0.5"/>
<text text-anchor="start" x="8" y="-18.5" font-family="Helvetica,sans-Serif" font-size="10.00">com.example.renderer.visitor.</text>
<text text-anchor="middle" x="97" y="-7.5" font-family="Helvetica,sans-Serif" font-size="10.00">JSONExportVisitorTest.testVisitCircle</text>
</a>
</g>
</g>
<!-- Node1&#45;&gt;Node2 -->
<g id="edge1" class="edge">
<title>Node1&#45;&gt;Node2</title>
<path fill="none" stroke="midnightblue" d="M219.69,-15.5C211.28,-15.5 202.74,-15.5 194.29,-15.5"/>
<polygon fill="midnightblue" stroke="midnightblue" points="219.86,-19 229.86,-15.5 219.86,-12 219.86,-19"/>
</g>
</g>
</svg>
