<?xml version="1.0" encoding="UTF-8" standalone="no"?>
<!DOCTYPE svg PUBLIC "-//W3C//DTD SVG 1.1//EN"
 "http://www.w3.org/Graphics/SVG/1.1/DTD/svg11.dtd">
<!-- Generated by graphviz version 2.43.0 (0)
 -->
<!-- Title: com.example.renderer.factory.EllipseTest.testAcceptVisitor Pages: 1 -->
<svg width="575pt" height="39pt"
 viewBox="0.00 0.00 575.00 39.00" xmlns="http://www.w3.org/2000/svg" xmlns:xlink="http://www.w3.org/1999/xlink">
<g id="graph0" class="graph" transform="scale(1 1) rotate(0) translate(4 35)">
<title>com.example.renderer.factory.EllipseTest.testAcceptVisitor</title>
<polygon fill="white" stroke="transparent" points="-4,4 -4,-35 571,-35 571,4 -4,4"/>
<!-- Node1 -->
<g id="node1" class="node">
<title>Node1</title>
<g id="a_node1"><a xlink:title="测试椭圆对象接受访问者的功能。">
<polygon fill="#bfbfbf" stroke="black" points="0,-0.5 0,-30.5 166,-30.5 166,-0.5 0,-0.5"/>
<text text-anchor="start" x="8" y="-18.5" font-family="Helvetica,sans-Serif" font-size="10.00">com.example.renderer.factory.</text>
<text text-anchor="middle" x="83" y="-7.5" font-family="Helvetica,sans-Serif" font-size="10.00">EllipseTest.testAcceptVisitor</text>
</a>
</g>
</g>
<!-- Node2 -->
<g id="node2" class="node">
<title>Node2</title>
<g id="a_node2"><a xlink:href="$classcom_1_1example_1_1renderer_1_1factory_1_1Ellipse.html#af348e21237e4722426307b8caaee20e2" xlink:title="接受访问者访问此椭圆对象">
<polygon fill="white" stroke="black" points="202,-0.5 202,-30.5 368,-30.5 368,-0.5 202,-0.5"/>
<text text-anchor="start" x="210" y="-18.5" font-family="Helvetica,sans-Serif" font-size="10.00">com.example.renderer.factory.</text>
<text text-anchor="middle" x="285" y="-7.5" font-family="Helvetica,sans-Serif" font-size="10.00">Ellipse.accept</text>
</a>
</g>
</g>
<!-- Node1&#45;&gt;Node2 -->
<g id="edge1" class="edge">
<title>Node1&#45;&gt;Node2</title>
<path fill="none" stroke="midnightblue" d="M166.21,-15.5C174.56,-15.5 183.08,-15.5 191.53,-15.5"/>
<polygon fill="midnightblue" stroke="midnightblue" points="191.78,-19 201.78,-15.5 191.78,-12 191.78,-19"/>
</g>
<!-- Node3 -->
<g id="node3" class="node">
<title>Node3</title>
<g id="a_node3"><a xlink:href="$interfacecom_1_1example_1_1renderer_1_1visitor_1_1ExportVisitor.html#ad4bac612895ffa57a95f30d98447e6d1" xlink:title=" ">
<polygon fill="white" stroke="black" points="404,-0.5 404,-30.5 567,-30.5 567,-0.5 404,-0.5"/>
<text text-anchor="start" x="412" y="-18.5" font-family="Helvetica,sans-Serif" font-size="10.00">com.example.renderer.visitor.</text>
<text text-anchor="middle" x="485.5" y="-7.5" font-family="Helvetica,sans-Serif" font-size="10.00">ExportVisitor.visitEllipse</text>
</a>
</g>
</g>
<!-- Node2&#45;&gt;Node3 -->
<g id="edge2" class="edge">
<title>Node2&#45;&gt;Node3</title>
<path fill="none" stroke="midnightblue" d="M368.17,-15.5C376.68,-15.5 385.36,-15.5 393.96,-15.5"/>
<polygon fill="midnightblue" stroke="midnightblue" points="393.99,-19 403.99,-15.5 393.99,-12 393.99,-19"/>
</g>
</g>
</svg>
