<?xml version="1.0" encoding="UTF-8" standalone="no"?>
<!DOCTYPE svg PUBLIC "-//W3C//DTD SVG 1.1//EN"
 "http://www.w3.org/Graphics/SVG/1.1/DTD/svg11.dtd">
<!-- Generated by graphviz version 2.43.0 (0)
 -->
<!-- Title: com.example.renderer.factory.Triangle.getX2 Pages: 1 -->
<svg width="653pt" height="198pt"
 viewBox="0.00 0.00 653.00 198.00" xmlns="http://www.w3.org/2000/svg" xmlns:xlink="http://www.w3.org/1999/xlink">
<g id="graph0" class="graph" transform="scale(1 1) rotate(0) translate(4 194)">
<title>com.example.renderer.factory.Triangle.getX2</title>
<polygon fill="white" stroke="transparent" points="-4,4 -4,-194 649,-194 649,4 -4,4"/>
<!-- Node1 -->
<g id="node1" class="node">
<title>Node1</title>
<g id="a_node1"><a xlink:title=" ">
<polygon fill="#bfbfbf" stroke="black" points="479,-82.5 479,-112.5 645,-112.5 645,-82.5 479,-82.5"/>
<text text-anchor="start" x="487" y="-100.5" font-family="Helvetica,sans-Serif" font-size="10.00">com.example.renderer.factory.</text>
<text text-anchor="middle" x="562" y="-89.5" font-family="Helvetica,sans-Serif" font-size="10.00">Triangle.getX2</text>
</a>
</g>
</g>
<!-- Node2 -->
<g id="node2" class="node">
<title>Node2</title>
<g id="a_node2"><a xlink:href="$classcom_1_1example_1_1renderer_1_1factory_1_1TriangleTest.html#a89427b111574a3a44ae82a6b10c61ad4" xlink:title=" ">
<polygon fill="white" stroke="black" points="259,-159.5 259,-189.5 425,-189.5 425,-159.5 259,-159.5"/>
<text text-anchor="start" x="267" y="-177.5" font-family="Helvetica,sans-Serif" font-size="10.00">com.example.renderer.factory.</text>
<text text-anchor="middle" x="342" y="-166.5" font-family="Helvetica,sans-Serif" font-size="10.00">TriangleTest.testMove</text>
</a>
</g>
</g>
<!-- Node1&#45;&gt;Node2 -->
<g id="edge1" class="edge">
<title>Node1&#45;&gt;Node2</title>
<path fill="none" stroke="midnightblue" d="M522.27,-117.1C499.59,-128.02 470.15,-141.23 443,-150.5 433.37,-153.79 423.07,-156.8 412.88,-159.5"/>
<polygon fill="midnightblue" stroke="midnightblue" points="524.09,-120.11 531.55,-112.58 521.03,-113.81 524.09,-120.11"/>
</g>
<!-- Node3 -->
<g id="node3" class="node">
<title>Node3</title>
<g id="a_node3"><a xlink:href="$classcom_1_1example_1_1renderer_1_1factory_1_1TriangleTest.html#ad87bdc8449fa5a004f8a450b77b1809c" xlink:title=" ">
<polygon fill="white" stroke="black" points="241,-110.5 241,-140.5 443,-140.5 443,-110.5 241,-110.5"/>
<text text-anchor="start" x="249" y="-128.5" font-family="Helvetica,sans-Serif" font-size="10.00">com.example.renderer.factory.</text>
<text text-anchor="middle" x="342" y="-117.5" font-family="Helvetica,sans-Serif" font-size="10.00">TriangleTest.testMove_ExtremeValues</text>
</a>
</g>
</g>
<!-- Node1&#45;&gt;Node3 -->
<g id="edge2" class="edge">
<title>Node1&#45;&gt;Node3</title>
<path fill="none" stroke="midnightblue" d="M468.92,-109.33C460.36,-110.43 451.66,-111.54 443.03,-112.65"/>
<polygon fill="midnightblue" stroke="midnightblue" points="469.42,-112.79 478.89,-108.05 468.53,-105.85 469.42,-112.79"/>
</g>
<!-- Node4 -->
<g id="node4" class="node">
<title>Node4</title>
<g id="a_node4"><a xlink:href="$classcom_1_1example_1_1renderer_1_1factory_1_1TriangleTest.html#afbe750c8f3a67d339490df69cda211e0" xlink:title=" ">
<polygon fill="white" stroke="black" points="241,-50 241,-91 443,-91 443,-50 241,-50"/>
<text text-anchor="start" x="249" y="-79" font-family="Helvetica,sans-Serif" font-size="10.00">com.example.renderer.factory.</text>
<text text-anchor="start" x="249" y="-68" font-family="Helvetica,sans-Serif" font-size="10.00">TriangleTest.testMove_ExtremeValues</text>
<text text-anchor="middle" x="342" y="-57" font-family="Helvetica,sans-Serif" font-size="10.00">WithOverflow</text>
</a>
</g>
</g>
<!-- Node1&#45;&gt;Node4 -->
<g id="edge3" class="edge">
<title>Node1&#45;&gt;Node4</title>
<path fill="none" stroke="midnightblue" d="M468.92,-86.1C460.36,-85.04 451.66,-83.96 443.03,-82.89"/>
<polygon fill="midnightblue" stroke="midnightblue" points="468.54,-89.58 478.89,-87.33 469.4,-82.63 468.54,-89.58"/>
</g>
<!-- Node5 -->
<g id="node5" class="node">
<title>Node5</title>
<g id="a_node5"><a xlink:href="$classcom_1_1example_1_1renderer_1_1visitor_1_1JSONExportVisitor.html#a09a6928b6de2c8c1fa4f6f059d50f89a" xlink:title="将三角形对象转换为JSON格式输出">
<polygon fill="white" stroke="black" points="259.5,-0.5 259.5,-30.5 424.5,-30.5 424.5,-0.5 259.5,-0.5"/>
<text text-anchor="start" x="267.5" y="-18.5" font-family="Helvetica,sans-Serif" font-size="10.00">com.example.renderer.visitor.</text>
<text text-anchor="middle" x="342" y="-7.5" font-family="Helvetica,sans-Serif" font-size="10.00">JSONExportVisitor.visitTriangle</text>
</a>
</g>
</g>
<!-- Node1&#45;&gt;Node5 -->
<g id="edge4" class="edge">
<title>Node1&#45;&gt;Node5</title>
<path fill="none" stroke="midnightblue" d="M524.55,-77.49C501.65,-65.52 471.2,-50.71 443,-40.5 432.82,-36.81 421.87,-33.47 411.07,-30.52"/>
<polygon fill="midnightblue" stroke="midnightblue" points="523.09,-80.67 533.56,-82.25 526.36,-74.48 523.09,-80.67"/>
</g>
<!-- Node6 -->
<g id="node6" class="node">
<title>Node6</title>
<g id="a_node6"><a xlink:href="$classcom_1_1example_1_1renderer_1_1visitor_1_1JSONExportVisitorTest.html#a21f5e9936ca8fa236a6b0c40b35270df" xlink:title=" ">
<polygon fill="white" stroke="black" points="0,-0.5 0,-30.5 205,-30.5 205,-0.5 0,-0.5"/>
<text text-anchor="start" x="8" y="-18.5" font-family="Helvetica,sans-Serif" font-size="10.00">com.example.renderer.visitor.</text>
<text text-anchor="middle" x="102.5" y="-7.5" font-family="Helvetica,sans-Serif" font-size="10.00">JSONExportVisitorTest.testVisitTriangle</text>
</a>
</g>
</g>
<!-- Node5&#45;&gt;Node6 -->
<g id="edge5" class="edge">
<title>Node5&#45;&gt;Node6</title>
<path fill="none" stroke="midnightblue" d="M248.92,-15.5C234.57,-15.5 219.66,-15.5 205.11,-15.5"/>
<polygon fill="midnightblue" stroke="midnightblue" points="249.27,-19 259.27,-15.5 249.27,-12 249.27,-19"/>
</g>
</g>
</svg>
