<?xml version="1.0" encoding="UTF-8" standalone="no"?>
<!DOCTYPE svg PUBLIC "-//W3C//DTD SVG 1.1//EN"
 "http://www.w3.org/Graphics/SVG/1.1/DTD/svg11.dtd">
<!-- Generated by graphviz version 2.43.0 (0)
 -->
<!-- Title: com.example.renderer.factory.CircleTest.testRender_AfterScaling Pages: 1 -->
<svg width="594pt" height="39pt"
 viewBox="0.00 0.00 594.00 39.00" xmlns="http://www.w3.org/2000/svg" xmlns:xlink="http://www.w3.org/1999/xlink">
<g id="graph0" class="graph" transform="scale(1 1) rotate(0) translate(4 35)">
<title>com.example.renderer.factory.CircleTest.testRender_AfterScaling</title>
<polygon fill="white" stroke="transparent" points="-4,4 -4,-35 590,-35 590,4 -4,4"/>
<!-- Node1 -->
<g id="node1" class="node">
<title>Node1</title>
<g id="a_node1"><a xlink:title=" ">
<polygon fill="#bfbfbf" stroke="black" points="0,-0.5 0,-30.5 184,-30.5 184,-0.5 0,-0.5"/>
<text text-anchor="start" x="8" y="-18.5" font-family="Helvetica,sans-Serif" font-size="10.00">com.example.renderer.factory.</text>
<text text-anchor="middle" x="92" y="-7.5" font-family="Helvetica,sans-Serif" font-size="10.00">CircleTest.testRender_AfterScaling</text>
</a>
</g>
</g>
<!-- Node2 -->
<g id="node2" class="node">
<title>Node2</title>
<g id="a_node2"><a xlink:href="$classcom_1_1example_1_1renderer_1_1factory_1_1Circle.html#ac32a767950b0417badcb3b445052cc8a" xlink:title="使用指定的渲染器绘制图形。 具体绘制逻辑由实现类决定，渲染器参数提供实际的绘制能力。">
<polygon fill="white" stroke="black" points="220,-0.5 220,-30.5 386,-30.5 386,-0.5 220,-0.5"/>
<text text-anchor="start" x="228" y="-18.5" font-family="Helvetica,sans-Serif" font-size="10.00">com.example.renderer.factory.</text>
<text text-anchor="middle" x="303" y="-7.5" font-family="Helvetica,sans-Serif" font-size="10.00">Circle.render</text>
</a>
</g>
</g>
<!-- Node1&#45;&gt;Node2 -->
<g id="edge1" class="edge">
<title>Node1&#45;&gt;Node2</title>
<path fill="none" stroke="midnightblue" d="M184.06,-15.5C192.51,-15.5 201.07,-15.5 209.53,-15.5"/>
<polygon fill="midnightblue" stroke="midnightblue" points="209.78,-19 219.78,-15.5 209.78,-12 209.78,-19"/>
</g>
<!-- Node3 -->
<g id="node3" class="node">
<title>Node3</title>
<g id="a_node3"><a xlink:href="$interfacecom_1_1example_1_1renderer_1_1bridge_1_1Renderer.html#a9878c979d01dbfe7d4b9cd38a869a735" xlink:title="绘制圆形">
<polygon fill="white" stroke="black" points="422,-0.5 422,-30.5 586,-30.5 586,-0.5 422,-0.5"/>
<text text-anchor="start" x="430" y="-18.5" font-family="Helvetica,sans-Serif" font-size="10.00">com.example.renderer.bridge.</text>
<text text-anchor="middle" x="504" y="-7.5" font-family="Helvetica,sans-Serif" font-size="10.00">Renderer.drawCircle</text>
</a>
</g>
</g>
<!-- Node2&#45;&gt;Node3 -->
<g id="edge2" class="edge">
<title>Node2&#45;&gt;Node3</title>
<path fill="none" stroke="midnightblue" d="M386.09,-15.5C394.46,-15.5 403.01,-15.5 411.47,-15.5"/>
<polygon fill="midnightblue" stroke="midnightblue" points="411.74,-19 421.74,-15.5 411.74,-12 411.74,-19"/>
</g>
</g>
</svg>
