<?xml version="1.0" encoding="UTF-8" standalone="no"?>
<!DOCTYPE svg PUBLIC "-//W3C//DTD SVG 1.1//EN"
 "http://www.w3.org/Graphics/SVG/1.1/DTD/svg11.dtd">
<!-- Generated by graphviz version 2.43.0 (0)
 -->
<!-- Title: com.example.renderer.factory.Triangle.getY1 Pages: 1 -->
<svg width="653pt" height="258pt"
 viewBox="0.00 0.00 653.00 258.00" xmlns="http://www.w3.org/2000/svg" xmlns:xlink="http://www.w3.org/1999/xlink">
<g id="graph0" class="graph" transform="scale(1 1) rotate(0) translate(4 254)">
<title>com.example.renderer.factory.Triangle.getY1</title>
<polygon fill="white" stroke="transparent" points="-4,4 -4,-254 649,-254 649,4 -4,4"/>
<!-- Node1 -->
<g id="node1" class="node">
<title>Node1</title>
<g id="a_node1"><a xlink:title=" ">
<polygon fill="#bfbfbf" stroke="black" points="479,-115.5 479,-145.5 645,-145.5 645,-115.5 479,-115.5"/>
<text text-anchor="start" x="487" y="-133.5" font-family="Helvetica,sans-Serif" font-size="10.00">com.example.renderer.factory.</text>
<text text-anchor="middle" x="562" y="-122.5" font-family="Helvetica,sans-Serif" font-size="10.00">Triangle.getY1</text>
</a>
</g>
</g>
<!-- Node2 -->
<g id="node2" class="node">
<title>Node2</title>
<g id="a_node2"><a xlink:href="$classcom_1_1example_1_1renderer_1_1factory_1_1TriangleTest.html#a89427b111574a3a44ae82a6b10c61ad4" xlink:title=" ">
<polygon fill="white" stroke="black" points="259,-219.5 259,-249.5 425,-249.5 425,-219.5 259,-219.5"/>
<text text-anchor="start" x="267" y="-237.5" font-family="Helvetica,sans-Serif" font-size="10.00">com.example.renderer.factory.</text>
<text text-anchor="middle" x="342" y="-226.5" font-family="Helvetica,sans-Serif" font-size="10.00">TriangleTest.testMove</text>
</a>
</g>
</g>
<!-- Node1&#45;&gt;Node2 -->
<g id="edge1" class="edge">
<title>Node1&#45;&gt;Node2</title>
<path fill="none" stroke="midnightblue" d="M535.17,-152.07C512.29,-170.15 477.28,-195.37 443,-210.5 435.24,-213.92 426.92,-216.9 418.51,-219.49"/>
<polygon fill="midnightblue" stroke="midnightblue" points="537.42,-154.76 543.03,-145.77 533.04,-149.3 537.42,-154.76"/>
</g>
<!-- Node3 -->
<g id="node3" class="node">
<title>Node3</title>
<g id="a_node3"><a xlink:href="$classcom_1_1example_1_1renderer_1_1factory_1_1TriangleTest.html#ad87bdc8449fa5a004f8a450b77b1809c" xlink:title=" ">
<polygon fill="white" stroke="black" points="241,-170.5 241,-200.5 443,-200.5 443,-170.5 241,-170.5"/>
<text text-anchor="start" x="249" y="-188.5" font-family="Helvetica,sans-Serif" font-size="10.00">com.example.renderer.factory.</text>
<text text-anchor="middle" x="342" y="-177.5" font-family="Helvetica,sans-Serif" font-size="10.00">TriangleTest.testMove_ExtremeValues</text>
</a>
</g>
</g>
<!-- Node1&#45;&gt;Node3 -->
<g id="edge2" class="edge">
<title>Node1&#45;&gt;Node3</title>
<path fill="none" stroke="midnightblue" d="M492.28,-148.02C476.12,-152.13 458.96,-156.48 443,-160.5 430.16,-163.74 416.39,-167.19 403.29,-170.47"/>
<polygon fill="midnightblue" stroke="midnightblue" points="493.36,-151.36 502.19,-145.5 491.64,-144.57 493.36,-151.36"/>
</g>
<!-- Node4 -->
<g id="node4" class="node">
<title>Node4</title>
<g id="a_node4"><a xlink:href="$classcom_1_1example_1_1renderer_1_1factory_1_1TriangleTest.html#afbe750c8f3a67d339490df69cda211e0" xlink:title=" ">
<polygon fill="white" stroke="black" points="241,-110 241,-151 443,-151 443,-110 241,-110"/>
<text text-anchor="start" x="249" y="-139" font-family="Helvetica,sans-Serif" font-size="10.00">com.example.renderer.factory.</text>
<text text-anchor="start" x="249" y="-128" font-family="Helvetica,sans-Serif" font-size="10.00">TriangleTest.testMove_ExtremeValues</text>
<text text-anchor="middle" x="342" y="-117" font-family="Helvetica,sans-Serif" font-size="10.00">WithOverflow</text>
</a>
</g>
</g>
<!-- Node1&#45;&gt;Node4 -->
<g id="edge3" class="edge">
<title>Node1&#45;&gt;Node4</title>
<path fill="none" stroke="midnightblue" d="M468.65,-130.5C460.18,-130.5 451.57,-130.5 443.03,-130.5"/>
<polygon fill="midnightblue" stroke="midnightblue" points="468.89,-134 478.89,-130.5 468.89,-127 468.89,-134"/>
</g>
<!-- Node5 -->
<g id="node5" class="node">
<title>Node5</title>
<g id="a_node5"><a xlink:href="$classcom_1_1example_1_1renderer_1_1factory_1_1TriangleTest.html#a405536b1f909a8cf220f38e7a88373ed" xlink:title=" ">
<polygon fill="white" stroke="black" points="247.5,-50 247.5,-91 436.5,-91 436.5,-50 247.5,-50"/>
<text text-anchor="start" x="255.5" y="-79" font-family="Helvetica,sans-Serif" font-size="10.00">com.example.renderer.factory.</text>
<text text-anchor="start" x="255.5" y="-68" font-family="Helvetica,sans-Serif" font-size="10.00">TriangleTest.testMove_PartialPoints</text>
<text text-anchor="middle" x="342" y="-57" font-family="Helvetica,sans-Serif" font-size="10.00">ToBoundary</text>
</a>
</g>
</g>
<!-- Node1&#45;&gt;Node5 -->
<g id="edge4" class="edge">
<title>Node1&#45;&gt;Node5</title>
<path fill="none" stroke="midnightblue" d="M496.6,-112.77C471.78,-105.94 443.23,-98.08 417.52,-91.01"/>
<polygon fill="midnightblue" stroke="midnightblue" points="495.7,-116.16 506.27,-115.44 497.56,-109.41 495.7,-116.16"/>
</g>
<!-- Node6 -->
<g id="node6" class="node">
<title>Node6</title>
<g id="a_node6"><a xlink:href="$classcom_1_1example_1_1renderer_1_1visitor_1_1JSONExportVisitor.html#a09a6928b6de2c8c1fa4f6f059d50f89a" xlink:title="将三角形对象转换为JSON格式输出">
<polygon fill="white" stroke="black" points="259.5,-0.5 259.5,-30.5 424.5,-30.5 424.5,-0.5 259.5,-0.5"/>
<text text-anchor="start" x="267.5" y="-18.5" font-family="Helvetica,sans-Serif" font-size="10.00">com.example.renderer.visitor.</text>
<text text-anchor="middle" x="342" y="-7.5" font-family="Helvetica,sans-Serif" font-size="10.00">JSONExportVisitor.visitTriangle</text>
</a>
</g>
</g>
<!-- Node1&#45;&gt;Node6 -->
<g id="edge5" class="edge">
<title>Node1&#45;&gt;Node6</title>
<path fill="none" stroke="midnightblue" d="M538.25,-108.57C515.78,-88.08 479.56,-58.08 443,-40.5 435.02,-36.66 426.38,-33.37 417.65,-30.56"/>
<polygon fill="midnightblue" stroke="midnightblue" points="535.89,-111.15 545.6,-115.38 540.65,-106.02 535.89,-111.15"/>
</g>
<!-- Node7 -->
<g id="node7" class="node">
<title>Node7</title>
<g id="a_node7"><a xlink:href="$classcom_1_1example_1_1renderer_1_1visitor_1_1JSONExportVisitorTest.html#a21f5e9936ca8fa236a6b0c40b35270df" xlink:title=" ">
<polygon fill="white" stroke="black" points="0,-0.5 0,-30.5 205,-30.5 205,-0.5 0,-0.5"/>
<text text-anchor="start" x="8" y="-18.5" font-family="Helvetica,sans-Serif" font-size="10.00">com.example.renderer.visitor.</text>
<text text-anchor="middle" x="102.5" y="-7.5" font-family="Helvetica,sans-Serif" font-size="10.00">JSONExportVisitorTest.testVisitTriangle</text>
</a>
</g>
</g>
<!-- Node6&#45;&gt;Node7 -->
<g id="edge6" class="edge">
<title>Node6&#45;&gt;Node7</title>
<path fill="none" stroke="midnightblue" d="M248.92,-15.5C234.57,-15.5 219.66,-15.5 205.11,-15.5"/>
<polygon fill="midnightblue" stroke="midnightblue" points="249.27,-19 259.27,-15.5 249.27,-12 249.27,-19"/>
</g>
</g>
</svg>
