<?xml version="1.0" encoding="UTF-8" standalone="no"?>
<!DOCTYPE svg PUBLIC "-//W3C//DTD SVG 1.1//EN"
 "http://www.w3.org/Graphics/SVG/1.1/DTD/svg11.dtd">
<!-- Generated by graphviz version 2.43.0 (0)
 -->
<!-- Title: com.example.renderer.factory.CircleTest.testMove_CrossZero Pages: 1 -->
<svg width="377pt" height="137pt"
 viewBox="0.00 0.00 377.00 137.00" xmlns="http://www.w3.org/2000/svg" xmlns:xlink="http://www.w3.org/1999/xlink">
<g id="graph0" class="graph" transform="scale(1 1) rotate(0) translate(4 133)">
<title>com.example.renderer.factory.CircleTest.testMove_CrossZero</title>
<polygon fill="white" stroke="transparent" points="-4,4 -4,-133 373,-133 373,4 -4,4"/>
<!-- Node1 -->
<g id="node1" class="node">
<title>Node1</title>
<g id="a_node1"><a xlink:title=" ">
<polygon fill="#bfbfbf" stroke="black" points="0,-49.5 0,-79.5 167,-79.5 167,-49.5 0,-49.5"/>
<text text-anchor="start" x="8" y="-67.5" font-family="Helvetica,sans-Serif" font-size="10.00">com.example.renderer.factory.</text>
<text text-anchor="middle" x="83.5" y="-56.5" font-family="Helvetica,sans-Serif" font-size="10.00">CircleTest.testMove_CrossZero</text>
</a>
</g>
</g>
<!-- Node2 -->
<g id="node2" class="node">
<title>Node2</title>
<g id="a_node2"><a xlink:href="$classcom_1_1example_1_1renderer_1_1factory_1_1Circle.html#a5d9565191f8b24714037adaafb0145f2" xlink:title="获取圆心x坐标">
<polygon fill="white" stroke="black" points="203,-98.5 203,-128.5 369,-128.5 369,-98.5 203,-98.5"/>
<text text-anchor="start" x="211" y="-116.5" font-family="Helvetica,sans-Serif" font-size="10.00">com.example.renderer.factory.</text>
<text text-anchor="middle" x="286" y="-105.5" font-family="Helvetica,sans-Serif" font-size="10.00">Circle.getX</text>
</a>
</g>
</g>
<!-- Node1&#45;&gt;Node2 -->
<g id="edge1" class="edge">
<title>Node1&#45;&gt;Node2</title>
<path fill="none" stroke="midnightblue" d="M146.02,-79.53C167.38,-84.76 191.52,-90.65 213.61,-96.05"/>
<polygon fill="midnightblue" stroke="midnightblue" points="213.05,-99.52 223.6,-98.49 214.71,-92.72 213.05,-99.52"/>
</g>
<!-- Node3 -->
<g id="node3" class="node">
<title>Node3</title>
<g id="a_node3"><a xlink:href="$classcom_1_1example_1_1renderer_1_1factory_1_1Circle.html#adbf586a9c1761dce695dce96c7539a18" xlink:title="获取圆心y坐标">
<polygon fill="white" stroke="black" points="203,-49.5 203,-79.5 369,-79.5 369,-49.5 203,-49.5"/>
<text text-anchor="start" x="211" y="-67.5" font-family="Helvetica,sans-Serif" font-size="10.00">com.example.renderer.factory.</text>
<text text-anchor="middle" x="286" y="-56.5" font-family="Helvetica,sans-Serif" font-size="10.00">Circle.getY</text>
</a>
</g>
</g>
<!-- Node1&#45;&gt;Node3 -->
<g id="edge2" class="edge">
<title>Node1&#45;&gt;Node3</title>
<path fill="none" stroke="midnightblue" d="M167.21,-64.5C175.57,-64.5 184.09,-64.5 192.55,-64.5"/>
<polygon fill="midnightblue" stroke="midnightblue" points="192.8,-68 202.8,-64.5 192.8,-61 192.8,-68"/>
</g>
<!-- Node4 -->
<g id="node4" class="node">
<title>Node4</title>
<g id="a_node4"><a xlink:href="$classcom_1_1example_1_1renderer_1_1factory_1_1Circle.html#a7dc56b196866cc4d444f59585902442c" xlink:title="移动图形的位置。 根据给定的偏移量调整图形的坐标位置，正数表示向右/下移动，负数表示向左/上移动。">
<polygon fill="white" stroke="black" points="203,-0.5 203,-30.5 369,-30.5 369,-0.5 203,-0.5"/>
<text text-anchor="start" x="211" y="-18.5" font-family="Helvetica,sans-Serif" font-size="10.00">com.example.renderer.factory.</text>
<text text-anchor="middle" x="286" y="-7.5" font-family="Helvetica,sans-Serif" font-size="10.00">Circle.move</text>
</a>
</g>
</g>
<!-- Node1&#45;&gt;Node4 -->
<g id="edge3" class="edge">
<title>Node1&#45;&gt;Node4</title>
<path fill="none" stroke="midnightblue" d="M146.02,-49.47C167.38,-44.24 191.52,-38.35 213.61,-32.95"/>
<polygon fill="midnightblue" stroke="midnightblue" points="214.71,-36.28 223.6,-30.51 213.05,-29.48 214.71,-36.28"/>
</g>
</g>
</svg>
