<?xml version="1.0" encoding="UTF-8" standalone="no"?>
<!DOCTYPE svg PUBLIC "-//W3C//DTD SVG 1.1//EN"
 "http://www.w3.org/Graphics/SVG/1.1/DTD/svg11.dtd">
<!-- Generated by graphviz version 2.43.0 (0)
 -->
<!-- Title: com.example.renderer.proxy.RemoteRendererProxyTest.testProxy_ExtremeCoordinates Pages: 1 -->
<svg width="641pt" height="88pt"
 viewBox="0.00 0.00 641.00 88.00" xmlns="http://www.w3.org/2000/svg" xmlns:xlink="http://www.w3.org/1999/xlink">
<g id="graph0" class="graph" transform="scale(1 1) rotate(0) translate(4 84)">
<title>com.example.renderer.proxy.RemoteRendererProxyTest.testProxy_ExtremeCoordinates</title>
<polygon fill="white" stroke="transparent" points="-4,4 -4,-84 637,-84 637,4 -4,4"/>
<!-- Node1 -->
<g id="node1" class="node">
<title>Node1</title>
<g id="a_node1"><a xlink:title=" ">
<polygon fill="#bfbfbf" stroke="black" points="0,-19 0,-60 196,-60 196,-19 0,-19"/>
<text text-anchor="start" x="8" y="-48" font-family="Helvetica,sans-Serif" font-size="10.00">com.example.renderer.proxy.</text>
<text text-anchor="start" x="8" y="-37" font-family="Helvetica,sans-Serif" font-size="10.00">RemoteRendererProxyTest.testProxy</text>
<text text-anchor="middle" x="98" y="-26" font-family="Helvetica,sans-Serif" font-size="10.00">_ExtremeCoordinates</text>
</a>
</g>
</g>
<!-- Node2 -->
<g id="node2" class="node">
<title>Node2</title>
<g id="a_node2"><a xlink:href="$classcom_1_1example_1_1renderer_1_1proxy_1_1RemoteRendererProxy.html#a023bafacacf0b539929be9570863a4a5" xlink:title="代理绘制圆形操作，添加远程调用日志。">
<polygon fill="white" stroke="black" points="242.5,-49.5 242.5,-79.5 422.5,-79.5 422.5,-49.5 242.5,-49.5"/>
<text text-anchor="start" x="250.5" y="-67.5" font-family="Helvetica,sans-Serif" font-size="10.00">com.example.renderer.proxy.</text>
<text text-anchor="middle" x="332.5" y="-56.5" font-family="Helvetica,sans-Serif" font-size="10.00">RemoteRendererProxy.drawCircle</text>
</a>
</g>
</g>
<!-- Node1&#45;&gt;Node2 -->
<g id="edge1" class="edge">
<title>Node1&#45;&gt;Node2</title>
<path fill="none" stroke="midnightblue" d="M196.25,-49.96C208.21,-51.24 220.44,-52.56 232.43,-53.85"/>
<polygon fill="midnightblue" stroke="midnightblue" points="232.11,-57.33 242.42,-54.92 232.86,-50.37 232.11,-57.33"/>
</g>
<!-- Node4 -->
<g id="node4" class="node">
<title>Node4</title>
<g id="a_node4"><a xlink:href="$classcom_1_1example_1_1renderer_1_1proxy_1_1RemoteRendererProxy.html#a230d74acbb60e51bc56724f50459d6bd" xlink:title="绘制矩形">
<polygon fill="white" stroke="black" points="232,-0.5 232,-30.5 433,-30.5 433,-0.5 232,-0.5"/>
<text text-anchor="start" x="240" y="-18.5" font-family="Helvetica,sans-Serif" font-size="10.00">com.example.renderer.proxy.</text>
<text text-anchor="middle" x="332.5" y="-7.5" font-family="Helvetica,sans-Serif" font-size="10.00">RemoteRendererProxy.drawRectangle</text>
</a>
</g>
</g>
<!-- Node1&#45;&gt;Node4 -->
<g id="edge3" class="edge">
<title>Node1&#45;&gt;Node4</title>
<path fill="none" stroke="midnightblue" d="M196.25,-29.46C204.57,-28.6 213.02,-27.73 221.42,-26.86"/>
<polygon fill="midnightblue" stroke="midnightblue" points="222.06,-30.32 231.64,-25.81 221.34,-23.35 222.06,-30.32"/>
</g>
<!-- Node3 -->
<g id="node3" class="node">
<title>Node3</title>
<g id="a_node3"><a xlink:href="$interfacecom_1_1example_1_1renderer_1_1bridge_1_1Renderer.html#a9878c979d01dbfe7d4b9cd38a869a735" xlink:title="绘制圆形">
<polygon fill="white" stroke="black" points="469,-49.5 469,-79.5 633,-79.5 633,-49.5 469,-49.5"/>
<text text-anchor="start" x="477" y="-67.5" font-family="Helvetica,sans-Serif" font-size="10.00">com.example.renderer.bridge.</text>
<text text-anchor="middle" x="551" y="-56.5" font-family="Helvetica,sans-Serif" font-size="10.00">Renderer.drawCircle</text>
</a>
</g>
</g>
<!-- Node2&#45;&gt;Node3 -->
<g id="edge2" class="edge">
<title>Node2&#45;&gt;Node3</title>
<path fill="none" stroke="midnightblue" d="M422.81,-64.5C434.61,-64.5 446.72,-64.5 458.56,-64.5"/>
<polygon fill="midnightblue" stroke="midnightblue" points="458.88,-68 468.88,-64.5 458.88,-61 458.88,-68"/>
</g>
<!-- Node5 -->
<g id="node5" class="node">
<title>Node5</title>
<g id="a_node5"><a xlink:href="$interfacecom_1_1example_1_1renderer_1_1bridge_1_1Renderer.html#a544db73ca5c1778c124d3ee53b99b4b6" xlink:title="绘制矩形">
<polygon fill="white" stroke="black" points="469,-0.5 469,-30.5 633,-30.5 633,-0.5 469,-0.5"/>
<text text-anchor="start" x="477" y="-18.5" font-family="Helvetica,sans-Serif" font-size="10.00">com.example.renderer.bridge.</text>
<text text-anchor="middle" x="551" y="-7.5" font-family="Helvetica,sans-Serif" font-size="10.00">Renderer.drawRectangle</text>
</a>
</g>
</g>
<!-- Node4&#45;&gt;Node5 -->
<g id="edge4" class="edge">
<title>Node4&#45;&gt;Node5</title>
<path fill="none" stroke="midnightblue" d="M433.2,-15.5C441.72,-15.5 450.31,-15.5 458.76,-15.5"/>
<polygon fill="midnightblue" stroke="midnightblue" points="458.98,-19 468.98,-15.5 458.98,-12 458.98,-19"/>
</g>
</g>
</svg>
