<?xml version="1.0" encoding="UTF-8" standalone="no"?>
<!DOCTYPE svg PUBLIC "-//W3C//DTD SVG 1.1//EN"
 "http://www.w3.org/Graphics/SVG/1.1/DTD/svg11.dtd">
<!-- Generated by graphviz version 2.43.0 (0)
 -->
<!-- Title: com.example.renderer.factory.TriangleTest.testMove_ExtremeValuesWithOverflow Pages: 1 -->
<svg width="412pt" height="235pt"
 viewBox="0.00 0.00 412.00 235.00" xmlns="http://www.w3.org/2000/svg" xmlns:xlink="http://www.w3.org/1999/xlink">
<g id="graph0" class="graph" transform="scale(1 1) rotate(0) translate(4 231)">
<title>com.example.renderer.factory.TriangleTest.testMove_ExtremeValuesWithOverflow</title>
<polygon fill="white" stroke="transparent" points="-4,4 -4,-231 408,-231 408,4 -4,4"/>
<!-- Node1 -->
<g id="node1" class="node">
<title>Node1</title>
<g id="a_node1"><a xlink:title=" ">
<polygon fill="#bfbfbf" stroke="black" points="0,-93 0,-134 202,-134 202,-93 0,-93"/>
<text text-anchor="start" x="8" y="-122" font-family="Helvetica,sans-Serif" font-size="10.00">com.example.renderer.factory.</text>
<text text-anchor="start" x="8" y="-111" font-family="Helvetica,sans-Serif" font-size="10.00">TriangleTest.testMove_ExtremeValues</text>
<text text-anchor="middle" x="101" y="-100" font-family="Helvetica,sans-Serif" font-size="10.00">WithOverflow</text>
</a>
</g>
</g>
<!-- Node2 -->
<g id="node2" class="node">
<title>Node2</title>
<g id="a_node2"><a xlink:href="$classcom_1_1example_1_1renderer_1_1factory_1_1Triangle.html#aa5ec64f9827fba203174d5e91185e6f2" xlink:title=" ">
<polygon fill="white" stroke="black" points="238,-196.5 238,-226.5 404,-226.5 404,-196.5 238,-196.5"/>
<text text-anchor="start" x="246" y="-214.5" font-family="Helvetica,sans-Serif" font-size="10.00">com.example.renderer.factory.</text>
<text text-anchor="middle" x="321" y="-203.5" font-family="Helvetica,sans-Serif" font-size="10.00">Triangle.getX1</text>
</a>
</g>
</g>
<!-- Node1&#45;&gt;Node2 -->
<g id="edge1" class="edge">
<title>Node1&#45;&gt;Node2</title>
<path fill="none" stroke="midnightblue" d="M135.11,-134.12C162.05,-150.26 201.48,-172.42 238,-187.5 242.76,-189.47 247.74,-191.34 252.79,-193.11"/>
<polygon fill="midnightblue" stroke="midnightblue" points="251.96,-196.52 262.55,-196.39 254.19,-189.89 251.96,-196.52"/>
</g>
<!-- Node3 -->
<g id="node3" class="node">
<title>Node3</title>
<g id="a_node3"><a xlink:href="$classcom_1_1example_1_1renderer_1_1factory_1_1Triangle.html#abba5462908667c70efa65edc2b0e17bc" xlink:title=" ">
<polygon fill="white" stroke="black" points="238,-147.5 238,-177.5 404,-177.5 404,-147.5 238,-147.5"/>
<text text-anchor="start" x="246" y="-165.5" font-family="Helvetica,sans-Serif" font-size="10.00">com.example.renderer.factory.</text>
<text text-anchor="middle" x="321" y="-154.5" font-family="Helvetica,sans-Serif" font-size="10.00">Triangle.getX2</text>
</a>
</g>
</g>
<!-- Node1&#45;&gt;Node3 -->
<g id="edge2" class="edge">
<title>Node1&#45;&gt;Node3</title>
<path fill="none" stroke="midnightblue" d="M193.5,-134.07C210.1,-137.8 227.25,-141.65 243.37,-145.28"/>
<polygon fill="midnightblue" stroke="midnightblue" points="242.73,-148.72 253.25,-147.5 244.26,-141.89 242.73,-148.72"/>
</g>
<!-- Node4 -->
<g id="node4" class="node">
<title>Node4</title>
<g id="a_node4"><a xlink:href="$classcom_1_1example_1_1renderer_1_1factory_1_1Triangle.html#af9319090f2c5c5fd18826cae05b094a4" xlink:title=" ">
<polygon fill="white" stroke="black" points="238,-98.5 238,-128.5 404,-128.5 404,-98.5 238,-98.5"/>
<text text-anchor="start" x="246" y="-116.5" font-family="Helvetica,sans-Serif" font-size="10.00">com.example.renderer.factory.</text>
<text text-anchor="middle" x="321" y="-105.5" font-family="Helvetica,sans-Serif" font-size="10.00">Triangle.getY1</text>
</a>
</g>
</g>
<!-- Node1&#45;&gt;Node4 -->
<g id="edge3" class="edge">
<title>Node1&#45;&gt;Node4</title>
<path fill="none" stroke="midnightblue" d="M202.07,-113.5C210.58,-113.5 219.17,-113.5 227.62,-113.5"/>
<polygon fill="midnightblue" stroke="midnightblue" points="227.85,-117 237.85,-113.5 227.85,-110 227.85,-117"/>
</g>
<!-- Node5 -->
<g id="node5" class="node">
<title>Node5</title>
<g id="a_node5"><a xlink:href="$classcom_1_1example_1_1renderer_1_1factory_1_1Triangle.html#a1ab1af5be6782c56d16de7cf9cecf0dc" xlink:title=" ">
<polygon fill="white" stroke="black" points="238,-49.5 238,-79.5 404,-79.5 404,-49.5 238,-49.5"/>
<text text-anchor="start" x="246" y="-67.5" font-family="Helvetica,sans-Serif" font-size="10.00">com.example.renderer.factory.</text>
<text text-anchor="middle" x="321" y="-56.5" font-family="Helvetica,sans-Serif" font-size="10.00">Triangle.getY2</text>
</a>
</g>
</g>
<!-- Node1&#45;&gt;Node5 -->
<g id="edge4" class="edge">
<title>Node1&#45;&gt;Node5</title>
<path fill="none" stroke="midnightblue" d="M193.5,-92.93C210.1,-89.2 227.25,-85.35 243.37,-81.72"/>
<polygon fill="midnightblue" stroke="midnightblue" points="244.26,-85.11 253.25,-79.5 242.73,-78.28 244.26,-85.11"/>
</g>
<!-- Node6 -->
<g id="node6" class="node">
<title>Node6</title>
<g id="a_node6"><a xlink:href="$classcom_1_1example_1_1renderer_1_1factory_1_1Triangle.html#a0aa53deb7dccf8acd100a53a76d414d0" xlink:title="移动图形的位置。 根据给定的偏移量调整图形的坐标位置，正数表示向右/下移动，负数表示向左/上移动。">
<polygon fill="white" stroke="black" points="238,-0.5 238,-30.5 404,-30.5 404,-0.5 238,-0.5"/>
<text text-anchor="start" x="246" y="-18.5" font-family="Helvetica,sans-Serif" font-size="10.00">com.example.renderer.factory.</text>
<text text-anchor="middle" x="321" y="-7.5" font-family="Helvetica,sans-Serif" font-size="10.00">Triangle.move</text>
</a>
</g>
</g>
<!-- Node1&#45;&gt;Node6 -->
<g id="edge5" class="edge">
<title>Node1&#45;&gt;Node6</title>
<path fill="none" stroke="midnightblue" d="M135.74,-92.97C162.72,-77.16 201.88,-55.53 238,-40.5 243.68,-38.14 249.67,-35.88 255.71,-33.77"/>
<polygon fill="midnightblue" stroke="midnightblue" points="256.86,-37.07 265.22,-30.56 254.62,-30.44 256.86,-37.07"/>
</g>
</g>
</svg>
