<?xml version="1.0" encoding="UTF-8" standalone="no"?>
<!DOCTYPE svg PUBLIC "-//W3C//DTD SVG 1.1//EN"
 "http://www.w3.org/Graphics/SVG/1.1/DTD/svg11.dtd">
<!-- Generated by graphviz version 2.43.0 (0)
 -->
<!-- Title: com.example.renderer.factory.Triangle.render Pages: 1 -->
<svg width="446pt" height="379pt"
 viewBox="0.00 0.00 446.00 379.00" xmlns="http://www.w3.org/2000/svg" xmlns:xlink="http://www.w3.org/1999/xlink">
<g id="graph0" class="graph" transform="scale(1 1) rotate(0) translate(4 375)">
<title>com.example.renderer.factory.Triangle.render</title>
<polygon fill="white" stroke="transparent" points="-4,4 -4,-375 442,-375 442,4 -4,4"/>
<!-- Node1 -->
<g id="node1" class="node">
<title>Node1</title>
<g id="a_node1"><a xlink:title="使用指定的渲染器绘制图形。 具体绘制逻辑由实现类决定，渲染器参数提供实际的绘制能力。">
<polygon fill="#bfbfbf" stroke="black" points="272,-165.5 272,-195.5 438,-195.5 438,-165.5 272,-165.5"/>
<text text-anchor="start" x="280" y="-183.5" font-family="Helvetica,sans-Serif" font-size="10.00">com.example.renderer.factory.</text>
<text text-anchor="middle" x="355" y="-172.5" font-family="Helvetica,sans-Serif" font-size="10.00">Triangle.render</text>
</a>
</g>
</g>
<!-- Node2 -->
<g id="node2" class="node">
<title>Node2</title>
<g id="a_node2"><a xlink:href="$classcom_1_1example_1_1renderer_1_1factory_1_1TriangleTest.html#adbaedb013458248eeac9b70929fb4fc6" xlink:title=" ">
<polygon fill="white" stroke="black" points="16,-340.5 16,-370.5 220,-370.5 220,-340.5 16,-340.5"/>
<text text-anchor="start" x="24" y="-358.5" font-family="Helvetica,sans-Serif" font-size="10.00">com.example.renderer.factory.</text>
<text text-anchor="middle" x="118" y="-347.5" font-family="Helvetica,sans-Serif" font-size="10.00">TriangleTest.testCreate_AllPointsSame</text>
</a>
</g>
</g>
<!-- Node1&#45;&gt;Node2 -->
<g id="edge1" class="edge">
<title>Node1&#45;&gt;Node2</title>
<path fill="none" stroke="midnightblue" d="M341.87,-204.88C323.71,-238.71 286.16,-299.23 236,-330.5 229.74,-334.4 222.97,-337.7 215.95,-340.49"/>
<polygon fill="midnightblue" stroke="midnightblue" points="345.14,-206.18 346.67,-195.7 338.94,-202.93 345.14,-206.18"/>
</g>
<!-- Node3 -->
<g id="node3" class="node">
<title>Node3</title>
<g id="a_node3"><a xlink:href="$classcom_1_1example_1_1renderer_1_1factory_1_1TriangleTest.html#a208e4db0769b85c70eacdf7b13605fb8" xlink:title=" ">
<polygon fill="white" stroke="black" points="31,-280 31,-321 205,-321 205,-280 31,-280"/>
<text text-anchor="start" x="39" y="-309" font-family="Helvetica,sans-Serif" font-size="10.00">com.example.renderer.factory.</text>
<text text-anchor="start" x="39" y="-298" font-family="Helvetica,sans-Serif" font-size="10.00">TriangleTest.testCreate_Colinear</text>
<text text-anchor="middle" x="118" y="-287" font-family="Helvetica,sans-Serif" font-size="10.00">Points</text>
</a>
</g>
</g>
<!-- Node1&#45;&gt;Node3 -->
<g id="edge2" class="edge">
<title>Node1&#45;&gt;Node3</title>
<path fill="none" stroke="midnightblue" d="M331.23,-202.38C308.74,-222.84 272.5,-252.81 236,-270.5 226.28,-275.21 215.74,-279.24 205.1,-282.67"/>
<polygon fill="midnightblue" stroke="midnightblue" points="333.62,-204.94 338.59,-195.58 328.87,-199.8 333.62,-204.94"/>
</g>
<!-- Node4 -->
<g id="node4" class="node">
<title>Node4</title>
<g id="a_node4"><a xlink:href="$classcom_1_1example_1_1renderer_1_1factory_1_1TriangleTest.html#a84f20240b6dc10a5f133c171b948bba4" xlink:title=" ">
<polygon fill="white" stroke="black" points="22.5,-220 22.5,-261 213.5,-261 213.5,-220 22.5,-220"/>
<text text-anchor="start" x="30.5" y="-249" font-family="Helvetica,sans-Serif" font-size="10.00">com.example.renderer.factory.</text>
<text text-anchor="start" x="30.5" y="-238" font-family="Helvetica,sans-Serif" font-size="10.00">TriangleTest.testCreate_Degenerate</text>
<text text-anchor="middle" x="118" y="-227" font-family="Helvetica,sans-Serif" font-size="10.00">Triangle</text>
</a>
</g>
</g>
<!-- Node1&#45;&gt;Node4 -->
<g id="edge3" class="edge">
<title>Node1&#45;&gt;Node4</title>
<path fill="none" stroke="midnightblue" d="M285.29,-198.04C258.36,-204.92 227.29,-212.85 199.34,-219.99"/>
<polygon fill="midnightblue" stroke="midnightblue" points="286.18,-201.43 295,-195.56 284.45,-194.65 286.18,-201.43"/>
</g>
<!-- Node5 -->
<g id="node5" class="node">
<title>Node5</title>
<g id="a_node5"><a xlink:href="$classcom_1_1example_1_1renderer_1_1factory_1_1TriangleTest.html#ac0a24ecfe9573890cc1344bf2a419ac3" xlink:title=" ">
<polygon fill="white" stroke="black" points="24.5,-160 24.5,-201 211.5,-201 211.5,-160 24.5,-160"/>
<text text-anchor="start" x="32.5" y="-189" font-family="Helvetica,sans-Serif" font-size="10.00">com.example.renderer.factory.</text>
<text text-anchor="start" x="32.5" y="-178" font-family="Helvetica,sans-Serif" font-size="10.00">TriangleTest.testCreate_RightAngle</text>
<text text-anchor="middle" x="118" y="-167" font-family="Helvetica,sans-Serif" font-size="10.00">Triangle</text>
</a>
</g>
</g>
<!-- Node1&#45;&gt;Node5 -->
<g id="edge4" class="edge">
<title>Node1&#45;&gt;Node5</title>
<path fill="none" stroke="midnightblue" d="M261.66,-180.5C245.2,-180.5 228.05,-180.5 211.59,-180.5"/>
<polygon fill="midnightblue" stroke="midnightblue" points="261.81,-184 271.81,-180.5 261.81,-177 261.81,-184"/>
</g>
<!-- Node6 -->
<g id="node6" class="node">
<title>Node6</title>
<g id="a_node6"><a xlink:href="$classcom_1_1example_1_1renderer_1_1factory_1_1TriangleTest.html#a824f4b3a890ebe7d42c00a5c892223c3" xlink:title="测试三角形渲染功能。">
<polygon fill="white" stroke="black" points="35,-110.5 35,-140.5 201,-140.5 201,-110.5 35,-110.5"/>
<text text-anchor="start" x="43" y="-128.5" font-family="Helvetica,sans-Serif" font-size="10.00">com.example.renderer.factory.</text>
<text text-anchor="middle" x="118" y="-117.5" font-family="Helvetica,sans-Serif" font-size="10.00">TriangleTest.testRender</text>
</a>
</g>
</g>
<!-- Node1&#45;&gt;Node6 -->
<g id="edge5" class="edge">
<title>Node1&#45;&gt;Node6</title>
<path fill="none" stroke="midnightblue" d="M286.66,-162.9C270.13,-158.72 252.45,-154.35 236,-150.5 221.64,-147.14 206.25,-143.72 191.5,-140.54"/>
<polygon fill="midnightblue" stroke="midnightblue" points="286.24,-166.41 296.79,-165.48 287.96,-159.62 286.24,-166.41"/>
</g>
<!-- Node7 -->
<g id="node7" class="node">
<title>Node7</title>
<g id="a_node7"><a xlink:href="$classcom_1_1example_1_1renderer_1_1factory_1_1TriangleTest.html#a24f045d4a1b10e4809e39ef326058902" xlink:title=" ">
<polygon fill="white" stroke="black" points="16.5,-50 16.5,-91 219.5,-91 219.5,-50 16.5,-50"/>
<text text-anchor="start" x="24.5" y="-79" font-family="Helvetica,sans-Serif" font-size="10.00">com.example.renderer.factory.</text>
<text text-anchor="start" x="24.5" y="-68" font-family="Helvetica,sans-Serif" font-size="10.00">TriangleTest.testRender_AfterComplex</text>
<text text-anchor="middle" x="118" y="-57" font-family="Helvetica,sans-Serif" font-size="10.00">Transformation</text>
</a>
</g>
</g>
<!-- Node1&#45;&gt;Node7 -->
<g id="edge6" class="edge">
<title>Node1&#45;&gt;Node7</title>
<path fill="none" stroke="midnightblue" d="M327.63,-159.1C304.66,-141.4 269.81,-116.78 236,-101.5 227.38,-97.61 218.18,-94.12 208.86,-91.03"/>
<polygon fill="midnightblue" stroke="midnightblue" points="325.5,-161.88 335.53,-165.27 329.81,-156.36 325.5,-161.88"/>
</g>
<!-- Node8 -->
<g id="node8" class="node">
<title>Node8</title>
<g id="a_node8"><a xlink:href="$classcom_1_1example_1_1renderer_1_1factory_1_1TriangleTest.html#a4abc2416390946f71c3d9fff17f6714c" xlink:title=" ">
<polygon fill="white" stroke="black" points="0,-0.5 0,-30.5 236,-30.5 236,-0.5 0,-0.5"/>
<text text-anchor="start" x="8" y="-18.5" font-family="Helvetica,sans-Serif" font-size="10.00">com.example.renderer.factory.</text>
<text text-anchor="middle" x="118" y="-7.5" font-family="Helvetica,sans-Serif" font-size="10.00">TriangleTest.testRender_ExtremeCoordinates</text>
</a>
</g>
</g>
<!-- Node1&#45;&gt;Node8 -->
<g id="edge7" class="edge">
<title>Node1&#45;&gt;Node8</title>
<path fill="none" stroke="midnightblue" d="M340.87,-156.77C322,-125.02 284.13,-69.38 236,-40.5 229.5,-36.6 222.47,-33.3 215.21,-30.52"/>
<polygon fill="midnightblue" stroke="midnightblue" points="337.85,-158.53 345.89,-165.43 343.9,-155.02 337.85,-158.53"/>
</g>
</g>
</svg>
