<?xml version="1.0" encoding="UTF-8" standalone="no"?>
<!DOCTYPE svg PUBLIC "-//W3C//DTD SVG 1.1//EN"
 "http://www.w3.org/Graphics/SVG/1.1/DTD/svg11.dtd">
<!-- Generated by graphviz version 2.43.0 (0)
 -->
<!-- Title: com.example.renderer.factory.Ellipse.getHeight Pages: 1 -->
<svg width="672pt" height="186pt"
 viewBox="0.00 0.00 672.00 186.00" xmlns="http://www.w3.org/2000/svg" xmlns:xlink="http://www.w3.org/1999/xlink">
<g id="graph0" class="graph" transform="scale(1 1) rotate(0) translate(4 182)">
<title>com.example.renderer.factory.Ellipse.getHeight</title>
<polygon fill="white" stroke="transparent" points="-4,4 -4,-182 668,-182 668,4 -4,4"/>
<!-- Node1 -->
<g id="node1" class="node">
<title>Node1</title>
<g id="a_node1"><a xlink:title="获取椭圆高度。">
<polygon fill="#bfbfbf" stroke="black" points="498,-73.5 498,-103.5 664,-103.5 664,-73.5 498,-73.5"/>
<text text-anchor="start" x="506" y="-91.5" font-family="Helvetica,sans-Serif" font-size="10.00">com.example.renderer.factory.</text>
<text text-anchor="middle" x="581" y="-80.5" font-family="Helvetica,sans-Serif" font-size="10.00">Ellipse.getHeight</text>
</a>
</g>
</g>
<!-- Node2 -->
<g id="node2" class="node">
<title>Node2</title>
<g id="a_node2"><a xlink:href="$classcom_1_1example_1_1renderer_1_1factory_1_1EllipseTest.html#a68e937c4ece8ec298eb5d278760ea774" xlink:title=" ">
<polygon fill="white" stroke="black" points="235,-147.5 235,-177.5 462,-177.5 462,-147.5 235,-147.5"/>
<text text-anchor="start" x="243" y="-165.5" font-family="Helvetica,sans-Serif" font-size="10.00">com.example.renderer.factory.</text>
<text text-anchor="middle" x="348.5" y="-154.5" font-family="Helvetica,sans-Serif" font-size="10.00">EllipseTest.testCreate_ExtremeDimensions</text>
</a>
</g>
</g>
<!-- Node1&#45;&gt;Node2 -->
<g id="edge1" class="edge">
<title>Node1&#45;&gt;Node2</title>
<path fill="none" stroke="midnightblue" d="M539.83,-107.78C517.34,-117.99 488.55,-130.13 462,-138.5 451.52,-141.8 440.36,-144.8 429.28,-147.46"/>
<polygon fill="midnightblue" stroke="midnightblue" points="541.44,-110.89 549.06,-103.53 538.51,-104.53 541.44,-110.89"/>
</g>
<!-- Node3 -->
<g id="node3" class="node">
<title>Node3</title>
<g id="a_node3"><a xlink:href="$classcom_1_1example_1_1renderer_1_1factory_1_1EllipseTest.html#acc1377f4c965377822c61bf53d83db24" xlink:title=" ">
<polygon fill="white" stroke="black" points="247,-98.5 247,-128.5 450,-128.5 450,-98.5 247,-98.5"/>
<text text-anchor="start" x="255" y="-116.5" font-family="Helvetica,sans-Serif" font-size="10.00">com.example.renderer.factory.</text>
<text text-anchor="middle" x="348.5" y="-105.5" font-family="Helvetica,sans-Serif" font-size="10.00">EllipseTest.testCreate_OnePixelEllipse</text>
</a>
</g>
</g>
<!-- Node1&#45;&gt;Node3 -->
<g id="edge2" class="edge">
<title>Node1&#45;&gt;Node3</title>
<path fill="none" stroke="midnightblue" d="M487.55,-98.53C475.29,-99.86 462.66,-101.23 450.26,-102.57"/>
<polygon fill="midnightblue" stroke="midnightblue" points="488.2,-101.98 497.76,-97.42 487.44,-95.02 488.2,-101.98"/>
</g>
<!-- Node4 -->
<g id="node4" class="node">
<title>Node4</title>
<g id="a_node4"><a xlink:href="$classcom_1_1example_1_1renderer_1_1factory_1_1EllipseTest.html#a925cf9b9e78b6f6b985c7f5e47662d3a" xlink:title=" ">
<polygon fill="white" stroke="black" points="245.5,-49.5 245.5,-79.5 451.5,-79.5 451.5,-49.5 245.5,-49.5"/>
<text text-anchor="start" x="253.5" y="-67.5" font-family="Helvetica,sans-Serif" font-size="10.00">com.example.renderer.factory.</text>
<text text-anchor="middle" x="348.5" y="-56.5" font-family="Helvetica,sans-Serif" font-size="10.00">EllipseTest.testCreate_VeryWideEllipse</text>
</a>
</g>
</g>
<!-- Node1&#45;&gt;Node4 -->
<g id="edge3" class="edge">
<title>Node1&#45;&gt;Node4</title>
<path fill="none" stroke="midnightblue" d="M487.54,-78.87C475.81,-77.65 463.74,-76.4 451.86,-75.16"/>
<polygon fill="midnightblue" stroke="midnightblue" points="487.45,-82.38 497.76,-79.94 488.18,-75.42 487.45,-82.38"/>
</g>
<!-- Node5 -->
<g id="node5" class="node">
<title>Node5</title>
<g id="a_node5"><a xlink:href="$classcom_1_1example_1_1renderer_1_1visitor_1_1JSONExportVisitor.html#abf62cbdace84ab865289b64afae67bc1" xlink:title="将椭圆对象转换为JSON格式输出">
<polygon fill="white" stroke="black" points="267,-0.5 267,-30.5 430,-30.5 430,-0.5 267,-0.5"/>
<text text-anchor="start" x="275" y="-18.5" font-family="Helvetica,sans-Serif" font-size="10.00">com.example.renderer.visitor.</text>
<text text-anchor="middle" x="348.5" y="-7.5" font-family="Helvetica,sans-Serif" font-size="10.00">JSONExportVisitor.visitEllipse</text>
</a>
</g>
</g>
<!-- Node1&#45;&gt;Node5 -->
<g id="edge4" class="edge">
<title>Node1&#45;&gt;Node5</title>
<path fill="none" stroke="midnightblue" d="M538.06,-69.44C515.79,-59.83 487.77,-48.54 462,-40.5 450.25,-36.83 437.66,-33.49 425.3,-30.52"/>
<polygon fill="midnightblue" stroke="midnightblue" points="536.66,-72.64 547.23,-73.44 539.46,-66.23 536.66,-72.64"/>
</g>
<!-- Node6 -->
<g id="node6" class="node">
<title>Node6</title>
<g id="a_node6"><a xlink:href="$classcom_1_1example_1_1renderer_1_1visitor_1_1JSONExportVisitorTest.html#abcdc717259698b439769891f603cc79d" xlink:title=" ">
<polygon fill="white" stroke="black" points="0,-0.5 0,-30.5 199,-30.5 199,-0.5 0,-0.5"/>
<text text-anchor="start" x="8" y="-18.5" font-family="Helvetica,sans-Serif" font-size="10.00">com.example.renderer.visitor.</text>
<text text-anchor="middle" x="99.5" y="-7.5" font-family="Helvetica,sans-Serif" font-size="10.00">JSONExportVisitorTest.testVisitEllipse</text>
</a>
</g>
</g>
<!-- Node5&#45;&gt;Node6 -->
<g id="edge5" class="edge">
<title>Node5&#45;&gt;Node6</title>
<path fill="none" stroke="midnightblue" d="M256.93,-15.5C238.09,-15.5 218.15,-15.5 199.05,-15.5"/>
<polygon fill="midnightblue" stroke="midnightblue" points="256.96,-19 266.96,-15.5 256.96,-12 256.96,-19"/>
</g>
</g>
</svg>
