<?xml version="1.0" encoding="UTF-8" standalone="no"?>
<!DOCTYPE svg PUBLIC "-//W3C//DTD SVG 1.1//EN"
 "http://www.w3.org/Graphics/SVG/1.1/DTD/svg11.dtd">
<!-- Generated by graphviz version 2.43.0 (0)
 -->
<!-- Title: com.example.renderer.bridge.Renderer Pages: 1 -->
<svg width="720pt" height="259pt"
 viewBox="0.00 0.00 719.50 259.00" xmlns="http://www.w3.org/2000/svg" xmlns:xlink="http://www.w3.org/1999/xlink">
<g id="graph0" class="graph" transform="scale(1 1) rotate(0) translate(4 255)">
<title>com.example.renderer.bridge.Renderer</title>
<polygon fill="white" stroke="transparent" points="-4,4 -4,-255 715.5,-255 715.5,4 -4,4"/>
<!-- Node1 -->
<g id="node1" class="node">
<title>Node1</title>
<g id="a_node1"><a xlink:title="Renderer接口定义了图形渲染的基本操作。 作为桥接模式中的实现部分(Implementor)，它抽象了不同渲染方式的具体实现。">
<polygon fill="#bfbfbf" stroke="black" points="279,-149.5 279,-250.5 443,-250.5 443,-149.5 279,-149.5"/>
<text text-anchor="start" x="287" y="-238.5" font-family="Helvetica,sans-Serif" font-size="10.00">com.example.renderer.bridge.</text>
<text text-anchor="middle" x="361" y="-227.5" font-family="Helvetica,sans-Serif" font-size="10.00">Renderer</text>
<polyline fill="none" stroke="black" points="279,-220.5 443,-220.5 "/>
<text text-anchor="middle" x="361" y="-208.5" font-family="Helvetica,sans-Serif" font-size="10.00"> </text>
<polyline fill="none" stroke="black" points="279,-201.5 443,-201.5 "/>
<text text-anchor="start" x="287" y="-189.5" font-family="Helvetica,sans-Serif" font-size="10.00">+ drawCircle()</text>
<text text-anchor="start" x="287" y="-178.5" font-family="Helvetica,sans-Serif" font-size="10.00">+ drawRectangle()</text>
<text text-anchor="start" x="287" y="-167.5" font-family="Helvetica,sans-Serif" font-size="10.00">+ drawEllipse()</text>
<text text-anchor="start" x="287" y="-156.5" font-family="Helvetica,sans-Serif" font-size="10.00">+ drawTriangle()</text>
</a>
</g>
</g>
<!-- Node2 -->
<g id="node2" class="node">
<title>Node2</title>
<g id="a_node2"><a xlink:href="$classcom_1_1example_1_1renderer_1_1adapter_1_1LegacyRendererAdapter.html" xlink:title=" ">
<polygon fill="white" stroke="black" points="0,-0.5 0,-112.5 170,-112.5 170,-0.5 0,-0.5"/>
<text text-anchor="start" x="8" y="-100.5" font-family="Helvetica,sans-Serif" font-size="10.00">com.example.renderer.adapter.</text>
<text text-anchor="middle" x="85" y="-89.5" font-family="Helvetica,sans-Serif" font-size="10.00">LegacyRendererAdapter</text>
<polyline fill="none" stroke="black" points="0,-82.5 170,-82.5 "/>
<text text-anchor="middle" x="85" y="-70.5" font-family="Helvetica,sans-Serif" font-size="10.00"> </text>
<polyline fill="none" stroke="black" points="0,-63.5 170,-63.5 "/>
<text text-anchor="start" x="8" y="-51.5" font-family="Helvetica,sans-Serif" font-size="10.00">+ LegacyRendererAdapter()</text>
<text text-anchor="start" x="8" y="-40.5" font-family="Helvetica,sans-Serif" font-size="10.00">+ drawCircle()</text>
<text text-anchor="start" x="8" y="-29.5" font-family="Helvetica,sans-Serif" font-size="10.00">+ drawRectangle()</text>
<text text-anchor="start" x="8" y="-18.5" font-family="Helvetica,sans-Serif" font-size="10.00">+ drawTriangle()</text>
<text text-anchor="start" x="8" y="-7.5" font-family="Helvetica,sans-Serif" font-size="10.00">+ drawEllipse()</text>
</a>
</g>
</g>
<!-- Node1&#45;&gt;Node2 -->
<g id="edge1" class="edge">
<title>Node1&#45;&gt;Node2</title>
<path fill="none" stroke="midnightblue" d="M269.32,-157.68C240.17,-144.01 207.98,-128.36 179,-113 176.07,-111.45 173.1,-109.85 170.11,-108.21"/>
<polygon fill="none" stroke="midnightblue" points="268.13,-160.99 278.67,-162.05 271.09,-154.65 268.13,-160.99"/>
</g>
<!-- Node3 -->
<g id="node3" class="node">
<title>Node3</title>
<g id="a_node3"><a xlink:title=" ">
<polygon fill="white" stroke="#bfbfbf" points="188,-6 188,-107 352,-107 352,-6 188,-6"/>
<text text-anchor="start" x="196" y="-95" font-family="Helvetica,sans-Serif" font-size="10.00">com.example.renderer.bridge.</text>
<text text-anchor="middle" x="270" y="-84" font-family="Helvetica,sans-Serif" font-size="10.00">SVGRenderer</text>
<polyline fill="none" stroke="#bfbfbf" points="188,-77 352,-77 "/>
<text text-anchor="middle" x="270" y="-65" font-family="Helvetica,sans-Serif" font-size="10.00"> </text>
<polyline fill="none" stroke="#bfbfbf" points="188,-58 352,-58 "/>
<text text-anchor="start" x="196" y="-46" font-family="Helvetica,sans-Serif" font-size="10.00">+ drawCircle()</text>
<text text-anchor="start" x="196" y="-35" font-family="Helvetica,sans-Serif" font-size="10.00">+ drawRectangle()</text>
<text text-anchor="start" x="196" y="-24" font-family="Helvetica,sans-Serif" font-size="10.00">+ drawTriangle()</text>
<text text-anchor="start" x="196" y="-13" font-family="Helvetica,sans-Serif" font-size="10.00">+ drawEllipse()</text>
</a>
</g>
</g>
<!-- Node1&#45;&gt;Node3 -->
<g id="edge2" class="edge">
<title>Node1&#45;&gt;Node3</title>
<path fill="none" stroke="midnightblue" d="M323.33,-140.42C316.28,-129.46 308.97,-118.09 302.1,-107.41"/>
<polygon fill="none" stroke="midnightblue" points="320.56,-142.59 328.92,-149.11 326.45,-138.81 320.56,-142.59"/>
</g>
<!-- Node4 -->
<g id="node4" class="node">
<title>Node4</title>
<g id="a_node4"><a xlink:href="$classcom_1_1example_1_1renderer_1_1bridge_1_1SwingRenderer.html" xlink:title=" ">
<polygon fill="white" stroke="black" points="370,-0.5 370,-112.5 534,-112.5 534,-0.5 370,-0.5"/>
<text text-anchor="start" x="378" y="-100.5" font-family="Helvetica,sans-Serif" font-size="10.00">com.example.renderer.bridge.</text>
<text text-anchor="middle" x="452" y="-89.5" font-family="Helvetica,sans-Serif" font-size="10.00">SwingRenderer</text>
<polyline fill="none" stroke="black" points="370,-82.5 534,-82.5 "/>
<text text-anchor="middle" x="452" y="-70.5" font-family="Helvetica,sans-Serif" font-size="10.00"> </text>
<polyline fill="none" stroke="black" points="370,-63.5 534,-63.5 "/>
<text text-anchor="start" x="378" y="-51.5" font-family="Helvetica,sans-Serif" font-size="10.00">+ setGraphics()</text>
<text text-anchor="start" x="378" y="-40.5" font-family="Helvetica,sans-Serif" font-size="10.00">+ drawCircle()</text>
<text text-anchor="start" x="378" y="-29.5" font-family="Helvetica,sans-Serif" font-size="10.00">+ drawRectangle()</text>
<text text-anchor="start" x="378" y="-18.5" font-family="Helvetica,sans-Serif" font-size="10.00">+ drawEllipse()</text>
<text text-anchor="start" x="378" y="-7.5" font-family="Helvetica,sans-Serif" font-size="10.00">+ drawTriangle()</text>
</a>
</g>
</g>
<!-- Node1&#45;&gt;Node4 -->
<g id="edge3" class="edge">
<title>Node1&#45;&gt;Node4</title>
<path fill="none" stroke="midnightblue" d="M398.67,-140.43C404.56,-131.26 410.64,-121.81 416.49,-112.72"/>
<polygon fill="none" stroke="midnightblue" points="395.55,-138.81 393.08,-149.11 401.44,-142.59 395.55,-138.81"/>
</g>
<!-- Node5 -->
<g id="node5" class="node">
<title>Node5</title>
<g id="a_node5"><a xlink:href="$classcom_1_1example_1_1renderer_1_1proxy_1_1RemoteRendererProxy.html" xlink:title="远程渲染器代理实现类">
<polygon fill="white" stroke="black" points="552.5,-0.5 552.5,-112.5 711.5,-112.5 711.5,-0.5 552.5,-0.5"/>
<text text-anchor="start" x="560.5" y="-100.5" font-family="Helvetica,sans-Serif" font-size="10.00">com.example.renderer.proxy.</text>
<text text-anchor="middle" x="632" y="-89.5" font-family="Helvetica,sans-Serif" font-size="10.00">RemoteRendererProxy</text>
<polyline fill="none" stroke="black" points="552.5,-82.5 711.5,-82.5 "/>
<text text-anchor="middle" x="632" y="-70.5" font-family="Helvetica,sans-Serif" font-size="10.00"> </text>
<polyline fill="none" stroke="black" points="552.5,-63.5 711.5,-63.5 "/>
<text text-anchor="start" x="560.5" y="-51.5" font-family="Helvetica,sans-Serif" font-size="10.00">+ RemoteRendererProxy()</text>
<text text-anchor="start" x="560.5" y="-40.5" font-family="Helvetica,sans-Serif" font-size="10.00">+ drawCircle()</text>
<text text-anchor="start" x="560.5" y="-29.5" font-family="Helvetica,sans-Serif" font-size="10.00">+ drawRectangle()</text>
<text text-anchor="start" x="560.5" y="-18.5" font-family="Helvetica,sans-Serif" font-size="10.00">+ drawTriangle()</text>
<text text-anchor="start" x="560.5" y="-7.5" font-family="Helvetica,sans-Serif" font-size="10.00">+ drawEllipse()</text>
</a>
</g>
</g>
<!-- Node1&#45;&gt;Node5 -->
<g id="edge4" class="edge">
<title>Node1&#45;&gt;Node5</title>
<path fill="none" stroke="midnightblue" d="M452.49,-158.3C481.76,-144.61 514.07,-128.78 543,-113 546.04,-111.34 549.11,-109.63 552.21,-107.87"/>
<polygon fill="none" stroke="midnightblue" points="450.69,-155.28 443.1,-162.67 453.64,-161.63 450.69,-155.28"/>
</g>
</g>
</svg>
