<?xml version="1.0" encoding="UTF-8" standalone="no"?>
<!DOCTYPE svg PUBLIC "-//W3C//DTD SVG 1.1//EN"
 "http://www.w3.org/Graphics/SVG/1.1/DTD/svg11.dtd">
<!-- Generated by graphviz version 2.43.0 (0)
 -->
<!-- Title: com.example.renderer.command.Command.undo Pages: 1 -->
<svg width="586pt" height="39pt"
 viewBox="0.00 0.00 586.00 39.00" xmlns="http://www.w3.org/2000/svg" xmlns:xlink="http://www.w3.org/1999/xlink">
<g id="graph0" class="graph" transform="scale(1 1) rotate(0) translate(4 35)">
<title>com.example.renderer.command.Command.undo</title>
<polygon fill="white" stroke="transparent" points="-4,4 -4,-35 582,-35 582,4 -4,4"/>
<!-- Node1 -->
<g id="node1" class="node">
<title>Node1</title>
<g id="a_node1"><a xlink:title="Undoes the command operation.">
<polygon fill="#bfbfbf" stroke="black" points="396,-0.5 396,-30.5 578,-30.5 578,-0.5 396,-0.5"/>
<text text-anchor="start" x="404" y="-18.5" font-family="Helvetica,sans-Serif" font-size="10.00">com.example.renderer.command.</text>
<text text-anchor="middle" x="487" y="-7.5" font-family="Helvetica,sans-Serif" font-size="10.00">Command.undo</text>
</a>
</g>
</g>
<!-- Node2 -->
<g id="node2" class="node">
<title>Node2</title>
<g id="a_node2"><a xlink:href="$classcom_1_1example_1_1renderer_1_1command_1_1UndoManager.html#ad8ea4408ac901ae7a98bd479c634fcce" xlink:title=" ">
<polygon fill="white" stroke="black" points="178,-0.5 178,-30.5 360,-30.5 360,-0.5 178,-0.5"/>
<text text-anchor="start" x="186" y="-18.5" font-family="Helvetica,sans-Serif" font-size="10.00">com.example.renderer.command.</text>
<text text-anchor="middle" x="269" y="-7.5" font-family="Helvetica,sans-Serif" font-size="10.00">UndoManager.undo</text>
</a>
</g>
</g>
<!-- Node1&#45;&gt;Node2 -->
<g id="edge1" class="edge">
<title>Node1&#45;&gt;Node2</title>
<path fill="none" stroke="midnightblue" d="M385.94,-15.5C377.37,-15.5 368.73,-15.5 360.24,-15.5"/>
<polygon fill="midnightblue" stroke="midnightblue" points="385.96,-19 395.96,-15.5 385.96,-12 385.96,-19"/>
</g>
<!-- Node3 -->
<g id="node3" class="node">
<title>Node3</title>
<g id="a_node3"><a xlink:href="$classcom_1_1example_1_1renderer_1_1ui_1_1SwingUI.html#ae7524e76676f44d4196ba579b7cca21a" xlink:title="创建并初始化Swing图形用户界面。">
<polygon fill="white" stroke="black" points="0,-0.5 0,-30.5 142,-30.5 142,-0.5 0,-0.5"/>
<text text-anchor="start" x="8" y="-18.5" font-family="Helvetica,sans-Serif" font-size="10.00">com.example.renderer.ui.</text>
<text text-anchor="middle" x="71" y="-7.5" font-family="Helvetica,sans-Serif" font-size="10.00">SwingUI.SwingUI</text>
</a>
</g>
</g>
<!-- Node2&#45;&gt;Node3 -->
<g id="edge2" class="edge">
<title>Node2&#45;&gt;Node3</title>
<path fill="none" stroke="midnightblue" d="M167.64,-15.5C159.02,-15.5 150.43,-15.5 142.13,-15.5"/>
<polygon fill="midnightblue" stroke="midnightblue" points="167.74,-19 177.74,-15.5 167.74,-12 167.74,-19"/>
</g>
</g>
</svg>
