<?xml version="1.0" encoding="UTF-8" standalone="no"?>
<!DOCTYPE svg PUBLIC "-//W3C//DTD SVG 1.1//EN"
 "http://www.w3.org/Graphics/SVG/1.1/DTD/svg11.dtd">
<!-- Generated by graphviz version 2.43.0 (0)
 -->
<!-- Title: com.example.renderer.command.Command Pages: 1 -->
<svg width="390pt" height="215pt"
 viewBox="0.00 0.00 390.00 215.00" xmlns="http://www.w3.org/2000/svg" xmlns:xlink="http://www.w3.org/1999/xlink">
<g id="graph0" class="graph" transform="scale(1 1) rotate(0) translate(4 211)">
<title>com.example.renderer.command.Command</title>
<polygon fill="white" stroke="transparent" points="-4,4 -4,-211 386,-211 386,4 -4,4"/>
<!-- Node1 -->
<g id="node1" class="node">
<title>Node1</title>
<g id="a_node1"><a xlink:title="Command接口定义了命令模式的基本操作。 所有具体命令类必须实现execute()和undo()方法。">
<polygon fill="#bfbfbf" stroke="black" points="100,-127.5 100,-206.5 282,-206.5 282,-127.5 100,-127.5"/>
<text text-anchor="start" x="108" y="-194.5" font-family="Helvetica,sans-Serif" font-size="10.00">com.example.renderer.command.</text>
<text text-anchor="middle" x="191" y="-183.5" font-family="Helvetica,sans-Serif" font-size="10.00">Command</text>
<polyline fill="none" stroke="black" points="100,-176.5 282,-176.5 "/>
<text text-anchor="middle" x="191" y="-164.5" font-family="Helvetica,sans-Serif" font-size="10.00"> </text>
<polyline fill="none" stroke="black" points="100,-157.5 282,-157.5 "/>
<text text-anchor="start" x="108" y="-145.5" font-family="Helvetica,sans-Serif" font-size="10.00">+ execute()</text>
<text text-anchor="start" x="108" y="-134.5" font-family="Helvetica,sans-Serif" font-size="10.00">+ undo()</text>
</a>
</g>
</g>
<!-- Node2 -->
<g id="node2" class="node">
<title>Node2</title>
<g id="a_node2"><a xlink:href="$classcom_1_1example_1_1renderer_1_1command_1_1AddShapeCommand.html" xlink:title="Command implementation for adding a shape to a shape list.">
<polygon fill="white" stroke="black" points="0,-0.5 0,-90.5 182,-90.5 182,-0.5 0,-0.5"/>
<text text-anchor="start" x="8" y="-78.5" font-family="Helvetica,sans-Serif" font-size="10.00">com.example.renderer.command.</text>
<text text-anchor="middle" x="91" y="-67.5" font-family="Helvetica,sans-Serif" font-size="10.00">AddShapeCommand</text>
<polyline fill="none" stroke="black" points="0,-60.5 182,-60.5 "/>
<text text-anchor="middle" x="91" y="-48.5" font-family="Helvetica,sans-Serif" font-size="10.00"> </text>
<polyline fill="none" stroke="black" points="0,-41.5 182,-41.5 "/>
<text text-anchor="start" x="8" y="-29.5" font-family="Helvetica,sans-Serif" font-size="10.00">+ AddShapeCommand()</text>
<text text-anchor="start" x="8" y="-18.5" font-family="Helvetica,sans-Serif" font-size="10.00">+ execute()</text>
<text text-anchor="start" x="8" y="-7.5" font-family="Helvetica,sans-Serif" font-size="10.00">+ undo()</text>
</a>
</g>
</g>
<!-- Node1&#45;&gt;Node2 -->
<g id="edge1" class="edge">
<title>Node1&#45;&gt;Node2</title>
<path fill="none" stroke="midnightblue" d="M152.04,-119.45C144.19,-110.06 135.95,-100.22 128.16,-90.91"/>
<polygon fill="none" stroke="midnightblue" points="149.43,-121.78 158.53,-127.2 154.8,-117.29 149.43,-121.78"/>
</g>
<!-- Node3 -->
<g id="node3" class="node">
<title>Node3</title>
<g id="a_node3"><a xlink:title=" ">
<polygon fill="white" stroke="#bfbfbf" points="200,-0.5 200,-90.5 382,-90.5 382,-0.5 200,-0.5"/>
<text text-anchor="start" x="208" y="-78.5" font-family="Helvetica,sans-Serif" font-size="10.00">com.example.renderer.command.</text>
<text text-anchor="middle" x="291" y="-67.5" font-family="Helvetica,sans-Serif" font-size="10.00">MoveShapeCommand</text>
<polyline fill="none" stroke="#bfbfbf" points="200,-60.5 382,-60.5 "/>
<text text-anchor="start" x="208" y="-48.5" font-family="Helvetica,sans-Serif" font-size="10.00">~ dy</text>
<polyline fill="none" stroke="#bfbfbf" points="200,-41.5 382,-41.5 "/>
<text text-anchor="start" x="208" y="-29.5" font-family="Helvetica,sans-Serif" font-size="10.00">+ MoveShapeCommand()</text>
<text text-anchor="start" x="208" y="-18.5" font-family="Helvetica,sans-Serif" font-size="10.00">+ execute()</text>
<text text-anchor="start" x="208" y="-7.5" font-family="Helvetica,sans-Serif" font-size="10.00">+ undo()</text>
</a>
</g>
</g>
<!-- Node1&#45;&gt;Node3 -->
<g id="edge2" class="edge">
<title>Node1&#45;&gt;Node3</title>
<path fill="none" stroke="midnightblue" d="M229.96,-119.45C237.81,-110.06 246.05,-100.22 253.84,-90.91"/>
<polygon fill="none" stroke="midnightblue" points="227.2,-117.29 223.47,-127.2 232.57,-121.78 227.2,-117.29"/>
</g>
</g>
</svg>
