<?xml version="1.0" encoding="UTF-8" standalone="no"?>
<!DOCTYPE svg PUBLIC "-//W3C//DTD SVG 1.1//EN"
 "http://www.w3.org/Graphics/SVG/1.1/DTD/svg11.dtd">
<!-- Generated by graphviz version 2.43.0 (0)
 -->
<!-- Title: com.example.renderer.bridge.Renderer.drawCircle Pages: 1 -->
<svg width="669pt" height="307pt"
 viewBox="0.00 0.00 669.00 306.50" xmlns="http://www.w3.org/2000/svg" xmlns:xlink="http://www.w3.org/1999/xlink">
<g id="graph0" class="graph" transform="scale(1 1) rotate(0) translate(4 302.5)">
<title>com.example.renderer.bridge.Renderer.drawCircle</title>
<polygon fill="white" stroke="transparent" points="-4,4 -4,-302.5 665,-302.5 665,4 -4,4"/>
<!-- Node1 -->
<g id="node1" class="node">
<title>Node1</title>
<g id="a_node1"><a xlink:title="绘制圆形">
<polygon fill="#bfbfbf" stroke="black" points="497,-98.5 497,-128.5 661,-128.5 661,-98.5 497,-98.5"/>
<text text-anchor="start" x="505" y="-116.5" font-family="Helvetica,sans-Serif" font-size="10.00">com.example.renderer.bridge.</text>
<text text-anchor="middle" x="579" y="-105.5" font-family="Helvetica,sans-Serif" font-size="10.00">Renderer.drawCircle</text>
</a>
</g>
</g>
<!-- Node2 -->
<g id="node2" class="node">
<title>Node2</title>
<g id="a_node2"><a xlink:href="$classcom_1_1example_1_1renderer_1_1proxy_1_1RemoteRendererProxy.html#a023bafacacf0b539929be9570863a4a5" xlink:title="代理绘制圆形操作，添加远程调用日志。">
<polygon fill="white" stroke="black" points="271,-202.5 271,-232.5 451,-232.5 451,-202.5 271,-202.5"/>
<text text-anchor="start" x="279" y="-220.5" font-family="Helvetica,sans-Serif" font-size="10.00">com.example.renderer.proxy.</text>
<text text-anchor="middle" x="361" y="-209.5" font-family="Helvetica,sans-Serif" font-size="10.00">RemoteRendererProxy.drawCircle</text>
</a>
</g>
</g>
<!-- Node1&#45;&gt;Node2 -->
<g id="edge1" class="edge">
<title>Node1&#45;&gt;Node2</title>
<path fill="none" stroke="midnightblue" d="M537.53,-132.99C495.77,-153.09 431.54,-184.02 393.45,-202.36"/>
<polygon fill="midnightblue" stroke="midnightblue" points="539.1,-136.11 546.59,-128.62 536.06,-129.81 539.1,-136.11"/>
</g>
<!-- Node5 -->
<g id="node5" class="node">
<title>Node5</title>
<g id="a_node5"><a xlink:href="$classcom_1_1example_1_1renderer_1_1factory_1_1Circle.html#ac32a767950b0417badcb3b445052cc8a" xlink:title="使用指定的渲染器绘制图形。 具体绘制逻辑由实现类决定，渲染器参数提供实际的绘制能力。">
<polygon fill="white" stroke="black" points="278,-98.5 278,-128.5 444,-128.5 444,-98.5 278,-98.5"/>
<text text-anchor="start" x="286" y="-116.5" font-family="Helvetica,sans-Serif" font-size="10.00">com.example.renderer.factory.</text>
<text text-anchor="middle" x="361" y="-105.5" font-family="Helvetica,sans-Serif" font-size="10.00">Circle.render</text>
</a>
</g>
</g>
<!-- Node1&#45;&gt;Node5 -->
<g id="edge4" class="edge">
<title>Node1&#45;&gt;Node5</title>
<path fill="none" stroke="midnightblue" d="M486.76,-113.5C472.64,-113.5 458.12,-113.5 444.22,-113.5"/>
<polygon fill="midnightblue" stroke="midnightblue" points="486.96,-117 496.96,-113.5 486.95,-110 486.96,-117"/>
</g>
<!-- Node10 -->
<g id="node10" class="node">
<title>Node10</title>
<g id="a_node10"><a xlink:href="$classcom_1_1example_1_1renderer_1_1adapter_1_1LegacyRendererAdapterTest.html#a96d60d1776082c579e5a964fac482cd9" xlink:title="测试适配器将drawCircle()转发到drawLegacyCircle()。">
<polygon fill="white" stroke="black" points="261,-38 261,-79 461,-79 461,-38 261,-38"/>
<text text-anchor="start" x="269" y="-67" font-family="Helvetica,sans-Serif" font-size="10.00">com.example.renderer.adapter.</text>
<text text-anchor="start" x="269" y="-56" font-family="Helvetica,sans-Serif" font-size="10.00">LegacyRendererAdapterTest.testDraw</text>
<text text-anchor="middle" x="361" y="-45" font-family="Helvetica,sans-Serif" font-size="10.00">Circle_ForwardsToLegacyRenderer</text>
</a>
</g>
</g>
<!-- Node1&#45;&gt;Node10 -->
<g id="edge9" class="edge">
<title>Node1&#45;&gt;Node10</title>
<path fill="none" stroke="midnightblue" d="M509.14,-95.97C488.04,-90.59 464.64,-84.63 442.81,-79.08"/>
<polygon fill="midnightblue" stroke="midnightblue" points="508.42,-99.4 518.98,-98.47 510.15,-92.61 508.42,-99.4"/>
</g>
<!-- Node3 -->
<g id="node3" class="node">
<title>Node3</title>
<g id="a_node3"><a xlink:href="$classcom_1_1example_1_1renderer_1_1proxy_1_1RemoteRendererProxyTest.html#a2f0b86f8169ea20d532ab8cffb0c7dc3" xlink:title=" ">
<polygon fill="white" stroke="black" points="14.5,-257 14.5,-298 210.5,-298 210.5,-257 14.5,-257"/>
<text text-anchor="start" x="22.5" y="-286" font-family="Helvetica,sans-Serif" font-size="10.00">com.example.renderer.proxy.</text>
<text text-anchor="start" x="22.5" y="-275" font-family="Helvetica,sans-Serif" font-size="10.00">RemoteRendererProxyTest.testProxy</text>
<text text-anchor="middle" x="112.5" y="-264" font-family="Helvetica,sans-Serif" font-size="10.00">_ExtremeCoordinates</text>
</a>
</g>
</g>
<!-- Node2&#45;&gt;Node3 -->
<g id="edge2" class="edge">
<title>Node2&#45;&gt;Node3</title>
<path fill="none" stroke="midnightblue" d="M288.29,-234.95C259.97,-241.85 227.21,-249.82 197.77,-256.99"/>
<polygon fill="midnightblue" stroke="midnightblue" points="289.23,-238.33 298.12,-232.56 287.57,-231.53 289.23,-238.33"/>
</g>
<!-- Node4 -->
<g id="node4" class="node">
<title>Node4</title>
<g id="a_node4"><a xlink:href="$classcom_1_1example_1_1renderer_1_1proxy_1_1RemoteRendererProxyTest.html#a785672431f7951f8d26c27fece370ad8" xlink:title="测试代理模式是否正确转发所有渲染方法调用到真实渲染器。">
<polygon fill="white" stroke="black" points="14.5,-197 14.5,-238 210.5,-238 210.5,-197 14.5,-197"/>
<text text-anchor="start" x="22.5" y="-226" font-family="Helvetica,sans-Serif" font-size="10.00">com.example.renderer.proxy.</text>
<text text-anchor="start" x="22.5" y="-215" font-family="Helvetica,sans-Serif" font-size="10.00">RemoteRendererProxyTest.testProxy</text>
<text text-anchor="middle" x="112.5" y="-204" font-family="Helvetica,sans-Serif" font-size="10.00">CallsRealRenderer</text>
</a>
</g>
</g>
<!-- Node2&#45;&gt;Node4 -->
<g id="edge3" class="edge">
<title>Node2&#45;&gt;Node4</title>
<path fill="none" stroke="midnightblue" d="M260.55,-217.5C244.16,-217.5 227.2,-217.5 210.87,-217.5"/>
<polygon fill="midnightblue" stroke="midnightblue" points="260.66,-221 270.66,-217.5 260.66,-214 260.66,-221"/>
</g>
<!-- Node6 -->
<g id="node6" class="node">
<title>Node6</title>
<g id="a_node6"><a xlink:href="$classcom_1_1example_1_1renderer_1_1factory_1_1CircleTest.html#a7e3a7a568f036a4d96dc29755096546b" xlink:title=" ">
<polygon fill="white" stroke="black" points="29.5,-147.5 29.5,-177.5 195.5,-177.5 195.5,-147.5 29.5,-147.5"/>
<text text-anchor="start" x="37.5" y="-165.5" font-family="Helvetica,sans-Serif" font-size="10.00">com.example.renderer.factory.</text>
<text text-anchor="middle" x="112.5" y="-154.5" font-family="Helvetica,sans-Serif" font-size="10.00">CircleTest.testRender</text>
</a>
</g>
</g>
<!-- Node5&#45;&gt;Node6 -->
<g id="edge5" class="edge">
<title>Node5&#45;&gt;Node6</title>
<path fill="none" stroke="midnightblue" d="M274.28,-130.54C246.52,-136.06 215.95,-142.13 188.99,-147.49"/>
<polygon fill="midnightblue" stroke="midnightblue" points="275.24,-133.92 284.37,-128.53 273.88,-127.05 275.24,-133.92"/>
</g>
<!-- Node7 -->
<g id="node7" class="node">
<title>Node7</title>
<g id="a_node7"><a xlink:href="$classcom_1_1example_1_1renderer_1_1factory_1_1CircleTest.html#a6e27a2ee2e9a4ab7acfe2ff2e25b275a" xlink:title=" ">
<polygon fill="white" stroke="black" points="2,-98.5 2,-128.5 223,-128.5 223,-98.5 2,-98.5"/>
<text text-anchor="start" x="10" y="-116.5" font-family="Helvetica,sans-Serif" font-size="10.00">com.example.renderer.factory.</text>
<text text-anchor="middle" x="112.5" y="-105.5" font-family="Helvetica,sans-Serif" font-size="10.00">CircleTest.testRender_AfterMultipleMoves</text>
</a>
</g>
</g>
<!-- Node5&#45;&gt;Node7 -->
<g id="edge6" class="edge">
<title>Node5&#45;&gt;Node7</title>
<path fill="none" stroke="midnightblue" d="M267.53,-113.5C253.1,-113.5 238.07,-113.5 223.3,-113.5"/>
<polygon fill="midnightblue" stroke="midnightblue" points="267.92,-117 277.92,-113.5 267.92,-110 267.92,-117"/>
</g>
<!-- Node8 -->
<g id="node8" class="node">
<title>Node8</title>
<g id="a_node8"><a xlink:href="$classcom_1_1example_1_1renderer_1_1factory_1_1CircleTest.html#a0910bc5d2c2bde87f1ff86325949e990" xlink:title=" ">
<polygon fill="white" stroke="black" points="20.5,-49.5 20.5,-79.5 204.5,-79.5 204.5,-49.5 20.5,-49.5"/>
<text text-anchor="start" x="28.5" y="-67.5" font-family="Helvetica,sans-Serif" font-size="10.00">com.example.renderer.factory.</text>
<text text-anchor="middle" x="112.5" y="-56.5" font-family="Helvetica,sans-Serif" font-size="10.00">CircleTest.testRender_AfterScaling</text>
</a>
</g>
</g>
<!-- Node5&#45;&gt;Node8 -->
<g id="edge7" class="edge">
<title>Node5&#45;&gt;Node8</title>
<path fill="none" stroke="midnightblue" d="M274.28,-96.46C246.52,-90.94 215.95,-84.87 188.99,-79.51"/>
<polygon fill="midnightblue" stroke="midnightblue" points="273.88,-99.95 284.37,-98.47 275.24,-93.08 273.88,-99.95"/>
</g>
<!-- Node9 -->
<g id="node9" class="node">
<title>Node9</title>
<g id="a_node9"><a xlink:href="$classcom_1_1example_1_1renderer_1_1factory_1_1CircleTest.html#ab7ef35cc7fc5f77001038fdb5cc3f82e" xlink:title=" ">
<polygon fill="white" stroke="black" points="0,-0.5 0,-30.5 225,-30.5 225,-0.5 0,-0.5"/>
<text text-anchor="start" x="8" y="-18.5" font-family="Helvetica,sans-Serif" font-size="10.00">com.example.renderer.factory.</text>
<text text-anchor="middle" x="112.5" y="-7.5" font-family="Helvetica,sans-Serif" font-size="10.00">CircleTest.testRender_ExtremeCoordinates</text>
</a>
</g>
</g>
<!-- Node5&#45;&gt;Node9 -->
<g id="edge8" class="edge">
<title>Node5&#45;&gt;Node9</title>
<path fill="none" stroke="midnightblue" d="M270.69,-94.23C267.33,-92.48 264.09,-90.58 261,-88.5 238.58,-73.41 247.68,-54.19 225,-39.5 219.68,-36.06 213.95,-33.1 207.99,-30.56"/>
<polygon fill="midnightblue" stroke="midnightblue" points="269.27,-97.43 279.81,-98.49 272.23,-91.08 269.27,-97.43"/>
</g>
</g>
</svg>
