<?xml version="1.0" encoding="UTF-8" standalone="no"?>
<!DOCTYPE svg PUBLIC "-//W3C//DTD SVG 1.1//EN"
 "http://www.w3.org/Graphics/SVG/1.1/DTD/svg11.dtd">
<!-- Generated by graphviz version 2.43.0 (0)
 -->
<!-- Title: com.example.renderer.factory.Shape Pages: 1 -->
<svg width="726pt" height="358pt"
 viewBox="0.00 0.00 726.00 358.00" xmlns="http://www.w3.org/2000/svg" xmlns:xlink="http://www.w3.org/1999/xlink">
<g id="graph0" class="graph" transform="scale(1 1) rotate(0) translate(4 354)">
<title>com.example.renderer.factory.Shape</title>
<polygon fill="white" stroke="transparent" points="-4,4 -4,-354 722,-354 722,4 -4,4"/>
<!-- Node1 -->
<g id="node1" class="node">
<title>Node1</title>
<g id="a_node1"><a xlink:title="Shape接口定义了所有图形对象的基本行为。 作为图形系统的核心接口，它支持以下操作：">
<polygon fill="#bfbfbf" stroke="black" points="276,-259.5 276,-349.5 442,-349.5 442,-259.5 276,-259.5"/>
<text text-anchor="start" x="284" y="-337.5" font-family="Helvetica,sans-Serif" font-size="10.00">com.example.renderer.factory.</text>
<text text-anchor="middle" x="359" y="-326.5" font-family="Helvetica,sans-Serif" font-size="10.00">Shape</text>
<polyline fill="none" stroke="black" points="276,-319.5 442,-319.5 "/>
<text text-anchor="middle" x="359" y="-307.5" font-family="Helvetica,sans-Serif" font-size="10.00"> </text>
<polyline fill="none" stroke="black" points="276,-300.5 442,-300.5 "/>
<text text-anchor="start" x="284" y="-288.5" font-family="Helvetica,sans-Serif" font-size="10.00">+ render()</text>
<text text-anchor="start" x="284" y="-277.5" font-family="Helvetica,sans-Serif" font-size="10.00">+ move()</text>
<text text-anchor="start" x="284" y="-266.5" font-family="Helvetica,sans-Serif" font-size="10.00">+ accept()</text>
</a>
</g>
</g>
<!-- Node2 -->
<g id="node2" class="node">
<title>Node2</title>
<g id="a_node2"><a xlink:href="$classcom_1_1example_1_1renderer_1_1factory_1_1Circle.html" xlink:title="圆形图形实现类，表示一个由圆心坐标和半径定义的圆形。">
<polygon fill="white" stroke="black" points="0,-28 0,-195 166,-195 166,-28 0,-28"/>
<text text-anchor="start" x="8" y="-183" font-family="Helvetica,sans-Serif" font-size="10.00">com.example.renderer.factory.</text>
<text text-anchor="middle" x="83" y="-172" font-family="Helvetica,sans-Serif" font-size="10.00">Circle</text>
<polyline fill="none" stroke="black" points="0,-165 166,-165 "/>
<text text-anchor="start" x="8" y="-153" font-family="Helvetica,sans-Serif" font-size="10.00">~ y</text>
<text text-anchor="start" x="8" y="-142" font-family="Helvetica,sans-Serif" font-size="10.00">~ radius</text>
<polyline fill="none" stroke="black" points="0,-135 166,-135 "/>
<text text-anchor="start" x="8" y="-123" font-family="Helvetica,sans-Serif" font-size="10.00">+ Circle()</text>
<text text-anchor="start" x="8" y="-112" font-family="Helvetica,sans-Serif" font-size="10.00">+ Circle()</text>
<text text-anchor="start" x="8" y="-101" font-family="Helvetica,sans-Serif" font-size="10.00">+ render()</text>
<text text-anchor="start" x="8" y="-90" font-family="Helvetica,sans-Serif" font-size="10.00">+ accept()</text>
<text text-anchor="start" x="8" y="-79" font-family="Helvetica,sans-Serif" font-size="10.00">+ move()</text>
<text text-anchor="start" x="8" y="-68" font-family="Helvetica,sans-Serif" font-size="10.00">+ getX()</text>
<text text-anchor="start" x="8" y="-57" font-family="Helvetica,sans-Serif" font-size="10.00">+ getY()</text>
<text text-anchor="start" x="8" y="-46" font-family="Helvetica,sans-Serif" font-size="10.00">+ getRadius()</text>
<text text-anchor="start" x="8" y="-35" font-family="Helvetica,sans-Serif" font-size="10.00">+ getR()</text>
</a>
</g>
</g>
<!-- Node1&#45;&gt;Node2 -->
<g id="edge1" class="edge">
<title>Node1&#45;&gt;Node2</title>
<path fill="none" stroke="midnightblue" d="M266.35,-272.77C235.6,-260.09 202.28,-243.5 175,-223 164.22,-214.9 153.9,-205.3 144.32,-195.2"/>
<polygon fill="none" stroke="midnightblue" points="265.21,-276.09 275.8,-276.58 267.83,-269.59 265.21,-276.09"/>
</g>
<!-- Node3 -->
<g id="node3" class="node">
<title>Node3</title>
<g id="a_node3"><a xlink:href="$classcom_1_1example_1_1renderer_1_1factory_1_1Ellipse.html" xlink:title="椭圆图形实现类">
<polygon fill="white" stroke="black" points="184,-22.5 184,-200.5 350,-200.5 350,-22.5 184,-22.5"/>
<text text-anchor="start" x="192" y="-188.5" font-family="Helvetica,sans-Serif" font-size="10.00">com.example.renderer.factory.</text>
<text text-anchor="middle" x="267" y="-177.5" font-family="Helvetica,sans-Serif" font-size="10.00">Ellipse</text>
<polyline fill="none" stroke="black" points="184,-170.5 350,-170.5 "/>
<text text-anchor="start" x="192" y="-158.5" font-family="Helvetica,sans-Serif" font-size="10.00">~ y</text>
<text text-anchor="start" x="192" y="-147.5" font-family="Helvetica,sans-Serif" font-size="10.00">~ width</text>
<text text-anchor="start" x="192" y="-136.5" font-family="Helvetica,sans-Serif" font-size="10.00">~ height</text>
<polyline fill="none" stroke="black" points="184,-129.5 350,-129.5 "/>
<text text-anchor="start" x="192" y="-117.5" font-family="Helvetica,sans-Serif" font-size="10.00">+ Ellipse()</text>
<text text-anchor="start" x="192" y="-106.5" font-family="Helvetica,sans-Serif" font-size="10.00">+ Ellipse()</text>
<text text-anchor="start" x="192" y="-95.5" font-family="Helvetica,sans-Serif" font-size="10.00">+ render()</text>
<text text-anchor="start" x="192" y="-84.5" font-family="Helvetica,sans-Serif" font-size="10.00">+ accept()</text>
<text text-anchor="start" x="192" y="-73.5" font-family="Helvetica,sans-Serif" font-size="10.00">+ move()</text>
<text text-anchor="start" x="192" y="-62.5" font-family="Helvetica,sans-Serif" font-size="10.00">+ getX()</text>
<text text-anchor="start" x="192" y="-51.5" font-family="Helvetica,sans-Serif" font-size="10.00">+ getY()</text>
<text text-anchor="start" x="192" y="-40.5" font-family="Helvetica,sans-Serif" font-size="10.00">+ getWidth()</text>
<text text-anchor="start" x="192" y="-29.5" font-family="Helvetica,sans-Serif" font-size="10.00">+ getHeight()</text>
</a>
</g>
</g>
<!-- Node1&#45;&gt;Node3 -->
<g id="edge2" class="edge">
<title>Node1&#45;&gt;Node3</title>
<path fill="none" stroke="midnightblue" d="M333.18,-249.9C325.79,-234.55 317.53,-217.4 309.42,-200.56"/>
<polygon fill="none" stroke="midnightblue" points="330.17,-251.71 337.66,-259.2 336.48,-248.67 330.17,-251.71"/>
</g>
<!-- Node4 -->
<g id="node4" class="node">
<title>Node4</title>
<g id="a_node4"><a xlink:href="$classcom_1_1example_1_1renderer_1_1factory_1_1Rectangle.html" xlink:title=" ">
<polygon fill="white" stroke="black" points="368,-22.5 368,-200.5 534,-200.5 534,-22.5 368,-22.5"/>
<text text-anchor="start" x="376" y="-188.5" font-family="Helvetica,sans-Serif" font-size="10.00">com.example.renderer.factory.</text>
<text text-anchor="middle" x="451" y="-177.5" font-family="Helvetica,sans-Serif" font-size="10.00">Rectangle</text>
<polyline fill="none" stroke="black" points="368,-170.5 534,-170.5 "/>
<text text-anchor="start" x="376" y="-158.5" font-family="Helvetica,sans-Serif" font-size="10.00">~ y</text>
<text text-anchor="start" x="376" y="-147.5" font-family="Helvetica,sans-Serif" font-size="10.00">~ width</text>
<text text-anchor="start" x="376" y="-136.5" font-family="Helvetica,sans-Serif" font-size="10.00">~ height</text>
<polyline fill="none" stroke="black" points="368,-129.5 534,-129.5 "/>
<text text-anchor="start" x="376" y="-117.5" font-family="Helvetica,sans-Serif" font-size="10.00">+ Rectangle()</text>
<text text-anchor="start" x="376" y="-106.5" font-family="Helvetica,sans-Serif" font-size="10.00">+ Rectangle()</text>
<text text-anchor="start" x="376" y="-95.5" font-family="Helvetica,sans-Serif" font-size="10.00">+ render()</text>
<text text-anchor="start" x="376" y="-84.5" font-family="Helvetica,sans-Serif" font-size="10.00">+ accept()</text>
<text text-anchor="start" x="376" y="-73.5" font-family="Helvetica,sans-Serif" font-size="10.00">+ move()</text>
<text text-anchor="start" x="376" y="-62.5" font-family="Helvetica,sans-Serif" font-size="10.00">+ getX()</text>
<text text-anchor="start" x="376" y="-51.5" font-family="Helvetica,sans-Serif" font-size="10.00">+ getY()</text>
<text text-anchor="start" x="376" y="-40.5" font-family="Helvetica,sans-Serif" font-size="10.00">+ getWidth()</text>
<text text-anchor="start" x="376" y="-29.5" font-family="Helvetica,sans-Serif" font-size="10.00">+ getHeight()</text>
</a>
</g>
</g>
<!-- Node1&#45;&gt;Node4 -->
<g id="edge3" class="edge">
<title>Node1&#45;&gt;Node4</title>
<path fill="none" stroke="midnightblue" d="M384.82,-249.9C392.21,-234.55 400.47,-217.4 408.58,-200.56"/>
<polygon fill="none" stroke="midnightblue" points="381.52,-248.67 380.34,-259.2 387.83,-251.71 381.52,-248.67"/>
</g>
<!-- Node5 -->
<g id="node5" class="node">
<title>Node5</title>
<g id="a_node5"><a xlink:href="$classcom_1_1example_1_1renderer_1_1factory_1_1Triangle.html" xlink:title="三角形图形实现类">
<polygon fill="white" stroke="black" points="552,-0.5 552,-222.5 718,-222.5 718,-0.5 552,-0.5"/>
<text text-anchor="start" x="560" y="-210.5" font-family="Helvetica,sans-Serif" font-size="10.00">com.example.renderer.factory.</text>
<text text-anchor="middle" x="635" y="-199.5" font-family="Helvetica,sans-Serif" font-size="10.00">Triangle</text>
<polyline fill="none" stroke="black" points="552,-192.5 718,-192.5 "/>
<text text-anchor="start" x="560" y="-180.5" font-family="Helvetica,sans-Serif" font-size="10.00">~ y1</text>
<text text-anchor="start" x="560" y="-169.5" font-family="Helvetica,sans-Serif" font-size="10.00">~ x2</text>
<text text-anchor="start" x="560" y="-158.5" font-family="Helvetica,sans-Serif" font-size="10.00">~ y2</text>
<text text-anchor="start" x="560" y="-147.5" font-family="Helvetica,sans-Serif" font-size="10.00">~ x3</text>
<text text-anchor="start" x="560" y="-136.5" font-family="Helvetica,sans-Serif" font-size="10.00">~ y3</text>
<polyline fill="none" stroke="black" points="552,-129.5 718,-129.5 "/>
<text text-anchor="start" x="560" y="-117.5" font-family="Helvetica,sans-Serif" font-size="10.00">+ Triangle()</text>
<text text-anchor="start" x="560" y="-106.5" font-family="Helvetica,sans-Serif" font-size="10.00">+ Triangle()</text>
<text text-anchor="start" x="560" y="-95.5" font-family="Helvetica,sans-Serif" font-size="10.00">+ render()</text>
<text text-anchor="start" x="560" y="-84.5" font-family="Helvetica,sans-Serif" font-size="10.00">+ accept()</text>
<text text-anchor="start" x="560" y="-73.5" font-family="Helvetica,sans-Serif" font-size="10.00">+ move()</text>
<text text-anchor="start" x="560" y="-62.5" font-family="Helvetica,sans-Serif" font-size="10.00">+ getX1()</text>
<text text-anchor="start" x="560" y="-51.5" font-family="Helvetica,sans-Serif" font-size="10.00">+ getY1()</text>
<text text-anchor="start" x="560" y="-40.5" font-family="Helvetica,sans-Serif" font-size="10.00">+ getX2()</text>
<text text-anchor="start" x="560" y="-29.5" font-family="Helvetica,sans-Serif" font-size="10.00">+ getY2()</text>
<text text-anchor="start" x="560" y="-18.5" font-family="Helvetica,sans-Serif" font-size="10.00">+ getX3()</text>
<text text-anchor="start" x="560" y="-7.5" font-family="Helvetica,sans-Serif" font-size="10.00">+ getY3()</text>
</a>
</g>
</g>
<!-- Node1&#45;&gt;Node5 -->
<g id="edge4" class="edge">
<title>Node1&#45;&gt;Node5</title>
<path fill="none" stroke="midnightblue" d="M451.65,-272.77C482.4,-260.09 515.72,-243.5 543,-223 545.99,-220.75 548.95,-218.39 551.87,-215.93"/>
<polygon fill="none" stroke="midnightblue" points="450.17,-269.59 442.2,-276.58 452.79,-276.09 450.17,-269.59"/>
</g>
</g>
</svg>
