<?xml version="1.0" encoding="UTF-8" standalone="no"?>
<!DOCTYPE svg PUBLIC "-//W3C//DTD SVG 1.1//EN"
 "http://www.w3.org/Graphics/SVG/1.1/DTD/svg11.dtd">
<!-- Generated by graphviz version 2.43.0 (0)
 -->
<!-- Title: com.example.renderer.factory.Rectangle.getX Pages: 1 -->
<svg width="685pt" height="357pt"
 viewBox="0.00 0.00 685.00 356.50" xmlns="http://www.w3.org/2000/svg" xmlns:xlink="http://www.w3.org/1999/xlink">
<g id="graph0" class="graph" transform="scale(1 1) rotate(0) translate(4 352.5)">
<title>com.example.renderer.factory.Rectangle.getX</title>
<polygon fill="white" stroke="transparent" points="-4,4 -4,-352.5 681,-352.5 681,4 -4,4"/>
<!-- Node1 -->
<g id="node1" class="node">
<title>Node1</title>
<g id="a_node1"><a xlink:title="获取矩形左上角x坐标">
<polygon fill="#bfbfbf" stroke="black" points="511,-147.5 511,-177.5 677,-177.5 677,-147.5 511,-147.5"/>
<text text-anchor="start" x="519" y="-165.5" font-family="Helvetica,sans-Serif" font-size="10.00">com.example.renderer.factory.</text>
<text text-anchor="middle" x="594" y="-154.5" font-family="Helvetica,sans-Serif" font-size="10.00">Rectangle.getX</text>
</a>
</g>
</g>
<!-- Node2 -->
<g id="node2" class="node">
<title>Node2</title>
<g id="a_node2"><a xlink:href="classcom_1_1example_1_1renderer_1_1factory_1_1RectangleTest.html#a67ecac95355520f78b9afa19bf1f6ea0" target="_top" xlink:title=" ">
<polygon fill="white" stroke="black" points="272,-307 272,-348 454,-348 454,-307 272,-307"/>
<text text-anchor="start" x="280" y="-336" font-family="Helvetica,sans-Serif" font-size="10.00">com.example.renderer.factory.</text>
<text text-anchor="start" x="280" y="-325" font-family="Helvetica,sans-Serif" font-size="10.00">RectangleTest.testGetDimensions</text>
<text text-anchor="middle" x="363" y="-314" font-family="Helvetica,sans-Serif" font-size="10.00">_AfterCreation</text>
</a>
</g>
</g>
<!-- Node1&#45;&gt;Node2 -->
<g id="edge1" class="edge">
<title>Node1&#45;&gt;Node2</title>
<path fill="none" stroke="midnightblue" d="M578.58,-186.35C558.94,-216.75 520.94,-268.81 475,-297.5 468.48,-301.57 461.41,-305.1 454.11,-308.15"/>
<polygon fill="midnightblue" stroke="midnightblue" points="581.69,-187.98 584.07,-177.66 575.77,-184.24 581.69,-187.98"/>
</g>
<!-- Node3 -->
<g id="node3" class="node">
<title>Node3</title>
<g id="a_node3"><a xlink:href="classcom_1_1example_1_1renderer_1_1factory_1_1RectangleTest.html#a101613f477d964b6d2236367011588be" target="_top" xlink:title=" ">
<polygon fill="white" stroke="black" points="280,-257.5 280,-287.5 446,-287.5 446,-257.5 280,-257.5"/>
<text text-anchor="start" x="288" y="-275.5" font-family="Helvetica,sans-Serif" font-size="10.00">com.example.renderer.factory.</text>
<text text-anchor="middle" x="363" y="-264.5" font-family="Helvetica,sans-Serif" font-size="10.00">RectangleTest.testMove</text>
</a>
</g>
</g>
<!-- Node1&#45;&gt;Node3 -->
<g id="edge2" class="edge">
<title>Node1&#45;&gt;Node3</title>
<path fill="none" stroke="midnightblue" d="M569.04,-184.26C546.4,-203.68 510.68,-231.44 475,-247.5 465.9,-251.59 456.08,-255.05 446.16,-257.95"/>
<polygon fill="midnightblue" stroke="midnightblue" points="571.53,-186.74 576.77,-177.53 566.93,-181.46 571.53,-186.74"/>
</g>
<!-- Node4 -->
<g id="node4" class="node">
<title>Node4</title>
<g id="a_node4"><a xlink:href="classcom_1_1example_1_1renderer_1_1factory_1_1RectangleTest.html#ab33ead0d042b18a1f2adbf004b06d5bf" target="_top" xlink:title=" ">
<polygon fill="white" stroke="black" points="251,-197 251,-238 475,-238 475,-197 251,-197"/>
<text text-anchor="start" x="259" y="-226" font-family="Helvetica,sans-Serif" font-size="10.00">com.example.renderer.factory.</text>
<text text-anchor="start" x="259" y="-215" font-family="Helvetica,sans-Serif" font-size="10.00">RectangleTest.testMove_ExtremeNegative</text>
<text text-anchor="middle" x="363" y="-204" font-family="Helvetica,sans-Serif" font-size="10.00">Values</text>
</a>
</g>
</g>
<!-- Node1&#45;&gt;Node4 -->
<g id="edge3" class="edge">
<title>Node1&#45;&gt;Node4</title>
<path fill="none" stroke="midnightblue" d="M520.6,-179.89C498.08,-185.3 473.02,-191.32 449.68,-196.92"/>
<polygon fill="midnightblue" stroke="midnightblue" points="521.52,-183.27 530.42,-177.53 519.88,-176.46 521.52,-183.27"/>
</g>
<!-- Node5 -->
<g id="node5" class="node">
<title>Node5</title>
<g id="a_node5"><a xlink:href="classcom_1_1example_1_1renderer_1_1factory_1_1RectangleTest.html#a04d4b9064734d35b2eda46e3a0aee615" target="_top" xlink:title=" ">
<polygon fill="white" stroke="black" points="257,-147.5 257,-177.5 469,-177.5 469,-147.5 257,-147.5"/>
<text text-anchor="start" x="265" y="-165.5" font-family="Helvetica,sans-Serif" font-size="10.00">com.example.renderer.factory.</text>
<text text-anchor="middle" x="363" y="-154.5" font-family="Helvetica,sans-Serif" font-size="10.00">RectangleTest.testMove_ExtremeValues</text>
</a>
</g>
</g>
<!-- Node1&#45;&gt;Node5 -->
<g id="edge4" class="edge">
<title>Node1&#45;&gt;Node5</title>
<path fill="none" stroke="midnightblue" d="M500.66,-162.5C490.25,-162.5 479.58,-162.5 469.02,-162.5"/>
<polygon fill="midnightblue" stroke="midnightblue" points="500.97,-166 510.97,-162.5 500.97,-159 500.97,-166"/>
</g>
<!-- Node6 -->
<g id="node6" class="node">
<title>Node6</title>
<g id="a_node6"><a xlink:href="classcom_1_1example_1_1renderer_1_1factory_1_1RectangleTest.html#a33f1cf3c9fbecfd935496e685d256b38" target="_top" xlink:title=" ">
<polygon fill="white" stroke="black" points="272,-98.5 272,-128.5 454,-128.5 454,-98.5 272,-98.5"/>
<text text-anchor="start" x="280" y="-116.5" font-family="Helvetica,sans-Serif" font-size="10.00">com.example.renderer.factory.</text>
<text text-anchor="middle" x="363" y="-105.5" font-family="Helvetica,sans-Serif" font-size="10.00">RectangleTest.testMove_Overflow</text>
</a>
</g>
</g>
<!-- Node1&#45;&gt;Node6 -->
<g id="edge5" class="edge">
<title>Node1&#45;&gt;Node6</title>
<path fill="none" stroke="midnightblue" d="M512.68,-145.31C487.08,-139.84 458.96,-133.82 434.13,-128.51"/>
<polygon fill="midnightblue" stroke="midnightblue" points="512.23,-148.8 522.74,-147.47 513.69,-141.95 512.23,-148.8"/>
</g>
<!-- Node7 -->
<g id="node7" class="node">
<title>Node7</title>
<g id="a_node7"><a xlink:href="classcom_1_1example_1_1renderer_1_1factory_1_1RectangleTest.html#a28f53549a54d7ccddf2428dd5072b9e2" target="_top" xlink:title=" ">
<polygon fill="white" stroke="black" points="256,-49.5 256,-79.5 470,-79.5 470,-49.5 256,-49.5"/>
<text text-anchor="start" x="264" y="-67.5" font-family="Helvetica,sans-Serif" font-size="10.00">com.example.renderer.factory.</text>
<text text-anchor="middle" x="363" y="-56.5" font-family="Helvetica,sans-Serif" font-size="10.00">RectangleTest.testMove_ZeroMovement</text>
</a>
</g>
</g>
<!-- Node1&#45;&gt;Node7 -->
<g id="edge6" class="edge">
<title>Node1&#45;&gt;Node7</title>
<path fill="none" stroke="midnightblue" d="M564.96,-141.41C541.91,-125.03 507.83,-102.91 475,-89.5 465.58,-85.65 455.46,-82.34 445.3,-79.51"/>
<polygon fill="midnightblue" stroke="midnightblue" points="563.07,-144.37 573.23,-147.38 567.17,-138.69 563.07,-144.37"/>
</g>
<!-- Node8 -->
<g id="node8" class="node">
<title>Node8</title>
<g id="a_node8"><a xlink:href="classcom_1_1example_1_1renderer_1_1visitor_1_1JSONExportVisitor.html#af42c3f77485d750dc6ec27edc31c1bf7" target="_top" xlink:title="将矩形对象转换为JSON格式输出">
<polygon fill="white" stroke="black" points="275,-0.5 275,-30.5 451,-30.5 451,-0.5 275,-0.5"/>
<text text-anchor="start" x="283" y="-18.5" font-family="Helvetica,sans-Serif" font-size="10.00">com.example.renderer.visitor.</text>
<text text-anchor="middle" x="363" y="-7.5" font-family="Helvetica,sans-Serif" font-size="10.00">JSONExportVisitor.visitRectangle</text>
</a>
</g>
</g>
<!-- Node1&#45;&gt;Node8 -->
<g id="edge7" class="edge">
<title>Node1&#45;&gt;Node8</title>
<path fill="none" stroke="midnightblue" d="M576.98,-139.02C556.62,-111.08 518.81,-65.11 475,-40.5 467.59,-36.34 459.54,-32.87 451.28,-29.98"/>
<polygon fill="midnightblue" stroke="midnightblue" points="574.31,-141.3 582.96,-147.41 580,-137.23 574.31,-141.3"/>
</g>
<!-- Node9 -->
<g id="node9" class="node">
<title>Node9</title>
<g id="a_node9"><a xlink:href="classcom_1_1example_1_1renderer_1_1visitor_1_1JSONExportVisitorTest.html#ae9fbae701c3e953b750637b740dbedfc" target="_top" xlink:title=" ">
<polygon fill="white" stroke="black" points="0,-0.5 0,-30.5 215,-30.5 215,-0.5 0,-0.5"/>
<text text-anchor="start" x="8" y="-18.5" font-family="Helvetica,sans-Serif" font-size="10.00">com.example.renderer.visitor.</text>
<text text-anchor="middle" x="107.5" y="-7.5" font-family="Helvetica,sans-Serif" font-size="10.00">JSONExportVisitorTest.testVisitRectangle</text>
</a>
</g>
</g>
<!-- Node8&#45;&gt;Node9 -->
<g id="edge8" class="edge">
<title>Node8&#45;&gt;Node9</title>
<path fill="none" stroke="midnightblue" d="M264.76,-15.5C248.53,-15.5 231.62,-15.5 215.17,-15.5"/>
<polygon fill="midnightblue" stroke="midnightblue" points="264.76,-19 274.76,-15.5 264.76,-12 264.76,-19"/>
</g>
</g>
</svg>
