<?xml version="1.0" encoding="UTF-8" standalone="no"?>
<!DOCTYPE svg PUBLIC "-//W3C//DTD SVG 1.1//EN"
 "http://www.w3.org/Graphics/SVG/1.1/DTD/svg11.dtd">
<!-- Generated by graphviz version 2.43.0 (0)
 -->
<!-- Title: com.example.renderer.bridge.MockGraphics2D Pages: 1 -->
<svg width="175pt" height="106pt"
 viewBox="0.00 0.00 175.00 106.00" xmlns="http://www.w3.org/2000/svg" xmlns:xlink="http://www.w3.org/1999/xlink">
<g id="graph0" class="graph" transform="scale(1 1) rotate(0) translate(4 102)">
<title>com.example.renderer.bridge.MockGraphics2D</title>
<polygon fill="white" stroke="transparent" points="-4,4 -4,-102 171,-102 171,4 -4,4"/>
<!-- Node1 -->
<g id="node1" class="node">
<title>Node1</title>
<g id="a_node1"><a xlink:title=" ">
<polygon fill="#bfbfbf" stroke="black" points="0,-0.5 0,-30.5 164,-30.5 164,-0.5 0,-0.5"/>
<text text-anchor="start" x="8" y="-18.5" font-family="Helvetica,sans-Serif" font-size="10.00">com.example.renderer.bridge.</text>
<text text-anchor="middle" x="82" y="-7.5" font-family="Helvetica,sans-Serif" font-size="10.00">MockGraphics2D</text>
</a>
</g>
</g>
<!-- Node2 -->
<g id="node2" class="node">
<title>Node2</title>
<g id="a_node2"><a xlink:title=" ">
<polygon fill="white" stroke="#bfbfbf" points="7.5,-78.5 7.5,-97.5 80.5,-97.5 80.5,-78.5 7.5,-78.5"/>
<text text-anchor="middle" x="44" y="-85.5" font-family="Helvetica,sans-Serif" font-size="10.00">Graphics2D</text>
</a>
</g>
</g>
<!-- Node2&#45;&gt;Node1 -->
<g id="edge1" class="edge">
<title>Node2&#45;&gt;Node1</title>
<path fill="none" stroke="midnightblue" d="M53.53,-69.32C59.99,-57.34 68.41,-41.72 74.41,-30.58"/>
<polygon fill="midnightblue" stroke="midnightblue" points="50.32,-67.89 48.66,-78.36 56.49,-71.21 50.32,-67.89"/>
</g>
<!-- Node3 -->
<g id="node3" class="node">
<title>Node3</title>
<g id="a_node3"><a xlink:title=" ">
<polygon fill="white" stroke="#bfbfbf" points="99,-78.5 99,-97.5 141,-97.5 141,-78.5 99,-78.5"/>
<text text-anchor="middle" x="120" y="-85.5" font-family="Helvetica,sans-Serif" font-size="10.00">Color</text>
</a>
</g>
</g>
<!-- Node3&#45;&gt;Node1 -->
<g id="edge2" class="edge">
<title>Node3&#45;&gt;Node1</title>
<path fill="none" stroke="#9a32cd" stroke-dasharray="5,2" d="M110.47,-69.32C104.01,-57.34 95.59,-41.72 89.59,-30.58"/>
<polygon fill="#9a32cd" stroke="#9a32cd" points="107.51,-71.21 115.34,-78.36 113.68,-67.89 107.51,-71.21"/>
<text text-anchor="middle" x="135.5" y="-52" font-family="Helvetica,sans-Serif" font-size="10.00"> lastColorSet</text>
</g>
</g>
</svg>
