<?xml version="1.0" encoding="UTF-8" standalone="no"?>
<!DOCTYPE svg PUBLIC "-//W3C//DTD SVG 1.1//EN"
 "http://www.w3.org/Graphics/SVG/1.1/DTD/svg11.dtd">
<!-- Generated by graphviz version 2.43.0 (0)
 -->
<!-- Title: com.example.renderer.factory.RectangleTest.testMove_ZeroMovement Pages: 1 -->
<svg width="424pt" height="137pt"
 viewBox="0.00 0.00 424.00 137.00" xmlns="http://www.w3.org/2000/svg" xmlns:xlink="http://www.w3.org/1999/xlink">
<g id="graph0" class="graph" transform="scale(1 1) rotate(0) translate(4 133)">
<title>com.example.renderer.factory.RectangleTest.testMove_ZeroMovement</title>
<polygon fill="white" stroke="transparent" points="-4,4 -4,-133 420,-133 420,4 -4,4"/>
<!-- Node1 -->
<g id="node1" class="node">
<title>Node1</title>
<g id="a_node1"><a xlink:title=" ">
<polygon fill="#bfbfbf" stroke="black" points="0,-49.5 0,-79.5 214,-79.5 214,-49.5 0,-49.5"/>
<text text-anchor="start" x="8" y="-67.5" font-family="Helvetica,sans-Serif" font-size="10.00">com.example.renderer.factory.</text>
<text text-anchor="middle" x="107" y="-56.5" font-family="Helvetica,sans-Serif" font-size="10.00">RectangleTest.testMove_ZeroMovement</text>
</a>
</g>
</g>
<!-- Node2 -->
<g id="node2" class="node">
<title>Node2</title>
<g id="a_node2"><a xlink:href="classcom_1_1example_1_1renderer_1_1factory_1_1Rectangle.html#a04a2b038cf6f21b0875a6bce7dd479e0" target="_top" xlink:title="获取矩形左上角x坐标">
<polygon fill="white" stroke="black" points="250,-98.5 250,-128.5 416,-128.5 416,-98.5 250,-98.5"/>
<text text-anchor="start" x="258" y="-116.5" font-family="Helvetica,sans-Serif" font-size="10.00">com.example.renderer.factory.</text>
<text text-anchor="middle" x="333" y="-105.5" font-family="Helvetica,sans-Serif" font-size="10.00">Rectangle.getX</text>
</a>
</g>
</g>
<!-- Node1&#45;&gt;Node2 -->
<g id="edge1" class="edge">
<title>Node1&#45;&gt;Node2</title>
<path fill="none" stroke="midnightblue" d="M176.73,-79.53C201.03,-84.85 228.53,-90.87 253.57,-96.34"/>
<polygon fill="midnightblue" stroke="midnightblue" points="252.88,-99.78 263.4,-98.49 254.38,-92.94 252.88,-99.78"/>
</g>
<!-- Node3 -->
<g id="node3" class="node">
<title>Node3</title>
<g id="a_node3"><a xlink:href="classcom_1_1example_1_1renderer_1_1factory_1_1Rectangle.html#a8086515b4c50de24274dace98a8ca9ea" target="_top" xlink:title="获取矩形左上角Y坐标">
<polygon fill="white" stroke="black" points="250,-49.5 250,-79.5 416,-79.5 416,-49.5 250,-49.5"/>
<text text-anchor="start" x="258" y="-67.5" font-family="Helvetica,sans-Serif" font-size="10.00">com.example.renderer.factory.</text>
<text text-anchor="middle" x="333" y="-56.5" font-family="Helvetica,sans-Serif" font-size="10.00">Rectangle.getY</text>
</a>
</g>
</g>
<!-- Node1&#45;&gt;Node3 -->
<g id="edge2" class="edge">
<title>Node1&#45;&gt;Node3</title>
<path fill="none" stroke="midnightblue" d="M214.1,-64.5C222.62,-64.5 231.19,-64.5 239.6,-64.5"/>
<polygon fill="midnightblue" stroke="midnightblue" points="239.78,-68 249.78,-64.5 239.78,-61 239.78,-68"/>
</g>
<!-- Node4 -->
<g id="node4" class="node">
<title>Node4</title>
<g id="a_node4"><a xlink:href="classcom_1_1example_1_1renderer_1_1factory_1_1Rectangle.html#a85e3c1cc786f02d3b62399193b44a554" target="_top" xlink:title="移动图形的位置。 根据给定的偏移量调整图形的坐标位置，正数表示向右/下移动，负数表示向左/上移动。">
<polygon fill="white" stroke="black" points="250,-0.5 250,-30.5 416,-30.5 416,-0.5 250,-0.5"/>
<text text-anchor="start" x="258" y="-18.5" font-family="Helvetica,sans-Serif" font-size="10.00">com.example.renderer.factory.</text>
<text text-anchor="middle" x="333" y="-7.5" font-family="Helvetica,sans-Serif" font-size="10.00">Rectangle.move</text>
</a>
</g>
</g>
<!-- Node1&#45;&gt;Node4 -->
<g id="edge3" class="edge">
<title>Node1&#45;&gt;Node4</title>
<path fill="none" stroke="midnightblue" d="M176.73,-49.47C201.03,-44.15 228.53,-38.13 253.57,-32.66"/>
<polygon fill="midnightblue" stroke="midnightblue" points="254.38,-36.06 263.4,-30.51 252.88,-29.22 254.38,-36.06"/>
</g>
</g>
</svg>
