<?xml version="1.0" encoding="UTF-8" standalone="no"?>
<!DOCTYPE svg PUBLIC "-//W3C//DTD SVG 1.1//EN"
 "http://www.w3.org/Graphics/SVG/1.1/DTD/svg11.dtd">
<!-- Generated by graphviz version 2.43.0 (0)
 -->
<!-- Title: com.example.renderer.visitor.JSONExportVisitor.visitCircle Pages: 1 -->
<svg width="373pt" height="137pt"
 viewBox="0.00 0.00 373.00 137.00" xmlns="http://www.w3.org/2000/svg" xmlns:xlink="http://www.w3.org/1999/xlink">
<g id="graph0" class="graph" transform="scale(1 1) rotate(0) translate(4 133)">
<title>com.example.renderer.visitor.JSONExportVisitor.visitCircle</title>
<polygon fill="white" stroke="transparent" points="-4,4 -4,-133 369,-133 369,4 -4,4"/>
<!-- Node1 -->
<g id="node1" class="node">
<title>Node1</title>
<g id="a_node1"><a xlink:title="将圆形对象转换为JSON格式输出 格式: {&quot;type&quot;:&quot;circle&quot;, &quot;x&quot;:x, &quot;y&quot;:y, &quot;r&quot;:radius}">
<polygon fill="#bfbfbf" stroke="black" points="0,-49.5 0,-79.5 163,-79.5 163,-49.5 0,-49.5"/>
<text text-anchor="start" x="8" y="-67.5" font-family="Helvetica,sans-Serif" font-size="10.00">com.example.renderer.visitor.</text>
<text text-anchor="middle" x="81.5" y="-56.5" font-family="Helvetica,sans-Serif" font-size="10.00">JSONExportVisitor.visitCircle</text>
</a>
</g>
</g>
<!-- Node2 -->
<g id="node2" class="node">
<title>Node2</title>
<g id="a_node2"><a xlink:href="classcom_1_1example_1_1renderer_1_1factory_1_1Circle.html#a19c164413905081dca567f76825c5e2e" target="_top" xlink:title="获取圆形半径。">
<polygon fill="white" stroke="black" points="199,-98.5 199,-128.5 365,-128.5 365,-98.5 199,-98.5"/>
<text text-anchor="start" x="207" y="-116.5" font-family="Helvetica,sans-Serif" font-size="10.00">com.example.renderer.factory.</text>
<text text-anchor="middle" x="282" y="-105.5" font-family="Helvetica,sans-Serif" font-size="10.00">Circle.getR</text>
</a>
</g>
</g>
<!-- Node1&#45;&gt;Node2 -->
<g id="edge1" class="edge">
<title>Node1&#45;&gt;Node2</title>
<path fill="none" stroke="midnightblue" d="M143.41,-79.53C164.55,-84.76 188.45,-90.65 210.32,-96.05"/>
<polygon fill="midnightblue" stroke="midnightblue" points="209.66,-99.5 220.21,-98.49 211.34,-92.7 209.66,-99.5"/>
</g>
<!-- Node3 -->
<g id="node3" class="node">
<title>Node3</title>
<g id="a_node3"><a xlink:href="classcom_1_1example_1_1renderer_1_1factory_1_1Circle.html#a5d9565191f8b24714037adaafb0145f2" target="_top" xlink:title="获取圆心x坐标">
<polygon fill="white" stroke="black" points="199,-49.5 199,-79.5 365,-79.5 365,-49.5 199,-49.5"/>
<text text-anchor="start" x="207" y="-67.5" font-family="Helvetica,sans-Serif" font-size="10.00">com.example.renderer.factory.</text>
<text text-anchor="middle" x="282" y="-56.5" font-family="Helvetica,sans-Serif" font-size="10.00">Circle.getX</text>
</a>
</g>
</g>
<!-- Node1&#45;&gt;Node3 -->
<g id="edge2" class="edge">
<title>Node1&#45;&gt;Node3</title>
<path fill="none" stroke="midnightblue" d="M163.24,-64.5C171.56,-64.5 180.05,-64.5 188.49,-64.5"/>
<polygon fill="midnightblue" stroke="midnightblue" points="188.72,-68 198.72,-64.5 188.72,-61 188.72,-68"/>
</g>
<!-- Node4 -->
<g id="node4" class="node">
<title>Node4</title>
<g id="a_node4"><a xlink:href="classcom_1_1example_1_1renderer_1_1factory_1_1Circle.html#adbf586a9c1761dce695dce96c7539a18" target="_top" xlink:title="获取圆心y坐标">
<polygon fill="white" stroke="black" points="199,-0.5 199,-30.5 365,-30.5 365,-0.5 199,-0.5"/>
<text text-anchor="start" x="207" y="-18.5" font-family="Helvetica,sans-Serif" font-size="10.00">com.example.renderer.factory.</text>
<text text-anchor="middle" x="282" y="-7.5" font-family="Helvetica,sans-Serif" font-size="10.00">Circle.getY</text>
</a>
</g>
</g>
<!-- Node1&#45;&gt;Node4 -->
<g id="edge3" class="edge">
<title>Node1&#45;&gt;Node4</title>
<path fill="none" stroke="midnightblue" d="M143.41,-49.47C164.55,-44.24 188.45,-38.35 210.32,-32.95"/>
<polygon fill="midnightblue" stroke="midnightblue" points="211.34,-36.3 220.21,-30.51 209.66,-29.5 211.34,-36.3"/>
</g>
</g>
</svg>
