<?xml version="1.0" encoding="UTF-8" standalone="no"?>
<!DOCTYPE svg PUBLIC "-//W3C//DTD SVG 1.1//EN"
 "http://www.w3.org/Graphics/SVG/1.1/DTD/svg11.dtd">
<!-- Generated by graphviz version 2.43.0 (0)
 -->
<!-- Title: com.example.renderer.factory.RectangleTest.testMove_ExtremeNegativeValues Pages: 1 -->
<svg width="434pt" height="137pt"
 viewBox="0.00 0.00 434.00 137.00" xmlns="http://www.w3.org/2000/svg" xmlns:xlink="http://www.w3.org/1999/xlink">
<g id="graph0" class="graph" transform="scale(1 1) rotate(0) translate(4 133)">
<title>com.example.renderer.factory.RectangleTest.testMove_ExtremeNegativeValues</title>
<polygon fill="white" stroke="transparent" points="-4,4 -4,-133 430,-133 430,4 -4,4"/>
<!-- Node1 -->
<g id="node1" class="node">
<title>Node1</title>
<g id="a_node1"><a xlink:title=" ">
<polygon fill="#bfbfbf" stroke="black" points="0,-44 0,-85 224,-85 224,-44 0,-44"/>
<text text-anchor="start" x="8" y="-73" font-family="Helvetica,sans-Serif" font-size="10.00">com.example.renderer.factory.</text>
<text text-anchor="start" x="8" y="-62" font-family="Helvetica,sans-Serif" font-size="10.00">RectangleTest.testMove_ExtremeNegative</text>
<text text-anchor="middle" x="112" y="-51" font-family="Helvetica,sans-Serif" font-size="10.00">Values</text>
</a>
</g>
</g>
<!-- Node2 -->
<g id="node2" class="node">
<title>Node2</title>
<g id="a_node2"><a xlink:href="classcom_1_1example_1_1renderer_1_1factory_1_1Rectangle.html#a04a2b038cf6f21b0875a6bce7dd479e0" target="_top" xlink:title="获取矩形左上角x坐标">
<polygon fill="white" stroke="black" points="260,-98.5 260,-128.5 426,-128.5 426,-98.5 260,-98.5"/>
<text text-anchor="start" x="268" y="-116.5" font-family="Helvetica,sans-Serif" font-size="10.00">com.example.renderer.factory.</text>
<text text-anchor="middle" x="343" y="-105.5" font-family="Helvetica,sans-Serif" font-size="10.00">Rectangle.getX</text>
</a>
</g>
</g>
<!-- Node1&#45;&gt;Node2 -->
<g id="edge1" class="edge">
<title>Node1&#45;&gt;Node2</title>
<path fill="none" stroke="midnightblue" d="M209.12,-85.07C226.72,-88.83 244.91,-92.73 261.98,-96.38"/>
<polygon fill="midnightblue" stroke="midnightblue" points="261.37,-99.83 271.88,-98.5 262.84,-92.98 261.37,-99.83"/>
</g>
<!-- Node3 -->
<g id="node3" class="node">
<title>Node3</title>
<g id="a_node3"><a xlink:href="classcom_1_1example_1_1renderer_1_1factory_1_1Rectangle.html#a8086515b4c50de24274dace98a8ca9ea" target="_top" xlink:title="获取矩形左上角Y坐标">
<polygon fill="white" stroke="black" points="260,-49.5 260,-79.5 426,-79.5 426,-49.5 260,-49.5"/>
<text text-anchor="start" x="268" y="-67.5" font-family="Helvetica,sans-Serif" font-size="10.00">com.example.renderer.factory.</text>
<text text-anchor="middle" x="343" y="-56.5" font-family="Helvetica,sans-Serif" font-size="10.00">Rectangle.getY</text>
</a>
</g>
</g>
<!-- Node1&#45;&gt;Node3 -->
<g id="edge2" class="edge">
<title>Node1&#45;&gt;Node3</title>
<path fill="none" stroke="midnightblue" d="M224.15,-64.5C232.73,-64.5 241.35,-64.5 249.79,-64.5"/>
<polygon fill="midnightblue" stroke="midnightblue" points="250,-68 260,-64.5 250,-61 250,-68"/>
</g>
<!-- Node4 -->
<g id="node4" class="node">
<title>Node4</title>
<g id="a_node4"><a xlink:href="classcom_1_1example_1_1renderer_1_1factory_1_1Rectangle.html#a85e3c1cc786f02d3b62399193b44a554" target="_top" xlink:title="移动图形的位置。 根据给定的偏移量调整图形的坐标位置，正数表示向右/下移动，负数表示向左/上移动。">
<polygon fill="white" stroke="black" points="260,-0.5 260,-30.5 426,-30.5 426,-0.5 260,-0.5"/>
<text text-anchor="start" x="268" y="-18.5" font-family="Helvetica,sans-Serif" font-size="10.00">com.example.renderer.factory.</text>
<text text-anchor="middle" x="343" y="-7.5" font-family="Helvetica,sans-Serif" font-size="10.00">Rectangle.move</text>
</a>
</g>
</g>
<!-- Node1&#45;&gt;Node4 -->
<g id="edge3" class="edge">
<title>Node1&#45;&gt;Node4</title>
<path fill="none" stroke="midnightblue" d="M209.12,-43.93C226.72,-40.17 244.91,-36.27 261.98,-32.62"/>
<polygon fill="midnightblue" stroke="midnightblue" points="262.84,-36.02 271.88,-30.5 261.37,-29.17 262.84,-36.02"/>
</g>
</g>
</svg>
