<?xml version="1.0" encoding="UTF-8" standalone="no"?>
<!DOCTYPE svg PUBLIC "-//W3C//DTD SVG 1.1//EN"
 "http://www.w3.org/Graphics/SVG/1.1/DTD/svg11.dtd">
<!-- Generated by graphviz version 2.43.0 (0)
 -->
<!-- Title: com.example.renderer.legacy.LegacyRenderer.drawLegacyEllipse Pages: 1 -->
<svg width="429pt" height="100pt"
 viewBox="0.00 0.00 429.00 99.50" xmlns="http://www.w3.org/2000/svg" xmlns:xlink="http://www.w3.org/1999/xlink">
<g id="graph0" class="graph" transform="scale(1 1) rotate(0) translate(4 95.5)">
<title>com.example.renderer.legacy.LegacyRenderer.drawLegacyEllipse</title>
<polygon fill="white" stroke="transparent" points="-4,4 -4,-95.5 425,-95.5 425,4 -4,4"/>
<!-- Node1 -->
<g id="node1" class="node">
<title>Node1</title>
<g id="a_node1"><a xlink:title=" ">
<polygon fill="#bfbfbf" stroke="black" points="233,-33 233,-63 421,-63 421,-33 233,-33"/>
<text text-anchor="start" x="241" y="-51" font-family="Helvetica,sans-Serif" font-size="10.00">com.example.renderer.legacy.</text>
<text text-anchor="middle" x="327" y="-40" font-family="Helvetica,sans-Serif" font-size="10.00">LegacyRenderer.drawLegacyEllipse</text>
</a>
</g>
</g>
<!-- Node2 -->
<g id="node2" class="node">
<title>Node2</title>
<g id="a_node2"><a xlink:href="classcom_1_1example_1_1renderer_1_1adapter_1_1LegacyRendererAdapter.html#ab1552c80c0acb89b642022f3d96236a5" target="_top" xlink:title="绘制椭圆，转发调用到LegacyRenderer的drawLegacyEllipse()方法。">
<polygon fill="white" stroke="black" points="2.5,-61 2.5,-91 194.5,-91 194.5,-61 2.5,-61"/>
<text text-anchor="start" x="10.5" y="-79" font-family="Helvetica,sans-Serif" font-size="10.00">com.example.renderer.adapter.</text>
<text text-anchor="middle" x="98.5" y="-68" font-family="Helvetica,sans-Serif" font-size="10.00">LegacyRendererAdapter.drawEllipse</text>
</a>
</g>
</g>
<!-- Node1&#45;&gt;Node2 -->
<g id="edge1" class="edge">
<title>Node1&#45;&gt;Node2</title>
<path fill="none" stroke="midnightblue" d="M222.82,-60.76C213.49,-61.91 204.07,-63.07 194.81,-64.22"/>
<polygon fill="midnightblue" stroke="midnightblue" points="223.4,-64.21 232.89,-59.51 222.54,-57.26 223.4,-64.21"/>
</g>
<!-- Node3 -->
<g id="node3" class="node">
<title>Node3</title>
<g id="a_node3"><a xlink:href="classcom_1_1example_1_1renderer_1_1adapter_1_1LegacyRendererTest.html#a79a304fb799a7737986e8066e0f91741" target="_top" xlink:title=" ">
<polygon fill="white" stroke="black" points="0,-0.5 0,-41.5 197,-41.5 197,-0.5 0,-0.5"/>
<text text-anchor="start" x="8" y="-29.5" font-family="Helvetica,sans-Serif" font-size="10.00">com.example.renderer.adapter.</text>
<text text-anchor="start" x="8" y="-18.5" font-family="Helvetica,sans-Serif" font-size="10.00">LegacyRendererTest.testDrawLegacy</text>
<text text-anchor="middle" x="98.5" y="-7.5" font-family="Helvetica,sans-Serif" font-size="10.00">Ellipse</text>
</a>
</g>
</g>
<!-- Node1&#45;&gt;Node3 -->
<g id="edge2" class="edge">
<title>Node1&#45;&gt;Node3</title>
<path fill="none" stroke="midnightblue" d="M222.85,-35.7C214.25,-34.68 205.57,-33.64 197.02,-32.62"/>
<polygon fill="midnightblue" stroke="midnightblue" points="222.55,-39.19 232.89,-36.9 223.38,-32.24 222.55,-39.19"/>
</g>
</g>
</svg>
