<?xml version="1.0" encoding="UTF-8" standalone="no"?>
<!DOCTYPE svg PUBLIC "-//W3C//DTD SVG 1.1//EN"
 "http://www.w3.org/Graphics/SVG/1.1/DTD/svg11.dtd">
<!-- Generated by graphviz version 2.43.0 (0)
 -->
<!-- Title: com.example.renderer.proxy.RemoteRendererProxy.drawTriangle Pages: 1 -->
<svg width="431pt" height="50pt"
 viewBox="0.00 0.00 431.00 50.00" xmlns="http://www.w3.org/2000/svg" xmlns:xlink="http://www.w3.org/1999/xlink">
<g id="graph0" class="graph" transform="scale(1 1) rotate(0) translate(4 46)">
<title>com.example.renderer.proxy.RemoteRendererProxy.drawTriangle</title>
<polygon fill="white" stroke="transparent" points="-4,4 -4,-46 427,-46 427,4 -4,4"/>
<!-- Node1 -->
<g id="node1" class="node">
<title>Node1</title>
<g id="a_node1"><a xlink:title="绘制三角形">
<polygon fill="#bfbfbf" stroke="black" points="232,-6 232,-36 423,-36 423,-6 232,-6"/>
<text text-anchor="start" x="240" y="-24" font-family="Helvetica,sans-Serif" font-size="10.00">com.example.renderer.proxy.</text>
<text text-anchor="middle" x="327.5" y="-13" font-family="Helvetica,sans-Serif" font-size="10.00">RemoteRendererProxy.drawTriangle</text>
</a>
</g>
</g>
<!-- Node2 -->
<g id="node2" class="node">
<title>Node2</title>
<g id="a_node2"><a xlink:href="classcom_1_1example_1_1renderer_1_1proxy_1_1RemoteRendererProxyTest.html#a785672431f7951f8d26c27fece370ad8" target="_top" xlink:title="测试代理模式是否正确转发所有渲染方法调用到真实渲染器。">
<polygon fill="white" stroke="black" points="0,-0.5 0,-41.5 196,-41.5 196,-0.5 0,-0.5"/>
<text text-anchor="start" x="8" y="-29.5" font-family="Helvetica,sans-Serif" font-size="10.00">com.example.renderer.proxy.</text>
<text text-anchor="start" x="8" y="-18.5" font-family="Helvetica,sans-Serif" font-size="10.00">RemoteRendererProxyTest.testProxy</text>
<text text-anchor="middle" x="98" y="-7.5" font-family="Helvetica,sans-Serif" font-size="10.00">CallsRealRenderer</text>
</a>
</g>
</g>
<!-- Node1&#45;&gt;Node2 -->
<g id="edge1" class="edge">
<title>Node1&#45;&gt;Node2</title>
<path fill="none" stroke="midnightblue" d="M221.95,-21C213.35,-21 204.68,-21 196.14,-21"/>
<polygon fill="midnightblue" stroke="midnightblue" points="222,-24.5 232,-21 222,-17.5 222,-24.5"/>
</g>
</g>
</svg>
