<?xml version="1.0" encoding="UTF-8" standalone="no"?>
<!DOCTYPE svg PUBLIC "-//W3C//DTD SVG 1.1//EN"
 "http://www.w3.org/Graphics/SVG/1.1/DTD/svg11.dtd">
<!-- Generated by graphviz version 2.43.0 (0)
 -->
<!-- Title: com.example.renderer.bridge.SwingRenderer.drawCircle Pages: 1 -->
<svg width="393pt" height="170pt"
 viewBox="0.00 0.00 393.00 170.00" xmlns="http://www.w3.org/2000/svg" xmlns:xlink="http://www.w3.org/1999/xlink">
<g id="graph0" class="graph" transform="scale(1 1) rotate(0) translate(4 166)">
<title>com.example.renderer.bridge.SwingRenderer.drawCircle</title>
<polygon fill="white" stroke="transparent" points="-4,4 -4,-166 389,-166 389,4 -4,4"/>
<!-- Node1 -->
<g id="node1" class="node">
<title>Node1</title>
<g id="a_node1"><a xlink:title="绘制圆形">
<polygon fill="#bfbfbf" stroke="black" points="221,-66 221,-96 385,-96 385,-66 221,-66"/>
<text text-anchor="start" x="229" y="-84" font-family="Helvetica,sans-Serif" font-size="10.00">com.example.renderer.bridge.</text>
<text text-anchor="middle" x="303" y="-73" font-family="Helvetica,sans-Serif" font-size="10.00">SwingRenderer.drawCircle</text>
</a>
</g>
</g>
<!-- Node2 -->
<g id="node2" class="node">
<title>Node2</title>
<g id="a_node2"><a xlink:href="classcom_1_1example_1_1renderer_1_1bridge_1_1SwingRendererTest.html#a16fff868c54ebca7203864758652290f" target="_top" xlink:title=" ">
<polygon fill="white" stroke="black" points="0,-120.5 0,-161.5 185,-161.5 185,-120.5 0,-120.5"/>
<text text-anchor="start" x="8" y="-149.5" font-family="Helvetica,sans-Serif" font-size="10.00">com.example.renderer.bridge.</text>
<text text-anchor="start" x="8" y="-138.5" font-family="Helvetica,sans-Serif" font-size="10.00">SwingRendererTest.testDrawCircle</text>
<text text-anchor="middle" x="92.5" y="-127.5" font-family="Helvetica,sans-Serif" font-size="10.00">_DelegatesToGraphicsDrawOval</text>
</a>
</g>
</g>
<!-- Node1&#45;&gt;Node2 -->
<g id="edge1" class="edge">
<title>Node1&#45;&gt;Node2</title>
<path fill="none" stroke="midnightblue" d="M239.77,-98.91C216.18,-105.7 189.14,-113.48 164.78,-120.49"/>
<polygon fill="midnightblue" stroke="midnightblue" points="241.01,-102.19 249.66,-96.06 239.08,-95.47 241.01,-102.19"/>
</g>
<!-- Node3 -->
<g id="node3" class="node">
<title>Node3</title>
<g id="a_node3"><a xlink:href="classcom_1_1example_1_1renderer_1_1bridge_1_1SwingRendererTest.html#a94f929f156ab34173fef338abbd776f5" target="_top" xlink:title=" ">
<polygon fill="white" stroke="black" points="0,-60.5 0,-101.5 185,-101.5 185,-60.5 0,-60.5"/>
<text text-anchor="start" x="8" y="-89.5" font-family="Helvetica,sans-Serif" font-size="10.00">com.example.renderer.bridge.</text>
<text text-anchor="start" x="8" y="-78.5" font-family="Helvetica,sans-Serif" font-size="10.00">SwingRendererTest.testDrawCircle</text>
<text text-anchor="middle" x="92.5" y="-67.5" font-family="Helvetica,sans-Serif" font-size="10.00">_InvalidRadius</text>
</a>
</g>
</g>
<!-- Node1&#45;&gt;Node3 -->
<g id="edge2" class="edge">
<title>Node1&#45;&gt;Node3</title>
<path fill="none" stroke="midnightblue" d="M210.59,-81C202.17,-81 193.64,-81 185.21,-81"/>
<polygon fill="midnightblue" stroke="midnightblue" points="210.79,-84.5 220.79,-81 210.79,-77.5 210.79,-84.5"/>
</g>
<!-- Node4 -->
<g id="node4" class="node">
<title>Node4</title>
<g id="a_node4"><a xlink:href="classcom_1_1example_1_1renderer_1_1bridge_1_1SwingRendererTest.html#accc2b99bfa73aafdda2dd3ef3dc7d0e8" target="_top" xlink:title=" ">
<polygon fill="white" stroke="black" points="0,-0.5 0,-41.5 185,-41.5 185,-0.5 0,-0.5"/>
<text text-anchor="start" x="8" y="-29.5" font-family="Helvetica,sans-Serif" font-size="10.00">com.example.renderer.bridge.</text>
<text text-anchor="start" x="8" y="-18.5" font-family="Helvetica,sans-Serif" font-size="10.00">SwingRendererTest.testDrawCircle</text>
<text text-anchor="middle" x="92.5" y="-7.5" font-family="Helvetica,sans-Serif" font-size="10.00">_MaxRadius</text>
</a>
</g>
</g>
<!-- Node1&#45;&gt;Node4 -->
<g id="edge3" class="edge">
<title>Node1&#45;&gt;Node4</title>
<path fill="none" stroke="midnightblue" d="M239.77,-63.09C216.18,-56.3 189.14,-48.52 164.78,-41.51"/>
<polygon fill="midnightblue" stroke="midnightblue" points="239.08,-66.53 249.66,-65.94 241.01,-59.81 239.08,-66.53"/>
</g>
</g>
</svg>
