<?xml version="1.0" encoding="UTF-8" standalone="no"?>
<!DOCTYPE svg PUBLIC "-//W3C//DTD SVG 1.1//EN"
 "http://www.w3.org/Graphics/SVG/1.1/DTD/svg11.dtd">
<!-- Generated by graphviz version 2.43.0 (0)
 -->
<!-- Title: com.example.renderer.ui.SwingUITest Pages: 1 -->
<svg width="754pt" height="127pt"
 viewBox="0.00 0.00 754.00 126.50" xmlns="http://www.w3.org/2000/svg" xmlns:xlink="http://www.w3.org/1999/xlink">
<g id="graph0" class="graph" transform="scale(1 1) rotate(0) translate(4 122.5)">
<title>com.example.renderer.ui.SwingUITest</title>
<polygon fill="white" stroke="transparent" points="-4,4 -4,-122.5 750,-122.5 750,4 -4,4"/>
<!-- Node1 -->
<g id="node1" class="node">
<title>Node1</title>
<g id="a_node1"><a xlink:title=" ">
<polygon fill="#bfbfbf" stroke="black" points="604,-49.5 604,-79.5 746,-79.5 746,-49.5 604,-49.5"/>
<text text-anchor="start" x="612" y="-67.5" font-family="Helvetica,sans-Serif" font-size="10.00">com.example.renderer.ui.</text>
<text text-anchor="middle" x="675" y="-56.5" font-family="Helvetica,sans-Serif" font-size="10.00">SwingUITest</text>
</a>
</g>
</g>
<!-- Node2 -->
<g id="node2" class="node">
<title>Node2</title>
<g id="a_node2"><a xlink:href="classcom_1_1example_1_1renderer_1_1ui_1_1SwingUI.html" target="_top" xlink:title=" ">
<polygon fill="white" stroke="black" points="425,-49.5 425,-79.5 567,-79.5 567,-49.5 425,-49.5"/>
<text text-anchor="start" x="433" y="-67.5" font-family="Helvetica,sans-Serif" font-size="10.00">com.example.renderer.ui.</text>
<text text-anchor="middle" x="496" y="-56.5" font-family="Helvetica,sans-Serif" font-size="10.00">SwingUI</text>
</a>
</g>
</g>
<!-- Node2&#45;&gt;Node1 -->
<g id="edge1" class="edge">
<title>Node2&#45;&gt;Node1</title>
<path fill="none" stroke="midnightblue" d="M577.48,-64.5C586.29,-64.5 595.21,-64.5 603.88,-64.5"/>
<polygon fill="midnightblue" stroke="midnightblue" points="577.21,-61 567.21,-64.5 577.21,-68 577.21,-61"/>
</g>
<!-- Node3 -->
<g id="node3" class="node">
<title>Node3</title>
<g id="a_node3"><a xlink:title=" ">
<polygon fill="white" stroke="#bfbfbf" points="147,-99 147,-118 197,-118 197,-99 147,-99"/>
<text text-anchor="middle" x="172" y="-106" font-family="Helvetica,sans-Serif" font-size="10.00">JFrame</text>
</a>
</g>
</g>
<!-- Node3&#45;&gt;Node2 -->
<g id="edge2" class="edge">
<title>Node3&#45;&gt;Node2</title>
<path fill="none" stroke="midnightblue" d="M207.15,-105.18C241.71,-101.71 296.65,-95.88 344,-89.5 372.1,-85.71 379.03,-84.1 407,-79.5 412.81,-78.54 418.84,-77.54 424.88,-76.53"/>
<polygon fill="midnightblue" stroke="midnightblue" points="206.72,-101.71 197.11,-106.18 207.41,-108.67 206.72,-101.71"/>
</g>
<!-- Node4 -->
<g id="node4" class="node">
<title>Node4</title>
<g id="a_node4"><a xlink:title=" ">
<polygon fill="white" stroke="#bfbfbf" points="0,-49.5 0,-79.5 344,-79.5 344,-49.5 0,-49.5"/>
<text text-anchor="start" x="8" y="-67.5" font-family="Helvetica,sans-Serif" font-size="10.00">List&lt; com.example.renderer.factory.com.example.renderer.factory.</text>
<text text-anchor="middle" x="172" y="-56.5" font-family="Helvetica,sans-Serif" font-size="10.00">Shape &gt;</text>
</a>
</g>
</g>
<!-- Node4&#45;&gt;Node2 -->
<g id="edge3" class="edge">
<title>Node4&#45;&gt;Node2</title>
<path fill="none" stroke="#9a32cd" stroke-dasharray="5,2" d="M354.66,-64.5C379.47,-64.5 403.61,-64.5 424.69,-64.5"/>
<polygon fill="#9a32cd" stroke="#9a32cd" points="354.37,-61 344.37,-64.5 354.37,-68 354.37,-61"/>
<text text-anchor="middle" x="384.5" y="-67.5" font-family="Helvetica,sans-Serif" font-size="10.00"> shapes</text>
</g>
<!-- Node5 -->
<g id="node5" class="node">
<title>Node5</title>
<g id="a_node5"><a xlink:href="interfacecom_1_1example_1_1renderer_1_1bridge_1_1Renderer.html" target="_top" xlink:title=" ">
<polygon fill="white" stroke="black" points="90,-0.5 90,-30.5 254,-30.5 254,-0.5 90,-0.5"/>
<text text-anchor="start" x="98" y="-18.5" font-family="Helvetica,sans-Serif" font-size="10.00">com.example.renderer.bridge.</text>
<text text-anchor="middle" x="172" y="-7.5" font-family="Helvetica,sans-Serif" font-size="10.00">Renderer</text>
</a>
</g>
</g>
<!-- Node5&#45;&gt;Node2 -->
<g id="edge4" class="edge">
<title>Node5&#45;&gt;Node2</title>
<path fill="none" stroke="#9a32cd" stroke-dasharray="5,2" d="M263.98,-28.19C307.33,-34.37 359.88,-42.06 407,-49.5 412.82,-50.42 418.85,-51.39 424.9,-52.39"/>
<polygon fill="#9a32cd" stroke="#9a32cd" points="264.42,-24.72 254.02,-26.77 263.43,-31.65 264.42,-24.72"/>
<text text-anchor="middle" x="384.5" y="-52.5" font-family="Helvetica,sans-Serif" font-size="10.00"> renderer</text>
</g>
</g>
</svg>
