<?xml version="1.0" encoding="UTF-8" standalone="no"?>
<!DOCTYPE svg PUBLIC "-//W3C//DTD SVG 1.1//EN"
 "http://www.w3.org/Graphics/SVG/1.1/DTD/svg11.dtd">
<!-- Generated by graphviz version 2.43.0 (0)
 -->
<!-- Title: com.example.renderer.factory.Ellipse.render Pages: 1 -->
<svg width="401pt" height="137pt"
 viewBox="0.00 0.00 401.00 137.00" xmlns="http://www.w3.org/2000/svg" xmlns:xlink="http://www.w3.org/1999/xlink">
<g id="graph0" class="graph" transform="scale(1 1) rotate(0) translate(4 133)">
<title>com.example.renderer.factory.Ellipse.render</title>
<polygon fill="white" stroke="transparent" points="-4,4 -4,-133 397,-133 397,4 -4,4"/>
<!-- Node1 -->
<g id="node1" class="node">
<title>Node1</title>
<g id="a_node1"><a xlink:title="使用指定渲染器绘制椭圆。">
<polygon fill="#bfbfbf" stroke="black" points="227,-49.5 227,-79.5 393,-79.5 393,-49.5 227,-49.5"/>
<text text-anchor="start" x="235" y="-67.5" font-family="Helvetica,sans-Serif" font-size="10.00">com.example.renderer.factory.</text>
<text text-anchor="middle" x="310" y="-56.5" font-family="Helvetica,sans-Serif" font-size="10.00">Ellipse.render</text>
</a>
</g>
</g>
<!-- Node2 -->
<g id="node2" class="node">
<title>Node2</title>
<g id="a_node2"><a xlink:href="classcom_1_1example_1_1renderer_1_1factory_1_1EllipseTest.html#a49066d43381c1d55b02a348569c5be44" target="_top" xlink:title="测试椭圆渲染功能。">
<polygon fill="white" stroke="black" points="12.5,-98.5 12.5,-128.5 178.5,-128.5 178.5,-98.5 12.5,-98.5"/>
<text text-anchor="start" x="20.5" y="-116.5" font-family="Helvetica,sans-Serif" font-size="10.00">com.example.renderer.factory.</text>
<text text-anchor="middle" x="95.5" y="-105.5" font-family="Helvetica,sans-Serif" font-size="10.00">EllipseTest.testRender</text>
</a>
</g>
</g>
<!-- Node1&#45;&gt;Node2 -->
<g id="edge1" class="edge">
<title>Node1&#45;&gt;Node2</title>
<path fill="none" stroke="midnightblue" d="M233.84,-81.83C210.25,-87.27 184.41,-93.23 161.58,-98.49"/>
<polygon fill="midnightblue" stroke="midnightblue" points="234.84,-85.19 243.8,-79.53 233.27,-78.37 234.84,-85.19"/>
</g>
<!-- Node3 -->
<g id="node3" class="node">
<title>Node3</title>
<g id="a_node3"><a xlink:href="classcom_1_1example_1_1renderer_1_1factory_1_1EllipseTest.html#af3f9c419bf644f4e2d977ab183ee3df7" target="_top" xlink:title=" ">
<polygon fill="white" stroke="black" points="1.5,-49.5 1.5,-79.5 189.5,-79.5 189.5,-49.5 1.5,-49.5"/>
<text text-anchor="start" x="9.5" y="-67.5" font-family="Helvetica,sans-Serif" font-size="10.00">com.example.renderer.factory.</text>
<text text-anchor="middle" x="95.5" y="-56.5" font-family="Helvetica,sans-Serif" font-size="10.00">EllipseTest.testRender_AfterScaling</text>
</a>
</g>
</g>
<!-- Node1&#45;&gt;Node3 -->
<g id="edge2" class="edge">
<title>Node1&#45;&gt;Node3</title>
<path fill="none" stroke="midnightblue" d="M216.79,-64.5C207.83,-64.5 198.73,-64.5 189.75,-64.5"/>
<polygon fill="midnightblue" stroke="midnightblue" points="216.84,-68 226.84,-64.5 216.84,-61 216.84,-68"/>
</g>
<!-- Node4 -->
<g id="node4" class="node">
<title>Node4</title>
<g id="a_node4"><a xlink:href="classcom_1_1example_1_1renderer_1_1factory_1_1EllipseTest.html#a8407f5b5483e923b8243266adc6ca48d" target="_top" xlink:title=" ">
<polygon fill="white" stroke="black" points="0,-0.5 0,-30.5 191,-30.5 191,-0.5 0,-0.5"/>
<text text-anchor="start" x="8" y="-18.5" font-family="Helvetica,sans-Serif" font-size="10.00">com.example.renderer.factory.</text>
<text text-anchor="middle" x="95.5" y="-7.5" font-family="Helvetica,sans-Serif" font-size="10.00">EllipseTest.testRender_ExtremeSize</text>
</a>
</g>
</g>
<!-- Node1&#45;&gt;Node4 -->
<g id="edge3" class="edge">
<title>Node1&#45;&gt;Node4</title>
<path fill="none" stroke="midnightblue" d="M233.84,-47.17C210.25,-41.73 184.41,-35.77 161.58,-30.51"/>
<polygon fill="midnightblue" stroke="midnightblue" points="233.27,-50.63 243.8,-49.47 234.84,-43.81 233.27,-50.63"/>
</g>
</g>
</svg>
