<?xml version="1.0" encoding="UTF-8" standalone="no"?>
<!DOCTYPE svg PUBLIC "-//W3C//DTD SVG 1.1//EN"
 "http://www.w3.org/Graphics/SVG/1.1/DTD/svg11.dtd">
<!-- Generated by graphviz version 2.43.0 (0)
 -->
<!-- Title: com.example.renderer.bridge.SwingRenderer Pages: 1 -->
<svg width="264pt" height="117pt"
 viewBox="0.00 0.00 263.50 117.00" xmlns="http://www.w3.org/2000/svg" xmlns:xlink="http://www.w3.org/1999/xlink">
<g id="graph0" class="graph" transform="scale(1 1) rotate(0) translate(4 113)">
<title>com.example.renderer.bridge.SwingRenderer</title>
<polygon fill="white" stroke="transparent" points="-4,4 -4,-113 259.5,-113 259.5,4 -4,4"/>
<!-- Node1 -->
<g id="node1" class="node">
<title>Node1</title>
<g id="a_node1"><a xlink:title=" ">
<polygon fill="#bfbfbf" stroke="black" points="68,-0.5 68,-30.5 232,-30.5 232,-0.5 68,-0.5"/>
<text text-anchor="start" x="76" y="-18.5" font-family="Helvetica,sans-Serif" font-size="10.00">com.example.renderer.bridge.</text>
<text text-anchor="middle" x="150" y="-7.5" font-family="Helvetica,sans-Serif" font-size="10.00">SwingRenderer</text>
</a>
</g>
</g>
<!-- Node2 -->
<g id="node2" class="node">
<title>Node2</title>
<g id="a_node2"><a xlink:href="interfacecom_1_1example_1_1renderer_1_1bridge_1_1Renderer.html" target="_top" xlink:title=" ">
<polygon fill="white" stroke="black" points="0,-78.5 0,-108.5 164,-108.5 164,-78.5 0,-78.5"/>
<text text-anchor="start" x="8" y="-96.5" font-family="Helvetica,sans-Serif" font-size="10.00">com.example.renderer.bridge.</text>
<text text-anchor="middle" x="82" y="-85.5" font-family="Helvetica,sans-Serif" font-size="10.00">Renderer</text>
</a>
</g>
</g>
<!-- Node2&#45;&gt;Node1 -->
<g id="edge1" class="edge">
<title>Node2&#45;&gt;Node1</title>
<path fill="none" stroke="midnightblue" d="M101.53,-70.67C113.02,-57.83 127.22,-41.97 137.27,-30.73"/>
<polygon fill="midnightblue" stroke="midnightblue" points="98.85,-68.42 94.79,-78.2 104.07,-73.09 98.85,-68.42"/>
</g>
<!-- Node3 -->
<g id="node3" class="node">
<title>Node3</title>
<g id="a_node3"><a xlink:title=" ">
<polygon fill="white" stroke="#bfbfbf" points="182.5,-84 182.5,-103 255.5,-103 255.5,-84 182.5,-84"/>
<text text-anchor="middle" x="219" y="-91" font-family="Helvetica,sans-Serif" font-size="10.00">Graphics2D</text>
</a>
</g>
</g>
<!-- Node3&#45;&gt;Node1 -->
<g id="edge2" class="edge">
<title>Node3&#45;&gt;Node1</title>
<path fill="none" stroke="#9a32cd" stroke-dasharray="5,2" d="M204.15,-76.14C191.81,-62.55 174.44,-43.42 162.73,-30.52"/>
<polygon fill="#9a32cd" stroke="#9a32cd" points="201.77,-78.73 211.08,-83.78 206.95,-74.03 201.77,-78.73"/>
<text text-anchor="middle" x="193" y="-52" font-family="Helvetica,sans-Serif" font-size="10.00"> g</text>
</g>
</g>
</svg>
