<?xml version="1.0" encoding="UTF-8" standalone="no"?>
<!DOCTYPE svg PUBLIC "-//W3C//DTD SVG 1.1//EN"
 "http://www.w3.org/Graphics/SVG/1.1/DTD/svg11.dtd">
<!-- Generated by graphviz version 2.43.0 (0)
 -->
<!-- Title: com.example.renderer.factory.TriangleTest.testCreate_DegenerateTriangle Pages: 1 -->
<svg width="601pt" height="50pt"
 viewBox="0.00 0.00 601.00 50.00" xmlns="http://www.w3.org/2000/svg" xmlns:xlink="http://www.w3.org/1999/xlink">
<g id="graph0" class="graph" transform="scale(1 1) rotate(0) translate(4 46)">
<title>com.example.renderer.factory.TriangleTest.testCreate_DegenerateTriangle</title>
<polygon fill="white" stroke="transparent" points="-4,4 -4,-46 597,-46 597,4 -4,4"/>
<!-- Node1 -->
<g id="node1" class="node">
<title>Node1</title>
<g id="a_node1"><a xlink:title=" ">
<polygon fill="#bfbfbf" stroke="black" points="0,-0.5 0,-41.5 191,-41.5 191,-0.5 0,-0.5"/>
<text text-anchor="start" x="8" y="-29.5" font-family="Helvetica,sans-Serif" font-size="10.00">com.example.renderer.factory.</text>
<text text-anchor="start" x="8" y="-18.5" font-family="Helvetica,sans-Serif" font-size="10.00">TriangleTest.testCreate_Degenerate</text>
<text text-anchor="middle" x="95.5" y="-7.5" font-family="Helvetica,sans-Serif" font-size="10.00">Triangle</text>
</a>
</g>
</g>
<!-- Node2 -->
<g id="node2" class="node">
<title>Node2</title>
<g id="a_node2"><a xlink:href="classcom_1_1example_1_1renderer_1_1factory_1_1Triangle.html#a14d6dde3df18dfcf74f054af84ce5d44" target="_top" xlink:title="使用指定的渲染器绘制图形。 具体绘制逻辑由实现类决定，渲染器参数提供实际的绘制能力。">
<polygon fill="white" stroke="black" points="227,-6 227,-36 393,-36 393,-6 227,-6"/>
<text text-anchor="start" x="235" y="-24" font-family="Helvetica,sans-Serif" font-size="10.00">com.example.renderer.factory.</text>
<text text-anchor="middle" x="310" y="-13" font-family="Helvetica,sans-Serif" font-size="10.00">Triangle.render</text>
</a>
</g>
</g>
<!-- Node1&#45;&gt;Node2 -->
<g id="edge1" class="edge">
<title>Node1&#45;&gt;Node2</title>
<path fill="none" stroke="midnightblue" d="M191.25,-21C199.67,-21 208.19,-21 216.59,-21"/>
<polygon fill="midnightblue" stroke="midnightblue" points="216.76,-24.5 226.76,-21 216.76,-17.5 216.76,-24.5"/>
</g>
<!-- Node3 -->
<g id="node3" class="node">
<title>Node3</title>
<g id="a_node3"><a xlink:href="interfacecom_1_1example_1_1renderer_1_1bridge_1_1Renderer.html#a8da6ee9a1744047767dfccc70cd6da76" target="_top" xlink:title="绘制三角形">
<polygon fill="white" stroke="black" points="429,-6 429,-36 593,-36 593,-6 429,-6"/>
<text text-anchor="start" x="437" y="-24" font-family="Helvetica,sans-Serif" font-size="10.00">com.example.renderer.bridge.</text>
<text text-anchor="middle" x="511" y="-13" font-family="Helvetica,sans-Serif" font-size="10.00">Renderer.drawTriangle</text>
</a>
</g>
</g>
<!-- Node2&#45;&gt;Node3 -->
<g id="edge2" class="edge">
<title>Node2&#45;&gt;Node3</title>
<path fill="none" stroke="midnightblue" d="M393.09,-21C401.46,-21 410.01,-21 418.47,-21"/>
<polygon fill="midnightblue" stroke="midnightblue" points="418.74,-24.5 428.74,-21 418.74,-17.5 418.74,-24.5"/>
</g>
</g>
</svg>
