<?xml version="1.0" encoding="UTF-8" standalone="no"?>
<!DOCTYPE svg PUBLIC "-//W3C//DTD SVG 1.1//EN"
 "http://www.w3.org/Graphics/SVG/1.1/DTD/svg11.dtd">
<!-- Generated by graphviz version 2.43.0 (0)
 -->
<!-- Title: com.example.renderer.factory.Circle.getY Pages: 1 -->
<!--zoomable 345 -->
<svg id="main" version="1.1" xmlns="http://www.w3.org/2000/svg" xmlns:xlink="http://www.w3.org/1999/xlink" xml:space="preserve" onload="init(evt)">
<style type="text/css"><![CDATA[
.edge:hover path { stroke: red; }
.edge:hover polygon { stroke: red; fill: red; }
]]></style>
<script type="text/javascript"><![CDATA[
var edges = document.getElementsByTagName('g');
if (edges && edges.length) {
  for (var i=0;i<edges.length;i++) {
    if (edges[i].id.substr(0,4)=='edge') {
      edges[i].setAttribute('class','edge');
    }
  }
}
]]></script>
        <defs>
                <circle id="rim" cx="0" cy="0" r="7"/>
                <circle id="rim2" cx="0" cy="0" r="3.5"/>
                <g id="zoomPlus">
                        <use xlink:href="#rim" fill="#404040">
                                <set attributeName="fill" to="#808080" begin="zoomplus.mouseover" end="zoomplus.mouseout"/>
                        </use>
                        <path d="M-4,0h8M0,-4v8" fill="none" stroke="white" stroke-width="1.5" pointer-events="none"/>
                </g>
                <g id="zoomMin">
                        <use xlink:href="#rim" fill="#404040">
                                <set attributeName="fill" to="#808080" begin="zoomminus.mouseover" end="zoomminus.mouseout"/>
                        </use>
                        <path d="M-4,0h8" fill="none" stroke="white" stroke-width="1.5" pointer-events="none"/>
                </g>
                <g id="dirArrow">
                        <path fill="none" stroke="white" stroke-width="1.5" d="M0,-3.0v7 M-2.5,-0.5L0,-3.0L2.5,-0.5"/>
                </g>
               <g id="resetDef">
                       <use xlink:href="#rim2" fill="#404040">
                               <set attributeName="fill" to="#808080" begin="reset.mouseover" end="reset.mouseout"/>
                       </use>
               </g>
        </defs>

<script type="text/javascript">
var viewWidth = 643;
var viewHeight = 345;
var sectionId = 'dynsection-6';
</script>
<script xlink:href="svgpan.js"/>
<svg id="graph" class="graph">
<g id="viewport">
<title>com.example.renderer.factory.Circle.getY</title>
<polygon fill="white" stroke="transparent" points="-4,4 -4,-341 639,-341 639,4 -4,4"/>
<!-- Node1 -->
<g id="node1" class="node">
<title>Node1</title>
<g id="a_node1"><a xlink:title="获取圆心y坐标">
<polygon fill="#bfbfbf" stroke="black" points="469,-153.5 469,-183.5 635,-183.5 635,-153.5 469,-153.5"/>
<text text-anchor="start" x="477" y="-171.5" font-family="Helvetica,sans-Serif" font-size="10.00">com.example.renderer.factory.</text>
<text text-anchor="middle" x="552" y="-160.5" font-family="Helvetica,sans-Serif" font-size="10.00">Circle.getY</text>
</a>
</g>
</g>
<!-- Node2 -->
<g id="node2" class="node">
<title>Node2</title>
<g id="a_node2"><a xlink:href="classcom_1_1example_1_1renderer_1_1factory_1_1CircleTest.html#adfb4426b5c81543bd6a5f592033730dd" target="_top" xlink:title=" ">
<polygon fill="white" stroke="black" points="248.5,-306.5 248.5,-336.5 414.5,-336.5 414.5,-306.5 248.5,-306.5"/>
<text text-anchor="start" x="256.5" y="-324.5" font-family="Helvetica,sans-Serif" font-size="10.00">com.example.renderer.factory.</text>
<text text-anchor="middle" x="331.5" y="-313.5" font-family="Helvetica,sans-Serif" font-size="10.00">CircleTest.testCreate_OnOrigin</text>
</a>
</g>
</g>
<!-- Node1&#45;&gt;Node2 -->
<g id="edge1" class="edge">
<title>Node1&#45;&gt;Node2</title>
<path fill="none" stroke="midnightblue" d="M536.13,-191.94C516.27,-221.26 478.27,-270.84 433,-297.5 427.13,-300.96 420.78,-303.92 414.24,-306.45"/>
<polygon fill="midnightblue" stroke="midnightblue" points="539.09,-193.81 541.7,-183.54 533.26,-189.94 539.09,-193.81"/>
</g>
<!-- Node3 -->
<g id="node3" class="node">
<title>Node3</title>
<g id="a_node3"><a xlink:href="classcom_1_1example_1_1renderer_1_1factory_1_1CircleTest.html#a33e9d0a2722a7d196cf6feac61632e80" target="_top" xlink:title=" ">
<polygon fill="white" stroke="black" points="248.5,-257.5 248.5,-287.5 414.5,-287.5 414.5,-257.5 248.5,-257.5"/>
<text text-anchor="start" x="256.5" y="-275.5" font-family="Helvetica,sans-Serif" font-size="10.00">com.example.renderer.factory.</text>
<text text-anchor="middle" x="331.5" y="-264.5" font-family="Helvetica,sans-Serif" font-size="10.00">CircleTest.testMove</text>
</a>
</g>
</g>
<!-- Node1&#45;&gt;Node3 -->
<g id="edge2" class="edge">
<title>Node1&#45;&gt;Node3</title>
<path fill="none" stroke="midnightblue" d="M525.18,-190.08C502.3,-208.17 467.29,-233.39 433,-248.5 425.28,-251.9 417.02,-254.86 408.65,-257.43"/>
<polygon fill="midnightblue" stroke="midnightblue" points="527.43,-192.76 533.03,-183.77 523.04,-187.31 527.43,-192.76"/>
</g>
<!-- Node4 -->
<g id="node4" class="node">
<title>Node4</title>
<g id="a_node4"><a xlink:href="classcom_1_1example_1_1renderer_1_1factory_1_1CircleTest.html#ade22ece673331e93849d36d133743727" target="_top" xlink:title=" ">
<polygon fill="white" stroke="black" points="248,-208.5 248,-238.5 415,-238.5 415,-208.5 248,-208.5"/>
<text text-anchor="start" x="256" y="-226.5" font-family="Helvetica,sans-Serif" font-size="10.00">com.example.renderer.factory.</text>
<text text-anchor="middle" x="331.5" y="-215.5" font-family="Helvetica,sans-Serif" font-size="10.00">CircleTest.testMove_CrossZero</text>
</a>
</g>
</g>
<!-- Node1&#45;&gt;Node4 -->
<g id="edge3" class="edge">
<title>Node1&#45;&gt;Node4</title>
<path fill="none" stroke="midnightblue" d="M482.28,-186.03C466.12,-190.14 448.96,-194.49 433,-198.5 420.1,-201.75 406.26,-205.2 393.1,-208.48"/>
<polygon fill="midnightblue" stroke="midnightblue" points="483.37,-189.37 492.19,-183.51 481.64,-182.59 483.37,-189.37"/>
</g>
<!-- Node5 -->
<g id="node5" class="node">
<title>Node5</title>
<g id="a_node5"><a xlink:href="classcom_1_1example_1_1renderer_1_1factory_1_1CircleTest.html#ad82df402953ff77e4ed51097fd5074b9" target="_top" xlink:title=" ">
<polygon fill="white" stroke="black" points="230,-148 230,-189 433,-189 433,-148 230,-148"/>
<text text-anchor="start" x="238" y="-177" font-family="Helvetica,sans-Serif" font-size="10.00">com.example.renderer.factory.</text>
<text text-anchor="start" x="238" y="-166" font-family="Helvetica,sans-Serif" font-size="10.00">CircleTest.testMove_ExtremeNegative</text>
<text text-anchor="middle" x="331.5" y="-155" font-family="Helvetica,sans-Serif" font-size="10.00">Values</text>
</a>
</g>
</g>
<!-- Node1&#45;&gt;Node5 -->
<g id="edge4" class="edge">
<title>Node1&#45;&gt;Node5</title>
<path fill="none" stroke="midnightblue" d="M458.54,-168.5C450.14,-168.5 441.6,-168.5 433.14,-168.5"/>
<polygon fill="midnightblue" stroke="midnightblue" points="458.71,-172 468.71,-168.5 458.71,-165 458.71,-172"/>
</g>
<!-- Node6 -->
<g id="node6" class="node">
<title>Node6</title>
<g id="a_node6"><a xlink:href="classcom_1_1example_1_1renderer_1_1factory_1_1CircleTest.html#ab773e8783a9ae4b6f52a8c629b8d0867" target="_top" xlink:title=" ">
<polygon fill="white" stroke="black" points="235.5,-98.5 235.5,-128.5 427.5,-128.5 427.5,-98.5 235.5,-98.5"/>
<text text-anchor="start" x="243.5" y="-116.5" font-family="Helvetica,sans-Serif" font-size="10.00">com.example.renderer.factory.</text>
<text text-anchor="middle" x="331.5" y="-105.5" font-family="Helvetica,sans-Serif" font-size="10.00">CircleTest.testMove_FromMinToMax</text>
</a>
</g>
</g>
<!-- Node1&#45;&gt;Node6 -->
<g id="edge5" class="edge">
<title>Node1&#45;&gt;Node6</title>
<path fill="none" stroke="midnightblue" d="M482.28,-150.97C466.12,-146.86 448.96,-142.51 433,-138.5 420.1,-135.25 406.26,-131.8 393.1,-128.52"/>
<polygon fill="midnightblue" stroke="midnightblue" points="481.64,-154.41 492.19,-153.49 483.37,-147.63 481.64,-154.41"/>
</g>
<!-- Node7 -->
<g id="node7" class="node">
<title>Node7</title>
<g id="a_node7"><a xlink:href="classcom_1_1example_1_1renderer_1_1factory_1_1CircleTest.html#aa7239f1882032d49d9516ce34d9c81ad" target="_top" xlink:title=" ">
<polygon fill="white" stroke="black" points="244,-49.5 244,-79.5 419,-79.5 419,-49.5 244,-49.5"/>
<text text-anchor="start" x="252" y="-67.5" font-family="Helvetica,sans-Serif" font-size="10.00">com.example.renderer.factory.</text>
<text text-anchor="middle" x="331.5" y="-56.5" font-family="Helvetica,sans-Serif" font-size="10.00">CircleTest.testMove_ToBoundary</text>
</a>
</g>
</g>
<!-- Node1&#45;&gt;Node7 -->
<g id="edge6" class="edge">
<title>Node1&#45;&gt;Node7</title>
<path fill="none" stroke="midnightblue" d="M525.09,-147.28C502.16,-129.48 467.13,-104.61 433,-89.5 424.37,-85.68 415.05,-82.37 405.69,-79.53"/>
<polygon fill="midnightblue" stroke="midnightblue" points="522.95,-150.05 532.97,-153.49 527.28,-144.55 522.95,-150.05"/>
</g>
<!-- Node8 -->
<g id="node8" class="node">
<title>Node8</title>
<g id="a_node8"><a xlink:href="classcom_1_1example_1_1renderer_1_1visitor_1_1JSONExportVisitor.html#a5de8e8b575a621b8b9f16a2836e306a9" target="_top" xlink:title="将圆形对象转换为JSON格式输出 格式: {&quot;type&quot;:&quot;circle&quot;, &quot;x&quot;:x, &quot;y&quot;:y, &quot;r&quot;:radius}">
<polygon fill="white" stroke="black" points="250,-0.5 250,-30.5 413,-30.5 413,-0.5 250,-0.5"/>
<text text-anchor="start" x="258" y="-18.5" font-family="Helvetica,sans-Serif" font-size="10.00">com.example.renderer.visitor.</text>
<text text-anchor="middle" x="331.5" y="-7.5" font-family="Helvetica,sans-Serif" font-size="10.00">JSONExportVisitor.visitCircle</text>
</a>
</g>
</g>
<!-- Node1&#45;&gt;Node8 -->
<g id="edge7" class="edge">
<title>Node1&#45;&gt;Node8</title>
<path fill="none" stroke="midnightblue" d="M535.73,-144.85C515.7,-115.78 477.77,-67.03 433,-40.5 426.43,-36.6 419.26,-33.31 411.89,-30.53"/>
<polygon fill="midnightblue" stroke="midnightblue" points="532.87,-146.87 541.37,-153.2 538.67,-142.95 532.87,-146.87"/>
</g>
<!-- Node9 -->
<g id="node9" class="node">
<title>Node9</title>
<g id="a_node9"><a xlink:href="classcom_1_1example_1_1renderer_1_1visitor_1_1JSONExportVisitorTest.html#a38f4d5f545cd31fa486d91d535a4fd9c" target="_top" xlink:title="测试圆形对象的JSON导出功能。">
<polygon fill="white" stroke="black" points="0,-0.5 0,-30.5 194,-30.5 194,-0.5 0,-0.5"/>
<text text-anchor="start" x="8" y="-18.5" font-family="Helvetica,sans-Serif" font-size="10.00">com.example.renderer.visitor.</text>
<text text-anchor="middle" x="97" y="-7.5" font-family="Helvetica,sans-Serif" font-size="10.00">JSONExportVisitorTest.testVisitCircle</text>
</a>
</g>
</g>
<!-- Node8&#45;&gt;Node9 -->
<g id="edge8" class="edge">
<title>Node8&#45;&gt;Node9</title>
<path fill="none" stroke="midnightblue" d="M239.61,-15.5C224.68,-15.5 209.17,-15.5 194.12,-15.5"/>
<polygon fill="midnightblue" stroke="midnightblue" points="239.84,-19 249.84,-15.5 239.84,-12 239.84,-19"/>
</g>
</g>
</svg>
        <g id="navigator" transform="translate(0 0)" fill="#404254">
                <rect fill="#f2f5e9" fill-opacity="0.5" stroke="#606060" stroke-width=".5" x="0" y="0" width="60" height="60"/>
                <use id="zoomplus" xlink:href="#zoomPlus" x="17" y="9" onmousedown="handleZoom(evt,'in')"/>
                <use id="zoomminus" xlink:href="#zoomMin" x="42" y="9" onmousedown="handleZoom(evt,'out')"/>
                <use id="reset" xlink:href="#resetDef" x="30" y="36" onmousedown="handleReset()"/>
                <g id="arrowUp" xlink:href="#dirArrow" transform="translate(30 24)" onmousedown="handlePan(0,-1)">
                  <use xlink:href="#rim" fill="#404040">
                        <set attributeName="fill" to="#808080" begin="arrowUp.mouseover" end="arrowUp.mouseout"/>
                  </use>
                  <path fill="none" stroke="white" stroke-width="1.5" d="M0,-3.0v7 M-2.5,-0.5L0,-3.0L2.5,-0.5"/>
                </g>
                <g id="arrowRight" xlink:href="#dirArrow" transform="rotate(90) translate(36 -43)" onmousedown="handlePan(1,0)">
                  <use xlink:href="#rim" fill="#404040">
                        <set attributeName="fill" to="#808080" begin="arrowRight.mouseover" end="arrowRight.mouseout"/>
                  </use>
                  <path fill="none" stroke="white" stroke-width="1.5" d="M0,-3.0v7 M-2.5,-0.5L0,-3.0L2.5,-0.5"/>
                </g>
                <g id="arrowDown" xlink:href="#dirArrow" transform="rotate(180) translate(-30 -48)" onmousedown="handlePan(0,1)">
                  <use xlink:href="#rim" fill="#404040">
                        <set attributeName="fill" to="#808080" begin="arrowDown.mouseover" end="arrowDown.mouseout"/>
                  </use>
                  <path fill="none" stroke="white" stroke-width="1.5" d="M0,-3.0v7 M-2.5,-0.5L0,-3.0L2.5,-0.5"/>
                </g>
                <g id="arrowLeft" xlink:href="#dirArrow" transform="rotate(270) translate(-36 17)" onmousedown="handlePan(-1,0)">
                  <use xlink:href="#rim" fill="#404040">
                        <set attributeName="fill" to="#808080" begin="arrowLeft.mouseover" end="arrowLeft.mouseout"/>
                  </use>
                  <path fill="none" stroke="white" stroke-width="1.5" d="M0,-3.0v7 M-2.5,-0.5L0,-3.0L2.5,-0.5"/>
                </g>
        </g>
        <svg viewBox="0 0 15 15" width="100%" height="30px" preserveAspectRatio="xMaxYMin meet">
         <g id="arrow_out" transform="scale(0.3 0.3)">
          <a xlink:href="classcom_1_1example_1_1renderer_1_1factory_1_1Circle_adbf586a9c1761dce695dce96c7539a18_icgraph_org.svg" target="_base">
           <rect id="button" ry="5" rx="5" y="6" x="6" height="38" width="38"
                fill="#f2f5e9" fill-opacity="0.5" stroke="#606060" stroke-width="1.0"/>
           <path id="arrow"
             d="M 11.500037,31.436501 C 11.940474,20.09759 22.043105,11.32322 32.158766,21.979434 L 37.068811,17.246167 C 37.068811,17.246167 37.088388,32 37.088388,32 L 22.160133,31.978069 C 22.160133,31.978069 26.997745,27.140456 26.997745,27.140456 C 18.528582,18.264221 13.291696,25.230495 11.500037,31.436501 z"
             style="fill:#404040;"/>
          </a>
         </g>
        </svg>
</svg>
