<?xml version="1.0" encoding="UTF-8" standalone="no"?>
<!DOCTYPE svg PUBLIC "-//W3C//DTD SVG 1.1//EN"
 "http://www.w3.org/Graphics/SVG/1.1/DTD/svg11.dtd">
<!-- Generated by graphviz version 2.43.0 (0)
 -->
<!-- Title: com.example.renderer.factory.RectangleTest.testAcceptVisitor Pages: 1 -->
<svg width="580pt" height="39pt"
 viewBox="0.00 0.00 580.00 39.00" xmlns="http://www.w3.org/2000/svg" xmlns:xlink="http://www.w3.org/1999/xlink">
<g id="graph0" class="graph" transform="scale(1 1) rotate(0) translate(4 35)">
<title>com.example.renderer.factory.RectangleTest.testAcceptVisitor</title>
<polygon fill="white" stroke="transparent" points="-4,4 -4,-35 576,-35 576,4 -4,4"/>
<!-- Node1 -->
<g id="node1" class="node">
<title>Node1</title>
<g id="a_node1"><a xlink:title=" ">
<polygon fill="#bfbfbf" stroke="black" points="0,-0.5 0,-30.5 171,-30.5 171,-0.5 0,-0.5"/>
<text text-anchor="start" x="8" y="-18.5" font-family="Helvetica,sans-Serif" font-size="10.00">com.example.renderer.factory.</text>
<text text-anchor="middle" x="85.5" y="-7.5" font-family="Helvetica,sans-Serif" font-size="10.00">RectangleTest.testAcceptVisitor</text>
</a>
</g>
</g>
<!-- Node2 -->
<g id="node2" class="node">
<title>Node2</title>
<g id="a_node2"><a xlink:href="classcom_1_1example_1_1renderer_1_1factory_1_1Rectangle.html#a5b6d782ad3dc266f7757c5c451bbe602" target="_top" xlink:title="接受访问者访问，实现访问者模式。 允许外部访问者对图形对象进行操作，而不需要修改图形类本身。">
<polygon fill="white" stroke="black" points="207,-0.5 207,-30.5 373,-30.5 373,-0.5 207,-0.5"/>
<text text-anchor="start" x="215" y="-18.5" font-family="Helvetica,sans-Serif" font-size="10.00">com.example.renderer.factory.</text>
<text text-anchor="middle" x="290" y="-7.5" font-family="Helvetica,sans-Serif" font-size="10.00">Rectangle.accept</text>
</a>
</g>
</g>
<!-- Node1&#45;&gt;Node2 -->
<g id="edge1" class="edge">
<title>Node1&#45;&gt;Node2</title>
<path fill="none" stroke="midnightblue" d="M171.2,-15.5C179.6,-15.5 188.16,-15.5 196.63,-15.5"/>
<polygon fill="midnightblue" stroke="midnightblue" points="196.9,-19 206.9,-15.5 196.9,-12 196.9,-19"/>
</g>
<!-- Node3 -->
<g id="node3" class="node">
<title>Node3</title>
<g id="a_node3"><a xlink:href="interfacecom_1_1example_1_1renderer_1_1visitor_1_1ExportVisitor.html#a33c0696dd06b3a3546ec95fbbb05666d" target="_top" xlink:title=" ">
<polygon fill="white" stroke="black" points="409,-0.5 409,-30.5 572,-30.5 572,-0.5 409,-0.5"/>
<text text-anchor="start" x="417" y="-18.5" font-family="Helvetica,sans-Serif" font-size="10.00">com.example.renderer.visitor.</text>
<text text-anchor="middle" x="490.5" y="-7.5" font-family="Helvetica,sans-Serif" font-size="10.00">ExportVisitor.visitRectangle</text>
</a>
</g>
</g>
<!-- Node2&#45;&gt;Node3 -->
<g id="edge2" class="edge">
<title>Node2&#45;&gt;Node3</title>
<path fill="none" stroke="midnightblue" d="M373.17,-15.5C381.68,-15.5 390.36,-15.5 398.96,-15.5"/>
<polygon fill="midnightblue" stroke="midnightblue" points="398.99,-19 408.99,-15.5 398.99,-12 398.99,-19"/>
</g>
</g>
</svg>
