<?xml version="1.0" encoding="UTF-8" standalone="no"?>
<!DOCTYPE svg PUBLIC "-//W3C//DTD SVG 1.1//EN"
 "http://www.w3.org/Graphics/SVG/1.1/DTD/svg11.dtd">
<!-- Generated by graphviz version 2.43.0 (0)
 -->
<!-- Title: com.example.renderer.factory.TriangleTest.testMove_PartialPointsToBoundary Pages: 1 -->
<svg width="399pt" height="137pt"
 viewBox="0.00 0.00 399.00 137.00" xmlns="http://www.w3.org/2000/svg" xmlns:xlink="http://www.w3.org/1999/xlink">
<g id="graph0" class="graph" transform="scale(1 1) rotate(0) translate(4 133)">
<title>com.example.renderer.factory.TriangleTest.testMove_PartialPointsToBoundary</title>
<polygon fill="white" stroke="transparent" points="-4,4 -4,-133 395,-133 395,4 -4,4"/>
<!-- Node1 -->
<g id="node1" class="node">
<title>Node1</title>
<g id="a_node1"><a xlink:title=" ">
<polygon fill="#bfbfbf" stroke="black" points="0,-44 0,-85 189,-85 189,-44 0,-44"/>
<text text-anchor="start" x="8" y="-73" font-family="Helvetica,sans-Serif" font-size="10.00">com.example.renderer.factory.</text>
<text text-anchor="start" x="8" y="-62" font-family="Helvetica,sans-Serif" font-size="10.00">TriangleTest.testMove_PartialPoints</text>
<text text-anchor="middle" x="94.5" y="-51" font-family="Helvetica,sans-Serif" font-size="10.00">ToBoundary</text>
</a>
</g>
</g>
<!-- Node2 -->
<g id="node2" class="node">
<title>Node2</title>
<g id="a_node2"><a xlink:href="classcom_1_1example_1_1renderer_1_1factory_1_1Triangle.html#aa5ec64f9827fba203174d5e91185e6f2" target="_top" xlink:title=" ">
<polygon fill="white" stroke="black" points="225,-98.5 225,-128.5 391,-128.5 391,-98.5 225,-98.5"/>
<text text-anchor="start" x="233" y="-116.5" font-family="Helvetica,sans-Serif" font-size="10.00">com.example.renderer.factory.</text>
<text text-anchor="middle" x="308" y="-105.5" font-family="Helvetica,sans-Serif" font-size="10.00">Triangle.getX1</text>
</a>
</g>
</g>
<!-- Node1&#45;&gt;Node2 -->
<g id="edge1" class="edge">
<title>Node1&#45;&gt;Node2</title>
<path fill="none" stroke="midnightblue" d="M184.28,-85.07C200.23,-88.76 216.7,-92.58 232.21,-96.17"/>
<polygon fill="midnightblue" stroke="midnightblue" points="231.71,-99.65 242.24,-98.5 233.29,-92.83 231.71,-99.65"/>
</g>
<!-- Node3 -->
<g id="node3" class="node">
<title>Node3</title>
<g id="a_node3"><a xlink:href="classcom_1_1example_1_1renderer_1_1factory_1_1Triangle.html#af9319090f2c5c5fd18826cae05b094a4" target="_top" xlink:title=" ">
<polygon fill="white" stroke="black" points="225,-49.5 225,-79.5 391,-79.5 391,-49.5 225,-49.5"/>
<text text-anchor="start" x="233" y="-67.5" font-family="Helvetica,sans-Serif" font-size="10.00">com.example.renderer.factory.</text>
<text text-anchor="middle" x="308" y="-56.5" font-family="Helvetica,sans-Serif" font-size="10.00">Triangle.getY1</text>
</a>
</g>
</g>
<!-- Node1&#45;&gt;Node3 -->
<g id="edge2" class="edge">
<title>Node1&#45;&gt;Node3</title>
<path fill="none" stroke="midnightblue" d="M189.19,-64.5C197.67,-64.5 206.26,-64.5 214.73,-64.5"/>
<polygon fill="midnightblue" stroke="midnightblue" points="214.99,-68 224.99,-64.5 214.99,-61 214.99,-68"/>
</g>
<!-- Node4 -->
<g id="node4" class="node">
<title>Node4</title>
<g id="a_node4"><a xlink:href="classcom_1_1example_1_1renderer_1_1factory_1_1Triangle.html#a0aa53deb7dccf8acd100a53a76d414d0" target="_top" xlink:title="移动图形的位置。 根据给定的偏移量调整图形的坐标位置，正数表示向右/下移动，负数表示向左/上移动。">
<polygon fill="white" stroke="black" points="225,-0.5 225,-30.5 391,-30.5 391,-0.5 225,-0.5"/>
<text text-anchor="start" x="233" y="-18.5" font-family="Helvetica,sans-Serif" font-size="10.00">com.example.renderer.factory.</text>
<text text-anchor="middle" x="308" y="-7.5" font-family="Helvetica,sans-Serif" font-size="10.00">Triangle.move</text>
</a>
</g>
</g>
<!-- Node1&#45;&gt;Node4 -->
<g id="edge3" class="edge">
<title>Node1&#45;&gt;Node4</title>
<path fill="none" stroke="midnightblue" d="M184.28,-43.93C200.23,-40.24 216.7,-36.42 232.21,-32.83"/>
<polygon fill="midnightblue" stroke="midnightblue" points="233.29,-36.17 242.24,-30.5 231.71,-29.35 233.29,-36.17"/>
</g>
</g>
</svg>
