<?xml version="1.0" encoding="UTF-8" standalone="no"?>
<!DOCTYPE svg PUBLIC "-//W3C//DTD SVG 1.1//EN"
 "http://www.w3.org/Graphics/SVG/1.1/DTD/svg11.dtd">
<!-- Generated by graphviz version 2.43.0 (0)
 -->
<!-- Title: com.example.renderer.factory.EllipseTest.testRender_ExtremeSize Pages: 1 -->
<svg width="601pt" height="39pt"
 viewBox="0.00 0.00 601.00 39.00" xmlns="http://www.w3.org/2000/svg" xmlns:xlink="http://www.w3.org/1999/xlink">
<g id="graph0" class="graph" transform="scale(1 1) rotate(0) translate(4 35)">
<title>com.example.renderer.factory.EllipseTest.testRender_ExtremeSize</title>
<polygon fill="white" stroke="transparent" points="-4,4 -4,-35 597,-35 597,4 -4,4"/>
<!-- Node1 -->
<g id="node1" class="node">
<title>Node1</title>
<g id="a_node1"><a xlink:title=" ">
<polygon fill="#bfbfbf" stroke="black" points="0,-0.5 0,-30.5 191,-30.5 191,-0.5 0,-0.5"/>
<text text-anchor="start" x="8" y="-18.5" font-family="Helvetica,sans-Serif" font-size="10.00">com.example.renderer.factory.</text>
<text text-anchor="middle" x="95.5" y="-7.5" font-family="Helvetica,sans-Serif" font-size="10.00">EllipseTest.testRender_ExtremeSize</text>
</a>
</g>
</g>
<!-- Node2 -->
<g id="node2" class="node">
<title>Node2</title>
<g id="a_node2"><a xlink:href="classcom_1_1example_1_1renderer_1_1factory_1_1Ellipse.html#a05bd1b4ddbb8249021da2bbd6f5f0fb4" target="_top" xlink:title="使用指定渲染器绘制椭圆。">
<polygon fill="white" stroke="black" points="227,-0.5 227,-30.5 393,-30.5 393,-0.5 227,-0.5"/>
<text text-anchor="start" x="235" y="-18.5" font-family="Helvetica,sans-Serif" font-size="10.00">com.example.renderer.factory.</text>
<text text-anchor="middle" x="310" y="-7.5" font-family="Helvetica,sans-Serif" font-size="10.00">Ellipse.render</text>
</a>
</g>
</g>
<!-- Node1&#45;&gt;Node2 -->
<g id="edge1" class="edge">
<title>Node1&#45;&gt;Node2</title>
<path fill="none" stroke="midnightblue" d="M191.25,-15.5C199.67,-15.5 208.19,-15.5 216.59,-15.5"/>
<polygon fill="midnightblue" stroke="midnightblue" points="216.76,-19 226.76,-15.5 216.76,-12 216.76,-19"/>
</g>
<!-- Node3 -->
<g id="node3" class="node">
<title>Node3</title>
<g id="a_node3"><a xlink:href="interfacecom_1_1example_1_1renderer_1_1bridge_1_1Renderer.html#a4c88cee0908a55d398716a257352a71d" target="_top" xlink:title="绘制椭圆">
<polygon fill="white" stroke="black" points="429,-0.5 429,-30.5 593,-30.5 593,-0.5 429,-0.5"/>
<text text-anchor="start" x="437" y="-18.5" font-family="Helvetica,sans-Serif" font-size="10.00">com.example.renderer.bridge.</text>
<text text-anchor="middle" x="511" y="-7.5" font-family="Helvetica,sans-Serif" font-size="10.00">Renderer.drawEllipse</text>
</a>
</g>
</g>
<!-- Node2&#45;&gt;Node3 -->
<g id="edge2" class="edge">
<title>Node2&#45;&gt;Node3</title>
<path fill="none" stroke="midnightblue" d="M393.09,-15.5C401.46,-15.5 410.01,-15.5 418.47,-15.5"/>
<polygon fill="midnightblue" stroke="midnightblue" points="418.74,-19 428.74,-15.5 418.74,-12 418.74,-19"/>
</g>
</g>
</svg>
