<?xml version="1.0" encoding="UTF-8" standalone="no"?>
<!DOCTYPE svg PUBLIC "-//W3C//DTD SVG 1.1//EN"
 "http://www.w3.org/Graphics/SVG/1.1/DTD/svg11.dtd">
<!-- Generated by graphviz version 2.43.0 (0)
 -->
<!-- Title: com.example.renderer.factory.EllipseTest.testCreate_ExtremeDimensions Pages: 1 -->
<svg width="437pt" height="88pt"
 viewBox="0.00 0.00 437.00 88.00" xmlns="http://www.w3.org/2000/svg" xmlns:xlink="http://www.w3.org/1999/xlink">
<g id="graph0" class="graph" transform="scale(1 1) rotate(0) translate(4 84)">
<title>com.example.renderer.factory.EllipseTest.testCreate_ExtremeDimensions</title>
<polygon fill="white" stroke="transparent" points="-4,4 -4,-84 433,-84 433,4 -4,4"/>
<!-- Node1 -->
<g id="node1" class="node">
<title>Node1</title>
<g id="a_node1"><a xlink:title=" ">
<polygon fill="#bfbfbf" stroke="black" points="0,-24.5 0,-54.5 227,-54.5 227,-24.5 0,-24.5"/>
<text text-anchor="start" x="8" y="-42.5" font-family="Helvetica,sans-Serif" font-size="10.00">com.example.renderer.factory.</text>
<text text-anchor="middle" x="113.5" y="-31.5" font-family="Helvetica,sans-Serif" font-size="10.00">EllipseTest.testCreate_ExtremeDimensions</text>
</a>
</g>
</g>
<!-- Node2 -->
<g id="node2" class="node">
<title>Node2</title>
<g id="a_node2"><a xlink:href="classcom_1_1example_1_1renderer_1_1factory_1_1Ellipse.html#a58b5bcb233cb1e389900df094e38e9cf" target="_top" xlink:title="获取椭圆高度。">
<polygon fill="white" stroke="black" points="263,-49.5 263,-79.5 429,-79.5 429,-49.5 263,-49.5"/>
<text text-anchor="start" x="271" y="-67.5" font-family="Helvetica,sans-Serif" font-size="10.00">com.example.renderer.factory.</text>
<text text-anchor="middle" x="346" y="-56.5" font-family="Helvetica,sans-Serif" font-size="10.00">Ellipse.getHeight</text>
</a>
</g>
</g>
<!-- Node1&#45;&gt;Node2 -->
<g id="edge1" class="edge">
<title>Node1&#45;&gt;Node2</title>
<path fill="none" stroke="midnightblue" d="M227.05,-51.71C235.76,-52.65 244.48,-53.6 253.03,-54.53"/>
<polygon fill="midnightblue" stroke="midnightblue" points="252.65,-58 262.97,-55.6 253.41,-51.05 252.65,-58"/>
</g>
<!-- Node3 -->
<g id="node3" class="node">
<title>Node3</title>
<g id="a_node3"><a xlink:href="classcom_1_1example_1_1renderer_1_1factory_1_1Ellipse.html#ad1f41af217cb0df38ae2026a6b666672" target="_top" xlink:title="获取椭圆宽度">
<polygon fill="white" stroke="black" points="263,-0.5 263,-30.5 429,-30.5 429,-0.5 263,-0.5"/>
<text text-anchor="start" x="271" y="-18.5" font-family="Helvetica,sans-Serif" font-size="10.00">com.example.renderer.factory.</text>
<text text-anchor="middle" x="346" y="-7.5" font-family="Helvetica,sans-Serif" font-size="10.00">Ellipse.getWidth</text>
</a>
</g>
</g>
<!-- Node1&#45;&gt;Node3 -->
<g id="edge2" class="edge">
<title>Node1&#45;&gt;Node3</title>
<path fill="none" stroke="midnightblue" d="M227.05,-27.78C235.66,-26.88 244.29,-25.99 252.75,-25.1"/>
<polygon fill="midnightblue" stroke="midnightblue" points="253.39,-28.56 262.97,-24.04 252.66,-21.6 253.39,-28.56"/>
</g>
</g>
</svg>
