<?xml version="1.0" encoding="UTF-8" standalone="no"?>
<!DOCTYPE svg PUBLIC "-//W3C//DTD SVG 1.1//EN"
 "http://www.w3.org/Graphics/SVG/1.1/DTD/svg11.dtd">
<!-- Generated by graphviz version 2.43.0 (0)
 -->
<!-- Title: com.example.renderer.visitor.JSONExportVisitorTest.testVisitTriangle Pages: 1 -->
<!--zoomable 284 -->
<svg id="main" version="1.1" xmlns="http://www.w3.org/2000/svg" xmlns:xlink="http://www.w3.org/1999/xlink" xml:space="preserve" onload="init(evt)">
<style type="text/css"><![CDATA[
.edge:hover path { stroke: red; }
.edge:hover polygon { stroke: red; fill: red; }
]]></style>
<script type="text/javascript"><![CDATA[
var edges = document.getElementsByTagName('g');
if (edges && edges.length) {
  for (var i=0;i<edges.length;i++) {
    if (edges[i].id.substr(0,4)=='edge') {
      edges[i].setAttribute('class','edge');
    }
  }
}
]]></script>
        <defs>
                <circle id="rim" cx="0" cy="0" r="7"/>
                <circle id="rim2" cx="0" cy="0" r="3.5"/>
                <g id="zoomPlus">
                        <use xlink:href="#rim" fill="#404040">
                                <set attributeName="fill" to="#808080" begin="zoomplus.mouseover" end="zoomplus.mouseout"/>
                        </use>
                        <path d="M-4,0h8M0,-4v8" fill="none" stroke="white" stroke-width="1.5" pointer-events="none"/>
                </g>
                <g id="zoomMin">
                        <use xlink:href="#rim" fill="#404040">
                                <set attributeName="fill" to="#808080" begin="zoomminus.mouseover" end="zoomminus.mouseout"/>
                        </use>
                        <path d="M-4,0h8" fill="none" stroke="white" stroke-width="1.5" pointer-events="none"/>
                </g>
                <g id="dirArrow">
                        <path fill="none" stroke="white" stroke-width="1.5" d="M0,-3.0v7 M-2.5,-0.5L0,-3.0L2.5,-0.5"/>
                </g>
               <g id="resetDef">
                       <use xlink:href="#rim2" fill="#404040">
                               <set attributeName="fill" to="#808080" begin="reset.mouseover" end="reset.mouseout"/>
                       </use>
               </g>
        </defs>

<script type="text/javascript">
var viewWidth = 616;
var viewHeight = 284;
var sectionId = 'dynsection-4';
</script>
<script xlink:href="svgpan.js"/>
<svg id="graph" class="graph">
<g id="viewport">
<title>com.example.renderer.visitor.JSONExportVisitorTest.testVisitTriangle</title>
<polygon fill="white" stroke="transparent" points="-4,4 -4,-280 612,-280 612,4 -4,4"/>
<!-- Node1 -->
<g id="node1" class="node">
<title>Node1</title>
<g id="a_node1"><a xlink:title=" ">
<polygon fill="#bfbfbf" stroke="black" points="0,-122.5 0,-152.5 205,-152.5 205,-122.5 0,-122.5"/>
<text text-anchor="start" x="8" y="-140.5" font-family="Helvetica,sans-Serif" font-size="10.00">com.example.renderer.visitor.</text>
<text text-anchor="middle" x="102.5" y="-129.5" font-family="Helvetica,sans-Serif" font-size="10.00">JSONExportVisitorTest.testVisitTriangle</text>
</a>
</g>
</g>
<!-- Node2 -->
<g id="node2" class="node">
<title>Node2</title>
<g id="a_node2"><a xlink:href="classcom_1_1example_1_1renderer_1_1visitor_1_1JSONExportVisitor.html#a09a6928b6de2c8c1fa4f6f059d50f89a" target="_top" xlink:title="将三角形对象转换为JSON格式输出">
<polygon fill="white" stroke="black" points="241,-122.5 241,-152.5 406,-152.5 406,-122.5 241,-122.5"/>
<text text-anchor="start" x="249" y="-140.5" font-family="Helvetica,sans-Serif" font-size="10.00">com.example.renderer.visitor.</text>
<text text-anchor="middle" x="323.5" y="-129.5" font-family="Helvetica,sans-Serif" font-size="10.00">JSONExportVisitor.visitTriangle</text>
</a>
</g>
</g>
<!-- Node1&#45;&gt;Node2 -->
<g id="edge1" class="edge">
<title>Node1&#45;&gt;Node2</title>
<path fill="none" stroke="midnightblue" d="M205.31,-137.5C213.8,-137.5 222.36,-137.5 230.78,-137.5"/>
<polygon fill="midnightblue" stroke="midnightblue" points="230.96,-141 240.96,-137.5 230.96,-134 230.96,-141"/>
</g>
<!-- Node3 -->
<g id="node3" class="node">
<title>Node3</title>
<g id="a_node3"><a xlink:href="classcom_1_1example_1_1renderer_1_1factory_1_1Triangle.html#aa5ec64f9827fba203174d5e91185e6f2" target="_top" xlink:title=" ">
<polygon fill="white" stroke="black" points="442,-245.5 442,-275.5 608,-275.5 608,-245.5 442,-245.5"/>
<text text-anchor="start" x="450" y="-263.5" font-family="Helvetica,sans-Serif" font-size="10.00">com.example.renderer.factory.</text>
<text text-anchor="middle" x="525" y="-252.5" font-family="Helvetica,sans-Serif" font-size="10.00">Triangle.getX1</text>
</a>
</g>
</g>
<!-- Node2&#45;&gt;Node3 -->
<g id="edge2" class="edge">
<title>Node2&#45;&gt;Node3</title>
<path fill="none" stroke="midnightblue" d="M338.58,-152.85C359.24,-174.52 399.93,-213.93 442,-236.5 445.43,-238.34 449.02,-240.06 452.7,-241.65"/>
<polygon fill="midnightblue" stroke="midnightblue" points="451.41,-244.91 461.99,-245.38 454.02,-238.41 451.41,-244.91"/>
</g>
<!-- Node4 -->
<g id="node4" class="node">
<title>Node4</title>
<g id="a_node4"><a xlink:href="classcom_1_1example_1_1renderer_1_1factory_1_1Triangle.html#abba5462908667c70efa65edc2b0e17bc" target="_top" xlink:title=" ">
<polygon fill="white" stroke="black" points="442,-196.5 442,-226.5 608,-226.5 608,-196.5 442,-196.5"/>
<text text-anchor="start" x="450" y="-214.5" font-family="Helvetica,sans-Serif" font-size="10.00">com.example.renderer.factory.</text>
<text text-anchor="middle" x="525" y="-203.5" font-family="Helvetica,sans-Serif" font-size="10.00">Triangle.getX2</text>
</a>
</g>
</g>
<!-- Node2&#45;&gt;Node4 -->
<g id="edge3" class="edge">
<title>Node2&#45;&gt;Node4</title>
<path fill="none" stroke="midnightblue" d="M357.01,-152.56C380.37,-163.07 412.78,-177.05 442,-187.5 447.55,-189.48 453.35,-191.43 459.19,-193.3"/>
<polygon fill="midnightblue" stroke="midnightblue" points="458.43,-196.73 469.02,-196.38 460.52,-190.05 458.43,-196.73"/>
</g>
<!-- Node5 -->
<g id="node5" class="node">
<title>Node5</title>
<g id="a_node5"><a xlink:href="classcom_1_1example_1_1renderer_1_1factory_1_1Triangle.html#a2f27fd932329a59698e80ca4c900eba8" target="_top" xlink:title=" ">
<polygon fill="white" stroke="black" points="442,-147.5 442,-177.5 608,-177.5 608,-147.5 442,-147.5"/>
<text text-anchor="start" x="450" y="-165.5" font-family="Helvetica,sans-Serif" font-size="10.00">com.example.renderer.factory.</text>
<text text-anchor="middle" x="525" y="-154.5" font-family="Helvetica,sans-Serif" font-size="10.00">Triangle.getX3</text>
</a>
</g>
</g>
<!-- Node2&#45;&gt;Node5 -->
<g id="edge4" class="edge">
<title>Node2&#45;&gt;Node5</title>
<path fill="none" stroke="midnightblue" d="M406.22,-147.74C414.65,-148.8 423.26,-149.88 431.79,-150.95"/>
<polygon fill="midnightblue" stroke="midnightblue" points="431.4,-154.42 441.76,-152.19 432.27,-147.48 431.4,-154.42"/>
</g>
<!-- Node6 -->
<g id="node6" class="node">
<title>Node6</title>
<g id="a_node6"><a xlink:href="classcom_1_1example_1_1renderer_1_1factory_1_1Triangle.html#af9319090f2c5c5fd18826cae05b094a4" target="_top" xlink:title=" ">
<polygon fill="white" stroke="black" points="442,-98.5 442,-128.5 608,-128.5 608,-98.5 442,-98.5"/>
<text text-anchor="start" x="450" y="-116.5" font-family="Helvetica,sans-Serif" font-size="10.00">com.example.renderer.factory.</text>
<text text-anchor="middle" x="525" y="-105.5" font-family="Helvetica,sans-Serif" font-size="10.00">Triangle.getY1</text>
</a>
</g>
</g>
<!-- Node2&#45;&gt;Node6 -->
<g id="edge5" class="edge">
<title>Node2&#45;&gt;Node6</title>
<path fill="none" stroke="midnightblue" d="M406.22,-127.67C414.65,-126.65 423.26,-125.62 431.79,-124.59"/>
<polygon fill="midnightblue" stroke="midnightblue" points="432.25,-128.06 441.76,-123.39 431.41,-121.11 432.25,-128.06"/>
</g>
<!-- Node7 -->
<g id="node7" class="node">
<title>Node7</title>
<g id="a_node7"><a xlink:href="classcom_1_1example_1_1renderer_1_1factory_1_1Triangle.html#a1ab1af5be6782c56d16de7cf9cecf0dc" target="_top" xlink:title=" ">
<polygon fill="white" stroke="black" points="442,-49.5 442,-79.5 608,-79.5 608,-49.5 442,-49.5"/>
<text text-anchor="start" x="450" y="-67.5" font-family="Helvetica,sans-Serif" font-size="10.00">com.example.renderer.factory.</text>
<text text-anchor="middle" x="525" y="-56.5" font-family="Helvetica,sans-Serif" font-size="10.00">Triangle.getY2</text>
</a>
</g>
</g>
<!-- Node2&#45;&gt;Node7 -->
<g id="edge6" class="edge">
<title>Node2&#45;&gt;Node7</title>
<path fill="none" stroke="midnightblue" d="M358.88,-122.48C382.14,-112.56 413.66,-99.58 442,-89.5 448.5,-87.19 455.34,-84.89 462.17,-82.68"/>
<polygon fill="midnightblue" stroke="midnightblue" points="463.67,-85.88 472.15,-79.52 461.56,-79.21 463.67,-85.88"/>
</g>
<!-- Node8 -->
<g id="node8" class="node">
<title>Node8</title>
<g id="a_node8"><a xlink:href="classcom_1_1example_1_1renderer_1_1factory_1_1Triangle.html#ab8693d7dff18ad8d058df6543f6dd366" target="_top" xlink:title=" ">
<polygon fill="white" stroke="black" points="442,-0.5 442,-30.5 608,-30.5 608,-0.5 442,-0.5"/>
<text text-anchor="start" x="450" y="-18.5" font-family="Helvetica,sans-Serif" font-size="10.00">com.example.renderer.factory.</text>
<text text-anchor="middle" x="525" y="-7.5" font-family="Helvetica,sans-Serif" font-size="10.00">Triangle.getY3</text>
</a>
</g>
</g>
<!-- Node2&#45;&gt;Node8 -->
<g id="edge7" class="edge">
<title>Node2&#45;&gt;Node8</title>
<path fill="none" stroke="midnightblue" d="M339.03,-122.18C359.92,-100.98 400.52,-62.78 442,-40.5 446.2,-38.24 450.64,-36.16 455.19,-34.24"/>
<polygon fill="midnightblue" stroke="midnightblue" points="456.6,-37.44 464.63,-30.53 454.04,-30.93 456.6,-37.44"/>
</g>
</g>
</svg>
        <g id="navigator" transform="translate(0 0)" fill="#404254">
                <rect fill="#f2f5e9" fill-opacity="0.5" stroke="#606060" stroke-width=".5" x="0" y="0" width="60" height="60"/>
                <use id="zoomplus" xlink:href="#zoomPlus" x="17" y="9" onmousedown="handleZoom(evt,'in')"/>
                <use id="zoomminus" xlink:href="#zoomMin" x="42" y="9" onmousedown="handleZoom(evt,'out')"/>
                <use id="reset" xlink:href="#resetDef" x="30" y="36" onmousedown="handleReset()"/>
                <g id="arrowUp" xlink:href="#dirArrow" transform="translate(30 24)" onmousedown="handlePan(0,-1)">
                  <use xlink:href="#rim" fill="#404040">
                        <set attributeName="fill" to="#808080" begin="arrowUp.mouseover" end="arrowUp.mouseout"/>
                  </use>
                  <path fill="none" stroke="white" stroke-width="1.5" d="M0,-3.0v7 M-2.5,-0.5L0,-3.0L2.5,-0.5"/>
                </g>
                <g id="arrowRight" xlink:href="#dirArrow" transform="rotate(90) translate(36 -43)" onmousedown="handlePan(1,0)">
                  <use xlink:href="#rim" fill="#404040">
                        <set attributeName="fill" to="#808080" begin="arrowRight.mouseover" end="arrowRight.mouseout"/>
                  </use>
                  <path fill="none" stroke="white" stroke-width="1.5" d="M0,-3.0v7 M-2.5,-0.5L0,-3.0L2.5,-0.5"/>
                </g>
                <g id="arrowDown" xlink:href="#dirArrow" transform="rotate(180) translate(-30 -48)" onmousedown="handlePan(0,1)">
                  <use xlink:href="#rim" fill="#404040">
                        <set attributeName="fill" to="#808080" begin="arrowDown.mouseover" end="arrowDown.mouseout"/>
                  </use>
                  <path fill="none" stroke="white" stroke-width="1.5" d="M0,-3.0v7 M-2.5,-0.5L0,-3.0L2.5,-0.5"/>
                </g>
                <g id="arrowLeft" xlink:href="#dirArrow" transform="rotate(270) translate(-36 17)" onmousedown="handlePan(-1,0)">
                  <use xlink:href="#rim" fill="#404040">
                        <set attributeName="fill" to="#808080" begin="arrowLeft.mouseover" end="arrowLeft.mouseout"/>
                  </use>
                  <path fill="none" stroke="white" stroke-width="1.5" d="M0,-3.0v7 M-2.5,-0.5L0,-3.0L2.5,-0.5"/>
                </g>
        </g>
        <svg viewBox="0 0 15 15" width="100%" height="30px" preserveAspectRatio="xMaxYMin meet">
         <g id="arrow_out" transform="scale(0.3 0.3)">
          <a xlink:href="classcom_1_1example_1_1renderer_1_1visitor_1_1JSONExportVisitorTest_a21f5e9936ca8fa236a6b0c40b35270df_cgraph_org.svg" target="_base">
           <rect id="button" ry="5" rx="5" y="6" x="6" height="38" width="38"
                fill="#f2f5e9" fill-opacity="0.5" stroke="#606060" stroke-width="1.0"/>
           <path id="arrow"
             d="M 11.500037,31.436501 C 11.940474,20.09759 22.043105,11.32322 32.158766,21.979434 L 37.068811,17.246167 C 37.068811,17.246167 37.088388,32 37.088388,32 L 22.160133,31.978069 C 22.160133,31.978069 26.997745,27.140456 26.997745,27.140456 C 18.528582,18.264221 13.291696,25.230495 11.500037,31.436501 z"
             style="fill:#404040;"/>
          </a>
         </g>
        </svg>
</svg>
