<?xml version="1.0" encoding="UTF-8" standalone="no"?>
<!DOCTYPE svg PUBLIC "-//W3C//DTD SVG 1.1//EN"
 "http://www.w3.org/Graphics/SVG/1.1/DTD/svg11.dtd">
<!-- Generated by graphviz version 2.43.0 (0)
 -->
<!-- Title: com.example.renderer.singleton.PersistenceManager.getInstance Pages: 1 -->
<!--zoomable 520 -->
<svg id="main" version="1.1" xmlns="http://www.w3.org/2000/svg" xmlns:xlink="http://www.w3.org/1999/xlink" xml:space="preserve" onload="init(evt)">
<style type="text/css"><![CDATA[
.edge:hover path { stroke: red; }
.edge:hover polygon { stroke: red; fill: red; }
]]></style>
<script type="text/javascript"><![CDATA[
var edges = document.getElementsByTagName('g');
if (edges && edges.length) {
  for (var i=0;i<edges.length;i++) {
    if (edges[i].id.substr(0,4)=='edge') {
      edges[i].setAttribute('class','edge');
    }
  }
}
]]></script>
        <defs>
                <circle id="rim" cx="0" cy="0" r="7"/>
                <circle id="rim2" cx="0" cy="0" r="3.5"/>
                <g id="zoomPlus">
                        <use xlink:href="#rim" fill="#404040">
                                <set attributeName="fill" to="#808080" begin="zoomplus.mouseover" end="zoomplus.mouseout"/>
                        </use>
                        <path d="M-4,0h8M0,-4v8" fill="none" stroke="white" stroke-width="1.5" pointer-events="none"/>
                </g>
                <g id="zoomMin">
                        <use xlink:href="#rim" fill="#404040">
                                <set attributeName="fill" to="#808080" begin="zoomminus.mouseover" end="zoomminus.mouseout"/>
                        </use>
                        <path d="M-4,0h8" fill="none" stroke="white" stroke-width="1.5" pointer-events="none"/>
                </g>
                <g id="dirArrow">
                        <path fill="none" stroke="white" stroke-width="1.5" d="M0,-3.0v7 M-2.5,-0.5L0,-3.0L2.5,-0.5"/>
                </g>
               <g id="resetDef">
                       <use xlink:href="#rim2" fill="#404040">
                               <set attributeName="fill" to="#808080" begin="reset.mouseover" end="reset.mouseout"/>
                       </use>
               </g>
        </defs>

<script type="text/javascript">
var viewWidth = 438;
var viewHeight = 520;
var sectionId = 'dynsection-1';
</script>
<script xlink:href="svgpan.js"/>
<svg id="graph" class="graph">
<g id="viewport">
<title>com.example.renderer.singleton.PersistenceManager.getInstance</title>
<polygon fill="white" stroke="transparent" points="-4,4 -4,-515.5 434,-515.5 434,4 -4,4"/>
<!-- Node1 -->
<g id="node1" class="node">
<title>Node1</title>
<g id="a_node1"><a xlink:title="获取PersistenceManager单例实例">
<polygon fill="#bfbfbf" stroke="black" points="252,-235.5 252,-265.5 430,-265.5 430,-235.5 252,-235.5"/>
<text text-anchor="start" x="260" y="-253.5" font-family="Helvetica,sans-Serif" font-size="10.00">com.example.renderer.singleton.</text>
<text text-anchor="middle" x="341" y="-242.5" font-family="Helvetica,sans-Serif" font-size="10.00">PersistenceManager.getInstance</text>
</a>
</g>
</g>
<!-- Node2 -->
<g id="node2" class="node">
<title>Node2</title>
<g id="a_node2"><a xlink:href="classcom_1_1example_1_1renderer_1_1singleton_1_1PersistenceManagerTest.html#a72c90e87e5dfcad7677d041ae69bec0a" target="_top" xlink:title="testLoadShapes_CorruptedFile &#45; 验证加载损坏 JSON 文件时抛出 JsonParseException">
<polygon fill="white" stroke="black" points="0.5,-470 0.5,-511 215.5,-511 215.5,-470 0.5,-470"/>
<text text-anchor="start" x="8.5" y="-499" font-family="Helvetica,sans-Serif" font-size="10.00">com.example.renderer.singleton.</text>
<text text-anchor="start" x="8.5" y="-488" font-family="Helvetica,sans-Serif" font-size="10.00">PersistenceManagerTest.testLoadShapes</text>
<text text-anchor="middle" x="108" y="-477" font-family="Helvetica,sans-Serif" font-size="10.00">_CorruptedFile</text>
</a>
</g>
</g>
<!-- Node1&#45;&gt;Node2 -->
<g id="edge1" class="edge">
<title>Node1&#45;&gt;Node2</title>
<path fill="none" stroke="midnightblue" d="M332.3,-275.23C317.29,-319.3 279.86,-411.41 216,-460.5 211.41,-464.03 206.43,-467.14 201.21,-469.89"/>
<polygon fill="midnightblue" stroke="midnightblue" points="335.67,-276.19 335.48,-265.6 329.02,-274 335.67,-276.19"/>
</g>
<!-- Node3 -->
<g id="node3" class="node">
<title>Node3</title>
<g id="a_node3"><a xlink:href="classcom_1_1example_1_1renderer_1_1singleton_1_1PersistenceManagerTest.html#a6897f4e5a3b9bd19f1b50caba2374c47" target="_top" xlink:title="testLoadShapes_InvalidPath &#45; 验证无效路径加载图形时抛出 IOException">
<polygon fill="white" stroke="black" points="0.5,-410 0.5,-451 215.5,-451 215.5,-410 0.5,-410"/>
<text text-anchor="start" x="8.5" y="-439" font-family="Helvetica,sans-Serif" font-size="10.00">com.example.renderer.singleton.</text>
<text text-anchor="start" x="8.5" y="-428" font-family="Helvetica,sans-Serif" font-size="10.00">PersistenceManagerTest.testLoadShapes</text>
<text text-anchor="middle" x="108" y="-417" font-family="Helvetica,sans-Serif" font-size="10.00">_InvalidPath</text>
</a>
</g>
</g>
<!-- Node1&#45;&gt;Node3 -->
<g id="edge2" class="edge">
<title>Node1&#45;&gt;Node3</title>
<path fill="none" stroke="midnightblue" d="M326.6,-274.52C306.78,-307.84 266.48,-367.66 216,-400.5 210.58,-404.02 204.75,-407.14 198.7,-409.89"/>
<polygon fill="midnightblue" stroke="midnightblue" points="329.63,-276.27 331.64,-265.87 323.58,-272.75 329.63,-276.27"/>
</g>
<!-- Node4 -->
<g id="node4" class="node">
<title>Node4</title>
<g id="a_node4"><a xlink:href="classcom_1_1example_1_1renderer_1_1singleton_1_1PersistenceManagerTest.html#abc0595b193e5c952a3149c6cf04aea59" target="_top" xlink:title="testSaveAndLoad_MixedShapes &#45; 验证混合图形保存并正确加载">
<polygon fill="white" stroke="black" points="8,-350 8,-391 208,-391 208,-350 8,-350"/>
<text text-anchor="start" x="16" y="-379" font-family="Helvetica,sans-Serif" font-size="10.00">com.example.renderer.singleton.</text>
<text text-anchor="start" x="16" y="-368" font-family="Helvetica,sans-Serif" font-size="10.00">PersistenceManagerTest.testSaveAnd</text>
<text text-anchor="middle" x="108" y="-357" font-family="Helvetica,sans-Serif" font-size="10.00">Load_MixedShapes</text>
</a>
</g>
</g>
<!-- Node1&#45;&gt;Node4 -->
<g id="edge3" class="edge">
<title>Node1&#45;&gt;Node4</title>
<path fill="none" stroke="midnightblue" d="M315.37,-272.49C291.49,-292.76 253.48,-322.37 216,-340.5 208.79,-343.99 201.11,-347.13 193.3,-349.95"/>
<polygon fill="midnightblue" stroke="midnightblue" points="317.91,-274.92 323.2,-265.74 313.34,-269.61 317.91,-274.92"/>
</g>
<!-- Node5 -->
<g id="node5" class="node">
<title>Node5</title>
<g id="a_node5"><a xlink:href="classcom_1_1example_1_1renderer_1_1singleton_1_1PersistenceManagerTest.html#af7dbae650324dd84eb8b363f812d5bbc" target="_top" xlink:title="testSaveAndLoadShapes &#45; 验证保存和加载图形数据是否成功">
<polygon fill="white" stroke="black" points="8,-290 8,-331 208,-331 208,-290 8,-290"/>
<text text-anchor="start" x="16" y="-319" font-family="Helvetica,sans-Serif" font-size="10.00">com.example.renderer.singleton.</text>
<text text-anchor="start" x="16" y="-308" font-family="Helvetica,sans-Serif" font-size="10.00">PersistenceManagerTest.testSaveAnd</text>
<text text-anchor="middle" x="108" y="-297" font-family="Helvetica,sans-Serif" font-size="10.00">LoadShapes</text>
</a>
</g>
</g>
<!-- Node1&#45;&gt;Node5 -->
<g id="edge4" class="edge">
<title>Node1&#45;&gt;Node5</title>
<path fill="none" stroke="midnightblue" d="M272.11,-268.13C245.72,-274.99 215.32,-282.88 187.97,-289.99"/>
<polygon fill="midnightblue" stroke="midnightblue" points="273.21,-271.46 282.01,-265.56 271.45,-264.69 273.21,-271.46"/>
</g>
<!-- Node6 -->
<g id="node6" class="node">
<title>Node6</title>
<g id="a_node6"><a xlink:href="classcom_1_1example_1_1renderer_1_1singleton_1_1PersistenceManagerTest.html#a192ab24534097554e67f360ddb0e6694" target="_top" xlink:title="testSaveShapes_EmptyPath &#45; 验证空路径保存抛出 IllegalArgumentException">
<polygon fill="white" stroke="black" points="0,-230 0,-271 216,-271 216,-230 0,-230"/>
<text text-anchor="start" x="8" y="-259" font-family="Helvetica,sans-Serif" font-size="10.00">com.example.renderer.singleton.</text>
<text text-anchor="start" x="8" y="-248" font-family="Helvetica,sans-Serif" font-size="10.00">PersistenceManagerTest.testSaveShapes</text>
<text text-anchor="middle" x="108" y="-237" font-family="Helvetica,sans-Serif" font-size="10.00">_EmptyPath</text>
</a>
</g>
</g>
<!-- Node1&#45;&gt;Node6 -->
<g id="edge5" class="edge">
<title>Node1&#45;&gt;Node6</title>
<path fill="none" stroke="midnightblue" d="M241.54,-250.5C233.17,-250.5 224.68,-250.5 216.25,-250.5"/>
<polygon fill="midnightblue" stroke="midnightblue" points="241.68,-254 251.68,-250.5 241.68,-247 241.68,-254"/>
</g>
<!-- Node7 -->
<g id="node7" class="node">
<title>Node7</title>
<g id="a_node7"><a xlink:href="classcom_1_1example_1_1renderer_1_1singleton_1_1PersistenceManagerTest.html#a1bcfe59fc2e0e3572741b7f56493a162" target="_top" xlink:title="testSaveShapes_NullList &#45; 验证传入 null 列表时抛出 NullPointerException">
<polygon fill="white" stroke="black" points="0,-170 0,-211 216,-211 216,-170 0,-170"/>
<text text-anchor="start" x="8" y="-199" font-family="Helvetica,sans-Serif" font-size="10.00">com.example.renderer.singleton.</text>
<text text-anchor="start" x="8" y="-188" font-family="Helvetica,sans-Serif" font-size="10.00">PersistenceManagerTest.testSaveShapes</text>
<text text-anchor="middle" x="108" y="-177" font-family="Helvetica,sans-Serif" font-size="10.00">_NullList</text>
</a>
</g>
</g>
<!-- Node1&#45;&gt;Node7 -->
<g id="edge6" class="edge">
<title>Node1&#45;&gt;Node7</title>
<path fill="none" stroke="midnightblue" d="M272.11,-232.87C245.72,-226.01 215.32,-218.12 187.97,-211.01"/>
<polygon fill="midnightblue" stroke="midnightblue" points="271.45,-236.31 282.01,-235.44 273.21,-229.54 271.45,-236.31"/>
</g>
<!-- Node8 -->
<g id="node8" class="node">
<title>Node8</title>
<g id="a_node8"><a xlink:href="classcom_1_1example_1_1renderer_1_1singleton_1_1PersistenceManagerTest.html#a3134efe15efca39d8324432633e55ac0" target="_top" xlink:title="testSaveShapes_ReadOnlyFile &#45; 验证向只读文件保存时抛出 IOException">
<polygon fill="white" stroke="black" points="0,-110 0,-151 216,-151 216,-110 0,-110"/>
<text text-anchor="start" x="8" y="-139" font-family="Helvetica,sans-Serif" font-size="10.00">com.example.renderer.singleton.</text>
<text text-anchor="start" x="8" y="-128" font-family="Helvetica,sans-Serif" font-size="10.00">PersistenceManagerTest.testSaveShapes</text>
<text text-anchor="middle" x="108" y="-117" font-family="Helvetica,sans-Serif" font-size="10.00">_ReadOnlyFile</text>
</a>
</g>
</g>
<!-- Node1&#45;&gt;Node8 -->
<g id="edge7" class="edge">
<title>Node1&#45;&gt;Node8</title>
<path fill="none" stroke="midnightblue" d="M315.37,-228.51C291.49,-208.24 253.48,-178.63 216,-160.5 208.79,-157.01 201.11,-153.87 193.3,-151.05"/>
<polygon fill="midnightblue" stroke="midnightblue" points="313.34,-231.39 323.2,-235.26 317.91,-226.08 313.34,-231.39"/>
</g>
<!-- Node9 -->
<g id="node9" class="node">
<title>Node9</title>
<g id="a_node9"><a xlink:href="classcom_1_1example_1_1renderer_1_1singleton_1_1PersistenceManagerTest.html#a33893539b4322b1f28ce400481ae67b4" target="_top" xlink:title="testSaveShapes_WithSpecialCharacters &#45; 验证文件名含特殊字符时仍能正常保存">
<polygon fill="white" stroke="black" points="0,-50 0,-91 216,-91 216,-50 0,-50"/>
<text text-anchor="start" x="8" y="-79" font-family="Helvetica,sans-Serif" font-size="10.00">com.example.renderer.singleton.</text>
<text text-anchor="start" x="8" y="-68" font-family="Helvetica,sans-Serif" font-size="10.00">PersistenceManagerTest.testSaveShapes</text>
<text text-anchor="middle" x="108" y="-57" font-family="Helvetica,sans-Serif" font-size="10.00">_WithSpecialCharacters</text>
</a>
</g>
</g>
<!-- Node1&#45;&gt;Node9 -->
<g id="edge8" class="edge">
<title>Node1&#45;&gt;Node9</title>
<path fill="none" stroke="midnightblue" d="M326.6,-226.48C306.78,-193.16 266.48,-133.34 216,-100.5 210.58,-96.98 204.75,-93.86 198.7,-91.11"/>
<polygon fill="midnightblue" stroke="midnightblue" points="323.58,-228.25 331.64,-235.13 329.63,-224.73 323.58,-228.25"/>
</g>
<!-- Node10 -->
<g id="node10" class="node">
<title>Node10</title>
<g id="a_node10"><a xlink:href="classcom_1_1example_1_1renderer_1_1singleton_1_1PersistenceManagerTest.html#a4d3b7bb2335f83af99af6cb002ab4c22" target="_top" xlink:title="testSingleton &#45; 验证 PersistenceManager 是否为单例">
<polygon fill="white" stroke="black" points="6.5,-0.5 6.5,-30.5 209.5,-30.5 209.5,-0.5 6.5,-0.5"/>
<text text-anchor="start" x="14.5" y="-18.5" font-family="Helvetica,sans-Serif" font-size="10.00">com.example.renderer.singleton.</text>
<text text-anchor="middle" x="108" y="-7.5" font-family="Helvetica,sans-Serif" font-size="10.00">PersistenceManagerTest.testSingleton</text>
</a>
</g>
</g>
<!-- Node1&#45;&gt;Node10 -->
<g id="edge9" class="edge">
<title>Node1&#45;&gt;Node10</title>
<path fill="none" stroke="midnightblue" d="M332.51,-225.49C317.83,-180.97 280.92,-88.18 216,-40.5 210.7,-36.6 204.88,-33.3 198.78,-30.51"/>
<polygon fill="midnightblue" stroke="midnightblue" points="329.24,-226.76 335.61,-235.22 335.91,-224.63 329.24,-226.76"/>
</g>
</g>
</svg>
        <g id="navigator" transform="translate(0 0)" fill="#404254">
                <rect fill="#f2f5e9" fill-opacity="0.5" stroke="#606060" stroke-width=".5" x="0" y="0" width="60" height="60"/>
                <use id="zoomplus" xlink:href="#zoomPlus" x="17" y="9" onmousedown="handleZoom(evt,'in')"/>
                <use id="zoomminus" xlink:href="#zoomMin" x="42" y="9" onmousedown="handleZoom(evt,'out')"/>
                <use id="reset" xlink:href="#resetDef" x="30" y="36" onmousedown="handleReset()"/>
                <g id="arrowUp" xlink:href="#dirArrow" transform="translate(30 24)" onmousedown="handlePan(0,-1)">
                  <use xlink:href="#rim" fill="#404040">
                        <set attributeName="fill" to="#808080" begin="arrowUp.mouseover" end="arrowUp.mouseout"/>
                  </use>
                  <path fill="none" stroke="white" stroke-width="1.5" d="M0,-3.0v7 M-2.5,-0.5L0,-3.0L2.5,-0.5"/>
                </g>
                <g id="arrowRight" xlink:href="#dirArrow" transform="rotate(90) translate(36 -43)" onmousedown="handlePan(1,0)">
                  <use xlink:href="#rim" fill="#404040">
                        <set attributeName="fill" to="#808080" begin="arrowRight.mouseover" end="arrowRight.mouseout"/>
                  </use>
                  <path fill="none" stroke="white" stroke-width="1.5" d="M0,-3.0v7 M-2.5,-0.5L0,-3.0L2.5,-0.5"/>
                </g>
                <g id="arrowDown" xlink:href="#dirArrow" transform="rotate(180) translate(-30 -48)" onmousedown="handlePan(0,1)">
                  <use xlink:href="#rim" fill="#404040">
                        <set attributeName="fill" to="#808080" begin="arrowDown.mouseover" end="arrowDown.mouseout"/>
                  </use>
                  <path fill="none" stroke="white" stroke-width="1.5" d="M0,-3.0v7 M-2.5,-0.5L0,-3.0L2.5,-0.5"/>
                </g>
                <g id="arrowLeft" xlink:href="#dirArrow" transform="rotate(270) translate(-36 17)" onmousedown="handlePan(-1,0)">
                  <use xlink:href="#rim" fill="#404040">
                        <set attributeName="fill" to="#808080" begin="arrowLeft.mouseover" end="arrowLeft.mouseout"/>
                  </use>
                  <path fill="none" stroke="white" stroke-width="1.5" d="M0,-3.0v7 M-2.5,-0.5L0,-3.0L2.5,-0.5"/>
                </g>
        </g>
        <svg viewBox="0 0 15 15" width="100%" height="30px" preserveAspectRatio="xMaxYMin meet">
         <g id="arrow_out" transform="scale(0.3 0.3)">
          <a xlink:href="classcom_1_1example_1_1renderer_1_1singleton_1_1PersistenceManager_a229e6512b9ffae3cddc80a15e779e6e4_icgraph_org.svg" target="_base">
           <rect id="button" ry="5" rx="5" y="6" x="6" height="38" width="38"
                fill="#f2f5e9" fill-opacity="0.5" stroke="#606060" stroke-width="1.0"/>
           <path id="arrow"
             d="M 11.500037,31.436501 C 11.940474,20.09759 22.043105,11.32322 32.158766,21.979434 L 37.068811,17.246167 C 37.068811,17.246167 37.088388,32 37.088388,32 L 22.160133,31.978069 C 22.160133,31.978069 26.997745,27.140456 26.997745,27.140456 C 18.528582,18.264221 13.291696,25.230495 11.500037,31.436501 z"
             style="fill:#404040;"/>
          </a>
         </g>
        </svg>
</svg>
