<?xml version="1.0" encoding="UTF-8" standalone="no"?>
<!DOCTYPE svg PUBLIC "-//W3C//DTD SVG 1.1//EN"
 "http://www.w3.org/Graphics/SVG/1.1/DTD/svg11.dtd">
<!-- Generated by graphviz version 2.43.0 (0)
 -->
<!-- Title: com.example.renderer.proxy.RemoteRendererProxy.drawRectangle Pages: 1 -->
<svg width="409pt" height="39pt"
 viewBox="0.00 0.00 409.00 39.00" xmlns="http://www.w3.org/2000/svg" xmlns:xlink="http://www.w3.org/1999/xlink">
<g id="graph0" class="graph" transform="scale(1 1) rotate(0) translate(4 35)">
<title>com.example.renderer.proxy.RemoteRendererProxy.drawRectangle</title>
<polygon fill="white" stroke="transparent" points="-4,4 -4,-35 405,-35 405,4 -4,4"/>
<!-- Node1 -->
<g id="node1" class="node">
<title>Node1</title>
<g id="a_node1"><a xlink:title="绘制矩形">
<polygon fill="#bfbfbf" stroke="black" points="0,-0.5 0,-30.5 201,-30.5 201,-0.5 0,-0.5"/>
<text text-anchor="start" x="8" y="-18.5" font-family="Helvetica,sans-Serif" font-size="10.00">com.example.renderer.proxy.</text>
<text text-anchor="middle" x="100.5" y="-7.5" font-family="Helvetica,sans-Serif" font-size="10.00">RemoteRendererProxy.drawRectangle</text>
</a>
</g>
</g>
<!-- Node2 -->
<g id="node2" class="node">
<title>Node2</title>
<g id="a_node2"><a xlink:href="interfacecom_1_1example_1_1renderer_1_1bridge_1_1Renderer.html#a544db73ca5c1778c124d3ee53b99b4b6" target="_top" xlink:title="绘制矩形">
<polygon fill="white" stroke="black" points="237,-0.5 237,-30.5 401,-30.5 401,-0.5 237,-0.5"/>
<text text-anchor="start" x="245" y="-18.5" font-family="Helvetica,sans-Serif" font-size="10.00">com.example.renderer.bridge.</text>
<text text-anchor="middle" x="319" y="-7.5" font-family="Helvetica,sans-Serif" font-size="10.00">Renderer.drawRectangle</text>
</a>
</g>
</g>
<!-- Node1&#45;&gt;Node2 -->
<g id="edge1" class="edge">
<title>Node1&#45;&gt;Node2</title>
<path fill="none" stroke="midnightblue" d="M201.2,-15.5C209.72,-15.5 218.31,-15.5 226.76,-15.5"/>
<polygon fill="midnightblue" stroke="midnightblue" points="226.98,-19 236.98,-15.5 226.98,-12 226.98,-19"/>
</g>
</g>
</svg>
