<?xml version="1.0" encoding="UTF-8" standalone="no"?>
<!DOCTYPE svg PUBLIC "-//W3C//DTD SVG 1.1//EN"
 "http://www.w3.org/Graphics/SVG/1.1/DTD/svg11.dtd">
<!-- Generated by graphviz version 2.43.0 (0)
 -->
<!-- Title: src/test/java/com/example/renderer Pages: 1 -->
<!--zoomable 94 -->

<svg id="main" version="1.1" xmlns="http://www.w3.org/2000/svg" xmlns:xlink="http://www.w3.org/1999/xlink" xml:space="preserve" onload="init(evt)">
<style type="text/css"><![CDATA[
.node, .edge {opacity: 0.7;}
.node.selected, .edge.selected {opacity: 1;}
.edge:hover path { stroke: red; }
.edge:hover polygon { stroke: red; fill: red; }
]]></style>

<defs>
  <circle id="rim" cx="0" cy="0" r="7"/>
  <circle id="rim2" cx="0" cy="0" r="3.5"/>
  <g id="zoomPlus">
    <use xlink:href="#rim" fill="#404040"><set attributeName="fill" to="#808080" begin="zoomplus.mouseover" end="zoomplus.mouseout"/></use>
    <path d="M-4,0h8M0,-4v8" fill="none" stroke="white" stroke-width="1.5" pointer-events="none"/>
  </g>
  <g id="zoomMin">
    <use xlink:href="#rim" fill="#404040"><set attributeName="fill" to="#808080" begin="zoomminus.mouseover" end="zoomminus.mouseout"/></use>
    <path d="M-4,0h8" fill="none" stroke="white" stroke-width="1.5" pointer-events="none"/>
  </g>
  <g id="arrowUp" transform="translate(30 24)">
    <use xlink:href="#rim"/>
    <path pointer-events="none" fill="none" stroke="white" stroke-width="1.5" d="M0,-3.0v7 M-2.5,-0.5L0,-3.0L2.5,-0.5"/>
  </g>
  <g id="arrowRight" transform="rotate(90) translate(36 -43)">
    <use xlink:href="#rim"/>
    <path pointer-events="none" fill="none" stroke="white" stroke-width="1.5" d="M0,-3.0v7 M-2.5,-0.5L0,-3.0L2.5,-0.5"/>
  </g>
  <g id="arrowDown" transform="rotate(180) translate(-30 -48)">
    <use xlink:href="#rim"/>
    <path pointer-events="none" fill="none" stroke="white" stroke-width="1.5" d="M0,-3.0v7 M-2.5,-0.5L0,-3.0L2.5,-0.5"/>
  </g>
  <g id="arrowLeft" transform="rotate(270) translate(-36 17)">
    <use xlink:href="#rim"/>
    <path pointer-events="none" fill="none" stroke="white" stroke-width="1.5" d="M0,-3.0v7 M-2.5,-0.5L0,-3.0L2.5,-0.5"/>
  </g>
  <g id="resetDef">
    <use xlink:href="#rim2" fill="#404040"><set attributeName="fill" to="#808080" begin="reset.mouseover" end="reset.mouseout"/></use>
  </g>
</defs>
<script type="application/ecmascript">
var viewWidth = 810;
var viewHeight = 94;
var sectionId = 'dynsection-0';
</script>
<script type="application/ecmascript" xlink:href="svg.min.js"/>
<svg id="graph" class="graph">
<g id="viewport">
<title>src/test/java/com/example/renderer</title>
<g id="clust1" class="cluster">
<title>clusterdir_78723e336fd254b123dc05d5464f5a60</title>
<g id="a_clust1"><a xlink:href="dir_78723e336fd254b123dc05d5464f5a60.html" target="_top" xlink:title="example">
<polygon fill="#edf0f7" stroke="#7f7f7f" stroke-dasharray="5,2" points="8,-8 8,-78 794,-78 794,-8 8,-8"/>
<text text-anchor="middle" x="401" y="-66" font-family="Helvetica,sans-Serif" font-size="10.00">example</text>
</a>
</g>
</g>
<g id="clust2" class="cluster">
<title>clusterdir_57d5f12143228116441e915129e2deb9</title>
<g id="a_clust2"><a xlink:href="dir_57d5f12143228116441e915129e2deb9.html" target="_top">
<polygon fill="#edf0f7" stroke="#404040" stroke-width="2" points="16,-16 16,-51 786,-51 786,-16 16,-16"/>
</a>
</g>
</g>
<!-- dir_57d5f12143228116441e915129e2deb9 -->
<g id="node1" class="node">
<title>dir_57d5f12143228116441e915129e2deb9</title>
<text text-anchor="middle" x="749" y="-31" font-family="Helvetica,sans-Serif" font-size="10.00">renderer</text>
</g>
<!-- dir_9886363481d34318e7cc0ab33abe91d8 -->
<g id="node2" class="node">
<title>dir_9886363481d34318e7cc0ab33abe91d8</title>
<g id="a_node2"><a xlink:href="dir_9886363481d34318e7cc0ab33abe91d8.html" target="_top" xlink:title="adapter">
<polygon fill="#a2b4d6" stroke="#404040" points="702,-43 648,-43 648,-24 702,-24 702,-43"/>
<text text-anchor="middle" x="675" y="-31" font-family="Helvetica,sans-Serif" font-size="10.00">adapter</text>
</a>
</g>
</g>
<!-- dir_72b5dbb7bd4c127df70da2feea684d53 -->
<g id="node3" class="node">
<title>dir_72b5dbb7bd4c127df70da2feea684d53</title>
<g id="a_node3"><a xlink:href="dir_72b5dbb7bd4c127df70da2feea684d53.html" target="_top" xlink:title="bridge">
<polygon fill="#a2b4d6" stroke="#404040" points="629.5,-43 582.5,-43 582.5,-24 629.5,-24 629.5,-43"/>
<text text-anchor="middle" x="606" y="-31" font-family="Helvetica,sans-Serif" font-size="10.00">bridge</text>
</a>
</g>
</g>
<!-- dir_f4fd97655a54299398e50c8744aba42a -->
<g id="node4" class="node">
<title>dir_f4fd97655a54299398e50c8744aba42a</title>
<g id="a_node4"><a xlink:href="dir_f4fd97655a54299398e50c8744aba42a.html" target="_top" xlink:title="command">
<polygon fill="#a2b4d6" stroke="#404040" points="564.5,-43 499.5,-43 499.5,-24 564.5,-24 564.5,-43"/>
<text text-anchor="middle" x="532" y="-31" font-family="Helvetica,sans-Serif" font-size="10.00">command</text>
</a>
</g>
</g>
<!-- dir_a96ca951fd4759de6822014871bd4418 -->
<g id="node5" class="node">
<title>dir_a96ca951fd4759de6822014871bd4418</title>
<g id="a_node5"><a xlink:href="dir_a96ca951fd4759de6822014871bd4418.html" target="_top" xlink:title="config">
<polygon fill="#a2b4d6" stroke="#404040" points="481,-43 435,-43 435,-24 481,-24 481,-43"/>
<text text-anchor="middle" x="458" y="-31" font-family="Helvetica,sans-Serif" font-size="10.00">config</text>
</a>
</g>
</g>
<!-- dir_90476df6a9635336218ecb75f5e2b059 -->
<g id="node6" class="node">
<title>dir_90476df6a9635336218ecb75f5e2b059</title>
<g id="a_node6"><a xlink:href="dir_90476df6a9635336218ecb75f5e2b059.html" target="_top" xlink:title="core">
<polygon fill="#a2b4d6" stroke="#404040" points="417,-43 379,-43 379,-24 417,-24 417,-43"/>
<text text-anchor="middle" x="398" y="-31" font-family="Helvetica,sans-Serif" font-size="10.00">core</text>
</a>
</g>
</g>
<!-- dir_a637b0c59cc2db52f464749361cd34f7 -->
<g id="node7" class="node">
<title>dir_a637b0c59cc2db52f464749361cd34f7</title>
<g id="a_node7"><a xlink:href="dir_a637b0c59cc2db52f464749361cd34f7.html" target="_top" xlink:title="factory">
<polygon fill="#a2b4d6" stroke="#404040" points="360.5,-43 309.5,-43 309.5,-24 360.5,-24 360.5,-43"/>
<text text-anchor="middle" x="335" y="-31" font-family="Helvetica,sans-Serif" font-size="10.00">factory</text>
</a>
</g>
</g>
<!-- dir_493d97f6a9efa527e0dacb3e601cfcb0 -->
<g id="node8" class="node">
<title>dir_493d97f6a9efa527e0dacb3e601cfcb0</title>
<g id="a_node8"><a xlink:href="dir_493d97f6a9efa527e0dacb3e601cfcb0.html" target="_top" xlink:title="observer">
<polygon fill="#a2b4d6" stroke="#404040" points="291.5,-43 232.5,-43 232.5,-24 291.5,-24 291.5,-43"/>
<text text-anchor="middle" x="262" y="-31" font-family="Helvetica,sans-Serif" font-size="10.00">observer</text>
</a>
</g>
</g>
<!-- dir_5ffc19777bb246bda76ee65b4fa847b3 -->
<g id="node9" class="node">
<title>dir_5ffc19777bb246bda76ee65b4fa847b3</title>
<g id="a_node9"><a xlink:href="dir_5ffc19777bb246bda76ee65b4fa847b3.html" target="_top" xlink:title="proxy">
<polygon fill="#a2b4d6" stroke="#404040" points="214,-43 170,-43 170,-24 214,-24 214,-43"/>
<text text-anchor="middle" x="192" y="-31" font-family="Helvetica,sans-Serif" font-size="10.00">proxy</text>
</a>
</g>
</g>
<!-- dir_ae79fa8765f85b33af477e74e6216621 -->
<g id="node10" class="node">
<title>dir_ae79fa8765f85b33af477e74e6216621</title>
<g id="a_node10"><a xlink:href="dir_ae79fa8765f85b33af477e74e6216621.html" target="_top" xlink:title="singleton">
<polygon fill="#a2b4d6" stroke="#404040" points="152,-43 90,-43 90,-24 152,-24 152,-43"/>
<text text-anchor="middle" x="121" y="-31" font-family="Helvetica,sans-Serif" font-size="10.00">singleton</text>
</a>
</g>
</g>
<!-- dir_59c77dd681628d4aa322acf1679ba353 -->
<g id="node11" class="node">
<title>dir_59c77dd681628d4aa322acf1679ba353</title>
<g id="a_node11"><a xlink:href="dir_59c77dd681628d4aa322acf1679ba353.html" target="_top" xlink:title="visitor">
<polygon fill="#a2b4d6" stroke="#404040" points="71.5,-43 24.5,-43 24.5,-24 71.5,-24 71.5,-43"/>
<text text-anchor="middle" x="48" y="-31" font-family="Helvetica,sans-Serif" font-size="10.00">visitor</text>
</a>
</g>
</g>
</g>
</svg>

<g id="navigator" transform="translate(0 0)" fill="#404254">
  <rect fill="#f2f5e9" fill-opacity="0.5" stroke="#606060" stroke-width=".5" x="0" y="0" width="60" height="60"/>
  <use id="zoomplus" xlink:href="#zoomPlus" x="17" y="9" onmousedown="handleZoom(evt,'in')"/>
  <use id="zoomminus" xlink:href="#zoomMin" x="42" y="9" onmousedown="handleZoom(evt,'out')"/>
  <use id="reset" xlink:href="#resetDef" x="30" y="36" onmousedown="handleReset()"/>
   <use id="arrowup" xlink:href="#arrowUp" x="0" y="0" onmousedown="handlePan(0,-1)"/>
  <use id="arrowright" xlink:href="#arrowRight" x="0" y="0" onmousedown="handlePan(1,0)"/>
  <use id="arrowdown" xlink:href="#arrowDown" x="0" y="0" onmousedown="handlePan(0,1)"/>
  <use id="arrowleft" xlink:href="#arrowLeft" x="0" y="0" onmousedown="handlePan(-1,0)"/>
</g>
<svg viewBox="0 0 15 15" width="100%" height="30px" preserveAspectRatio="xMaxYMin meet">
 <g id="arrow_out" transform="scale(0.3 0.3)">
  <a xlink:href="dir_57d5f12143228116441e915129e2deb9_dep_org.svg" target="_base">
   <rect id="button" ry="5" rx="5" y="6" x="6" height="38" width="38"
        fill="#f2f5e9" fill-opacity="0.5" stroke="#606060" stroke-width="1.0"/>
   <path id="arrow"
     d="M 11.500037,31.436501 C 11.940474,20.09759 22.043105,11.32322 32.158766,21.979434 L 37.068811,17.246167 C 37.068811,17.246167 37.088388,32 37.088388,32 L 22.160133,31.978069 C 22.160133,31.978069 26.997745,27.140456 26.997745,27.140456 C 18.528582,18.264221 13.291696,25.230495 11.500037,31.436501 z"
     style="fill:#404040;"/>
  </a>
 </g>
</svg>

<style type='text/css'>
<![CDATA[
[data-mouse-over-selected='false'] { opacity: 0.7; }
[data-mouse-over-selected='true']  { opacity: 1.0; }
]]>
</style>
<script type="application/ecmascript"><![CDATA[
document.addEventListener('DOMContentLoaded', (event) => {
  highlightEdges();
  highlightAdjacentNodes();
});
]]></script>
</svg>
