<?xml version="1.0" encoding="UTF-8" standalone="no"?>
<!DOCTYPE svg PUBLIC "-//W3C//DTD SVG 1.1//EN"
 "http://www.w3.org/Graphics/SVG/1.1/DTD/svg11.dtd">
<!-- Generated by graphviz version 2.43.0 (0)
 -->
<!-- Title: Graphical Class Hierarchy Pages: 1 -->
<svg width="376pt" height="182pt"
 viewBox="0.00 0.00 376.00 182.00" xmlns="http://www.w3.org/2000/svg" xmlns:xlink="http://www.w3.org/1999/xlink">
<g id="graph0" class="graph" transform="scale(1 1) rotate(0) translate(4 178)">
<title>Graphical Class Hierarchy</title>
<!-- Node0 -->
<g id="Node000000" class="node">
<title>Node0</title>
<g id="a_Node000000"><a xlink:href="interfacecom_1_1example_1_1renderer_1_1factory_1_1Shape.html" target="_top" xlink:title=" ">
<polygon fill="white" stroke="#666666" points="166,-102 0,-102 0,-72 166,-72 166,-102"/>
<text text-anchor="start" x="8" y="-90" font-family="Helvetica,sans-Serif" font-size="10.00">com.example.renderer.factory.</text>
<text text-anchor="middle" x="83" y="-79" font-family="Helvetica,sans-Serif" font-size="10.00">Shape</text>
</a>
</g>
</g>
<!-- Node1 -->
<g id="Node000001" class="node">
<title>Node1</title>
<g id="a_Node000001"><a xlink:href="classcom_1_1example_1_1renderer_1_1factory_1_1Circle.html" target="_top" xlink:title=" ">
<polygon fill="white" stroke="#666666" points="368,-174 202,-174 202,-144 368,-144 368,-174"/>
<text text-anchor="start" x="210" y="-162" font-family="Helvetica,sans-Serif" font-size="10.00">com.example.renderer.factory.</text>
<text text-anchor="middle" x="285" y="-151" font-family="Helvetica,sans-Serif" font-size="10.00">Circle</text>
</a>
</g>
</g>
<!-- Node0&#45;&gt;Node1 -->
<g id="edge7_Node000000_Node000001" class="edge">
<title>Node0&#45;&gt;Node1</title>
<g id="a_edge7_Node000000_Node000001"><a xlink:title=" ">
<path fill="none" stroke="#63b8ff" d="M127.67,-106C149.75,-115.29 177.08,-126.31 202,-135 210.82,-138.08 220.27,-141.09 229.5,-143.89"/>
<polygon fill="#63b8ff" stroke="#63b8ff" points="128.81,-102.68 118.24,-102.01 126.08,-109.13 128.81,-102.68"/>
</a>
</g>
</g>
<!-- Node2 -->
<g id="Node000002" class="node">
<title>Node2</title>
<g id="a_Node000002"><a xlink:href="classcom_1_1example_1_1renderer_1_1factory_1_1Ellipse.html" target="_top" xlink:title=" ">
<polygon fill="white" stroke="#666666" points="368,-126 202,-126 202,-96 368,-96 368,-126"/>
<text text-anchor="start" x="210" y="-114" font-family="Helvetica,sans-Serif" font-size="10.00">com.example.renderer.factory.</text>
<text text-anchor="middle" x="285" y="-103" font-family="Helvetica,sans-Serif" font-size="10.00">Ellipse</text>
</a>
</g>
</g>
<!-- Node0&#45;&gt;Node2 -->
<g id="edge8_Node000000_Node000002" class="edge">
<title>Node0&#45;&gt;Node2</title>
<g id="a_edge8_Node000000_Node000002"><a xlink:title=" ">
<path fill="none" stroke="#63b8ff" d="M176.19,-98.06C184.73,-99.09 193.34,-100.12 201.78,-101.13"/>
<polygon fill="#63b8ff" stroke="#63b8ff" points="176.56,-94.58 166.21,-96.87 175.73,-101.53 176.56,-94.58"/>
</a>
</g>
</g>
<!-- Node3 -->
<g id="Node000003" class="node">
<title>Node3</title>
<g id="a_Node000003"><a xlink:href="classcom_1_1example_1_1renderer_1_1factory_1_1Rectangle.html" target="_top" xlink:title=" ">
<polygon fill="white" stroke="#666666" points="368,-78 202,-78 202,-48 368,-48 368,-78"/>
<text text-anchor="start" x="210" y="-66" font-family="Helvetica,sans-Serif" font-size="10.00">com.example.renderer.factory.</text>
<text text-anchor="middle" x="285" y="-55" font-family="Helvetica,sans-Serif" font-size="10.00">Rectangle</text>
</a>
</g>
</g>
<!-- Node0&#45;&gt;Node3 -->
<g id="edge9_Node000000_Node000003" class="edge">
<title>Node0&#45;&gt;Node3</title>
<g id="a_edge9_Node000000_Node000003"><a xlink:title=" ">
<path fill="none" stroke="#63b8ff" d="M176.19,-75.94C184.73,-74.91 193.34,-73.88 201.78,-72.87"/>
<polygon fill="#63b8ff" stroke="#63b8ff" points="175.73,-72.47 166.21,-77.13 176.56,-79.42 175.73,-72.47"/>
</a>
</g>
</g>
<!-- Node4 -->
<g id="Node000004" class="node">
<title>Node4</title>
<g id="a_Node000004"><a xlink:href="classcom_1_1example_1_1renderer_1_1factory_1_1Triangle.html" target="_top" xlink:title=" ">
<polygon fill="white" stroke="#666666" points="368,-30 202,-30 202,0 368,0 368,-30"/>
<text text-anchor="start" x="210" y="-18" font-family="Helvetica,sans-Serif" font-size="10.00">com.example.renderer.factory.</text>
<text text-anchor="middle" x="285" y="-7" font-family="Helvetica,sans-Serif" font-size="10.00">Triangle</text>
</a>
</g>
</g>
<!-- Node0&#45;&gt;Node4 -->
<g id="edge10_Node000000_Node000004" class="edge">
<title>Node0&#45;&gt;Node4</title>
<g id="a_edge10_Node000000_Node000004"><a xlink:title=" ">
<path fill="none" stroke="#63b8ff" d="M127.67,-68C149.75,-58.71 177.08,-47.69 202,-39 210.82,-35.92 220.27,-32.91 229.5,-30.11"/>
<polygon fill="#63b8ff" stroke="#63b8ff" points="126.08,-64.87 118.24,-71.99 128.81,-71.32 126.08,-64.87"/>
</a>
</g>
</g>
</g>
</svg>
