<?xml version="1.0" encoding="UTF-8" standalone="no"?>
<!DOCTYPE svg PUBLIC "-//W3C//DTD SVG 1.1//EN"
 "http://www.w3.org/Graphics/SVG/1.1/DTD/svg11.dtd">
<!-- Generated by graphviz version 2.43.0 (0)
 -->
<!-- Title: Graphical Class Hierarchy Pages: 1 -->
<svg width="394pt" height="86pt"
 viewBox="0.00 0.00 394.00 86.00" xmlns="http://www.w3.org/2000/svg" xmlns:xlink="http://www.w3.org/1999/xlink">
<g id="graph0" class="graph" transform="scale(1 1) rotate(0) translate(4 82)">
<title>Graphical Class Hierarchy</title>
<!-- Node0 -->
<g id="Node000000" class="node">
<title>Node0</title>
<g id="a_Node000000"><a xlink:href="interfacecom_1_1example_1_1renderer_1_1observer_1_1ShapeObserver.html" target="_top" xlink:title=" ">
<polygon fill="white" stroke="#666666" points="175,-54 0,-54 0,-24 175,-24 175,-54"/>
<text text-anchor="start" x="8" y="-42" font-family="Helvetica,sans-Serif" font-size="10.00">com.example.renderer.observer.</text>
<text text-anchor="middle" x="87.5" y="-31" font-family="Helvetica,sans-Serif" font-size="10.00">ShapeObserver</text>
</a>
</g>
</g>
<!-- Node1 -->
<g id="Node000001" class="node">
<title>Node1</title>
<g id="a_Node000001"><a xlink:href="classcom_1_1example_1_1renderer_1_1observer_1_1LoggingShapeObserver.html" target="_top" xlink:title=" ">
<polygon fill="white" stroke="#666666" points="386,-78 211,-78 211,-48 386,-48 386,-78"/>
<text text-anchor="start" x="219" y="-66" font-family="Helvetica,sans-Serif" font-size="10.00">com.example.renderer.observer.</text>
<text text-anchor="middle" x="298.5" y="-55" font-family="Helvetica,sans-Serif" font-size="10.00">LoggingShapeObserver</text>
</a>
</g>
</g>
<!-- Node0&#45;&gt;Node1 -->
<g id="edge13_Node000000_Node000001" class="edge">
<title>Node0&#45;&gt;Node1</title>
<g id="a_edge13_Node000000_Node000001"><a xlink:title=" ">
<path fill="none" stroke="#63b8ff" d="M185.03,-50.08C193.59,-51.07 202.23,-52.06 210.71,-53.03"/>
<polygon fill="#63b8ff" stroke="#63b8ff" points="185.35,-46.6 175.02,-48.93 184.55,-53.55 185.35,-46.6"/>
</a>
</g>
</g>
<!-- Node2 -->
<g id="Node000002" class="node">
<title>Node2</title>
<g id="a_Node000002"><a xlink:href="classcom_1_1example_1_1renderer_1_1observer_1_1ShapeObserverImpl.html" target="_top" xlink:title=" ">
<polygon fill="white" stroke="#666666" points="386,-30 211,-30 211,0 386,0 386,-30"/>
<text text-anchor="start" x="219" y="-18" font-family="Helvetica,sans-Serif" font-size="10.00">com.example.renderer.observer.</text>
<text text-anchor="middle" x="298.5" y="-7" font-family="Helvetica,sans-Serif" font-size="10.00">ShapeObserverImpl</text>
</a>
</g>
</g>
<!-- Node0&#45;&gt;Node2 -->
<g id="edge14_Node000000_Node000002" class="edge">
<title>Node0&#45;&gt;Node2</title>
<g id="a_edge14_Node000000_Node000002"><a xlink:title=" ">
<path fill="none" stroke="#63b8ff" d="M185.03,-27.92C193.59,-26.93 202.23,-25.94 210.71,-24.97"/>
<polygon fill="#63b8ff" stroke="#63b8ff" points="184.55,-24.45 175.02,-29.07 185.35,-31.4 184.55,-24.45"/>
</a>
</g>
</g>
</g>
</svg>
