<?xml version="1.0" encoding="UTF-8" standalone="no"?>
<!DOCTYPE svg PUBLIC "-//W3C//DTD SVG 1.1//EN"
 "http://www.w3.org/Graphics/SVG/1.1/DTD/svg11.dtd">
<!-- Generated by graphviz version 2.43.0 (0)
 -->
<!-- Title: Graphical Class Hierarchy Pages: 1 -->
<svg width="275pt" height="86pt"
 viewBox="0.00 0.00 275.00 86.00" xmlns="http://www.w3.org/2000/svg" xmlns:xlink="http://www.w3.org/1999/xlink">
<g id="graph0" class="graph" transform="scale(1 1) rotate(0) translate(4 82)">
<title>Graphical Class Hierarchy</title>
<!-- Node0 -->
<g id="Node000000" class="node">
<title>Node0</title>
<g id="a_Node000000"><a xlink:title=" ">
<polygon fill="#e0e0e0" stroke="#999999" points="61,-48.5 0,-48.5 0,-29.5 61,-29.5 61,-48.5"/>
<text text-anchor="middle" x="30.5" y="-36.5" font-family="Helvetica,sans-Serif" font-size="10.00">Renderer</text>
</a>
</g>
</g>
<!-- Node1 -->
<g id="Node000001" class="node">
<title>Node1</title>
<g id="a_Node000001"><a xlink:href="classcom_1_1example_1_1renderer_1_1adapter_1_1LegacyRendererAdapter.html" target="_top" xlink:title=" ">
<polygon fill="white" stroke="#666666" points="267,-78 97,-78 97,-48 267,-48 267,-78"/>
<text text-anchor="start" x="105" y="-66" font-family="Helvetica,sans-Serif" font-size="10.00">com.example.renderer.adapter.</text>
<text text-anchor="middle" x="182" y="-55" font-family="Helvetica,sans-Serif" font-size="10.00">LegacyRendererAdapter</text>
</a>
</g>
</g>
<!-- Node0&#45;&gt;Node1 -->
<g id="edge21_Node000000_Node000001" class="edge">
<title>Node0&#45;&gt;Node1</title>
<g id="a_edge21_Node000000_Node000001"><a xlink:title=" ">
<path fill="none" stroke="#63b8ff" d="M71.17,-45.37C79.23,-46.66 87.98,-48.07 96.92,-49.5"/>
<polygon fill="#63b8ff" stroke="#63b8ff" points="71.46,-41.87 61.04,-43.74 70.36,-48.78 71.46,-41.87"/>
</a>
</g>
</g>
<!-- Node2 -->
<g id="Node000002" class="node">
<title>Node2</title>
<g id="a_Node000002"><a xlink:href="classcom_1_1example_1_1renderer_1_1proxy_1_1RemoteRendererProxy.html" target="_top" xlink:title=" ">
<polygon fill="white" stroke="#666666" points="261.5,-30 102.5,-30 102.5,0 261.5,0 261.5,-30"/>
<text text-anchor="start" x="110.5" y="-18" font-family="Helvetica,sans-Serif" font-size="10.00">com.example.renderer.proxy.</text>
<text text-anchor="middle" x="182" y="-7" font-family="Helvetica,sans-Serif" font-size="10.00">RemoteRendererProxy</text>
</a>
</g>
</g>
<!-- Node0&#45;&gt;Node2 -->
<g id="edge22_Node000000_Node000002" class="edge">
<title>Node0&#45;&gt;Node2</title>
<g id="a_edge22_Node000000_Node000002"><a xlink:title=" ">
<path fill="none" stroke="#63b8ff" d="M71.08,-32.65C80.75,-31.09 91.43,-29.38 102.22,-27.65"/>
<polygon fill="#63b8ff" stroke="#63b8ff" points="70.36,-29.22 61.04,-34.26 71.46,-36.13 70.36,-29.22"/>
</a>
</g>
</g>
</g>
</svg>
