<?xml version="1.0" encoding="UTF-8" standalone="no"?>
<!DOCTYPE svg PUBLIC "-//W3C//DTD SVG 1.1//EN"
 "http://www.w3.org/Graphics/SVG/1.1/DTD/svg11.dtd">
<!-- Generated by graphviz version 2.43.0 (0)
 -->
<!-- Title: Graphical Class Hierarchy Pages: 1 -->
<svg width="408pt" height="134pt"
 viewBox="0.00 0.00 408.00 134.00" xmlns="http://www.w3.org/2000/svg" xmlns:xlink="http://www.w3.org/1999/xlink">
<g id="graph0" class="graph" transform="scale(1 1) rotate(0) translate(4 130)">
<title>Graphical Class Hierarchy</title>
<!-- Node0 -->
<g id="Node000000" class="node">
<title>Node0</title>
<g id="a_Node000000"><a xlink:href="interfacecom_1_1example_1_1renderer_1_1command_1_1Command.html" target="_top" xlink:title=" ">
<polygon fill="white" stroke="#666666" points="182,-78 0,-78 0,-48 182,-48 182,-78"/>
<text text-anchor="start" x="8" y="-66" font-family="Helvetica,sans-Serif" font-size="10.00">com.example.renderer.command.</text>
<text text-anchor="middle" x="91" y="-55" font-family="Helvetica,sans-Serif" font-size="10.00">Command</text>
</a>
</g>
</g>
<!-- Node1 -->
<g id="Node000001" class="node">
<title>Node1</title>
<g id="a_Node000001"><a xlink:href="classcom_1_1example_1_1renderer_1_1command_1_1AddShapeCommand.html" target="_top" xlink:title=" ">
<polygon fill="white" stroke="#666666" points="400,-126 218,-126 218,-96 400,-96 400,-126"/>
<text text-anchor="start" x="226" y="-114" font-family="Helvetica,sans-Serif" font-size="10.00">com.example.renderer.command.</text>
<text text-anchor="middle" x="309" y="-103" font-family="Helvetica,sans-Serif" font-size="10.00">AddShapeCommand</text>
</a>
</g>
</g>
<!-- Node0&#45;&gt;Node1 -->
<g id="edge4_Node000000_Node000001" class="edge">
<title>Node0&#45;&gt;Node1</title>
<g id="a_edge4_Node000000_Node000001"><a xlink:title=" ">
<path fill="none" stroke="#63b8ff" d="M169.55,-80.23C192.75,-85.39 217.99,-91 240.49,-96"/>
<polygon fill="#63b8ff" stroke="#63b8ff" points="170.27,-76.81 159.75,-78.06 168.75,-83.64 170.27,-76.81"/>
</a>
</g>
</g>
<!-- Node2 -->
<g id="Node000002" class="node">
<title>Node2</title>
<g id="a_Node000002"><a xlink:href="classcom_1_1example_1_1renderer_1_1command_1_1DeleteShapeCommand.html" target="_top" xlink:title=" ">
<polygon fill="white" stroke="#666666" points="400,-78 218,-78 218,-48 400,-48 400,-78"/>
<text text-anchor="start" x="226" y="-66" font-family="Helvetica,sans-Serif" font-size="10.00">com.example.renderer.command.</text>
<text text-anchor="middle" x="309" y="-55" font-family="Helvetica,sans-Serif" font-size="10.00">DeleteShapeCommand</text>
</a>
</g>
</g>
<!-- Node0&#45;&gt;Node2 -->
<g id="edge5_Node000000_Node000002" class="edge">
<title>Node0&#45;&gt;Node2</title>
<g id="a_edge5_Node000000_Node000002"><a xlink:title=" ">
<path fill="none" stroke="#63b8ff" d="M192.06,-63C200.63,-63 209.27,-63 217.76,-63"/>
<polygon fill="#63b8ff" stroke="#63b8ff" points="192.04,-59.5 182.04,-63 192.04,-66.5 192.04,-59.5"/>
</a>
</g>
</g>
<!-- Node3 -->
<g id="Node000003" class="node">
<title>Node3</title>
<g id="a_Node000003"><a xlink:href="classcom_1_1example_1_1renderer_1_1command_1_1MoveShapeCommand.html" target="_top" xlink:title=" ">
<polygon fill="white" stroke="#666666" points="400,-30 218,-30 218,0 400,0 400,-30"/>
<text text-anchor="start" x="226" y="-18" font-family="Helvetica,sans-Serif" font-size="10.00">com.example.renderer.command.</text>
<text text-anchor="middle" x="309" y="-7" font-family="Helvetica,sans-Serif" font-size="10.00">MoveShapeCommand</text>
</a>
</g>
</g>
<!-- Node0&#45;&gt;Node3 -->
<g id="edge6_Node000000_Node000003" class="edge">
<title>Node0&#45;&gt;Node3</title>
<g id="a_edge6_Node000000_Node000003"><a xlink:title=" ">
<path fill="none" stroke="#63b8ff" d="M169.55,-45.77C192.75,-40.61 217.99,-35 240.49,-30"/>
<polygon fill="#63b8ff" stroke="#63b8ff" points="168.75,-42.36 159.75,-47.94 170.27,-49.19 168.75,-42.36"/>
</a>
</g>
</g>
</g>
</svg>
