<?xml version="1.0" encoding="UTF-8" standalone="no"?>
<!DOCTYPE svg PUBLIC "-//W3C//DTD SVG 1.1//EN"
 "http://www.w3.org/Graphics/SVG/1.1/DTD/svg11.dtd">
<!-- Generated by graphviz version 2.43.0 (0)
 -->
<!-- Title: Graphical Class Hierarchy Pages: 1 -->
<svg width="376pt" height="86pt"
 viewBox="0.00 0.00 376.00 86.00" xmlns="http://www.w3.org/2000/svg" xmlns:xlink="http://www.w3.org/1999/xlink">
<g id="graph0" class="graph" transform="scale(1 1) rotate(0) translate(4 82)">
<title>Graphical Class Hierarchy</title>
<!-- Node0 -->
<g id="Node000000" class="node">
<title>Node0</title>
<g id="a_Node000000"><a xlink:href="interfacecom_1_1example_1_1renderer_1_1factory_1_1ShapeFactory.html" target="_top" xlink:title=" ">
<polygon fill="white" stroke="#666666" points="166,-54 0,-54 0,-24 166,-24 166,-54"/>
<text text-anchor="start" x="8" y="-42" font-family="Helvetica,sans-Serif" font-size="10.00">com.example.renderer.factory.</text>
<text text-anchor="middle" x="83" y="-31" font-family="Helvetica,sans-Serif" font-size="10.00">ShapeFactory</text>
</a>
</g>
</g>
<!-- Node1 -->
<g id="Node000001" class="node">
<title>Node1</title>
<g id="a_Node000001"><a xlink:href="classcom_1_1example_1_1renderer_1_1factory_1_1BasicShapeFactory.html" target="_top" xlink:title=" ">
<polygon fill="white" stroke="#666666" points="368,-78 202,-78 202,-48 368,-48 368,-78"/>
<text text-anchor="start" x="210" y="-66" font-family="Helvetica,sans-Serif" font-size="10.00">com.example.renderer.factory.</text>
<text text-anchor="middle" x="285" y="-55" font-family="Helvetica,sans-Serif" font-size="10.00">BasicShapeFactory</text>
</a>
</g>
</g>
<!-- Node0&#45;&gt;Node1 -->
<g id="edge11_Node000000_Node000001" class="edge">
<title>Node0&#45;&gt;Node1</title>
<g id="a_edge11_Node000000_Node000001"><a xlink:title=" ">
<path fill="none" stroke="#63b8ff" d="M176.19,-50.06C184.73,-51.09 193.34,-52.12 201.78,-53.13"/>
<polygon fill="#63b8ff" stroke="#63b8ff" points="176.56,-46.58 166.21,-48.87 175.73,-53.53 176.56,-46.58"/>
</a>
</g>
</g>
<!-- Node2 -->
<g id="Node000002" class="node">
<title>Node2</title>
<g id="a_Node000002"><a xlink:href="classcom_1_1example_1_1renderer_1_1factory_1_1ShapeFactoryImpl.html" target="_top" xlink:title=" ">
<polygon fill="white" stroke="#666666" points="368,-30 202,-30 202,0 368,0 368,-30"/>
<text text-anchor="start" x="210" y="-18" font-family="Helvetica,sans-Serif" font-size="10.00">com.example.renderer.factory.</text>
<text text-anchor="middle" x="285" y="-7" font-family="Helvetica,sans-Serif" font-size="10.00">ShapeFactoryImpl</text>
</a>
</g>
</g>
<!-- Node0&#45;&gt;Node2 -->
<g id="edge12_Node000000_Node000002" class="edge">
<title>Node0&#45;&gt;Node2</title>
<g id="a_edge12_Node000000_Node000002"><a xlink:title=" ">
<path fill="none" stroke="#63b8ff" d="M176.19,-27.94C184.73,-26.91 193.34,-25.88 201.78,-24.87"/>
<polygon fill="#63b8ff" stroke="#63b8ff" points="175.73,-24.47 166.21,-29.13 176.56,-31.42 175.73,-24.47"/>
</a>
</g>
</g>
</g>
</svg>
