<?xml version="1.0" encoding="UTF-8" standalone="no"?>
<!DOCTYPE svg PUBLIC "-//W3C//DTD SVG 1.1//EN"
 "http://www.w3.org/Graphics/SVG/1.1/DTD/svg11.dtd">
<!-- Generated by graphviz version 2.43.0 (0)
 -->
<!-- Title: Graphical Class Hierarchy Pages: 1 -->
<svg width="370pt" height="86pt"
 viewBox="0.00 0.00 370.00 86.00" xmlns="http://www.w3.org/2000/svg" xmlns:xlink="http://www.w3.org/1999/xlink">
<g id="graph0" class="graph" transform="scale(1 1) rotate(0) translate(4 82)">
<title>Graphical Class Hierarchy</title>
<!-- Node0 -->
<g id="Node000000" class="node">
<title>Node0</title>
<g id="a_Node000000"><a xlink:href="interfacecom_1_1example_1_1renderer_1_1visitor_1_1ExportVisitor.html" target="_top" xlink:title=" ">
<polygon fill="white" stroke="#666666" points="163,-54 0,-54 0,-24 163,-24 163,-54"/>
<text text-anchor="start" x="8" y="-42" font-family="Helvetica,sans-Serif" font-size="10.00">com.example.renderer.visitor.</text>
<text text-anchor="middle" x="81.5" y="-31" font-family="Helvetica,sans-Serif" font-size="10.00">ExportVisitor</text>
</a>
</g>
</g>
<!-- Node1 -->
<g id="Node000001" class="node">
<title>Node1</title>
<g id="a_Node000001"><a xlink:href="classcom_1_1example_1_1renderer_1_1visitor_1_1JSONExportVisitor.html" target="_top" xlink:title=" ">
<polygon fill="white" stroke="#666666" points="362,-78 199,-78 199,-48 362,-48 362,-78"/>
<text text-anchor="start" x="207" y="-66" font-family="Helvetica,sans-Serif" font-size="10.00">com.example.renderer.visitor.</text>
<text text-anchor="middle" x="280.5" y="-55" font-family="Helvetica,sans-Serif" font-size="10.00">JSONExportVisitor</text>
</a>
</g>
</g>
<!-- Node0&#45;&gt;Node1 -->
<g id="edge15_Node000000_Node000001" class="edge">
<title>Node0&#45;&gt;Node1</title>
<g id="a_edge15_Node000000_Node000001"><a xlink:title=" ">
<path fill="none" stroke="#63b8ff" d="M173.22,-50.05C181.8,-51.1 190.45,-52.15 198.93,-53.18"/>
<polygon fill="#63b8ff" stroke="#63b8ff" points="173.55,-46.57 163.2,-48.83 172.7,-53.51 173.55,-46.57"/>
</a>
</g>
</g>
<!-- Node2 -->
<g id="Node000002" class="node">
<title>Node2</title>
<g id="a_Node000002"><a xlink:href="classcom_1_1example_1_1renderer_1_1visitor_1_1XMLExportVisitor.html" target="_top" xlink:title=" ">
<polygon fill="white" stroke="#666666" points="362,-30 199,-30 199,0 362,0 362,-30"/>
<text text-anchor="start" x="207" y="-18" font-family="Helvetica,sans-Serif" font-size="10.00">com.example.renderer.visitor.</text>
<text text-anchor="middle" x="280.5" y="-7" font-family="Helvetica,sans-Serif" font-size="10.00">XMLExportVisitor</text>
</a>
</g>
</g>
<!-- Node0&#45;&gt;Node2 -->
<g id="edge16_Node000000_Node000002" class="edge">
<title>Node0&#45;&gt;Node2</title>
<g id="a_edge16_Node000000_Node000002"><a xlink:title=" ">
<path fill="none" stroke="#63b8ff" d="M173.22,-27.95C181.8,-26.9 190.45,-25.85 198.93,-24.82"/>
<polygon fill="#63b8ff" stroke="#63b8ff" points="172.7,-24.49 163.2,-29.17 173.55,-31.43 172.7,-24.49"/>
</a>
</g>
</g>
</g>
</svg>
