<?xml version="1.0" encoding="UTF-8" standalone="no"?>
<!DOCTYPE svg PUBLIC "-//W3C//DTD SVG 1.1//EN"
 "http://www.w3.org/Graphics/SVG/1.1/DTD/svg11.dtd">
<!-- Generated by graphviz version 2.43.0 (0)
 -->
<!-- Title: com.example.renderer.visitor.JSONExportVisitorTest.testVisitTriangle Pages: 1 -->
<svg width="616pt" height="284pt"
 viewBox="0.00 0.00 616.00 284.00" xmlns="http://www.w3.org/2000/svg" xmlns:xlink="http://www.w3.org/1999/xlink">
<g id="graph0" class="graph" transform="scale(1 1) rotate(0) translate(4 280)">
<title>com.example.renderer.visitor.JSONExportVisitorTest.testVisitTriangle</title>
<polygon fill="white" stroke="transparent" points="-4,4 -4,-280 612,-280 612,4 -4,4"/>
<!-- Node1 -->
<g id="node1" class="node">
<title>Node1</title>
<g id="a_node1"><a xlink:title=" ">
<polygon fill="#bfbfbf" stroke="black" points="0,-122.5 0,-152.5 205,-152.5 205,-122.5 0,-122.5"/>
<text text-anchor="start" x="8" y="-140.5" font-family="Helvetica,sans-Serif" font-size="10.00">com.example.renderer.visitor.</text>
<text text-anchor="middle" x="102.5" y="-129.5" font-family="Helvetica,sans-Serif" font-size="10.00">JSONExportVisitorTest.testVisitTriangle</text>
</a>
</g>
</g>
<!-- Node2 -->
<g id="node2" class="node">
<title>Node2</title>
<g id="a_node2"><a xlink:href="classcom_1_1example_1_1renderer_1_1visitor_1_1JSONExportVisitor.html#a09a6928b6de2c8c1fa4f6f059d50f89a" target="_top" xlink:title=" ">
<polygon fill="white" stroke="black" points="241,-122.5 241,-152.5 406,-152.5 406,-122.5 241,-122.5"/>
<text text-anchor="start" x="249" y="-140.5" font-family="Helvetica,sans-Serif" font-size="10.00">com.example.renderer.visitor.</text>
<text text-anchor="middle" x="323.5" y="-129.5" font-family="Helvetica,sans-Serif" font-size="10.00">JSONExportVisitor.visitTriangle</text>
</a>
</g>
</g>
<!-- Node1&#45;&gt;Node2 -->
<g id="edge1" class="edge">
<title>Node1&#45;&gt;Node2</title>
<path fill="none" stroke="midnightblue" d="M205.31,-137.5C213.8,-137.5 222.36,-137.5 230.78,-137.5"/>
<polygon fill="midnightblue" stroke="midnightblue" points="230.96,-141 240.96,-137.5 230.96,-134 230.96,-141"/>
</g>
<!-- Node3 -->
<g id="node3" class="node">
<title>Node3</title>
<g id="a_node3"><a xlink:href="classcom_1_1example_1_1renderer_1_1factory_1_1Triangle.html#aa5ec64f9827fba203174d5e91185e6f2" target="_top" xlink:title=" ">
<polygon fill="white" stroke="black" points="442,-245.5 442,-275.5 608,-275.5 608,-245.5 442,-245.5"/>
<text text-anchor="start" x="450" y="-263.5" font-family="Helvetica,sans-Serif" font-size="10.00">com.example.renderer.factory.</text>
<text text-anchor="middle" x="525" y="-252.5" font-family="Helvetica,sans-Serif" font-size="10.00">Triangle.getX1</text>
</a>
</g>
</g>
<!-- Node2&#45;&gt;Node3 -->
<g id="edge2" class="edge">
<title>Node2&#45;&gt;Node3</title>
<path fill="none" stroke="midnightblue" d="M338.58,-152.85C359.24,-174.52 399.93,-213.93 442,-236.5 445.43,-238.34 449.02,-240.06 452.7,-241.65"/>
<polygon fill="midnightblue" stroke="midnightblue" points="451.41,-244.91 461.99,-245.38 454.02,-238.41 451.41,-244.91"/>
</g>
<!-- Node4 -->
<g id="node4" class="node">
<title>Node4</title>
<g id="a_node4"><a xlink:href="classcom_1_1example_1_1renderer_1_1factory_1_1Triangle.html#abba5462908667c70efa65edc2b0e17bc" target="_top" xlink:title=" ">
<polygon fill="white" stroke="black" points="442,-196.5 442,-226.5 608,-226.5 608,-196.5 442,-196.5"/>
<text text-anchor="start" x="450" y="-214.5" font-family="Helvetica,sans-Serif" font-size="10.00">com.example.renderer.factory.</text>
<text text-anchor="middle" x="525" y="-203.5" font-family="Helvetica,sans-Serif" font-size="10.00">Triangle.getX2</text>
</a>
</g>
</g>
<!-- Node2&#45;&gt;Node4 -->
<g id="edge3" class="edge">
<title>Node2&#45;&gt;Node4</title>
<path fill="none" stroke="midnightblue" d="M357.01,-152.56C380.37,-163.07 412.78,-177.05 442,-187.5 447.55,-189.48 453.35,-191.43 459.19,-193.3"/>
<polygon fill="midnightblue" stroke="midnightblue" points="458.43,-196.73 469.02,-196.38 460.52,-190.05 458.43,-196.73"/>
</g>
<!-- Node5 -->
<g id="node5" class="node">
<title>Node5</title>
<g id="a_node5"><a xlink:href="classcom_1_1example_1_1renderer_1_1factory_1_1Triangle.html#a2f27fd932329a59698e80ca4c900eba8" target="_top" xlink:title=" ">
<polygon fill="white" stroke="black" points="442,-147.5 442,-177.5 608,-177.5 608,-147.5 442,-147.5"/>
<text text-anchor="start" x="450" y="-165.5" font-family="Helvetica,sans-Serif" font-size="10.00">com.example.renderer.factory.</text>
<text text-anchor="middle" x="525" y="-154.5" font-family="Helvetica,sans-Serif" font-size="10.00">Triangle.getX3</text>
</a>
</g>
</g>
<!-- Node2&#45;&gt;Node5 -->
<g id="edge4" class="edge">
<title>Node2&#45;&gt;Node5</title>
<path fill="none" stroke="midnightblue" d="M406.22,-147.74C414.65,-148.8 423.26,-149.88 431.79,-150.95"/>
<polygon fill="midnightblue" stroke="midnightblue" points="431.4,-154.42 441.76,-152.19 432.27,-147.48 431.4,-154.42"/>
</g>
<!-- Node6 -->
<g id="node6" class="node">
<title>Node6</title>
<g id="a_node6"><a xlink:href="classcom_1_1example_1_1renderer_1_1factory_1_1Triangle.html#af9319090f2c5c5fd18826cae05b094a4" target="_top" xlink:title=" ">
<polygon fill="white" stroke="black" points="442,-98.5 442,-128.5 608,-128.5 608,-98.5 442,-98.5"/>
<text text-anchor="start" x="450" y="-116.5" font-family="Helvetica,sans-Serif" font-size="10.00">com.example.renderer.factory.</text>
<text text-anchor="middle" x="525" y="-105.5" font-family="Helvetica,sans-Serif" font-size="10.00">Triangle.getY1</text>
</a>
</g>
</g>
<!-- Node2&#45;&gt;Node6 -->
<g id="edge5" class="edge">
<title>Node2&#45;&gt;Node6</title>
<path fill="none" stroke="midnightblue" d="M406.22,-127.67C414.65,-126.65 423.26,-125.62 431.79,-124.59"/>
<polygon fill="midnightblue" stroke="midnightblue" points="432.25,-128.06 441.76,-123.39 431.41,-121.11 432.25,-128.06"/>
</g>
<!-- Node7 -->
<g id="node7" class="node">
<title>Node7</title>
<g id="a_node7"><a xlink:href="classcom_1_1example_1_1renderer_1_1factory_1_1Triangle.html#a1ab1af5be6782c56d16de7cf9cecf0dc" target="_top" xlink:title=" ">
<polygon fill="white" stroke="black" points="442,-49.5 442,-79.5 608,-79.5 608,-49.5 442,-49.5"/>
<text text-anchor="start" x="450" y="-67.5" font-family="Helvetica,sans-Serif" font-size="10.00">com.example.renderer.factory.</text>
<text text-anchor="middle" x="525" y="-56.5" font-family="Helvetica,sans-Serif" font-size="10.00">Triangle.getY2</text>
</a>
</g>
</g>
<!-- Node2&#45;&gt;Node7 -->
<g id="edge6" class="edge">
<title>Node2&#45;&gt;Node7</title>
<path fill="none" stroke="midnightblue" d="M358.88,-122.48C382.14,-112.56 413.66,-99.58 442,-89.5 448.5,-87.19 455.34,-84.89 462.17,-82.68"/>
<polygon fill="midnightblue" stroke="midnightblue" points="463.67,-85.88 472.15,-79.52 461.56,-79.21 463.67,-85.88"/>
</g>
<!-- Node8 -->
<g id="node8" class="node">
<title>Node8</title>
<g id="a_node8"><a xlink:href="classcom_1_1example_1_1renderer_1_1factory_1_1Triangle.html#ab8693d7dff18ad8d058df6543f6dd366" target="_top" xlink:title=" ">
<polygon fill="white" stroke="black" points="442,-0.5 442,-30.5 608,-30.5 608,-0.5 442,-0.5"/>
<text text-anchor="start" x="450" y="-18.5" font-family="Helvetica,sans-Serif" font-size="10.00">com.example.renderer.factory.</text>
<text text-anchor="middle" x="525" y="-7.5" font-family="Helvetica,sans-Serif" font-size="10.00">Triangle.getY3</text>
</a>
</g>
</g>
<!-- Node2&#45;&gt;Node8 -->
<g id="edge7" class="edge">
<title>Node2&#45;&gt;Node8</title>
<path fill="none" stroke="midnightblue" d="M339.03,-122.18C359.92,-100.98 400.52,-62.78 442,-40.5 446.2,-38.24 450.64,-36.16 455.19,-34.24"/>
<polygon fill="midnightblue" stroke="midnightblue" points="456.6,-37.44 464.63,-30.53 454.04,-30.93 456.6,-37.44"/>
</g>
</g>
</svg>
