<?xml version="1.0" encoding="UTF-8" standalone="no"?>
<!DOCTYPE svg PUBLIC "-//W3C//DTD SVG 1.1//EN"
 "http://www.w3.org/Graphics/SVG/1.1/DTD/svg11.dtd">
<!-- Generated by graphviz version 2.43.0 (0)
 -->
<!-- Title: com.example.renderer.legacy.LegacyRenderer.drawLegacyTriangle Pages: 1 -->
<svg width="473pt" height="88pt"
 viewBox="0.00 0.00 473.00 88.00" xmlns="http://www.w3.org/2000/svg" xmlns:xlink="http://www.w3.org/1999/xlink">
<g id="graph0" class="graph" transform="scale(1 1) rotate(0) translate(4 84)">
<title>com.example.renderer.legacy.LegacyRenderer.drawLegacyTriangle</title>
<polygon fill="white" stroke="transparent" points="-4,4 -4,-84 469,-84 469,4 -4,4"/>
<!-- Node1 -->
<g id="node1" class="node">
<title>Node1</title>
<g id="a_node1"><a xlink:title=" ">
<polygon fill="#bfbfbf" stroke="black" points="271,-24.5 271,-54.5 465,-54.5 465,-24.5 271,-24.5"/>
<text text-anchor="start" x="279" y="-42.5" font-family="Helvetica,sans-Serif" font-size="10.00">com.example.renderer.legacy.</text>
<text text-anchor="middle" x="368" y="-31.5" font-family="Helvetica,sans-Serif" font-size="10.00">LegacyRenderer.drawLegacyTriangle</text>
</a>
</g>
</g>
<!-- Node2 -->
<g id="node2" class="node">
<title>Node2</title>
<g id="a_node2"><a xlink:href="classcom_1_1example_1_1renderer_1_1adapter_1_1LegacyRendererAdapter.html#ab1a537d39a4cd1b77033b1f1364a26eb" target="_top" xlink:title=" ">
<polygon fill="white" stroke="black" points="18.5,-49.5 18.5,-79.5 216.5,-79.5 216.5,-49.5 18.5,-49.5"/>
<text text-anchor="start" x="26.5" y="-67.5" font-family="Helvetica,sans-Serif" font-size="10.00">com.example.renderer.adapter.</text>
<text text-anchor="middle" x="117.5" y="-56.5" font-family="Helvetica,sans-Serif" font-size="10.00">LegacyRendererAdapter.drawTriangle</text>
</a>
</g>
</g>
<!-- Node1&#45;&gt;Node2 -->
<g id="edge1" class="edge">
<title>Node1&#45;&gt;Node2</title>
<path fill="none" stroke="midnightblue" d="M260.86,-50.18C246.23,-51.65 231.26,-53.16 216.78,-54.61"/>
<polygon fill="midnightblue" stroke="midnightblue" points="261.32,-53.65 270.92,-49.17 260.62,-46.68 261.32,-53.65"/>
</g>
<!-- Node3 -->
<g id="node3" class="node">
<title>Node3</title>
<g id="a_node3"><a xlink:href="classcom_1_1example_1_1renderertest_1_1adapter_1_1LegacyRendererTest.html#a64aa78f57da811b587c81e568d45e60e" target="_top" xlink:title=" ">
<polygon fill="white" stroke="black" points="0,-0.5 0,-30.5 235,-30.5 235,-0.5 0,-0.5"/>
<text text-anchor="start" x="8" y="-18.5" font-family="Helvetica,sans-Serif" font-size="10.00">com.example.renderertest.adapter.</text>
<text text-anchor="middle" x="117.5" y="-7.5" font-family="Helvetica,sans-Serif" font-size="10.00">LegacyRendererTest.testDrawLegacyTriangle</text>
</a>
</g>
</g>
<!-- Node1&#45;&gt;Node3 -->
<g id="edge2" class="edge">
<title>Node1&#45;&gt;Node3</title>
<path fill="none" stroke="midnightblue" d="M260.94,-29.26C252.38,-28.43 243.7,-27.59 235.07,-26.76"/>
<polygon fill="midnightblue" stroke="midnightblue" points="260.63,-32.74 270.92,-30.22 261.31,-25.78 260.63,-32.74"/>
</g>
</g>
</svg>
