<?xml version="1.0" encoding="UTF-8" standalone="no"?>
<!DOCTYPE svg PUBLIC "-//W3C//DTD SVG 1.1//EN"
 "http://www.w3.org/Graphics/SVG/1.1/DTD/svg11.dtd">
<!-- Generated by graphviz version 2.43.0 (0)
 -->
<!-- Title: com.example.renderer.legacy.LegacyRenderer.drawLegacyEllipse Pages: 1 -->
<svg width="461pt" height="88pt"
 viewBox="0.00 0.00 461.00 88.00" xmlns="http://www.w3.org/2000/svg" xmlns:xlink="http://www.w3.org/1999/xlink">
<g id="graph0" class="graph" transform="scale(1 1) rotate(0) translate(4 84)">
<title>com.example.renderer.legacy.LegacyRenderer.drawLegacyEllipse</title>
<polygon fill="white" stroke="transparent" points="-4,4 -4,-84 457,-84 457,4 -4,4"/>
<!-- Node1 -->
<g id="node1" class="node">
<title>Node1</title>
<g id="a_node1"><a xlink:title=" ">
<polygon fill="#bfbfbf" stroke="black" points="265,-24.5 265,-54.5 453,-54.5 453,-24.5 265,-24.5"/>
<text text-anchor="start" x="273" y="-42.5" font-family="Helvetica,sans-Serif" font-size="10.00">com.example.renderer.legacy.</text>
<text text-anchor="middle" x="359" y="-31.5" font-family="Helvetica,sans-Serif" font-size="10.00">LegacyRenderer.drawLegacyEllipse</text>
</a>
</g>
</g>
<!-- Node2 -->
<g id="node2" class="node">
<title>Node2</title>
<g id="a_node2"><a xlink:href="classcom_1_1example_1_1renderer_1_1adapter_1_1LegacyRendererAdapter.html#ab1552c80c0acb89b642022f3d96236a5" target="_top" xlink:title=" ">
<polygon fill="white" stroke="black" points="18.5,-49.5 18.5,-79.5 210.5,-79.5 210.5,-49.5 18.5,-49.5"/>
<text text-anchor="start" x="26.5" y="-67.5" font-family="Helvetica,sans-Serif" font-size="10.00">com.example.renderer.adapter.</text>
<text text-anchor="middle" x="114.5" y="-56.5" font-family="Helvetica,sans-Serif" font-size="10.00">LegacyRendererAdapter.drawEllipse</text>
</a>
</g>
</g>
<!-- Node1&#45;&gt;Node2 -->
<g id="edge1" class="edge">
<title>Node1&#45;&gt;Node2</title>
<path fill="none" stroke="midnightblue" d="M254.86,-50.13C240.22,-51.64 225.21,-53.19 210.72,-54.68"/>
<polygon fill="midnightblue" stroke="midnightblue" points="255.35,-53.6 264.94,-49.09 254.63,-46.64 255.35,-53.6"/>
</g>
<!-- Node3 -->
<g id="node3" class="node">
<title>Node3</title>
<g id="a_node3"><a xlink:href="classcom_1_1example_1_1renderertest_1_1adapter_1_1LegacyRendererTest.html#a74c7e47f776c9d950c6e799638e3470a" target="_top" xlink:title=" ">
<polygon fill="white" stroke="black" points="0,-0.5 0,-30.5 229,-30.5 229,-0.5 0,-0.5"/>
<text text-anchor="start" x="8" y="-18.5" font-family="Helvetica,sans-Serif" font-size="10.00">com.example.renderertest.adapter.</text>
<text text-anchor="middle" x="114.5" y="-7.5" font-family="Helvetica,sans-Serif" font-size="10.00">LegacyRendererTest.testDrawLegacyEllipse</text>
</a>
</g>
</g>
<!-- Node1&#45;&gt;Node3 -->
<g id="edge2" class="edge">
<title>Node1&#45;&gt;Node3</title>
<path fill="none" stroke="midnightblue" d="M254.94,-29.3C246.37,-28.45 237.67,-27.59 229.03,-26.74"/>
<polygon fill="midnightblue" stroke="midnightblue" points="254.64,-32.79 264.94,-30.29 255.33,-25.82 254.64,-32.79"/>
</g>
</g>
</svg>
