<?xml version="1.0" encoding="UTF-8" standalone="no"?>
<!DOCTYPE svg PUBLIC "-//W3C//DTD SVG 1.1//EN"
 "http://www.w3.org/Graphics/SVG/1.1/DTD/svg11.dtd">
<!-- Generated by graphviz version 2.43.0 (0)
 -->
<!-- Title: com.example.renderer.visitor.JSONExportVisitorTest.testVisitEllipse Pages: 1 -->
<svg width="608pt" height="186pt"
 viewBox="0.00 0.00 608.00 186.00" xmlns="http://www.w3.org/2000/svg" xmlns:xlink="http://www.w3.org/1999/xlink">
<g id="graph0" class="graph" transform="scale(1 1) rotate(0) translate(4 182)">
<title>com.example.renderer.visitor.JSONExportVisitorTest.testVisitEllipse</title>
<polygon fill="white" stroke="transparent" points="-4,4 -4,-182 604,-182 604,4 -4,4"/>
<!-- Node1 -->
<g id="node1" class="node">
<title>Node1</title>
<g id="a_node1"><a xlink:title=" ">
<polygon fill="#bfbfbf" stroke="black" points="0,-73.5 0,-103.5 199,-103.5 199,-73.5 0,-73.5"/>
<text text-anchor="start" x="8" y="-91.5" font-family="Helvetica,sans-Serif" font-size="10.00">com.example.renderer.visitor.</text>
<text text-anchor="middle" x="99.5" y="-80.5" font-family="Helvetica,sans-Serif" font-size="10.00">JSONExportVisitorTest.testVisitEllipse</text>
</a>
</g>
</g>
<!-- Node2 -->
<g id="node2" class="node">
<title>Node2</title>
<g id="a_node2"><a xlink:href="classcom_1_1example_1_1renderer_1_1visitor_1_1JSONExportVisitor.html#abf62cbdace84ab865289b64afae67bc1" target="_top" xlink:title=" ">
<polygon fill="white" stroke="black" points="235,-73.5 235,-103.5 398,-103.5 398,-73.5 235,-73.5"/>
<text text-anchor="start" x="243" y="-91.5" font-family="Helvetica,sans-Serif" font-size="10.00">com.example.renderer.visitor.</text>
<text text-anchor="middle" x="316.5" y="-80.5" font-family="Helvetica,sans-Serif" font-size="10.00">JSONExportVisitor.visitEllipse</text>
</a>
</g>
</g>
<!-- Node1&#45;&gt;Node2 -->
<g id="edge1" class="edge">
<title>Node1&#45;&gt;Node2</title>
<path fill="none" stroke="midnightblue" d="M199.19,-88.5C207.67,-88.5 216.22,-88.5 224.63,-88.5"/>
<polygon fill="midnightblue" stroke="midnightblue" points="224.8,-92 234.8,-88.5 224.8,-85 224.8,-92"/>
</g>
<!-- Node3 -->
<g id="node3" class="node">
<title>Node3</title>
<g id="a_node3"><a xlink:href="classcom_1_1example_1_1renderer_1_1factory_1_1Ellipse.html#a58b5bcb233cb1e389900df094e38e9cf" target="_top" xlink:title=" ">
<polygon fill="white" stroke="black" points="434,-147.5 434,-177.5 600,-177.5 600,-147.5 434,-147.5"/>
<text text-anchor="start" x="442" y="-165.5" font-family="Helvetica,sans-Serif" font-size="10.00">com.example.renderer.factory.</text>
<text text-anchor="middle" x="517" y="-154.5" font-family="Helvetica,sans-Serif" font-size="10.00">Ellipse.getHeight</text>
</a>
</g>
</g>
<!-- Node2&#45;&gt;Node3 -->
<g id="edge2" class="edge">
<title>Node2&#45;&gt;Node3</title>
<path fill="none" stroke="midnightblue" d="M349.72,-103.57C372.88,-114.1 405,-128.08 434,-138.5 439.54,-140.49 445.34,-142.45 451.18,-144.32"/>
<polygon fill="midnightblue" stroke="midnightblue" points="450.42,-147.75 461.01,-147.4 452.51,-141.07 450.42,-147.75"/>
</g>
<!-- Node4 -->
<g id="node4" class="node">
<title>Node4</title>
<g id="a_node4"><a xlink:href="classcom_1_1example_1_1renderer_1_1factory_1_1Ellipse.html#ad1f41af217cb0df38ae2026a6b666672" target="_top" xlink:title=" ">
<polygon fill="white" stroke="black" points="434,-98.5 434,-128.5 600,-128.5 600,-98.5 434,-98.5"/>
<text text-anchor="start" x="442" y="-116.5" font-family="Helvetica,sans-Serif" font-size="10.00">com.example.renderer.factory.</text>
<text text-anchor="middle" x="517" y="-105.5" font-family="Helvetica,sans-Serif" font-size="10.00">Ellipse.getWidth</text>
</a>
</g>
</g>
<!-- Node2&#45;&gt;Node4 -->
<g id="edge3" class="edge">
<title>Node2&#45;&gt;Node4</title>
<path fill="none" stroke="midnightblue" d="M398.24,-98.67C406.65,-99.73 415.24,-100.81 423.76,-101.88"/>
<polygon fill="midnightblue" stroke="midnightblue" points="423.36,-105.36 433.72,-103.14 424.24,-98.42 423.36,-105.36"/>
</g>
<!-- Node5 -->
<g id="node5" class="node">
<title>Node5</title>
<g id="a_node5"><a xlink:href="classcom_1_1example_1_1renderer_1_1factory_1_1Ellipse.html#a5856f1f689143235929a233715984015" target="_top" xlink:title=" ">
<polygon fill="white" stroke="black" points="434,-49.5 434,-79.5 600,-79.5 600,-49.5 434,-49.5"/>
<text text-anchor="start" x="442" y="-67.5" font-family="Helvetica,sans-Serif" font-size="10.00">com.example.renderer.factory.</text>
<text text-anchor="middle" x="517" y="-56.5" font-family="Helvetica,sans-Serif" font-size="10.00">Ellipse.getX</text>
</a>
</g>
</g>
<!-- Node2&#45;&gt;Node5 -->
<g id="edge4" class="edge">
<title>Node2&#45;&gt;Node5</title>
<path fill="none" stroke="midnightblue" d="M398.24,-78.74C406.65,-77.72 415.24,-76.68 423.76,-75.65"/>
<polygon fill="midnightblue" stroke="midnightblue" points="424.21,-79.12 433.72,-74.45 423.37,-72.17 424.21,-79.12"/>
</g>
<!-- Node6 -->
<g id="node6" class="node">
<title>Node6</title>
<g id="a_node6"><a xlink:href="classcom_1_1example_1_1renderer_1_1factory_1_1Ellipse.html#a4d9e2941518bae18c76c125b5fcc8020" target="_top" xlink:title=" ">
<polygon fill="white" stroke="black" points="434,-0.5 434,-30.5 600,-30.5 600,-0.5 434,-0.5"/>
<text text-anchor="start" x="442" y="-18.5" font-family="Helvetica,sans-Serif" font-size="10.00">com.example.renderer.factory.</text>
<text text-anchor="middle" x="517" y="-7.5" font-family="Helvetica,sans-Serif" font-size="10.00">Ellipse.getY</text>
</a>
</g>
</g>
<!-- Node2&#45;&gt;Node6 -->
<g id="edge5" class="edge">
<title>Node2&#45;&gt;Node6</title>
<path fill="none" stroke="midnightblue" d="M351.58,-73.46C374.63,-63.53 405.88,-50.55 434,-40.5 440.4,-38.21 447.13,-35.94 453.87,-33.76"/>
<polygon fill="midnightblue" stroke="midnightblue" points="455.23,-37 463.7,-30.63 453.11,-30.33 455.23,-37"/>
</g>
</g>
</svg>
