<?xml version="1.0" encoding="UTF-8" standalone="no"?>
<!DOCTYPE svg PUBLIC "-//W3C//DTD SVG 1.1//EN"
 "http://www.w3.org/Graphics/SVG/1.1/DTD/svg11.dtd">
<!-- Generated by graphviz version 2.43.0 (0)
 -->
<!-- Title: com.example.renderer.factory.Circle.getX Pages: 1 -->
<svg width="606pt" height="88pt"
 viewBox="0.00 0.00 606.00 88.00" xmlns="http://www.w3.org/2000/svg" xmlns:xlink="http://www.w3.org/1999/xlink">
<g id="graph0" class="graph" transform="scale(1 1) rotate(0) translate(4 84)">
<title>com.example.renderer.factory.Circle.getX</title>
<polygon fill="white" stroke="transparent" points="-4,4 -4,-84 602,-84 602,4 -4,4"/>
<!-- Node1 -->
<g id="node1" class="node">
<title>Node1</title>
<g id="a_node1"><a xlink:title=" ">
<polygon fill="#bfbfbf" stroke="black" points="432,-24.5 432,-54.5 598,-54.5 598,-24.5 432,-24.5"/>
<text text-anchor="start" x="440" y="-42.5" font-family="Helvetica,sans-Serif" font-size="10.00">com.example.renderer.factory.</text>
<text text-anchor="middle" x="515" y="-31.5" font-family="Helvetica,sans-Serif" font-size="10.00">Circle.getX</text>
</a>
</g>
</g>
<!-- Node2 -->
<g id="node2" class="node">
<title>Node2</title>
<g id="a_node2"><a xlink:href="classcom_1_1example_1_1renderer_1_1factory_1_1CircleTest.html#a33e9d0a2722a7d196cf6feac61632e80" target="_top" xlink:title=" ">
<polygon fill="white" stroke="black" points="230,-49.5 230,-79.5 396,-79.5 396,-49.5 230,-49.5"/>
<text text-anchor="start" x="238" y="-67.5" font-family="Helvetica,sans-Serif" font-size="10.00">com.example.renderer.factory.</text>
<text text-anchor="middle" x="313" y="-56.5" font-family="Helvetica,sans-Serif" font-size="10.00">CircleTest.testMove</text>
</a>
</g>
</g>
<!-- Node1&#45;&gt;Node2 -->
<g id="edge1" class="edge">
<title>Node1&#45;&gt;Node2</title>
<path fill="none" stroke="midnightblue" d="M421.81,-51.02C413.27,-52.09 404.66,-53.17 396.22,-54.22"/>
<polygon fill="midnightblue" stroke="midnightblue" points="422.3,-54.49 431.79,-49.78 421.43,-47.54 422.3,-54.49"/>
</g>
<!-- Node3 -->
<g id="node3" class="node">
<title>Node3</title>
<g id="a_node3"><a xlink:href="classcom_1_1example_1_1renderer_1_1visitor_1_1JSONExportVisitor.html#a5de8e8b575a621b8b9f16a2836e306a9" target="_top" xlink:title=" ">
<polygon fill="white" stroke="black" points="231.5,-0.5 231.5,-30.5 394.5,-30.5 394.5,-0.5 231.5,-0.5"/>
<text text-anchor="start" x="239.5" y="-18.5" font-family="Helvetica,sans-Serif" font-size="10.00">com.example.renderer.visitor.</text>
<text text-anchor="middle" x="313" y="-7.5" font-family="Helvetica,sans-Serif" font-size="10.00">JSONExportVisitor.visitCircle</text>
</a>
</g>
</g>
<!-- Node1&#45;&gt;Node3 -->
<g id="edge2" class="edge">
<title>Node1&#45;&gt;Node3</title>
<path fill="none" stroke="midnightblue" d="M421.64,-28.42C412.62,-27.33 403.5,-26.24 394.6,-25.17"/>
<polygon fill="midnightblue" stroke="midnightblue" points="421.44,-31.92 431.79,-29.63 422.27,-24.97 421.44,-31.92"/>
</g>
<!-- Node4 -->
<g id="node4" class="node">
<title>Node4</title>
<g id="a_node4"><a xlink:href="classcom_1_1example_1_1renderer_1_1visitor_1_1JSONExportVisitorTest.html#a38f4d5f545cd31fa486d91d535a4fd9c" target="_top" xlink:title=" ">
<polygon fill="white" stroke="black" points="0,-0.5 0,-30.5 194,-30.5 194,-0.5 0,-0.5"/>
<text text-anchor="start" x="8" y="-18.5" font-family="Helvetica,sans-Serif" font-size="10.00">com.example.renderer.visitor.</text>
<text text-anchor="middle" x="97" y="-7.5" font-family="Helvetica,sans-Serif" font-size="10.00">JSONExportVisitorTest.testVisitCircle</text>
</a>
</g>
</g>
<!-- Node3&#45;&gt;Node4 -->
<g id="edge3" class="edge">
<title>Node3&#45;&gt;Node4</title>
<path fill="none" stroke="midnightblue" d="M221.29,-15.5C212.27,-15.5 203.09,-15.5 194.01,-15.5"/>
<polygon fill="midnightblue" stroke="midnightblue" points="221.4,-19 231.4,-15.5 221.4,-12 221.4,-19"/>
</g>
</g>
</svg>
