<?xml version="1.0" encoding="UTF-8" standalone="no"?>
<!DOCTYPE svg PUBLIC "-//W3C//DTD SVG 1.1//EN"
 "http://www.w3.org/Graphics/SVG/1.1/DTD/svg11.dtd">
<!-- Generated by graphviz version 2.43.0 (0)
 -->
<!-- Title: com.example.renderer.bridge.Renderer.drawRectangle Pages: 1 -->
<svg width="689pt" height="159pt"
 viewBox="0.00 0.00 689.00 159.00" xmlns="http://www.w3.org/2000/svg" xmlns:xlink="http://www.w3.org/1999/xlink">
<g id="graph0" class="graph" transform="scale(1 1) rotate(0) translate(4 155)">
<title>com.example.renderer.bridge.Renderer.drawRectangle</title>
<polygon fill="white" stroke="transparent" points="-4,4 -4,-155 685,-155 685,4 -4,4"/>
<!-- Node1 -->
<g id="node1" class="node">
<title>Node1</title>
<g id="a_node1"><a xlink:title=" ">
<polygon fill="#bfbfbf" stroke="black" points="517,-61 517,-91 681,-91 681,-61 517,-61"/>
<text text-anchor="start" x="525" y="-79" font-family="Helvetica,sans-Serif" font-size="10.00">com.example.renderer.bridge.</text>
<text text-anchor="middle" x="599" y="-68" font-family="Helvetica,sans-Serif" font-size="10.00">Renderer.drawRectangle</text>
</a>
</g>
</g>
<!-- Node2 -->
<g id="node2" class="node">
<title>Node2</title>
<g id="a_node2"><a xlink:href="classcom_1_1example_1_1renderer_1_1proxy_1_1RemoteRendererProxy.html#a230d74acbb60e51bc56724f50459d6bd" target="_top" xlink:title=" ">
<polygon fill="white" stroke="black" points="256,-113 256,-143 457,-143 457,-113 256,-113"/>
<text text-anchor="start" x="264" y="-131" font-family="Helvetica,sans-Serif" font-size="10.00">com.example.renderer.proxy.</text>
<text text-anchor="middle" x="356.5" y="-120" font-family="Helvetica,sans-Serif" font-size="10.00">RemoteRendererProxy.drawRectangle</text>
</a>
</g>
</g>
<!-- Node1&#45;&gt;Node2 -->
<g id="edge1" class="edge">
<title>Node1&#45;&gt;Node2</title>
<path fill="none" stroke="midnightblue" d="M518.55,-93.18C488.93,-99.58 455.56,-106.8 426.91,-112.99"/>
<polygon fill="midnightblue" stroke="midnightblue" points="519.4,-96.57 528.44,-91.04 517.92,-89.73 519.4,-96.57"/>
</g>
<!-- Node4 -->
<g id="node4" class="node">
<title>Node4</title>
<g id="a_node4"><a xlink:href="classcom_1_1example_1_1renderer_1_1factory_1_1Rectangle.html#ade17894b1162081c6948522ddbd325b4" target="_top" xlink:title=" ">
<polygon fill="white" stroke="black" points="273.5,-61 273.5,-91 439.5,-91 439.5,-61 273.5,-61"/>
<text text-anchor="start" x="281.5" y="-79" font-family="Helvetica,sans-Serif" font-size="10.00">com.example.renderer.factory.</text>
<text text-anchor="middle" x="356.5" y="-68" font-family="Helvetica,sans-Serif" font-size="10.00">Rectangle.render</text>
</a>
</g>
</g>
<!-- Node1&#45;&gt;Node4 -->
<g id="edge3" class="edge">
<title>Node1&#45;&gt;Node4</title>
<path fill="none" stroke="midnightblue" d="M506.9,-76C484.88,-76 461.47,-76 439.87,-76"/>
<polygon fill="midnightblue" stroke="midnightblue" points="506.91,-79.5 516.91,-76 506.91,-72.5 506.91,-79.5"/>
</g>
<!-- Node6 -->
<g id="node6" class="node">
<title>Node6</title>
<g id="a_node6"><a xlink:href="classcom_1_1example_1_1renderertest_1_1adapter_1_1LegacyRendererAdapterTest.html#afd2bf75927b5a465f7049a5408cfdb43" target="_top" xlink:title=" ">
<polygon fill="white" stroke="black" points="232,-0.5 232,-41.5 481,-41.5 481,-0.5 232,-0.5"/>
<text text-anchor="start" x="240" y="-29.5" font-family="Helvetica,sans-Serif" font-size="10.00">com.example.renderertest.adapter.</text>
<text text-anchor="start" x="240" y="-18.5" font-family="Helvetica,sans-Serif" font-size="10.00">LegacyRendererAdapterTest.testDrawRectangle</text>
<text text-anchor="middle" x="356.5" y="-7.5" font-family="Helvetica,sans-Serif" font-size="10.00">_ForwardsToLegacyRenderer</text>
</a>
</g>
</g>
<!-- Node1&#45;&gt;Node6 -->
<g id="edge5" class="edge">
<title>Node1&#45;&gt;Node6</title>
<path fill="none" stroke="midnightblue" d="M522.29,-58.68C498.55,-53.26 472.11,-47.21 447.48,-41.58"/>
<polygon fill="midnightblue" stroke="midnightblue" points="521.75,-62.15 532.28,-60.97 523.31,-55.33 521.75,-62.15"/>
</g>
<!-- Node3 -->
<g id="node3" class="node">
<title>Node3</title>
<g id="a_node3"><a xlink:href="classcom_1_1example_1_1renderer_1_1proxy_1_1RemoteRendererProxyTest.html#a785672431f7951f8d26c27fece370ad8" target="_top" xlink:title=" ">
<polygon fill="white" stroke="black" points="0,-109.5 0,-150.5 196,-150.5 196,-109.5 0,-109.5"/>
<text text-anchor="start" x="8" y="-138.5" font-family="Helvetica,sans-Serif" font-size="10.00">com.example.renderer.proxy.</text>
<text text-anchor="start" x="8" y="-127.5" font-family="Helvetica,sans-Serif" font-size="10.00">RemoteRendererProxyTest.testProxy</text>
<text text-anchor="middle" x="98" y="-116.5" font-family="Helvetica,sans-Serif" font-size="10.00">CallsRealRenderer</text>
</a>
</g>
</g>
<!-- Node2&#45;&gt;Node3 -->
<g id="edge2" class="edge">
<title>Node2&#45;&gt;Node3</title>
<path fill="none" stroke="midnightblue" d="M245.8,-128.86C229.37,-128.98 212.52,-129.11 196.37,-129.24"/>
<polygon fill="midnightblue" stroke="midnightblue" points="245.99,-132.35 255.96,-128.78 245.94,-125.35 245.99,-132.35"/>
</g>
<!-- Node5 -->
<g id="node5" class="node">
<title>Node5</title>
<g id="a_node5"><a xlink:href="classcom_1_1example_1_1renderer_1_1factory_1_1RectangleTest.html#ab90a641f0c1178b4bd8bc53359719538" target="_top" xlink:title=" ">
<polygon fill="white" stroke="black" points="15,-60 15,-90 181,-90 181,-60 15,-60"/>
<text text-anchor="start" x="23" y="-78" font-family="Helvetica,sans-Serif" font-size="10.00">com.example.renderer.factory.</text>
<text text-anchor="middle" x="98" y="-67" font-family="Helvetica,sans-Serif" font-size="10.00">RectangleTest.testRender</text>
</a>
</g>
</g>
<!-- Node4&#45;&gt;Node5 -->
<g id="edge4" class="edge">
<title>Node4&#45;&gt;Node5</title>
<path fill="none" stroke="midnightblue" d="M263.14,-75.64C236.36,-75.54 207.31,-75.42 181.19,-75.32"/>
<polygon fill="midnightblue" stroke="midnightblue" points="263.27,-79.14 273.28,-75.68 263.3,-72.14 263.27,-79.14"/>
</g>
</g>
</svg>
